<svg xmlns="http://www.w3.org/2000/svg" xml:space="preserve" width="660mm" height="660mm" version="1.0" style="shape-rendering:geometricPrecision; text-rendering:geometricPrecision; image-rendering:optimizeQuality; fill-rule:evenodd; clip-rule:evenodd"
viewBox="0 0 66000 66000"
 xmlns:xlink="http://www.w3.org/1999/xlink">
 <defs>
  <style type="text/css">
   <![CDATA[
    .str0 {stroke:black;stroke-width:7.62;stroke-linejoin:bevel;stroke-miterlimit:22.9256}
    .fil0 {fill:none}
   ]]>
  </style>
 </defs>
 <g id="parks">
  <path class="fil0 str0" d="M11882.56 64858.51l-1382.56 8.54 -3000 18.55 -3000 18.54 -2611.86 16.15 -18.35 -3000 -2.96 -484.82 1880.02 -296.42 753.15 276.23 907.49 332.84 2092.51 -364.22 2955.48 -514.43 44.52 62.08 579.41 807.93 46.56 180.81 756.59 2938.22z"/>
  <path class="fil0 str0" d="M52161.47 64609.51l-2661.47 16.46 -3000 18.54 -3000 18.55 -3000 18.54 -3000 18.55 -3000 18.54 -3000 18.55 -3000 18.54 -3000 18.55 -3000 18.54 -3000 18.55 -3000 18.54 -1137.56 7.04 -537.28 -2916.71 -217.16 -1178.88 354.08 -1821.12 64.55 -332 1034.85 -1461.19 134.42 -1206.81 173.05 -1553.66 131.05 -79.09 774.46 -467.38 1586.37 65.62 639.17 26.38 1783.3 73.59 273.92 -1065.46 259.18 -1008.16 -844.32 -970.29 -128.87 -1021.55 -4.32 -34.25 1661.11 -1582.23 909.92 -866.71 625.04 -516.81 1465.04 -1211.34 1230.4 -1017.33 1264.78 -771.33 504.82 -307.87 1038.91 -633.58 1961.09 177.88 3000 272.12 3000 272.11 2418.15 219.34 391.39 35.5 190.46 66.99 3000 1055.16 3000 1055.16 2183.73 768.06 88.94 19.13 727.33 156.46 3000 645.36 759.45 163.38 2240.55 1788.71 308.26 246.09 216.85 173.12 -525.11 1927.43 -245.05 899.45 -265.94 976.13 -346.09 2023.87 -23.81 139.24 -786.86 2345.69 -60.04 515.07 -261.55 2243.65 -397.96 756.35 -553.65 1052.26 -59.05 243.13 -338.53 1393.83z"/>
  <path class="fil0 str0" d="M65151.14 45759.18l7.26 1161.11 3.29 526.07 -661.69 -45.73 -1872.16 -129.37 24.43 -350.97 92.33 -1326.55 1755.4 120.68 651.14 44.76z"/>
  <path class="fil0 str0" d="M47201.72 28230.67l269.33 -2040.31 2028.95 123.33 3000 182.35 2306.02 140.17 -197.49 2251.56 -2108.53 -187.06 -3000 -266.15 -2298.28 -203.89z"/>
  <path class="fil0 str0" d="M58978.84 29638.31l28.57 -718.02 92.38 -2322.04 2400.21 95.67 937.89 37.38 -87.07 2188.99 -33.85 851.06 -816.97 -32.56 -2521.16 -100.48z"/>
  <path class="fil0 str0" d="M37902.15 40523.87l180.37 -2603.58 207.83 -3000 128.04 -1848.18 53.08 -766.92 189.84 -384.9 478.7 -970.56 728.91 -678.77 631.08 -168.43 663.91 -177.19 1523.4 159.35 812.69 577.4 207.48 147.42 493.05 1110.78 79.53 179.16 62.62 1126.18 -130.99 1694.66 -231.89 3000 -231.88 3000 -31.88 412.47 -216.04 454.91 -507.1 1067.82 -899.26 568.86 -1578.43 122.63 -15.21 -3.86 -1284 -325.69 -964.86 -950.86 -269.6 -1346.28 -79.39 -396.42z"/>
  <path class="fil0 str0" d="M65263.78 63780.88l4.67 747.61 -76.27 0.47 24.13 -750.31 47.47 2.23z"/>
  <path class="fil0 str0" d="M38723.84 6621.14l89.22 -355.87 194.15 -310.82 281.64 -235.82 372.51 -145.93 400.34 -12.74 380.79 122.61 57.51 43.64 260.68 197.79 219.62 334.37 94.39 388.3 -41.6 397.54 -171.81 360.12 -282.45 282.45 -78.83 37.32 -282.52 133.72 -397.95 41.64 -389.42 -93.65 -310.2 -195.78 -234.72 -282.06 -137.06 -341.41 -24.29 -365.42z"/>
  <path class="fil0 str0" d="M65180.57 50467.88l8.38 1340.18 -688.95 -38.62 -3000 -168.18 -1354.05 -75.91 112.31 -1333.36 1241.74 69.6 3000 168.14 680.57 38.15z"/>
  <path class="fil0 str0" d="M60178.37 60341.82l100.26 -1421.53 120.38 -1706.81 1100.99 76.99 980.41 68.56 -109.83 1561.26 -110.25 1567.07 -760.33 -53.15 -1321.63 -92.39z"/>
 </g>
 <g id="outline">
  <metadata id="CorelCorpID_1Corel-Layer"/>
  <path class="fil0 str0" d="M10565.76 61524.93l-0.69 13.38 -45.43 381.98 -19.64 165.18 -1.8 15.12 -14.64 41.42 -488.77 777.38 -12.51 16.01 -1078.37 1123.62 -524.36 861.27 -7.58 12.45 -26.4 28.73 -35.38 16.44 -38.99 1.64 -36.64 -13.4 -28.73 -26.4 -9.04 -19.46 -7.4 -15.93 -1.64 -38.98 13.39 -36.65 537.63 -883.06 13.26 -17.24 1078.88 -1124.14 471.35 -749.68 15.98 -134.32 47.44 -398.93 -10.19 -650.32 7.02 -38.38 21.16 -32.78 32.1 -22.18 38.15 -8.22 38.38 7.02 7.7 4.97 25.08 16.19 22.18 32.1 8.21 38.15 10.29 657.02z"/>
  <path class="fil0 str0" d="M4234.9 35971.89l-36.67 7.2 -2486.98 14.52 -38.31 -7.39 -32.57 -21.49 -21.87 -32.31 -7.83 -38.23 7.39 -38.31 21.49 -32.57 32.31 -21.86 38.22 -7.84 2446.44 -14.28 343.48 -337.25 531.43 -521.79 411.36 -403.89 1710.01 -2596.11 347.2 -527.12 351.13 -533.08 1.02 -1939.8 0.08 -152.25 -352.23 -507.11 -1625.77 -2340.64 -1374.23 -1978.49 -575.6 -828.7 -13.38 0.14 -1614.71 42.48 -2.58 0.06 -659.42 8.85 -76.74 -14.2 -57.57 -37.36 -7.89 -5.12 -44.22 -64.29 -16.25 -76.33 8.7 -47.04 5.49 -29.69 42.48 -65.46 11.69 -8.04 52.61 -36.18 76.33 -16.25 568.63 -7.64 20.02 -605 -35.48 -23.56 -43.54 -64.76 -15.45 -76.49 -6.01 -2066.93 -8.72 -3000 -0.65 -224.12 -512.34 8.38 -76.78 -13.97 -18.62 -12.01 -46.96 -30.28 -44.42 -64.16 -16.47 -76.28 13.97 -76.78 42.29 -65.58 51.59 -35.71 12.57 -8.7 76.28 -16.48 715.03 -11.69 831.29 -12.55 9.05 -0.14 374.64 -606.93 1.2 -1.89 979.94 -1510.74 155.92 -240.37 203.14 -313.18 -359.06 -532.41 -1003.95 -1488.62 -1929.95 80.5 -38.55 -6.01 -27.55 -16.79 -5.77 -3.51 -23.01 -31.51 -9.2 -37.92 6.01 -38.55 20.31 -33.32 11.66 -8.52 19.85 -14.49 37.92 -9.2 1808.09 -75.43 -314.01 -471.04 -1128.01 -1692.09 -278.74 720.99 -20.9 32.95 -31.92 22.44 -38.08 8.52 -38.44 -6.7 -15.76 -10 -17.18 -10.9 -22.45 -31.92 -8.52 -38.07 6.7 -38.44 41.45 -107.21 245.62 -635.3 -31.23 -47.99 -14.28 -76.72 13.35 -1089.56 18.29 -1493.75 -195.27 12.73 -36.48 -4.82 -2.2 -0.29 -33.79 -19.52 -23.74 -30.96 -10.08 -37.7 5.1 -38.68 19.52 -33.78 30.97 -23.74 14.22 -3.81 23.47 -6.28 109.28 -7.12 -132.75 -189.88 -137.66 -196.89 -31.37 -71.45 -1.65 -78.02 28.33 -72.71 54.01 -56.33 71.45 -31.38 16.89 -0.36 61.13 -1.29 72.71 28.34 56.33 54 342.37 489.7 2467.46 -160.74 3000 -195.44 105.38 -6.86 -23.66 -822.97 -68.16 -2370.71 -13.56 -0.15 -1394.83 -15.02 -16.99 -0.91 -1588.18 -152.71 -901.1 -86.64 -31.98 -9.62 -28.47 -6.82 -1965.73 1445.35 -35.34 16.53 -37.38 1.68 -1.6 0.08 -36.68 -13.3 -28.8 -26.32 -16.54 -35.34 -1.75 -38.98 13.3 -36.68 26.32 -28.81 45.75 -33.64 1922.54 -1413.59 -4.35 -27.33 6.44 -167.07 19.45 -504.48 18.16 -75.9 45.82 -63.16 66.51 -40.83 77.07 -12.26 75.89 18.16 63.17 45.82 40.82 66.51 12.26 77.07 -18.61 482.84 64.81 6.23 610.02 58.66 1510.25 145.22 2.85 -203.88 7.17 -513.48 8.15 -38.16 22.12 -32.14 32.75 -21.22 38.37 -7.08 38.16 8.15 32.13 22.13 21.22 32.74 7.08 38.37 -7.13 510.69 -3.01 215.23 1289.89 13.89 86.94 0.94 119.05 -230.06 319.22 -616.88 48.69 -60.98 68.33 -37.7 77.55 -8.68 74.97 21.65 60.98 48.7 37.7 68.32 8.68 77.55 -21.65 74.97 -224.09 433.05 -247.01 477.34 72.53 2522.66 22.9 796.71 625.5 -41.47 19.54 -755.24 20.03 -774.1 0.16 -2.67 0.24 -4 50.12 -539.34 3.04 -16.86 266.97 -987 4.23 -676.03 3.33 -531.12 7.85 -38.22 21.88 -32.31 32.58 -21.47 38.31 -7.37 38.22 7.85 32.31 21.88 21.47 32.57 7.37 38.32 -3.31 529.87 -4.33 690.25 -3.46 25.48 -268.12 991.23 -39.71 427.42 1169.61 64.79 451.38 25.01 522.98 28.99 152.23 -2253.17 38.22 -565.65 30.52 -113 71.44 -92.72 101.49 -58.33 116.09 -15.04 113 30.52 92.72 71.44 58.33 101.49 15.04 116.09 -35.48 525.2 -154.49 2286.48 1039.21 58 1.78 0.11 836.92 61.71 218.13 16.08 148.24 -2422.38 34.7 -566.92 9.93 -37.73 23.62 -31.06 33.7 -19.65 38.67 -5.26 37.73 9.93 31.06 23.62 19.65 33.71 5.26 38.66 -33.94 554.7 -150.45 2458.4 1167.46 379.74 78.55 -1442.97 53.29 -83.06 782.64 -411.72 57.82 -900.39 37.31 -580.77 10.05 -37.7 23.71 -30.99 33.76 -19.55 38.68 -5.14 37.7 10.04 24.16 18.49 4.83 -6.05 34.16 -18.84 38.78 -4.34 160.8 13.7 1642.1 139.91 659.74 55.37 10.52 -133.17 10.6 -37.55 24.16 -30.64 34.05 -19.05 38.75 -4.58 37.55 10.6 30.63 24.17 19.06 34.04 4.58 38.75 -10.61 134.28 498.87 42.5 1417.26 120.74 1582.74 64.31 1855.4 75.39 -210.69 -434.35 -9.85 -37.76 5.34 -38.65 19.73 -33.66 31.11 -23.55 37.75 -9.85 38.65 5.34 33.67 19.73 23.55 31.11 257.63 531.13 917.71 41.48 2104.62 95.11 895.38 40.46 2031.43 91.81 968.57 17.03 1375.66 24.19 994.31 -165.88 12.89 -7.61 538.04 -317.72 79.1 -156.17 131.79 -260.2 24.09 -30.7 33.99 -19.14 38.74 -4.68 37.58 10.5 30.7 24.08 19.14 34 4.68 38.73 -10.5 37.58 -224.1 442.44 -38.36 40.92 -47.75 28.2 -223.81 132.16 -320.55 189.29 -34.39 12.53 -1021.72 170.45 -18.22 1.35 -1381.31 -24.29 -875.64 -15.4 -59.63 1513.79 935.27 -7.94 3000 -25.48 401 -3.4 1.83 0.35 1.43 -0.33 321.92 7.79 35.95 -47 2041.99 -1771.71 89.6 -77.74 31.57 -10.92 1.15 -373.64 0.05 -3.03 8.16 -244.3 8.88 -38 22.75 -31.7 33.15 -20.58 38.5 -6.33 37.99 8.88 31.7 22.75 20.58 33.15 6.34 38.5 -8.11 242.79 -1.04 338.18 2489.37 121.99 385.24 18.88 3000 147.01 1423.13 69.74 15.17 -235.63 49.36 -766.46 20.11 -75.4 47.44 -61.97 67.53 -39.09 77.36 -10.27 75.4 20.11 61.97 47.43 39.09 67.54 10.27 77.36 -39.76 617.48 276.64 -442.98 132.62 -239.81 25.18 -29.81 34.67 -17.9 38.88 -3.27 37.18 11.86 29.8 25.18 17.9 34.67 3.27 38.88 -11.86 37.18 -133.9 242.13 -2.69 4.58 -288.88 462.56 -185.92 297.71 -10.32 160.17 -0.51 1.94 -148.89 1960.17 119.83 365.2 300.87 214.81 11.15 7.96 907.91 72.29 3000 238.86 3000 238.87 2677.68 213.2 322.32 -66.34 148.22 -30.5 377.44 -207.98 49.28 -19.18 448.74 -109.11 31.05 -5 695.82 -56.56 14.96 -0.66 1068 -6.66 17.76 -269.19 44.27 -671.52 -1965.33 -436.48 -71.41 -31.46 -53.94 -56.39 -28.26 -72.74 1.73 -78.02 31.46 -71.41 56.39 -53.94 72.74 -28.26 78.02 1.73 1900.33 422.05 28.24 -652.63 -590.57 -146.21 -81.29 -41.6 -269.65 -228.67 -67.55 -117.44 -87.32 -490 -2.63 -48.76 13.58 -198.25 57.82 -844.12 20.42 -75.32 47.69 -61.77 67.7 -38.82 77.39 -9.96 75.32 20.42 61.77 47.69 38.82 67.7 9.96 77.4 -55.95 816.78 -13.78 201.05 70.38 394.9 178.97 151.77 472.8 117.05 30.61 -426.3 31.48 -438.47 60.62 -844.26 10.34 -37.62 23.94 -30.81 33.91 -19.3 38.72 -4.85 37.62 10.33 30.81 23.95 19.3 33.91 4.85 38.72 -59.59 829.93 -65.31 909.52 431.48 81.83 70.23 -991.35 60.62 -855.78 20.59 -75.27 47.83 -61.66 67.79 -38.66 77.42 -9.78 75.27 20.59 61.66 47.83 38.66 67.79 9.78 77.42 -58.62 827.52 -88.11 1243.87 -77.45 1093.44 -46.72 662.69 -35.25 499.8 -177.36 2500.2 -54.85 773.19 2410.34 139.54 1381.53 79.98 87.22 -992.71 154.44 -1757.84 109.16 -1242.16 165.95 -1888.36 97.36 -1111.64 77.59 -885.95 21.84 -74.92 48.85 -60.86 68.42 -37.52 77.58 -8.49 74.91 21.84 60.86 48.85 37.53 68.42 8.48 77.57 -74.53 851.06 -91.06 1039.63 667.8 34.05 26.07 -3.14 372.22 -44.84 38.91 2.98 34.8 17.64 25.4 29.61 12.13 37.09 -2.98 38.9 -17.64 34.8 -29.61 25.41 -37.09 12.13 -396.14 47.72 -10.65 1.29 -17.05 0.58 -683.65 -34.85 -154.76 1761 -94.41 1074.4 960.52 67.38 418.46 29.35 75.29 20.54 61.69 47.79 38.71 67.76 9.83 77.41 -20.54 75.29 -47.79 61.69 -67.76 38.71 -77.42 9.83 -390.47 -27.39 -995.54 -69.83 -134.17 1527.07 -107.28 1221.1 -210.79 182.16 -1552.22 -89.86 -2438.64 -141.17 -129.53 1827.77 -86.73 1223.95 2654.9 160.58 3000 181.46 456.68 27.62 75.48 19.82 62.15 47.19 39.36 67.39 10.57 77.31 -19.81 75.48 -47.2 62.15 -67.38 39.36 -77.32 10.57 -432.53 -26.16 -3000 -181.46 -2683.08 -162.29 -67.56 960.29 -29.58 416.74 -112.72 1587.82 2874.86 207.94 4.41 0.42 13.67 1.6 3000 351.27 478.18 55.99 37.13 12.01 29.7 25.31 17.75 34.74 3.11 38.89 -12.01 37.13 -25.3 29.7 -34.74 17.75 -38.9 3.11 -454.92 -53.26 -3000 -351.27 -34.72 -4.07 -2872.42 -207.76 -43.01 602.54 -43.13 610.14 -6.72 95 -31.43 444.58 31.43 3.93 3000 374.79 3000 374.79 505.41 63.15 74.06 24.59 59.01 51.06 34.98 69.76 5.62 77.84 -24.6 74.06 -51.06 59.01 -69.76 34.97 -77.84 5.62 -455.82 -56.95 -3000 -374.79 -3000 -374.79 -59.71 -7.46 -145.97 2060.84 -212.49 3000 -67.55 953.64 -135.02 1903.1 620.74 14.38 2817.33 65.31 153.88 -1807.33 28.79 -348.94 64.36 -780.16 95.26 -1154.79 21.47 -75.02 48.54 -61.1 68.23 -37.88 77.53 -8.88 75.03 21.47 61.1 48.54 24.55 44.24 2463.93 212.82 511.59 44.19 37.47 10.87 30.46 24.39 18.8 34.19 4.29 38.78 -10.87 37.47 -24.39 30.46 -34.19 18.8 -38.78 4.29 -494.38 -42.7 -2450.02 -211.61 -84.26 1021.47 -79.36 961.92 1515.33 117.36 1098.31 82.1 532.06 39.76 75.19 20.89 61.47 48.07 38.4 67.94 9.48 77.46 -20.89 75.18 -48.07 61.48 -67.93 38.39 -77.46 9.48 -502.25 -37.54 -1128.39 -84.34 -1518.65 -117.62 -139.6 1639.47 -13.42 157.7 -199.94 179.41 -3.98 3.57 -2996.02 -69.45 -649.05 -15.04 -194.25 2743.81 -52.85 746.59 538.17 281.47 357.98 27.04 3000 226.65 306.8 23.17 75.17 20.95 61.43 48.12 38.35 67.97 9.41 77.46 -20.95 75.17 -33.02 42.17 420.21 1363.24 8.29 26.9 1844.38 1975.85 289.93 27.94 587.91 56.65 37.36 11.25 30.22 24.69 18.46 34.37 3.91 38.82 -11.25 37.36 -24.69 30.22 -34.37 18.46 -38.82 3.91 -568.73 -54.81 -346.79 -33.42 -63.51 -31.3 -1885.9 -2020.32 -22.46 -38.78 -33.23 -107.79 -400.22 -1298.39 -247.89 -18.72 -3000 -226.65 -429.22 -32.42 -77.62 -22.21 -420.14 -219.73 -128.76 1818.12 -212.46 3000 -212.46 3000 -96.11 1357.14 1576.77 115.4 3000 219.56 1597.59 116.92 110.1 -1809.02 107.39 -1764.5 209.02 -187.63 975.9 45.87 601.05 28.26 75.74 18.8 62.78 46.35 40.26 66.85 11.61 77.17 -18.8 75.73 -46.35 62.78 -66.85 40.26 -77.17 11.61 -582.27 -27.36 -797.64 -37.5 -93.93 1543.31 -112.08 1841.47 1003.65 90.27 633.74 56.99 74.86 22.02 60.75 48.99 37.36 68.51 8.31 77.59 -22.02 74.87 -48.99 60.74 -68.51 37.37 -77.59 8.3 -597.91 -53.77 -1231.34 -110.74 -1768.66 -129.44 -3000 -219.56 -1605.05 -117.47 -88.19 1243.86 -97.84 1379.82 290.8 870.53 398.81 749.65 613.62 1153.45 487.85 857.1 563.18 989.45 250.95 440.9 2185.87 105.15 3000 144.31 673.78 32.41 75.71 18.89 62.73 46.42 40.19 66.89 11.53 77.18 -18.89 75.72 -46.42 62.73 -66.89 40.18 -77.18 11.53 -654.56 -31.49 -3000 -144.31 -2314.91 -111.36 -164.21 -100.83 -417.96 -734.32 -102.92 -180.82 -712.63 -1252.04 -232.52 213.78 -134.34 510.99 -23.54 708.09 -99.73 3000 1202.76 678.6 654.93 369.29 13.1 165.4 -668.03 530.91 -990.36 787.09 990.36 62.48 1356.92 85.62 1643.08 103.76 3000 189.44 433.98 27.41 275.88 17.42 75.43 20.02 62.02 47.36 39.18 67.48 10.37 77.35 -20.02 75.42 -47.36 62.03 -67.48 39.18 -77.35 10.37 -684.65 -43.24 -3000 -189.45 -1471.22 -92.9 -43.57 572.82 -103.79 1374.29 -53.47 701.72 -19.7 260.13 -68.33 902.38 -3.09 40.82 1510.44 1522.51 1.03 1.05 251.7 261.24 262.06 272 1345.79 1396.79 2.55 2.76 949.19 1062.34 159.9 -2461.89 36.36 -559.78 210.44 -186.74 33.71 1.83 741.1 40.29 75.6 19.36 62.44 46.81 39.76 67.15 11.05 77.25 -19.36 75.6 -46.81 62.43 -67.14 39.77 -77.25 11.04 -577.21 -31.38 -21.85 336.37 -120.33 1852.72 -63.07 971.04 -11.23 176.24 -8.17 128.19 82.47 5.4 767.62 50.28 75.38 20.19 61.91 47.51 39.02 67.58 10.19 77.36 -20.19 75.38 -47.51 61.91 -67.58 39.03 -77.36 10.18 -741.48 -48.56 -108.18 -7.08 -0.41 6.29 108.59 298.15 81.7 224.31 706.6 732.83 9.3 11.16 47.87 66.82 16.1 35.54 1.28 38.99 -13.75 36.52 -26.67 28.48 -35.54 16.1 -39 1.27 -36.52 -13.74 -28.47 -26.68 -43.63 -60.89 -639.27 -662.99 -77 -79.85 -21.97 -35.19 -41.9 -115.05 -104.13 1599.25 -20.16 75.39 -47.48 61.93 -67.56 39.05 -77.37 10.22 -75.38 -20.17 -61.93 -47.48 -39.05 -67.56 -10.22 -77.37 149.8 -2300.84 19.24 -301.86 12.86 -201.8 3.67 -56.48 -1078.91 -1207.51 -1462.51 -1517.95 -15.66 -16.26 -379.56 -393.95 -1387.93 -1399.02 -135.78 1792.97 -227.19 3000 -103.55 1367.32 -98.14 1295.03 -20.96 75.17 -48.14 61.42 -67.97 38.33 -77.47 9.4 -75.17 -20.97 -61.42 -48.13 -38.33 -67.97 -9.39 -77.47 82.38 -1087.09 -335.72 -11.38 -2662.98 -90.26 -75.98 -17.81 -63.38 -45.53 -41.13 -66.32 -12.62 -77 17.81 -75.98 45.52 -63.38 11.32 -7.02 -63.48 -405.01 -155.08 0.97 -223 1.39 -2661.56 1852.19 -36.67 168.6 -15.57 35.78 -28.08 27.09 -35.12 13.82 -1.19 0.47 -39.01 -0.7 -35.77 -15.57 -27.1 -28.07 -14.29 -36.31 0.7 -39.01 34.78 -159.91 -1246.14 -1528.71 -1671.98 50.01 -2018.17 60.36 -981.83 29.98 -589.93 18.01 -40.22 -7.11 -2369.85 -948.71 -449.44 -179.92 -1189.31 -476.11 -1361.25 -351.47 -2247.96 -580.42 -27.41 -11.67 -724.63 -446.01 -277.45 -170.76 -386.1 540.02 582.49 355.09 81.06 26.03 3000 963.14 473.94 152.16 2526.06 810.99 1989.61 638.76 15.53 6.47 994.86 516.84 1260.65 654.91 30.45 24.4 18.8 34.19 4.28 38.78 -10.89 37.47 -24.39 30.45 -34.2 18.8 -38.78 4.28 -37.47 -10.89 -1168.45 -607.01 -1079.57 -560.84 -1920.43 -616.56 -3000 -963.14 -180.34 -57.9 -2819.66 -905.25 -153.53 -49.29 -21.48 -9.83 -605.21 -368.94 -537.15 750.55 -238.89 582.76 -932.42 2274.56 610.11 435.9 26.71 28.44 13.8 36.5 -1.22 39 -16.06 35.56 -28.44 26.71 -36.5 13.8 -38.99 -1.22 -35.57 -16.05 -571.72 -408.48 -151.62 370.4 -21.54 32.53 -32.35 21.81 -38.24 7.77 -38.3 -7.45 -32.53 -21.54 -21.81 -32.36 -7.78 -38.23 7.46 -38.3 169.51 -414.11 -266.24 -190.33 -2044.09 -1461.21 -15.46 -13.66 -625.28 -680.04 -315.17 -342.76 -759.24 -825.72 -833.53 -718.63 -1099.83 -438.53 -307.4 -15.04 -945.45 -46.26 -6.87 -0.57 -1975.64 -234.02 -17.42 -3.66 -54.62 -16.67 -1173.53 -358.14 -467.2 -142.58 -12.98 -4.98 -964.03 -448.31 503.64 595.87 1412.39 1671.03 8.77 12.1 692.94 1124.97 118.21 191.9 613.8 996.49 3.61 6.38 931.79 1795.34 10.88 37.48 -4.3 38.78 -18.81 34.18 -30.46 24.39 -37.47 10.87 -38.78 -4.3 -34.19 -18.81 -24.38 -30.46 -930.1 -1792.08 -559.8 -908.82 -116.69 -189.44 -742.61 -1205.59 -1516.67 -1794.41 -624.03 -738.3 -63.42 -75.04 -1849.31 -2186.66 -586.75 -693.79 -500.52 -395.86 -601.07 -475.39 -81.01 606.8 -87.01 958.24 -8.67 95.46 514.34 775.97 5.76 9.89 257.66 506.15 163.74 321.66 591.4 582.68 16.01 20.54 391.89 666.25 0.59 21.4 2.07 75.16 -409.64 793.76 -96.45 1062.24 98.46 1068.84 11.99 130.25 288.13 492.86 1238.47 608.87 703.34 257.94 1552.5 569.37 17.61 8.5 1153.42 702.88 28.72 26.42 16.42 35.39 1.63 38.99 -13.41 36.64 -26.42 28.71 -35.39 16.43 -38.99 1.63 -36.64 -13.42 -1145.03 -697.78 -1474.42 -540.73 -777.15 -285.02 -9.69 -4.14 -563.52 -277.04 927.94 796.85 422.42 280.54 858.55 570.17 27.66 27.52 15.04 36 0.11 39.02 -14.83 36.09 -27.52 27.67 -36 15.03 -39.02 0.11 -36.09 -14.83 -747.9 -496.69 -538.21 -357.43 -9.83 -7.44 -1520.4 -1305.63 -557.1 -273.47 -2.48 -1.26 -371.98 -195.64 -595.8 -313.36 -894.9 -470.67 191.32 470.67 1160.5 2854.9 7.36 38.32 -7.87 38.22 -21.89 32.3 -32.58 21.46 -38.32 7.36 -38.22 -7.87 -32.3 -21.89 -21.46 -32.58 -1191.11 -2930.22 -261.81 -644.07 -1222.92 -2287.34 -36.67 -68.59 -663.2 -1240.45 -7.65 -18.58 -518.83 -1740.97 -894.06 -3000 -303.59 -1018.71 -118.83 -64.21 -22.74 -16.84 -434.43 -429.15 -136.94 -135.28 -8.86 -10.01 -290.39 -375.91 -5.74 -8.26 -229.75 -368.83 -6.99 -13.36 -115.23 -267.92 -224.02 -3.41 2.66 110.8 9.07 248.27 46.42 353.31 372.14 1999.51 558.34 3000 29.29 157.36 529.06 2842.64 558.34 3000 539.82 2900.47 -0.48 39.01 -15.38 35.87 -25.27 24.65 -2.66 2.59 -36.23 14.49 -39.01 -0.48 -35.86 -15.38 -1.19 -1.22 -26.06 -26.71 -14.49 -36.23 -546.63 -2937.06 -558.34 -3000 -325.62 -1749.58 -232.72 -1250.42 -558.34 -3000 -365.82 -1965.54 -0.84 -5.27 -47.38 -360.62 -0.78 -9.38 -9.27 -253.6 -0.04 -1.25 -5.18 -215.4 -0.02 -1.28 -2.09 -187.66 -0.48 -42.27 -534.12 -3.02 -396.01 1.41 8.7 43.88 528.52 2664.99 0.63 3.24 62.02 331.77 560.82 3000 320.29 1713.32 -0.02 1.16 0.42 1.07 230.07 1284.45 441.64 2465.6 95.72 534.4 48.99 273.5 502.01 2595.57 -0.62 117.06 -5.83 13.87 -39.54 94.03 -83.21 82.33 -108.38 44.22 -117.05 -0.62 -107.9 -45.36 -82.33 -83.21 -37.29 -91.39 -6.93 -16.99 -57.64 -298 -411.32 -2126.7 -543.08 59.64 -50.11 -0.81 -302.89 -43.26 498.13 2339.12 0.52 39.01 -14.44 36.25 -11.43 11.74 -15.79 16.22 -35.84 15.41 -39.02 0.53 -36.24 -14.45 -18.2 -17.71 -9.76 -9.5 -15.42 -35.85 -514.16 -2414.4 -4.31 -1.05 -340.05 -119.15 -95.97 -71.62 -177.78 -246.04 -32.87 -72.61 -6.8 -29.78 -335.37 -1468.67 -389.01 56.06 -98.79 17.4 -92.17 16.24 -2907.83 513.51 -1920.63 339.18 -125.96 -18.95 -463.22 -237.27 -3.42 -2.71 -4.14 -1.37 -26.34 -22.75 -27.28 -21.61 -2.13 -3.81 -3.3 -2.85 -15.62 -31.11 -16.94 -30.4 -0.5 -4.33 -1.96 -3.9 -262.3 -951.29 -126.26 -287.76 -215.53 -491.22 2.3 -4.35 -15.5 -37.94 -62.06 -320.1 -10.9 -56.24 -196.35 44.6 -3.13 0.68 -52.1 10.96 -2052.66 431.81 -78.03 0.86 -72.42 -29.07 -55.79 -54.57 -30.65 -71.76 -0.86 -78.03 29.07 -72.42 54.57 -55.79 71.76 -30.65 191.95 -40.38 1911.25 -402.06 396.13 -89.98 188.95 123.25 51.7 33.72 64.96 335.07 9.53 49.19 265.12 -49.19 2608.69 -484.04 1657.52 -307.55 -229.65 -1269.19 -1427.87 272.06 -3000 571.6 -309.58 58.99 -2307.29 437.78 -78.03 -0.69 -71.83 -30.5 -54.69 -55.67 -29.23 -72.35 0.69 -78.04 30.5 -71.83 55.67 -54.69 72.35 -29.22 2307.07 -437.74 384.37 -73.23 3000 -571.61 1351.59 -257.52 -113.46 -546.56 -375.53 -1809.13 -611.37 -143.62 -232.41 382.95 -18.82 7.67 -91.5 37.32 -2908.5 -745.51 -301.07 -77.17 -62.68 248.15 -16.76 35.24 -28.96 26.14 -36.76 13.08 -38.97 -2 -35.24 -16.75 -26.14 -28.96 -13.07 -36.76 1.99 -38.97 87.26 -345.45 79.33 -312.54 -828.32 -193.69 -1514.74 -354.21 -71.06 -32.25 -53.31 -56.99 -27.44 -73.05 2.61 -77.99 32.25 -71.06 56.99 -53.31 73.05 -27.44 77.99 2.6 2346.85 548.79 296.2 -1263.84 143.62 -612.81 2.53 -8.91 73.66 -220.23 -219.81 -56.19 -2515.82 -643.11 -213.45 -54.56 -35.19 -16.86 -26.06 -29.03 -12.97 -36.8 2.11 -38.96 16.85 -35.19 29.04 -26.07 36.8 -12.97 38.96 2.11 971.46 248.33 1708.27 436.68 329.31 84.18 751.56 -520.86 1919.13 -1330.04 75.6 -52.39 -75.6 -11.4 -3000 -452.23 -2732.89 -411.97 -36.71 -13.23 -28.84 -26.27 -16.6 -35.31 -1.83 -38.97 13.23 -36.71 26.28 -28.85 35.31 -16.6 38.97 -1.82 2703.08 407.47 3000 452.23 249.82 37.66 67.97 -735.43 -317.79 -46.82 -3000 -442 -1475.04 -217.32 -1293.58 -190.59 -110.25 -39.32 -86.81 -78.53 -34.32 -72.37 -15.83 -33.39 -5.86 -116.91 21.69 -60.81 17.63 -49.44 78.53 -86.81 105.77 -50.15 116.9 -5.86 2681.17 395.02 2641.33 389.16 358.67 52.84 373.19 54.99 10 -107.83 53.72 -579.03 -436.91 -89.68 -3000 -615.8 -2753.93 -565.29 -35.96 -15.15 -27.42 -27.76 -14.71 -36.14 0.24 -39.01 15.15 -35.96 27.76 -27.42 36.14 -14.71 39.01 0.24 2713.72 557.03 3000 615.8 438.04 89.92 -51.07 -964.29 -0.14 -4.15 -14.3 -1248.6 -34.35 -3000 -34.35 -3000 -34.35 -3000 -4.19 -365.66 -265.29 106.5 -645.57 259.16 -2354.43 945.18 -265.1 106.42z"/>
  <path class="fil0 str0" d="M14823.15 26635.23l-1323.15 -5.77 -124.45 -0.54 124.45 -290.79 178.82 -417.84 754.48 -1762.98 541.57 -1113.88 69.18 -123.14 499.76 -889.55 956.19 -1694.01 202.28 -358.36 37.56 -58.08 163.16 -252.3 290.92 252.3 1150.67 997.88 -7.75 725.36 -13.36 1276.76 -0.86 82.62 -7.81 519.9 -37.84 2397.48 -39.05 2473.83 -8.25 526.17 -42.39 2703.53 -5.11 296.47 -51.77 3000 -43.01 2492.55 191.14 203.25 1221.47 54 2124.5 93.93 -47.05 156.27 -362.77 1204.9 -200.49 423.01 -375.3 465.24 -530.01 574.44 -608.88 -7.95 -2356.93 -30.75 -643.07 -30.19 -36.55 -1.71 -2582.79 -2596.99 -380.66 -382.75 -640.56 -644.07 9.43 -1973.18 14.34 -3000 14.33 -3000 5.26 -1099.68 389.52 -992.05 207.68 0.9 1322.28 5.77 38.3 -7.45 32.54 -21.53 21.82 -32.35 7.78 -38.23 -7.45 -38.31 -21.53 -32.53 -32.35 -21.82 -38.24 -7.78z"/>
  <path class="fil0 str0" d="M13132.04 26689.63l-0.86 2.08 -214.9 547.33 31.34 -1318.75 71.3 -3000 18.76 -789.19 56.41 -2210.81 22.24 -871.8 383.67 32.25 3000 252.11 18.02 1.51 232.37 201.33 -217.69 336.6 -3.11 5.15 -24.19 42.85 -5.4 9.56 -1130.41 2002.67 -554.94 987.77 -15.6 27.77 -2.75 5.25 -543.92 1118.71 -2 4.39 -750.38 1753.38 -38.73 90.5 -329.23 769.34z"/>
  <path class="fil0 str0" d="M7842.46 31236.84l-17 683.45 -60.18 2418.83 -265.28 106.5 -1182.41 474.67 -1692.83 679.58 692.14 -679.58 273.61 -268.64 13.45 -16.35 1788.33 -2715.01 107.71 -163.53 342.46 -519.92z"/>
  <path class="fil0 str0" d="M4166.17 23110.59l333.83 -3.46 3000 -31.1 477.61 -4.95 -63.06 2849.21 -55.48 2507.01 -359.07 -516.95 -1382.26 -1990.06 -1617.74 -2329.08 -333.83 -480.62z"/>
  <path class="fil0 str0" d="M8143.57 46263.27l1.04 -7.24 -52.38 -988.82 829.22 -4.25 1196.4 -5.09 69.11 1084.04 1.03 12.13 59.24 566.25 12.61 120.43 -2187.06 1.08 11.27 -121.51 60.27 -649.74 -0.75 -7.28z"/>
  <path class="fil0 str0" d="M8085.68 45067.24l-13.13 -1146.95 -34.35 -3000 -34.36 -3000 -34.35 -3000 -5.87 -512.22 61.9 -2487.78 25.57 -1027.72 0.03 -2.43 1.03 -1969.85 0.09 -182.42 62.36 -2817.58 63.1 -2851.24 2073.83 -20.54 -48.22 2871.78 -30.59 1821.41 0.3 1.63 -0.33 1.62 -7.01 1175.34 -17.87 3000 -17.87 3000 -17.88 3000 -3.16 530.16 -6.91 1117.01 -10.58 1352.83 -3 384.41 -0.01 4.19 16.02 2611.4 6.97 1137.6 -1190.83 5.07 -834.88 4.28z"/>
  <path class="fil0 str0" d="M10854.92 22851.7l72.06 -2931.41 24.19 -984.24 1965.44 98.75 -22.59 885.49 -56.28 2205.8 -18.87 794.2 -71.3 3000 -43.74 1840.33 -215.51 227.58 -219.68 192.36 -179.59 117.62 -27.84 27.34 -15.27 35.9 -0.35 39.02 14.59 36.18 27.34 27.85 35.91 15.26 39.01 0.36 36.19 -14.6 185.42 -121.44 11.09 -8.42 228.46 -200.04 6.73 -6.48 71.35 -75.35 -4.14 866.53 -14.34 3000 -14.33 3000 -8.39 1756.88 -461.08 -507.31 -31.37 -23.2 -37.87 -9.43 -38.58 5.78 -33.44 20.1 -23.2 31.37 -9.43 37.87 5.78 38.58 20.1 33.44 607.77 668.72 -2.13 947.2 -1.4 622.44 -621.82 3.81 -18.53 3.81 -18.58 3.58 -1.11 0.46 -15.67 10.61 -15.79 10.42 -0.85 0.85 -10.41 15.79 -10.61 15.67 -0.46 1.11 -3.57 18.58 -3.8 18.53 -4.82 816.86 -1227 5.42 6.28 -1014.1 3.18 -533.84 17.88 -3000 17.87 -3000 17.87 -3000 6.98 -1170.14 30.72 -1829.86 50.38 -3000 1.15 -68.59z"/>
  <path class="fil0 str0" d="M12926.16 18634.78l-1964.1 -98.69 48.57 -1615.8 16.41 -546.22 61.38 -1221.76 1927.34 60.8 -28.44 673.26 -0.06 2 -22.96 1031.92 -38.14 1714.49z"/>
  <path class="fil0 str0" d="M13025.04 15013.3l-1926.78 -60.78 49.96 -1032.23 144.89 -2993.52 0.32 -6.48 145.67 -3000 106.82 -2199.73 39.29 -800.27 25.22 -513.86 1038.83 57.98 850.74 62.72 202.23 14.91 -37.14 378.25 -114.58 1166.79 -0.24 2.91 -50.27 731.36 -75.54 1098.94 -149.24 2171.25 -0.11 1.78 -42.03 826.97 -152.48 3000 -55.56 1093.01z"/>
  <path class="fil0 str0" d="M13899.13 4583.42l1035.67 336.87 137.72 44.8 -160.66 2955.2 -163.1 3000 -163.09 3000 -1.72 31.54 -1083.95 771.33 -269.71 191.92 50.57 -994.79 152.48 -3000 41.47 -815.92 25.19 -366.48 124.94 -1817.6 124.76 -1815.12 116.35 -1184.88 33.08 -336.87z"/>
  <path class="fil0 str0" d="M13217.78 15169.45l282.22 -200.82 1239.17 -881.78 3.89 -4.14 4.9 -2.89 8.38 -11.19 9.59 -10.17 2.02 -5.31 3.41 -4.55 3.47 -13.54 4.97 -13.07 -0.17 -5.68 1.41 -5.51 4.92 -90.51 163.1 -3000 163.09 -3000 157.52 -2897.32 1230.33 337.15 421.74 115.58 -421.74 292.96 -723.65 502.69 -84.7 142.35 -165.99 1506.59 -330.54 3000 -324.6 2946.09 39.66 53.91 120.85 164.29 843.71 164.55 3.16 0.59 622.1 110.98 241.59 43.1 -181.61 2516.49 -59.98 831.08 -61.45 851.53 -691.97 -287.04 -1447.36 -1395.57 -799.22 -770.62 -310.95 -299.83 28.73 -680.39z"/>
  <path class="fil0 str0" d="M13182.13 16121.01l317.87 306.49 511.08 492.79 1610.3 1552.67 15.64 10.05 15.45 10.33 770.84 319.77 -8.19 111.2 -2915.12 -244.98 -374.08 -31.44 38.43 -1727.6 17.78 -799.28z"/>
  <path class="fil0 str0" d="M18722.5 23008.01l1.01 -87.72 13.3 -1272.51 8.74 -817.91 -68.95 -153.23 -872.15 -756.35 -737.09 -639.23 -260.8 -225.95 8.21 -111.32 1398.96 380.14 10.96 0.76 10.67 2.63 8.61 -1.3 8.68 0.6 10.42 -3.5 10.87 -1.65 7.45 -4.49 8.25 -2.77 8.29 -7.22 9.41 -5.68 5.17 -7.01 6.56 -5.71 4.9 -9.85 6.52 -8.85 2.08 -8.45 3.88 -7.79 0.76 -10.96 2.63 -10.68 106.08 -2311.72 18.41 -401.36 543.58 401.36 492.09 363.35 214.02 158.03 55.17 19.46 2730.81 115.68 3000 127.08 2399.22 101.63 600.78 25.71 694.35 29.72 -694.35 506.85 -205.99 150.36 -2183.03 853.75 -60.97 70.44 -111.34 477.94 -339.78 1458.54 -98.89 -39.65 -2416.22 -968.63 -38.36 -7.18 -38.18 8.05 -32.19 22.05 -21.3 32.68 -7.18 38.36 8.05 38.18 22.05 32.19 32.69 21.3 2490.64 998.48 20.03 8.03 -20.03 31.02 -792.93 1228.16 -97.38 98.42 -1594.39 1611.31 -1.67 3.94 -7.74 7.05 -505.89 686.14 -240.84 326.64 -1782.29 -304.06 -976.87 -927.7 -785.99 -746.44 0.76 -48.27 7.73 -520.89z"/>
  <path class="fil0 str0" d="M29514.81 17874.64l1200.24 50.58 784.95 33.37 211.11 8.97 2.78 -1.1 7.38 1.02 1241.93 -73.55 1258.18 2002.44 14.66 23.92 263.96 430.79 1574.24 2569.21 122.44 199.82 -115.95 756.3 -568.05 -71.71 -2.29 -0.27 -812.65 -93.06 -197.74 -168.06 -733.07 -623.02 -1066.56 -906.44 -1.05 -0.58 -404.35 -338.35 -126.98 -46.56 -667.99 -4.34 -3000 -19.5 -1777.89 -11.55 -122.32 40.77 -23.21 17.64 -787.32 -208.23 354.77 -1522.86 88.82 -381.29 2146.07 -839.3 22.54 -12.36 98.54 -71.93 1014.81 -740.77z"/>
  <path class="fil0 str0" d="M25714.47 21630.25l660.18 174.6 -488.64 371.39 -78.95 155.51 -10.96 588.54 -55.88 3000 -2.56 137.45 -237.66 1.23 -2342.7 12.17 2.99 -150.85 25.28 -1276.42 1670.97 -1688.7 12.93 -16.1 12.13 -18.78 618.4 -957.84 214.47 -332.2z"/>
  <path class="fil0 str0" d="M32732.65 22566.23l416.6 354.06 1335.8 1135.25 14.95 6.49 91.81 39.82 871.93 99.85 468.81 59.18 -154.7 1659.41 -83.76 898.5 -51.67 417.81 -1142.42 1482.25 -155.26 201.44 -1165.8 1512.59 -1678.94 53.8 -3000 96.14 -309.57 9.92 -193.37 190.38 -54.18 1137.17 -96.01 2014.96 11.56 77.18 40.22 66.87 39.1 28.91 -22.45 419.42 -2254.37 -0.41 -49.61 13.16 -111.32 63.57 -553.96 316.34 -1906.94 1088.98 182.87 -1088.98 412.88 -2458.72 -0.59 -36.29 -101.63 -504.99 -447.92 -2225.45 15.52 -774.55 53.09 -2649.13 2346.68 -12.18 257.84 -1.34 469.21 1502.86 60.49 92.03 443.55 381.49 127.97 48.35 1640.94 20.02 2876.49 35.1 120.02 -38.2 3.49 -2.54 348.54 -253.3 79.06 -125.26 371.1 -1997.9 221.66 -1193.34 2.41 -17.04 175.22 -1789.62 34.66 -354.06z"/>
  <path class="fil0 str0" d="M36280.02 23896.24l119.9 -782 -13.58 -67.4 -77.54 -126.55 -1808.8 -2952.01 -29.4 -47.99 -64.18 -104.74 4.57 -1893.78 2.14 -1001.48 3.59 -1681.33 83.28 -120.59 513.6 -743.74 2486.4 207.36 2025.83 168.94 974.17 82.42 3000 253.83 3000 253.82 830.6 70.27 58.06 -12.83 1544.18 -882.9 -101.89 2394.69 -2330.95 -57.91 -1646.56 -40.91 -126.82 108.88 -76.53 65.71 -174.03 1362.35 -976.06 -71.2 -555.33 -40.5 -2.07 -0.14 -2442.6 -152.73 -3000 -187.58 -2279.1 -142.5 -77.34 10.41 -67.47 39.23 -47.32 62.05 -19.97 75.44 10.42 77.33 39.22 67.47 62.06 47.32 75.43 19.97 2304.07 144.06 3000 187.58 2416.6 151.1 583.4 42.56 1135.9 82.85 7 -5.72 330.36 600.52 47.77 88.04 59.03 48.05 806.21 243.06 18.61 3.73 595.12 61.35 430.98 44.43 -47.58 75.76 -383.4 610.45 -1362.91 2170.03 -1637.09 -118.23 -222.93 -16.1 -213.09 176.56 -20.45 177.29 -171.77 1489.37 -2371.76 -184.73 -3000 -233.66 -1219.98 -95.03z"/>
  <path class="fil0 str0" d="M45362.93 22717.22l1137.07 -1810.44 619.57 -986.49 33.25 -52.94 516.87 52.94 1524.09 156.09 306.22 217.86 3000 2134.34 386.15 274.73 109.55 4.19 2504.3 -1507.65 1645.96 -990.91 -257.96 2711.35 -60.16 632.42 -1327.84 -96.76 -3000 -218.62 -3000 -218.62 -1350.5 -98.42 -1649.5 -120.21 -1137.07 -82.86z"/>
  <path class="fil0 str0" d="M57172.26 19959.66l-1672.26 1006.74 -2551.3 1535.95 -448.7 -319.22 -3000 -2134.34 -180.62 -128.5 -31.17 -22.18 -47.78 -18 -2129.02 -218.04 -611.41 -63.03 -565.13 -58.26 -757.68 -228.43 -28.29 -52.13 -348.56 -633.62 48.5 -39.66 175.15 -1371.17 1476.01 36.67 2514.17 62.47 485.83 28.01 3000 172.99 3000 173 1990.4 114.77 -312.33 2116.61 -5.81 39.37z"/>
  <path class="fil0 str0" d="M57533.19 17405.49l-2033.19 -117.25 -3000 -172.99 -3000 -172.99 -269.39 -15.54 0.27 -6.43 111.98 -2631.62 0.05 -15.7 -2.07 -57.27 159.16 -169.36 118.45 -126.05 1886.77 -2007.8 932.45 -992.2 62.33 -66.32 2252.83 -2397.17 178.67 -169.87 385.38 -366.64 183.12 -174.22 52.22 -49.68 40.31 10.79 77.36 -10.2 67.58 -39.03 36.39 -47.44 1177.16 20.18 19.75 34.42 61.8 47.65 75.33 20.38 77.39 -10 36.57 -20.99 400.57 218.14 514.18 280.02 -178.3 2719.98 -196.66 3000 -196.65 3000 -31.81 485.2z"/>
  <path class="fil0 str0" d="M58150.99 7980.41l-110.39 -60.12 -718.37 -391.22 131.47 -1934.09 853.55 -5.32 -152.33 2330.63 -3.93 60.12z"/>
  <path class="fil0 str0" d="M58643.9 3232.62l425.82 80.76 -48.03 678.13 -406.22 -101.87 28.43 -657.02z"/>
  <path class="fil0 str0" d="M58592.84 4296.35l400.2 100.36 -36.92 523.58 -19.82 281.14 -402.49 -9.79 17.89 -271.35 41.14 -623.94z"/>
  <path class="fil0 str0" d="M58507.58 5591.12l400.46 9.74 -164.54 2319.43 -67.18 947.01 -145.49 2052.99 -30.83 435.06 -68.19 962.29 -81.45 1157.78 -31.59 444.87 -117.77 1658.94 -50.15 702.65 -45.13 638.41 -35.87 507.38 -336.85 -12.72 32.43 -494.66 196.65 -3000 196.66 -3000 181.62 -2770.7 14.99 -229.3 144.65 -2213.21 7.58 -115.96z"/>
  <path class="fil0 str0" d="M57691.1 17813.65l350.5 13.24 -148.28 2093.4 -212.49 3000 -50.84 717.75 -603 -66.99 61.92 -650.76 274.69 -2887.27 16.63 -112.73 310.87 -2106.64z"/>
  <path class="fil0 str0" d="M57601.68 24037.36l-133.59 1882.93 -2.68 37.7 -209.71 2962.3 -45.51 642.85 -575.57 -59.74 37.99 -583.11 195.45 -3000 127.06 -1950.32 606.56 67.39z"/>
  <path class="fil0 str0" d="M57181.92 29962.36l-138.66 1957.93 -212.46 3000 -212.46 3000 -94.01 1327.44 -554.89 -42.01 88.21 -1285.43 205.89 -3000 205.89 -3000 138.46 -2017.51 574.03 59.58z"/>
  <path class="fil0 str0" d="M56496.06 39646.73l-90.31 1273.56 -98.65 1391.27 4.89 38.75 4.88 38.67 308.74 924.22 13.13 30.57 306.7 576.52 642.29 1207.32 -346.77 318.82 -58.06 96.38 -154.96 589.42 -6.46 44.21 -24.73 743.85 -92.58 2784.91 -832.37 -448.05 -414.45 -237.92 65.16 -2098.94 93.15 -3000 93.14 -3000 40.82 -1314.93 546.44 41.37z"/>
  <path class="fil0 str0" d="M8017.22 47641.83l2321.03 -1.15 161.75 981.68 65.16 395.48 1.74 9.57 124.78 629.41 -191.68 -11.94 -630.59 -39.29 -1.42 0.19 -1.39 -0.32 -294.26 -10.04 -1627.84 -1166.77 72.72 -786.82z"/>
  <path class="fil0 str0" d="M10890.3 47300.52l-39.79 -380.23 -65.15 -622.63 -66.46 -1042.44 866.74 -3.94 443.83 -1.79 715.24 6.27 12.18 856.23 0.03 1.58 24.19 806.72 51.91 1731.06 -3.05 98.5 -1698.15 16.57 -241.52 -1465.9z"/>
  <path class="fil0 str0" d="M13030.2 48745.7l2.82 -91.22 0 -6.08 -51.82 -1728.11 -14.05 -468.62 317.43 468.62 215.42 318.02 991.65 1463.95 -991.65 29.48 -469.8 13.96z"/>
  <path class="fil0 str0" d="M12956.44 46079.25l-13.13 -923.49 -3.54 -1235.47 -2.09 -726.94 562.32 -324.98 3000 -1733.8 370.77 -214.28 249.45 -144.16 130.72 144.16 1430.52 1577.6 52.65 30.5 765.89 168.02 2244.52 492.38 4.16 0.82 751.32 131.77 728.11 127.7 29.53 0.75 1375.44 -169.81 58.6 -28.68 759.04 -762.2 49.28 -0.72 67.67 -1 26.96 39.81 65.15 42.95 76.63 14.76 76.44 -15.7 64.62 -43.75 28.35 -43 834.31 -12.06 1759.87 345.28 1087.11 213.29 10.04 1.44 1902.85 176.06 3000 277.57 3000 277.57 1714.68 158.65 1285.32 118.92 2444.52 226.18 555.48 185.48 960.83 320.84 13.05 1.65 12.72 3.32 2013.4 119.14 230.53 13.64 812.91 478.72 44.14 13.61 1912.42 126.59 3000 198.58 1771.76 117.27 106.33 -92.46 134.38 -1831.48 220.1 -3000 102.09 -1391.52 665.34 45.21 249.98 16.98 -41.28 1329.33 -93.14 3000 -93.14 3000 -22.42 722 -44.42 1430.7 44.42 79.54 5.75 10.28 404.53 232.23 -111.36 525.25 -39.36 185.65 -259.56 10.45 -2432.7 97.87 -6.25 0.45 -561.05 57.9 -3000 309.6 -1939.26 200.14 -24.8 5.82 -1035.94 387.91 -2003.05 750.06 -24.41 13.26 -972.54 719.51 -353.3 261.38 -1652.59 1222.63 -18.26 17.48 -975.85 1205.93 -448.27 553.96 -2054.19 2538.5 -3.55 4.67 -327.28 456.83 -166.71 232.71 -331.53 462.76 -1103.89 -678.74 -24.28 -10.78 -20.31 -5.95 -1519.99 -445.06 -1275.73 -373.54 -1724.27 -920.93 -869.63 -464.46 -24.08 -9.11 -2106.29 -498.47 -199 -47.1 -503.32 -241.33 -1920.01 -920.59 -13.55 -5.32 -364.12 -113.17 -2112.49 -656.55 -887.51 -487.83 -1028.13 -565.13 -55.61 -12.09 -1916.26 142.92 -559.46 41.73 -1056.47 -19.18 -275.95 -404.79 -1108.12 -1625.48 -937.03 -1374.52 -579.27 -849.72 5.34 -0.56 4.11 -0.48 209.15 -26.46 24.22 -4.6 217.79 -55.43 30.74 -10.54 147.22 -64.32 12.13 -5.79 123.54 -64.18 19.21 -11.38 722.85 -484.81 2042.15 -1369.63 957.85 25.22 1877.31 49.45 76.91 -13.2 66 -41.63 45.05 -63.72 1.86 -8.22 15.37 -67.89 -13.2 -76.91 -41.63 -66.01 -63.72 -45.05 -76.11 -17.23 -1887.84 -49.72 -1011.04 -26.63 -116.67 33.82 -470.59 315.62 -1401.7 940.1 -936.37 628.01 -107.66 55.92 -126.12 55.1 -190.02 48.36 -194.84 24.66 -215.57 22.75 -1203.27 -1774.9 -26.15 -38.6 -543.56 -802.44z"/>
  <path class="fil0 str0" d="M56093.34 49495.88l788.45 424.41 17.65 9.5 10.4 63.16 41.17 66.29 63.41 45.49 75.99 17.76 77 -12.68 27.63 -17.16 1304.96 735.84 427.29 240.94 -427.29 339.59 -1288.16 1023.77 -72.11 -4.55 -77.35 10.37 -67.48 39.19 -47.36 62.02 -20.01 75.43 1.33 9.96 -521.02 295.08 -907.84 514.15 -275.23 155.88 142.15 -670.03 133.08 -627.23 439.09 -2069.58 64.28 -303.19 89.97 -424.41z"/>
  <path class="fil0 str0" d="M37051.8 59778.8l-386.59 540.72 -1613.7 -982.9 -22.31 -10.08 -529.2 -164.67 -776.37 -241.58 -2223.63 -691.92 -3000 -933.51 -1265.61 -393.81 -1734.39 -727.18 -604.82 -253.58 -2395.18 -1004.22 -2271.02 -952.17 -728.98 -357.77 -182.25 -89.45 182.25 -13.59 1901.54 -141.82 1098.46 603.78 800.02 439.74 18.49 7.86 2181.49 678 297.79 92.55 1537.29 737.09 889.17 426.33 20.21 7.14 255.54 60.48 2047.6 484.59 952.4 508.67 1639.15 875.47 19.02 7.76 1341.83 392.9 808.26 236.66 662.98 194.12 1080.56 664.39z"/>
  <path class="fil0 str0" d="M36548.53 60482.63l-535.32 747.98 -4.79 10.59 -6.42 9.68 -274.41 669.41 -883.44 2155.08 -344.15 -246.01 -1919.34 -1372.04 -493.8 -537.03 -586.86 -638.25 -615.94 -669.87 -8.31 -8.05 -850.62 -733.35 -28.26 -17.15 -1130.89 -450.92 -32.15 -7 -333.83 -16.33 -932.23 -45.61 -1963.32 -232.56 -104.45 -31.87 -488.35 -149.04 -1087.34 -331.84 -1349.23 -627.45 -75.08 -88.78 -1650.8 -1951.93 -702.44 -830.58 -14.32 -13.86 -632.44 -500.2 -537.21 -424.89 63.73 -554.22 473.48 232.37 643.52 315.84 5.39 2.45 2351.09 985.73 1877.93 787.36 1122.07 470.45 1661.46 696.6 8.96 3.26 1329.58 413.72 3000 933.51 1550.5 482.46 1449.5 451.04 458 142.51 1590.53 968.79z"/>
  <path class="fil0 str0" d="M12870.92 50088.84l-12 -168.55 -9.91 -139.08 127.54 -612.1 4.93 -21.79 518.52 -15.41 1248.85 -37.12 8.9 -0.6 563.17 826.1 1179.08 1729.58 866.07 1270.42 194.44 285.23 -696.75 -285.23 -363.76 -148.91 -1625.12 -665.28 -667.31 -360.75 -142.76 -77.14 -556.43 -549.69 -8.38 -10.85 -274.83 -355.77 -223.1 -358.14 -131.15 -304.92z"/>
  <path class="fil0 str0" d="M12776.15 49150.4l-109.38 524.93 -291.11 3.25 -632.07 -3.57 -436.32 1.54 -101.28 -510.84 1570.16 -15.31z"/>
  <path class="fil0 str0" d="M12655.22 49875.47l3.19 44.82 6.47 90.87 -186.37 -2.84 -0.98 -88.03 -0.48 -42.83 178.17 -1.99z"/>
  <path class="fil0 str0" d="M37339.24 59720.82l160.76 -224.4 412.74 -576.13 242.12 -337.97 2154.15 -2662.03 190.99 -236.02 1123.31 -1388.15 1859.66 -1375.83 17.03 -12.6 1080.21 -799.17 1919.79 -718.88 1094.05 -409.67 1905.95 -196.7 3000 -309.6 377.82 -38.99 -377.82 603.09 -1179.35 1882.52 -714.79 1140.97 -10.89 23.87 -560.87 1835.16 -534.1 1747.56 -161.76 529.27 -223.19 723.17 -888.45 2878.66 -95.74 121.34 -701.68 889.26 -929.18 28.38 -575.18 17.56 -2336.12 -935.2 -88.7 -35.51 -1570.38 -628.66 -12.16 -3.98 -1417.46 -365.99 -2183.37 -563.75 -816.63 -502.63 -160.76 -98.95z"/>
  <path class="fil0 str0" d="M53128.05 50411.98l2371.95 -95.43 216.74 -8.72 -216.74 1021.58 -337.53 1590.88 -179.43 845.7 -456.86 2154.3 -636.21 3000 -636.21 3000 -225.6 1063.81 -528.16 -84.37 -1265.91 -202.23 -14.89 0.56 -3.88 -1.77 -1715.32 51.3 -1809.88 54.13 695.5 -881.43 9.54 -12.09 17.04 -32.45 912.16 -2955.46 175.64 -569.1 29.39 -95.22 713.84 -2335.68 539.14 -1764.06 774.29 -1235.94 943.34 -1505.8 628.05 -1002.51z"/>
  <path class="fil0 str0" d="M55169.35 53851.55l330.65 -187.26 1313.68 -744 214.29 -121.36 11.14 8.5 75.43 20.02 1385.46 87.41 86.06 5.43 1043.48 65.84 -43.18 567.73 -103.8 1374.39 -53.46 701.66 -21.99 290.38 -66.05 872.17 -161.14 2127.83 -227.19 3000 -86.77 1145.83 -365.96 -12.4 -2585.98 -87.65 -74.69 -476.45 -99.41 -84.51 -239.92 1.49 -255.27 1.59 -56.5 17.92 -2424.89 1687.49 434.27 -975.07 2.33 -10.26 4.15 -9.68 254.12 -1198.3 636.21 -3000 636.21 -3000 438.72 -2068.74z"/>
  <path class="fil0 str0" d="M52500.86 64211.36l-0.86 -1.07 -1038.45 -1273.92 1038.45 165.89 461.96 73.8 -461.1 1035.3z"/>
  <path class="fil0 str0" d="M19963.84 62251.63l-463.84 -243.95 -166.15 -87.39 -1446.55 -760.81 -1197.18 -2239.19 -190.12 -355.6 -518.73 -970.24 -498.93 -1674.16 -894.05 -3000 -263.52 -884.23 459.71 248.53 9.67 4.57 1541.7 631.13 164.15 67.2 1292.68 529.18 10.5 2.17 8.79 3.54 8.04 -0.07 8.74 1.8 1002.68 18.2 -30.31 263.62 -1.15 0.57 -25.78 29.29 -12.61 36.93 -142.18 1064.95 -0.47 4.19 -88.84 978.43 -10.21 112.37 16.24 64.29 530.58 800.49 426.18 837.18 7.12 9.74 11.81 16.13 593.61 584.86 338.17 574.94 19.09 32.45 -393.3 762.11 -10.73 36.82 -99.05 1090.8 0.01 18.22 97.61 1059.6 15.72 170.71 13.25 41.3 147.08 251.59 -269.43 -132.26z"/>
  <path class="fil0 str0" d="M9283.93 56585.56l0.63 -0.95 -137.9 -664.32 -418.34 -2015.31 -150.08 -154.05 -608.71 -143 417.5 -687.64 336.73 -554.6 511.22 -646.95 634.4 275.85 158.12 860.74 11.92 64.96 315.75 1720.79 1.18 2.96 0.15 3.19 143.5 575.41 173.98 697.65 461.46 1850.4 -372.6 67.6 -262.84 47.16 -527.76 94.69 -421.29 76.39 -265.41 -1466.88 -1.61 -4.09z"/>
  <path class="fil0 str0" d="M10551.32 54601.89l-51.32 -279.69 -256.81 -1399.57 17.66 -2.34 239.15 -31.63 810.43 -107.19 25.95 138.82 560.82 3000 305.2 1632.57 -870.29 179.93 -452 -1812.5 -328.79 -1318.4z"/>
  <path class="fil0 str0" d="M9425.86 58485.73l617.2 -111.91 456.94 -81.99 132.4 -23.75 102.16 652.21 178.26 1138.01 -374.17 53.91 -6.17 0.99 -32.48 5.72 -161.69 28.48 -2838.31 501.24 -1924.03 339.78 -325.17 -166.56 -242.78 -880.47 -9.65 -27.2 -246.26 -561.24 2331.75 -432.66 416.14 -77.21 1925.86 -357.35z"/>
  <path class="fil0 str0" d="M11338.26 60189.59l-198.82 -1269.3 -113.29 -723.24 192.63 -34.95 133.32 758.19 527.52 3000 15.24 86.7 -66.77 -23.4 -45.74 -63.3 -71.47 -98.92 -372.62 -1631.78z"/>
  <path class="fil0 str0" d="M11415.16 58124.08l859.22 -177.64 174.43 973.85 537.36 3000 29.37 163.94 -488.5 53.65 -416.56 -59.5 -27.79 -158.09 -527.52 -3000 -140.01 -796.21z"/>
  <path class="fil0 str0" d="M7838.68 48598.87l1609.53 1153.65 32.98 167.77 121.88 619.93 63.11 340.71 -499.23 603.59 -1666.95 -400.71 -2410.71 -579.5 842.69 -584.02 1568.02 -1086.7 338.68 -234.72z"/>
  <path class="fil0 str0" d="M9799.41 50502.74l-114.39 -582.45 -23.93 -121.73 197.28 6.73 641.63 39.98 231.91 14.45 12.01 60.57 528.43 2664.48 -772.35 102.15 -292.97 38.75 -150.34 -818.37 -185.24 -1016.25 -72.04 -388.31z"/>
  <path class="fil0 str0" d="M4248.02 53378.92l55.68 -219.34 196.3 46 3000 703.06 46.42 10.88 -46.42 76.49 -113.68 187.32 -2886.32 -739.83 -251.98 -64.58z"/>
  <path class="fil0 str0" d="M4398.53 52770.96l101.47 -432.94 337.29 -1439.15 77.23 -230.88 2585.48 621.52 1528.84 367.51 -465.82 589.5 -7.02 10.1 -402.95 663.67 -388.31 639.56 -264.74 -62.05 -2464.29 -577.51 -535.71 -125.55 -101.47 -23.78z"/>
  <path class="fil0 str0" d="M9713.16 51137.94l112.96 619.75 -460.09 -200.05 347.13 -419.7z"/>
  <path class="fil0 str0" d="M48521.12 34555.32l-974.58 -24.21 34.59 -985.42 1007.6 37.2 -67.61 972.43z"/>
  <path class="fil0 str0" d="M48602.31 33383.25l-1016.75 -37.53 7.33 -828.31 1067.37 -6.63 -57.95 872.47z"/>
  <path class="fil0 str0" d="M48767.71 32310.34l-1.16 -0.22 -1265.75 7.86 -950.05 -140.28 -50.75 40.7 -63.59 51 -70.54 973.35 -1504.96 -806.69 -30.36 -10.43 -1330.55 -227.86 -1620.22 -277.48 -1360.24 -232.95 -19.54 -22.37 -1349.45 -1544.42 -31.96 -24.32 -1618.59 -778.42 -546.08 -262.63 -79.3 -134.89 -568.66 -967.26 -82.23 -874.48 -26.48 -58.89 -101 -108.14 11.33 -1.67 536.37 455.82 57.24 23.51 798.81 60.17 2278.33 171.6 721.67 61.56 2210.47 188.53 789.53 115.87 1050.52 154.16 561.4 133.65 54.48 37.99 187.13 131.9 138.66 98.78 4.94 3.3 596.45 373.6 326.45 204.48 10.22 72.62 39.61 67.23 30.14 22.71 32.19 24.25 75.55 19.53 2892.26 163.95 3000 170.06 3000 170.06 908.52 51.5 -139.56 2033.61 -205.89 3000 -205.89 3000 -87.23 1271.11 -269.95 -18.35 -734.58 -49.9 -2265.42 -207.21 -433.87 -39.68 -77.6 8.18 -68.57 37.27 -49.08 60.67 -22.13 74.83 8.19 77.6 37.26 68.57 60.67 49.08 74.83 22.13 470.3 43.02 2135.29 195.3 -103.26 1407.38 -220.1 3000 -126.04 1717.82 -1685.89 -111.59 -3000 -198.58 -1875.53 -124.14 -813.22 -478.91 -44.84 -13.66 -266.41 -15.76 -1988.38 -117.66 -1011.62 -337.79 -503.1 -167.99 -22.46 -4.73 -1588.92 -147.01 -885.52 -81.93 -3000 -277.57 -3000 -277.57 -3000 -277.57 -1879.37 -173.89 -1120.63 -219.86 -1731.61 -339.74 -20.7 -1.86 -813.15 11.75 -5.76 -934.41 -6.99 -51.22 -102.24 -376.13 -319.55 -1175.63 -2.6 -9.57 -12.31 -33.27 -383.38 -808.06 -60.11 -73.83 -722.17 -545.77 -53.23 -28.76 -908.89 -325.11 -857.31 -306.66 -478.85 -171.29 478.85 -586.65 471.28 -577.38 2378.07 -1358.02 150.65 -86.03 187.44 -107.04 2322.63 0.43 99.88 -94.66 27.5 -513.94 43.72 -26.29 46.39 -62.74 18.85 -75.73 96.92 -2034 44.49 -933.67 112.18 -3.59 3000 -96.14 1558.75 -49.96 -104.74 1083.36 -290.06 3000 -27.11 280.41 -495.67 135.76 -1.83 0.92 -2.03 0.23 -15.36 8.46 -15.68 7.85 -1.34 1.54 -1.79 0.99 -10.94 13.7 -11.49 13.24 -0.65 1.94 -1.28 1.6 -280.45 541.69 -298.33 3.31 -2466.5 27.45 -96.17 76.83 -304.41 1278.59 -1.49 38.78 89.58 566.71 474.21 3000 148.11 937.01 94.05 84.28 2062.62 97.66 3000 142.05 216.27 10.24 103.83 -86.54 159.53 -1184.7 403.97 -3000 290.15 -2154.7 -81.11 -111.72 -1092.64 -199.88 -1459.96 -267.09 25.77 -266.61 290.06 -3000 117.38 -1214.02 1026.75 -1332.17 349.76 -453.81 1142.85 -1482.8 40.08 -97.55 8.37 -67.67 67.86 721.63 13.35 41.32 520.34 885.07 154.33 262.5 3.08 4.9 691.46 1034.11 -150.55 1698.49 -82.14 926.66 4.21 38.79 18.73 34.23 30.4 24.46 37.44 10.96 38.8 -4.2 34.22 -18.73 24.46 -30.4 10.96 -37.45 41.99 -473.7 41.71 -470.62 152.1 -1715.94 -16.48 -64.42 -177.33 -265.2 -330.17 -493.78 330.17 158.78 1513.43 727.85 1378.89 1578.12 58.43 32.77 49.25 8.43 194.95 33.39 2805.05 480.39 1280.76 219.34 1561.79 837.15 -202.87 1070.74 91.46 118.39 268.86 18.3 936.26 63.74 3.68 -0.47 1171.79 29.76 888.27 22.6 319.81 8.13 102.49 -96.78 36.87 -1157.57 -0.73 -4.43 0.76 -0.75 -12.81 -643.3 -8.42 -468.95 -99.21 -98.2 -338.76 -2.61 -732.29 -5.43z"/>
  <path class="fil0 str0" d="M46536.7 33506.83l844.57 31.45 -34.53 983.5 -846.74 -57.64 -142.83 -9.73 142.83 -753.87 36.7 -193.71z"/>
  <path class="fil0 str0" d="M47385.62 33338.3l-823.93 -30.68 66.41 -916.33 764.9 112.94 -7.38 834.07z"/>
  <path class="fil0 str0" d="M48788.69 33590.36l711.31 26.93 256.11 9.7 -30.54 958.91 -225.57 -5.74 -778.75 -19.8 67.44 -970z"/>
  <path class="fil0 str0" d="M48802.25 33390.73l58.45 -879.89 639.3 4.93 239.75 1.86 6.67 371.58 10.71 537.68 -257.13 -9.74 -697.75 -26.42z"/>
  <path class="fil0 str0" d="M12656.63 38742.73l20.81 1694.77 10.74 482.79 49.34 2216.71 2.25 783.29 3.25 1135.45 -615.35 -5.4 -10.47 -504.39 -1.63 -625.66 -3.62 -1395.76 9.25 -1604.24 7.83 -1357.33 4.81 -817.03 522.79 -3.2z"/>
  <path class="fil0 str0" d="M10701.22 39668.24l1227.23 -5.42 -7.25 1257.47 -9.25 1603.5 3.62 1396.5 1.63 627.08 0.02 1.82 10.4 500.71 -342.81 1.38 -873.42 3.97 -6.96 -1134.96 -16.03 -2612.99 3.03 -387.01 9.79 -1252.05z"/>
  <path class="fil0 str0" d="M12933.73 42964.64l-45.5 -2044.35 -8.43 -378.86 620.2 30.49 2915.04 143.3 84.96 3.99 295.03 13.85 -295.03 170.51 -28.93 16.72 -2971.07 1717.08 -566.27 327.27z"/>
  <path class="fil0 str0" d="M12876.27 40341.01l-20.86 -1699.39 1.62 -721.33 1.67 -743.95 641.3 644.82 98.59 99.13 2568.38 2582.5 -2666.97 -131.11 -623.73 -30.67z"/>
  <path class="fil0 str0" d="M21823.59 37796.49l346.09 123.8 330.32 118.16 1602.67 573.28 658.66 497.77 354.74 747.69 288.97 1063.1 94.96 349.37 28.95 106.52 5.62 911.7 -34.57 0.51 -92.9 1.37 -69.39 29.43 -763.39 766.57 -1326.37 163.75 -747.95 -131.18 -714.69 -125.35 -2285.31 -501.33 -691.83 -151.77 -1287.25 -1419.59 -152.47 -168.15 2131.55 27.81 650.85 8.49 74.8 -32.18 562.48 -609.64 4.34 -5.03 384.83 -477.05 12.53 -19.96 208.8 -440.53 5.39 -14 382.3 -1269.76 37.27 -123.8z"/>
  <path class="fil0 str0" d="M32236.25 35517.79l459.54 -125.87 43.18 35.31 74.72 22.52 77.65 -7.79 68.75 -36.91 20.95 -25.62 1518.96 277.88 962.81 176.13 -281.01 2086.85 -403.97 3000 -143.7 1067.13 -134.13 -6.35 -3000 -142.05 -1971.83 -93.37 -130.47 -825.36 -474.21 -3000 -91.43 -578.4 281.75 -1183.39 2386.19 -26.55 360.62 -4.02 87.69 -54.01 287.94 -556.13z"/>
  <path class="fil0 str0" d="M18709.72 23848.92l790.28 750.5 855.15 812.11 382.34 508.76 666 886.19 342.12 1213.38 -2245.61 188.09 -860.23 72.05 37.25 -2359.71 32.7 -2071.37z"/>
  <path class="fil0 str0" d="M21493.88 26593.85l-506.2 -673.56 -326.67 -434.67 1465.32 249.98 -136.1 184.69 -496.35 673.56z"/>
  <path class="fil0 str0" d="M18636.61 28480.97l863.39 -72.32 2246.97 -188.21 -159 699.85 -681.58 3000 -5.95 26.18 -156.39 -26.18 -1244.05 -208.28 -911.66 -152.62 41.38 -2639.1 6.89 -439.32z"/>
  <path class="fil0 str0" d="M21966.43 28066.07l-362.24 -1284.78 634.48 -861 144.91 -196.64 116.42 -157.9 480.17 -651.25 -19.92 1005.79 -4.94 249.39 -55.12 2750.61 -9.49 473.69 -329.7 -473.69 -61 -87.64 -533.57 -766.58z"/>
  <path class="fil0 str0" d="M22890.58 29743.89l438.03 2176.4 105.94 526.36 -415.38 2473.64 -207.84 1237.69 -311.33 381.42 -682.43 836.07 -21.69 -4.26 -2295.88 -101.51 -1009.31 -44.62 39.77 -2304.79 51.77 -3000 2.74 -158.68 915.03 153.19 32.8 5.49 1427.73 239.02 114.02 -76.47 36.93 -162.55 681.59 -3000 129.01 -567.85 395.24 567.85 182.68 262.45 390.58 561.15z"/>
  <path class="fil0 str0" d="M26136.42 26128.04l3.87 -207.75 55.88 -3000 9.02 -484.22 582.42 -442.67 1712.39 11.13 3000 19.5 593.54 3.85 267.97 224.04 -65.44 668.37 -170.55 1742.08 -233.66 1257.92 -342.97 1846.46 -48.89 35.53 -184.98 134.43 -2815.02 -34.35 -1563.27 -19.07 -344.93 -296.67 -455.38 -1458.58z"/>
  <path class="fil0 str0" d="M36106.16 26707.91l73.43 -787.62 150.92 -1618.9 1169.49 91.09 3000 233.66 2532.83 197.28 74.25 -61.17 392.92 185.22 1933.32 911.34 -8.04 61.48 -282.14 2156.27 -550.59 -131.07 -8.64 -1.66 -1083.91 -159.06 -763.49 -112.05 -6.02 -0.7 -2230.49 -190.24 -705.16 -60.14 -2294.84 -172.86 -751.33 -56.59 -546.08 -464.07 -79.31 -22.73 -17.12 2.52z"/>
  <path class="fil0 str0" d="M45330.8 28183.9l296.18 -2263.61 14.12 -107.85 -56.52 -103.43 -2084.58 -982.64 -248.6 -117.19 187.99 -1629.98 60.61 4.38 1615.11 116.64 1384.89 100.93 3000 218.62 3000 218.62 3000 218.62 1295.91 94.44 -128.27 1968.84 -195.46 3000 -36.95 567.26 -935.23 -53.02 -3000 -170.05 -3000 -170.06 -2869.62 -162.67 -77.28 10.87 -24.27 14.3 -28.83 -18.06 -29.65 -18.57 -864.54 -541.52 -136.44 -97.2 -138.57 -97.67z"/>
  <path class="fil0 str0" d="M2078.28 9099.31l5.64 -8.21 16.16 -76.35 13.41 -1094.46 17.39 -1419.55 2369.12 -154.34 3000 -195.43 323.85 -21.1 783.58 -51.95 -134.4 1598.04 -142.73 244.33 -830.3 1421.34 -922.2 1578.66 -187.97 321.77 -1889.83 94.19 -900.57 44.88 -307.22 -460.84 -1213.93 -1820.98z"/>
  <path class="fil0 str0" d="M8867.13 4254.32l1170.43 64.83 462.44 25.63 511.35 28.34 -26.87 547.17 -29.66 604.15 -454.82 29.54 -1669.3 108.42 19.2 -742.11 17.23 -665.97z"/>
  <path class="fil0 str0" d="M8809.26 6064.64l1690.74 -109.82 435.21 -28.27 -96.81 1993.74 -144.58 2977.4 -1.1 22.6 -145.2 3000 -47.52 981.84 -1.5 30.98 -2086.22 -69.25 82.18 -943.57 99.57 -1143.13 0.17 -2.31 95.47 -1497.38 0.2 -6.9 -1.87 -350.28 -16.07 -3000 -1.13 -209.48 138.46 -1646.17z"/>
  <path class="fil0 str0" d="M16196.57 2853.07l59.91 -932.78 31.18 -485.56 34.56 9.99 177.78 15.15 1625.18 138.46 757.7 63.6 2.82 0.79 2.75 -0.32 611.55 52.1 1402.49 119.48 2.24 -0.25 2.19 0.52 1593.08 64.74 524.28 21.3 1471.99 59.81 1003.73 420.37 658.25 275.68 2248.59 2015.17 -524.58 228.97 -921.34 402.16 -4.17 1.93 -850.43 418.76 -54.6 -631.1 -90.14 -150.37 -63.56 -41.38 -398.02 -259.14 -463.57 -301.82 -99.89 -32.18 -2436.54 -112.57 -3000 -138.61 -458.92 -21.2 -123.27 35.49 -1195.77 830.03 -1222.04 -1655.79 -303.43 -411.43z"/>
  <path class="fil0 str0" d="M26122.81 5957.95l920.22 -453.12 1339.17 -584.54 117.8 -51.42 79.72 -34.79 130.68 86.21 1568.15 1034.54 -77.95 1965.46 -8.03 202.59 -1692.57 -115.35 -1280.07 -87.24 -1135.8 -77.41 38.68 -1884.93z"/>
  <path class="fil0 str0" d="M30392.26 8134.45l8.5 -214.16 77.17 -1945.65 1022.07 -353.18 146.72 -50.7 1615.17 2349.53 247.85 360.53 -2009.74 -94.36 -1107.74 -52.01z"/>
  <path class="fil0 str0" d="M33760.53 8292.6l-255.94 -372.31 -1671.28 -2431.15 1129.09 -568.85 1537.6 -774.67 424.47 -213.86 201.46 4.87 -182.01 376.96 -17.93 58.98 -77.41 547.72 -7.02 49.65 -1.27 11.35 -196.91 2357.86 8.8 77.54 37.8 68.27 19.64 15.62 -82.6 387.92 -13.61 31.79 -113.41 264.85 -63.23 147.67 -182.44 220.07 -371.95 -229.48 -95.63 -29.57 -26.22 -1.23z"/>
  <path class="fil0 str0" d="M34393.56 8698.3l106.44 -128.39 99.98 -120.61 14.94 -24.45 199.8 -466.6 5.88 -18.54 4.14 -19.42 79.73 -374.48 67.38 -37.31 48.6 -61.06 21.54 -75 196.44 -2352.17 14.13 -99.98 65.13 -460.86 237.7 -492.3 1927.09 -1672.02 17.52 88.59 50.58 255.78 167.81 1281.77 36.14 64.66 620.31 503.42 417.59 430.96 471.85 486.95 -409.8 305.33 -33.57 44.26 -259.1 673.07 -5.41 20.02 -236.83 1470.37 -132.31 821.42 -0.77 25.97 124.66 1231.18 -811.15 -136.73 -2397.34 -404.09 -569.53 -198.68 -1.45 -8.19 -31.68 -135.07 -93.9 -400.39 -12.54 -17.41z"/>
  <path class="fil0 str0" d="M38503.72 9915.4l-116.92 -1154.83 135.34 -840.28 230.06 -1428.27 244.96 -636.35 446.29 -332.51 1056.55 117.58 2703.91 300.88 -1505.97 1396.38 -763.24 582.29 -434.7 331.64 -819.39 625.13 -5.52 4.53 -1171.37 1033.81z"/>
  <path class="fil0 str0" d="M43357.04 5757.43l-2857.04 -317.93 -1037.88 -115.49 -391.2 -403.72 -556.6 -574.43 -8.8 -8.06 -594 -482.06 -163.05 -1245.45 -1.06 -6.42 -79.7 -403.01 2832.29 138.79 3000 147.01 1390.11 68.12 -1309.24 2351.3 -4.57 14.21 -2.48 7.69 -2.38 1.68 -71.44 275.81 -142.96 551.96z"/>
  <path class="fil0 str0" d="M43830.4 4869.07l1029.16 -1848.32 -101.19 1328.86 9.39 77.54 152.7 465.35 20.43 27.79 39.2 53.33 -586.43 -53.33 -563.26 -51.22z"/>
  <path class="fil0 str0" d="M45287.71 5202.42l117.05 83.57 100.34 36.6 994.9 79.22 3000 238.86 3000 238.86 2674.27 212.93 56.19 -3.47 269.54 -55.47 1.52 -0.32 -1.52 23.24 -94 1438.12 7.6 57.66 -386.88 368.07 -233.06 221.72 -166.29 158.1 -571.83 220.64 -1455.04 417.03 -100.5 5.52 -981.83 53.93 -513.88 -148.64 -1194.54 -346.94 -22.23 -3.81 -287.52 -16.3 -2588.53 -146.75 -14.08 0.2 -397.39 33.57 -3000 253.45 -100.63 8.5 -864.16 -710.22 -620.83 -510.24 1585.62 -1470.22 3.81 -6.3 15.89 -18.88 5.24 -16.51 3.98 -6.66 214.84 -829.47 1543.95 140.41z"/>
  <path class="fil0 str0" d="M41760.1 7542.13l460.12 378.16 1083.57 890.54 71.91 22.39 124.3 -10.5 3000 -253.45 407.19 -34.4 2592.81 146.99 264.87 15.02 1126.51 327.18 260.12 1196.51 -669.47 699.72 -633.91 662.55 -20.96 32.91 -6.76 38.43 8.45 38.09 22.39 31.96 32.91 20.95 38.43 6.77 38.09 -8.46 31.96 -22.39 766.19 -800.81 425.33 -444.54 47.96 444.54 95.89 888.74 -1828 1945.25 -156 166.01 -13.29 14.14 -0.51 -14.14 -50.52 -1402.06 -20.31 -80.87 -234.86 -478.82 -73.51 -81.5 -394.24 -246.55 -93.55 -30.04 -1963.21 -122.89 -3000 -187.79 -3000 -187.8 -576.07 -36.06 -77.33 10.42 -67.47 39.21 -47.32 62.05 -19.98 75.44 10.41 77.34 39.22 67.46 62.05 47.33 75.43 19.97 601.06 37.63 3000 187.79 3000 187.79 1887.64 118.16 302.88 189.42 190.95 389.32 48.47 1345.05 12.94 359.13 -1626.45 929.94 -816.43 -69.08 -3000 -253.82 -3000 -253.82 -957.37 -81 -2042.63 -170.35 -2355.4 -196.42 182.62 -264.58 1503.03 -2177.56 669.75 427.74 884.6 564.95 36.35 14.19 39.01 -0.81 35.74 -15.67 27.01 -28.16 14.18 -36.35 -0.81 -39.01 -15.67 -35.73 -28.16 -27.01 -992.25 -633.71 -533.78 -340.9 533.78 -489.71 198.66 -182.26 792.08 -726.69 1314.02 -1159.7 695.24 -530.41 764.43 -583.2 495.67 -378.16z"/>
  <path class="fil0 str0" d="M51109.8 9087.3l369.11 106.77 33.27 3.79 826.08 -45.38 -1016.5 909.79 -211.96 -974.97z"/>
  <path class="fil0 str0" d="M52666.83 9126.82l1448.1 -415.04 8.45 -2.83 185.17 -71.45 -1808.55 1924.43 -336.78 358.36 -654.78 696.73 -75.17 -696.73 -67.83 -628.71 1134.56 -1015.45 166.83 -149.31z"/>
  <path class="fil0 str0" d="M55812.3 7411.14l98.34 -1504.4 284.71 -156.89 407.51 -99.08 448.61 -36.47 -123.45 1815.97 -1115.72 -19.13z"/>
  <path class="fil0 str0" d="M8400.88 15063.59l2087.76 69.3 -51.93 1033.66 -2064.9 32.22 29.07 -1135.18z"/>
  <path class="fil0 str0" d="M17135.82 5326.99l-635.82 -174.24 -848.29 -232.46 -370.93 -101.65 78.15 -1435.65 706.02 -371.42 435.05 589.89 972.65 1318.83 84.42 114.47 -391 271.21 -30.25 21.02z"/>
  <path class="fil0 str0" d="M17139.41 14448.44l622.98 32.36 124 -35.14 469.93 -324.45 0.97 412.68 -84.15 1788.61 -27.43 597.79 -99.94 2177.92 -1316.12 -357.62 131.37 -1820.3 178.39 -2471.85z"/>
  <path class="fil0 str0" d="M3381.48 16276.6l294.81 -477.59 823.71 -495.16 989.36 -594.75 983.15 1520.4 -1972.51 30.06 -1118.52 17.04z"/>
  <path class="fil0 str0" d="M6708.35 16225.91l-1047.73 -1620.28 1129.03 -685.34 710.35 -431.2 877.66 -532.76 -83.96 963.96 -89.83 1031.33 -0.29 5.25 -31.92 1245.1 -671.66 10.99 -784.65 12.84 -7 0.11z"/>
  <path class="fil0 str0" d="M8397.92 12710.07l-897.92 545.06 -1095.78 665.16 -846.79 514.02 -287.87 -514.02 -173.88 -310.48 1408.64 -2172.28 995.68 -31.69 983.07 -31.29 -85.15 1335.52z"/>
  <path class="fil0 str0" d="M8489.35 11174.25l-989.35 31.49 -873.57 27.8 182.99 -313.25 690.58 -1182.16 972.74 -1665.17 15.25 2847.33 1.36 253.96z"/>
  <path class="fil0 str0" d="M8361.21 16598.99l2059.77 -32.15 -10.62 353.45 -53.86 1791.68 -0.04 1.64 -29.66 1206.68 -67.06 2728.12 -2071.74 20.51 80.32 -2748.63 30.73 -1051.69 53.36 -1948.31 8.8 -321.3z"/>
  <path class="fil0 str0" d="M2417.45 22159.59l47.5 -31.94 43.17 -65.01 15 -76.58 -6 -2065.77 -8.73 -3000 -0.67 -230.42 633.53 -9.56 1358.75 -20.7 2221.56 -33.86 778.44 -12.74 661.04 -10.82 -8.71 318.1 -52.06 1901.13 -600.27 566.13 -564.88 532.74 -2435.12 2296.59 -525.58 495.68 -69.14 0.72 -3.19 0.06 -1504.28 39.58 19.64 -593.33z"/>
  <path class="fil0 str0" d="M4269.16 22709.5l230.84 -217.71 2726.62 -2571.5 273.38 -257.83 592.09 -558.4 -23.85 816.23 -80.38 2750.66 -487.86 5.06 -3000 31.1 -230.84 2.39z"/>
  <path class="fil0 str0" d="M31967.71 17752.53l641.84 -656.65 258.81 603.31 -900.65 53.34z"/>
  <path class="fil0 str0" d="M32524.38 16896.89l-22.87 23.4 -826.48 845.56 -175.03 -7.44 -776.51 -33.01 -1235.15 -52.05 -988.34 -42.3 -592.29 -25.35 -2407.71 -101.99 -3000 -127.08 -2691.79 -114.03 -308.21 -227.58 -155.39 -114.73 -869.18 -641.78 81.76 -1737.69 0.11 -4.94 -1.31 -552.52 13.04 -9.01 78.68 -54.06 274.98 -188.97 577.31 36.62 2401.75 152.35 598.25 37.95 3000 190.3 3000 190.3 3000 190.3 522.78 33.16 27.38 1202.89 7.97 36.91 466.25 1094.79z"/>
  <path class="fil0 str0" d="M32223.12 14574.93l1519.74 95.37 102.62 -21.05 302.45 -152.61 64.87 674.35 -1536.98 1571.06 -426.15 -1000.63 -26.55 -1166.49z"/>
  <path class="fil0 str0" d="M32760.81 16941.17l20.43 -20.88 1435.02 -1466.85 -3.13 1466.85 -1.91 890.66 -1126.16 -113.91 -324.25 -755.87z"/>
  <path class="fil0 str0" d="M34337.4 14377.56l85.06 -125.76 28.52 -331.51 49.02 -569.64 35.5 -412.6 2.18 -25.26 2131.73 -1333.86 14.39 23.9 -1599.59 2317.46 -202.29 293.06 -381.92 553.06 -109.89 159.13 -52.71 -547.98z"/>
  <path class="fil0 str0" d="M34207.19 19497.85l-997.25 -1587.16 1000.83 101.24 -3.58 1485.92z"/>
  <path class="fil0 str0" d="M34559.22 12663.39l150.51 -1743.1 8.74 -101.25 -0.71 -41.25 -157.06 -1296.99 458.76 160.04 1102.92 1279.45 428.39 496.95 -1991.55 1246.15z"/>
  <path class="fil0 str0" d="M35334.45 9699.93l2165.55 365.02 705.51 118.92 -705.51 647.26 -97.18 89.16 -577.52 529.84 -37.05 -61.52 -0.71 -0.99 -0.87 -1.19 -8.34 -11.52 -391.9 -454.62 -1051.98 -1220.36z"/>
  <path class="fil0 str0" d="M17065.03 13273.35l-565.03 325.7 -470.75 271.35 -79.52 -14.18 -661.45 -129 309.26 -2806.93 330.54 -3000 151.2 -1372.34 420.72 -292.25 894.22 -621.17 414.95 -287.83 1665.37 2032.51 25.46 21.07 4.13 3.41 950.33 516.6 1182.36 642.73 863.18 758.08 349.74 307.16 -349.74 288.03 -1219.12 1004 -1780.88 1466.63 -90.19 74.28 -229.04 -18.73 245.36 -1522.18 73.87 -458.31 361.55 -2243.04 -2.85 -77.99 -32.48 -70.95 -57.16 -53.13 -73.14 -27.21 -77.98 2.85 -70.96 32.48 -46.98 50.55 -6.14 6.61 -27.21 73.14 -445.69 2765 -253.55 1573.02 -1.54 11.92 -1692.03 763.61 -8.81 4.51z"/>
  <path class="fil0 str0" d="M21980.02 8598.25l519.98 31.97 1664.42 102.32 -1152.15 772.28 -512.27 -449.9 -519.98 -456.67z"/>
  <path class="fil0 str0" d="M24589.33 8487.4l78.2 -567.11 84.32 -611.51 748.15 -779.05 215.6 -224.5 -33.14 1615.06 -1.8 87.63 -180.66 79.37 -910.67 400.11z"/>
  <path class="fil0 str0" d="M25721.65 6010.19l-221.65 230.8 -714.89 744.42 203.86 -2065.12 10.62 -107.64 165.32 107.64 335.09 218.17 161.61 105.22 61.24 707.77 -1.2 58.74z"/>
  <path class="fil0 str0" d="M24807.61 4721.62l-19.62 198.67 -230.09 2330.91 -92.26 669.09 -86.19 625.09 -1879.45 -115.54 -777.32 -47.79 -849.46 -461.76 -1256.38 -682.97 -116.84 -142.59 -1525.99 -1862.42 449.5 -312.02 666.76 -462.82 409.73 18.93 3000 138.61 2307.61 106.61z"/>
  <path class="fil0 str0" d="M25811.61 8168.84l55.05 60.15 2633.34 179.47 1770.85 120.69 4.21 0.24 1224.94 57.51 2216.35 104.07 319.29 196.98 104.1 443.85 178.43 1473.49 -9.93 115 -171.26 1983.43 -87.47 1016.57 -16.01 186.06 -319.75 161.33 -1582.77 -99.32 -630.98 -40.02 -3000 -190.3 -279.78 -17.75 -2720.22 -172.55 -3000 -190.3 -3000 -190.31 -414.33 -26.28 68.77 -699.87 279.49 22.86 66.07 -20.71 5.65 -1.77 2089.83 -1721.07 904.52 -744.91 500.95 -412.56 1277.47 1157.47 334.5 303.08 -47.28 1413.47 6.33 38.5 20.58 33.15 31.7 22.75 37.99 8.89 38.5 -6.33 33.15 -20.58 22.75 -31.7 8.89 -37.99 48.83 -1459.8 -32.8 -77.45 -205.27 -185.99 -1410.25 -1277.77 1348.13 -903.65 985.83 -433.12 311.61 -136.91z"/>
  <path class="fil0 str0" d="M18676.44 13415.2l-334.13 229.61 -399.01 275.48 -228.15 157.52 -738.27 -38.35 -476.88 -85.08 -164.92 -29.42 8.11 -4.67 156.81 -90.39 660.62 -380.8 1582.67 -714.25 -66.85 680.35z"/>
  <path class="fil0 str0" d="M3923.39 15417.12l576.61 -888.94 394.3 -607.89 78.37 -120.82 67.66 120.82 345.82 617.5 -886.15 532.71 -576.61 346.62z"/>
  <path class="fil0 str0" d="M3729.73 11574.89l770.27 -38.39 1758.61 -87.65 -1281.29 1975.91 -477.32 -707.75 -770.27 -1142.12z"/>
  <path class="fil0 str0" d="M28607.53 4602.61l-107.53 -96.36 -2220.83 -1990.29 -28.11 -17.77 -751.06 -314.55 -423.59 -177.4 423.59 19.14 3000 135.58 1924.45 86.97 -61.27 1555.47 -1755.65 799.21z"/>
  <path class="fil0 str0" d="M30549.81 4147.34l598.49 772.95 351.7 454.21 21.6 27.89 -21.6 7.47 -1013.62 350.25 33.03 -839.82 30.4 -772.95z"/>
  <path class="fil0 str0" d="M30287.76 5721.3l-1214.17 -801.01 -278.12 -183.48 1558.91 -709.65 -35.12 893.13 -31.5 801.01z"/>
  <path class="fil0 str0" d="M30663.25 3967.18l836.75 -7.11 2973.89 -25.25 -1956 985.47 -803.28 404.71 -214.61 -277.18 -98.75 -127.53 -738 -953.11z"/>
  <path class="fil0 str0" d="M64874.68 31141.69l-36.17 -86.98 113.89 -1178.27 11.26 -37.36 24.7 -30.21 34.37 -18.45 38.83 -3.9 37.36 11.26 30.2 24.7 18.46 34.38 3.89 38.82 -108.75 1125.12 80.57 65.99 24.78 30.14 11.36 37.33 -3.78 38.83 -18.36 34.43 -30.14 24.78 -37.33 11.36 -38.83 -3.78 -34.43 -18.36 -121.88 -99.83z"/>
 </g>
 <g id="contours">
  <metadata id="CorelCorpID_2Corel-Layer"/>
  <path class="fil0 str0" d="M43529.7 0l0 1500 -14.77 3000 2985.07 2000 3000 -1000 2970.3 -1000 -2970.3 -2970.3 -29.7 -29.7 0 -1500"/>
  <path class="fil0 str0" d="M7529.7 0l0 1500 -29.7 14.92 -2000 2985.08 -1000 1500 -2970.3 1500 2970.3 2970.3 29.7 29.7 -19.73 3000 -9.97 29.7 -3000 0 -1500 0"/>
  <path class="fil0 str0" d="M66000 24000l-1500 0 -1500 -1500 500 -3000 250 -3000 742.52 -3000 7.48 -29.7 1500 0"/>
  <path class="fil0 str0" d="M-0 31470.3l1500 0 14.93 29.7 -14.93 14.92 -1500 0"/>
  <path class="fil0 str0" d="M66000 45000l-1500 0 -3000 -1490.03 -14.93 -9.97 -735.07 -3000 750 -750 3000 -250 1500 0"/>
  <path class="fil0 str0" d="M49500 55509.97l-3000 740.03 -3000 -742.52 -29.7 -7.48 -2970.3 -1000 -3000 -1990.03 -7.48 -9.97 0 -3000 7.48 -7.48 3000 -742.52 3000 -1050 3000 800 1500 1000 1500 2000 1000 1000 -990.03 3000 -9.97 9.97z"/>
  <path class="fil0 str0" d="M-0 59500l1500 0 3000 0 2970.3 -1000 0 -3000 -2970.3 -2970.3 -3000 0 -1500 0"/>
  <path class="fil0 str0" d="M15500 66000l0 -1500 1000 -1000 2000 -2000 250 -3000 -1250 -3000 0 -3000 1970.3 -3000 29.7 -29.7 2970.3 -2970.3 -2970.3 -2970.3 -14.93 -29.7 -14.77 -3000 29.7 -14.93 2000 -2985.07 992.52 -3000 7.48 -14.93 3000 -1485.07 3000 0 1500 1500 1500 2970.3 29.7 29.7 0 3000 2970.3 1500 1500 -1500 1500 -1500 2970.3 -1500 29.7 -29.7 2970.3 -2970.3 -2970.3 -2970.3 -29.7 -29.7 -2970.3 -1500 -1500 -1500 -1500 -2970.3 -29.7 -29.7 -2970.3 -2970.3 -3000 -19.73 -29.7 -9.97 -2970.3 -2970.3 -14.93 -29.7 -14.77 -3000 -2970.3 -2970.3 -3000 1970.3 -3000 -500 -3000 -1492.52 -9.97 -7.48 -990.03 -3000 990.03 -3000 9.97 -29.7 3000 -1970.3 2970.3 -1000 29.7 -29.7 2970.3 -2970.3 0 -1500"/>
  <path class="fil0 str0" d="M66000 56500l-1500 0 -3000 1000 -2970.3 1000 -29.7 9.97 -3000 1990.03 -1000 1000 -2000 2000 -1500 1000 0 1500"/>
  <path class="fil0 str0" d="M28470.3 66000l0 -1500 29.7 -14.93 14.93 14.93 0 1500"/>
 </g>
</svg>
