<svg version="1.1" viewBox="0.0 0.0 694.5 688.5"
     fill="none"
     stroke="none"
     stroke-linecap="square" stroke-miterlimit="10"
     xmlns:xlink="http://www.w3.org/1999/xlink"
     xmlns="http://www.w3.org/2000/svg">
    <clipPath id="p.0"><path d="m0 0l694.5 0l0 688.4l-694.5 0l0 -688.4z" clip-rule="nonzero"/></clipPath>
    <g clip-path="url(#p.0)">
    <path fill="#000000" fill-opacity="0.0" d="m0 0l694.51447 0l0 688.4094l-694.51447 0z" fill-rule="evenodd"/><path fill="#666666" d="m126.28346 123.8294l1.8398895 -3.8320236l34.958008 17.325455l17.018372 -36.797897l-46.30446 -20.545929l-17.477684 38.178474z" fill-rule="evenodd"/>
    <path stroke="#000000" stroke-width="2.0" stroke-linejoin="round" stroke-linecap="butt" d="m126.28346 123.8294l1.8398895 -3.8320236l34.958008 17.325455l17.018372 -36.797897l-46.30446 -20.545929l-17.477684 38.178474z" fill-rule="evenodd"/><path fill="#666666" d="m133.79527 80.13386l-36.031494 -18.091862l-8.892387 19.165356l-1.8398972 -0.7690277l-10.118111 19.013123l7.818901 3.832016l-0.9186325 1.6876678l14.257217 6.745407l1.6876602 -2.913391l3.0656204 2.454071l13.952751 6.593178z" fill-rule="evenodd"/>
    <path stroke="#000000" stroke-width="2.0" stroke-linejoin="round" stroke-linecap="butt" d="m133.79527 80.13386l-36.031494 -18.091862l-8.892387 19.165356l-1.8398972 -0.7690277l-10.118111 19.013123l7.818901 3.832016l-0.9186325 1.6876678l14.257217 6.745407l1.6876602 -2.913391l3.0656204 2.454071l13.952751 6.593178z" fill-rule="evenodd"/>
    <path fill="#666666" d="m179.94489 100.98425l46.916 19.320206l-36.335953 69.14699l-43.083984 -19.931763z" fill-rule="evenodd"/>
        <path stroke="#000000" stroke-width="2.0" stroke-linejoin="round" stroke-linecap="butt" d="m179.94489 100.98425l46.916 19.320206l-36.335953 69.14699l-43.083984 -19.931763z" fill-rule="evenodd"/>
        <path fill="#666666" d="m226.70866 120.30446l37.716537 14.871399l-30.204727 47.682404l-9.658798 12.265091l-11.805771 -8.585297l1.3805847 -1.9921265l-14.871399 -10.580048z" fill-rule="evenodd"/>
    <path stroke="#000000" stroke-width="2.0" stroke-linejoin="round" stroke-linecap="butt" d="m226.70866 120.30446l37.716537 14.871399l-30.204727 47.682404l-9.658798 12.265091l-11.805771 -8.585297l1.3805847 -1.9921265l-14.871399 -10.580048z" fill-rule="evenodd"/>
        <path fill="#666666" d="m264.27298 135.48294l31.88974 12.265091l-18.858246 45.997375l-9.965881 -4.141739l-0.91864014 2.3018494l-15.3333435 -7.0525055l-4.598419 6.438324l-11.805771 -9.047241z" fill-rule="evenodd"/><path stroke="#000000" stroke-width="2.0" stroke-linejoin="round" stroke-linecap="butt" d="m264.27298 135.48294l31.88974 12.265091l-18.858246 45.997375l-9.965881 -4.141739l-0.91864014 2.3018494l-15.3333435 -7.0525055l-4.598419 6.438324l-11.805771 -9.047241z" fill-rule="evenodd"/><path fill="#666666" d="m111.10499 221.3412l42.622047 30.359589l-7.6666718 10.2729645l82.64043 57.955383l-22.538055 30.049866l-120.97113 -86.77954z" fill-rule="evenodd"/><path stroke="#000000" stroke-width="2.0" stroke-linejoin="round" stroke-linecap="butt" d="m111.10499 221.3412l42.622047 30.359589l-7.6666718 10.2729645l82.64043 57.955383l-22.538055 30.049866l-120.97113 -86.77954z" fill-rule="evenodd"/>
    <path fill="#666666" d="m79.67191 270.86615l26.832024 19.165344l-18.551178 28.97638l2.6062927 1.3805847l-4.90551 8.278198l-2.6063004 -1.5328064l-8.895012 14.412079l-28.824146 -17.32547z" fill-rule="evenodd"/>
    <path stroke="#000000" stroke-width="2.0" stroke-linejoin="round" stroke-linecap="butt" d="m79.67191 270.86615l26.832024 19.165344l-18.551178 28.97638l2.6062927 1.3805847l-4.90551 8.278198l-2.6063004 -1.5328064l-8.895012 14.412079l-28.824146 -17.32547z" fill-rule="evenodd"/>
    <path fill="#666666" d="m66.79265 256.14697l15.485565 10.425201l-30.971127 47.07086l-14.257217 -9.199463z" fill-rule="evenodd"/>
    <path stroke="#000000" stroke-width="2.0" stroke-linejoin="round" stroke-linecap="butt" d="m66.79265 256.14697l15.485565 10.425201l-30.971127 47.07086l-14.257217 -9.199463z" fill-rule="evenodd"/><path fill="#666666" d="m102.67191 110.950134l-16.099731 32.196854l-4.7532806 -2.606308l-4.1391144 7.514435l-21.157478 -11.346451l-5.6745377 10.887131l21.619423 11.036758l-11.805775 21.771652l48.90814 26.832016l20.238838 -38.94226l-21.309708 -11.346451l6.131233 -12.7270355l4.90551 1.994751l3.6797943 -8.433075l-4.750656 -2.454071l6.131233 -12.572174z" fill-rule="evenodd"/>
    <path stroke="#000000" stroke-width="2.0" stroke-linejoin="round" stroke-linecap="butt" d="m102.67191 110.950134l-16.099731 32.196854l-4.7532806 -2.606308l-4.1391144 7.514435l-21.157478 -11.346451l-5.6745377 10.887131l21.619423 11.036758l-11.805775 21.771652l48.90814 26.832016l20.238838 -38.94226l-21.309708 -11.346451l6.131233 -12.7270355l4.90551 1.994751l3.6797943 -8.433075l-4.750656 -2.454071l6.131233 -12.572174z" fill-rule="evenodd"/>
    <path fill="#666666" d="m295.8714 148.05511l14.412079 5.2126007l-22.078766 53.661423l-14.719147 -5.8241577z" fill-rule="evenodd"/>
    <path stroke="#000000" stroke-width="2.0" stroke-linejoin="round" stroke-linecap="butt" d="m295.8714 148.05511l14.412079 5.2126007l-22.078766 53.661423l-14.719147 -5.8241577z" fill-rule="evenodd"/>
    <path fill="#666666" d="m310.89764 153.8819l56.422577 22.07611l-27.59845 42.624664l-25.451416 -9.813644l1.225708 -3.984253l-5.2125854 -2.1469727l-8.585327 19.010498l3.3727112 2.1469727l-9.506561 11.039368l-9.506561 -8.2782135l-4.291321 -1.5354309z" fill-rule="evenodd"/>
    <path stroke="#000000" stroke-width="2.0" stroke-linejoin="round" stroke-linecap="butt" d="m310.89764 153.8819l56.422577 22.07611l-27.59845 42.624664l-25.451416 -9.813644l1.225708 -3.984253l-5.2125854 -2.1469727l-8.585327 19.010498l3.3727112 2.1469727l-9.506561 11.039368l-9.506561 -8.2782135l-4.291321 -1.5354309z" fill-rule="evenodd"/>
    <path fill="#666666" d="m367.01312 175.95801l24.225708 9.506561l-30.359558 43.543304l-7.3595886 -5.2126007l5.519684 -8.89238l-11.650909 -7.0525055z" fill-rule="evenodd"/>
    <path stroke="#000000" stroke-width="2.0" stroke-linejoin="round" stroke-linecap="butt" d="m367.01312 175.95801l24.225708 9.506561l-30.359558 43.543304l-7.3595886 -5.2126007l5.519684 -8.89238l-11.650909 -7.0525055z" fill-rule="evenodd"/>
    <path fill="#666666" d="m508.0551 248.17323l50.595825 20.391068l-12.879272 17.939636l-12.572205 -7.8189087l-24.532806 45.53543l-5.2125854 -3.3726807l-1.2257385 1.3805542l-21.771637 -16.559052l6.438324 -10.272949l-0.61154175 -5.0577393l0.9186096 -1.228363l1.8399048 1.3805847l5.67453 -9.658783l-2.1469727 -1.228363l15.792664 -27.443558l-1.994751 -1.0735016z" fill-rule="evenodd"/>
    <path stroke="#000000" stroke-width="2.0" stroke-linejoin="round" stroke-linecap="butt" d="m508.0551 248.17323l50.595825 20.391068l-12.879272 17.939636l-12.572205 -7.8189087l-24.532806 45.53543l-5.2125854 -3.3726807l-1.2257385 1.3805542l-21.771637 -16.559052l6.438324 -10.272949l-0.61154175 -5.0577393l0.9186096 -1.228363l1.8399048 1.3805847l5.67453 -9.658783l-2.1469727 -1.228363l15.792664 -27.443558l-1.994751 -1.0735016z" fill-rule="evenodd"/>
    <path fill="#666666" d="m507.5958 248.17323l-55.351715 -28.51706l-30.049866 38.482925l63.782166 33.118134l1.225708 -2.1470032l1.6876831 1.3805847l5.519684 -9.351715l-2.1469727 -1.2283325l15.637787 -27.13649l-1.8399048 -1.5328064z" fill-rule="evenodd"/>
    <path stroke="#000000" stroke-width="2.0" stroke-linejoin="round" stroke-linecap="butt" d="m507.5958 248.17323l-55.351715 -28.51706l-30.049866 38.482925l63.782166 33.118134l1.225708 -2.1470032l1.6876831 1.3805847l5.519684 -9.351715l-2.1469727 -1.2283325l15.637787 -27.13649l-1.8399048 -1.5328064z" fill-rule="evenodd"/><path fill="#666666" d="m391.6824 185.31233l-30.816254 43.850403l2.913391 2.1443481l1.5328064 -2.2992096l17.32544 14.719162l6.2861023 -5.671921l27.902893 26.677155l32.658783 -43.54329l1.5328064 0.61416626l2.454071 -3.372696l-6.2861023 -4.141739l0.3070984 0.46194458l-55.65616 -29.286087" fill-rule="evenodd"/>
    <path stroke="#000000" stroke-width="2.0" stroke-linejoin="round" stroke-linecap="butt" d="m391.6824 185.31233l-30.816254 43.850403l2.913391 2.1443481l1.5328064 -2.2992096l17.32544 14.719162l6.2861023 -5.671921l27.902893 26.677155l32.658783 -43.54329l1.5328064 0.61416626l2.454071 -3.372696l-6.2861023 -4.141739l0.3070984 0.46194458l-55.65616 -29.286087" fill-rule="evenodd"/>
    <path fill="#666666" d="m574.1365 274.39108l120.97113 57.036743l33.270325 16.86615l-42.16272 32.503937l-22.078735 16.559052l-14.871399 16.863495l5.5197144 4.908142l-180.76904 202.6903l-91.83728 -82.64044l47.223114 -53.202087l-24.225739 -22.538055l137.53021 -156.69556z" fill-rule="evenodd"/>
    <path stroke="#000000" stroke-width="2.0" stroke-linejoin="round" stroke-linecap="butt" d="m574.1365 274.39108l120.97113 57.036743l33.270325 16.86615l-42.16272 32.503937l-22.078735 16.559052l-14.871399 16.863495l5.5197144 4.908142l-180.76904 202.6903l-91.83728 -82.64044l47.223114 -53.202087l-24.225739 -22.538055l137.53021 -156.69556z" fill-rule="evenodd"/>
    <path fill="#ffffff" d="m549.4514 351.97375l41.70343 36.795288l-96.90024 109.165344l-41.060394 -38.02362z" fill-rule="evenodd"/>
    <path stroke="#000000" stroke-width="2.0" stroke-linejoin="round" stroke-linecap="butt" d="m549.4514 351.97375l41.70343 36.795288l-96.90024 109.165344l-41.060394 -38.02362z" fill-rule="evenodd"/>
    <path fill="#666666" d="m575.82153 0.5590551l34.346436 117.13649l2.451477 16.559052l0 23.91864l-2.451477 22.078735l-5.5196533 19.013123l-7.359619 14.10498l-15.94751 6.131241l-12.876648 0l-3.0682373 5.519684l-235.50128 -114.07086l14.10498 -35.569557l6.13385 3.0656204l3.6798096 -9.199478l43.543304 17.173225l30.049866 -84.020996l8.585297 0" fill-rule="evenodd"/>
    <path stroke="#000000" stroke-width="2.0" stroke-linejoin="round" stroke-linecap="butt" d="m575.82153 0.5590551l34.346436 117.13649l2.451477 16.559052l0 23.91864l-2.451477 22.078735l-5.5196533 19.013123l-7.359619 14.10498l-15.94751 6.131241l-12.876648 0l-3.0682373 5.519684l-235.50128 -114.07086l14.10498 -35.569557l6.13385 3.0656204l3.6798096 -9.199478l43.543304 17.173225l30.049866 -84.020996l8.585297 0" fill-rule="evenodd"/>
    <path fill="#666666" d="m324.98688 0.5590551l15.94751 4.905512l-9.81366 28.824148l26.372711 10.427818l18.396332 -45.997375" fill-rule="evenodd"/>
    <path stroke="#000000" stroke-width="2.0" stroke-linejoin="round" stroke-linecap="butt" d="m324.98688 0.5590551l15.94751 4.905512l-9.81366 28.824148l26.372711 10.427818l18.396332 -45.997375" fill-rule="evenodd"/><path fill="#666666" d="m274.69815 4.2388453l2.454071 -3.3727036l4.5984497 -0.9212598l5.2125854 1.5328084l3.0682373 4.2939634l-1.8399048 6.7454066l-4.2939453 2.1469812l-7.05249 18.091864l47.53018 19.013123l6.438324 -16.559055l26.37268 10.425198l-26.984253 65.92914l-93.83464 -42.010506l28.5197 -68.99475z" fill-rule="evenodd"/><path stroke="#000000" stroke-width="2.0" stroke-linejoin="round" stroke-linecap="butt" d="m274.69815 4.2388453l2.454071 -3.3727036l4.5984497 -0.9212598l5.2125854 1.5328084l3.0682373 4.2939634l-1.8399048 6.7454066l-4.2939453 2.1469812l-7.05249 18.091864l47.53018 19.013123l6.438324 -16.559055l26.37268 10.425198l-26.984253 65.92914l-93.83464 -42.010506l28.5197 -68.99475z" fill-rule="evenodd"/>
    <path fill="#666666" d="m314.86877 44.40945l2.454071 -7.666668l7.664032 -3.9868774l6.13385 2.4540672l-7.05249 16.866142l-5.826782 -2.1469803l1.8399048 -4.2939644z" fill-rule="evenodd"/>
    <path stroke="#000000" stroke-width="2.0" stroke-linejoin="round" stroke-linecap="butt" d="m314.86877 44.40945l2.454071 -7.666668l7.664032 -3.9868774l6.13385 2.4540672l-7.05249 16.866142l-5.826782 -2.1469803l1.8399048 -4.2939644z" fill-rule="evenodd"/>
    <path fill="#666666" d="m193.7454 -0.05511811l60.713913 26.984253l-16.863525 41.09186l-97.82152 -44.464565l10.427826 -23.304462" fill-rule="evenodd"/>
    <path stroke="#000000" stroke-width="2.0" stroke-linejoin="round" stroke-linecap="butt" d="m193.7454 -0.05511811l60.713913 26.984253l-16.863525 41.09186l-97.82152 -44.464565l10.427826 -23.304462" fill-rule="evenodd"/>
    <path fill="#666666" d="m83.35171 0.5590551l55.811028 22.997375l11.343826 -23.61155" fill-rule="evenodd"/>
    <path stroke="#000000" stroke-width="2.0" stroke-linejoin="round" stroke-linecap="butt" d="m83.35171 0.5590551l55.811028 22.997375l11.343826 -23.61155" fill-rule="evenodd"/>
    <path fill="#666666" d="m-0.05511811 11.905512l6.133858 2.7585297l-5.519685 11.96063" fill-rule="evenodd"/>
    <path stroke="#000000" stroke-width="2.0" stroke-linejoin="round" stroke-linecap="butt" d="m-0.05511811 11.905512l6.133858 2.7585297l-5.519685 11.96063" fill-rule="evenodd"/>
    <path fill="#666666" d="m0.5590551 26.624672l5.519685 -11.653543l21.464565 11.03937l-26.677164 49.37008" fill-rule="evenodd"/>
    <path stroke="#000000" stroke-width="2.0" stroke-linejoin="round" stroke-linecap="butt" d="m0.5590551 26.624672l5.519685 -11.653543l21.464565 11.03937l-26.677164 49.37008" fill-rule="evenodd"/>
    <path fill="#666666" d="m1.1732284 167.6798l8.892388 5.2126007l8.585302 -15.330719l12.879265 6.745407l7.9711285 -14.10498l-2.1443558 -0.92126465l43.850395 -81.874016l1.7611542 0.84252167l2.989502 -5.9028854l-1.4566956 -1.1496086l1.2283478 -4.2152214l-3.5275574 -3.8346481l-0.91864014 1.6115494l-3.2204666 -1.7637787l0.6902847 -1.3805771l-1.8398972 -1.1496086l0.69029236 -1.4566917l-10.580055 -5.519684l-0.9973755 1.6115494l-1.916008 -1.073494l-0.84252167 1.1496086l-16.099735 -7.8188972l0.6141739 -1.5354347l-1.8398972 -0.7664032l0.45931625 -1.3779526l-8.740154 -4.4461956l-0.9186363 1.6850395l-1.5328102 -1.2257214l-0.921257 1.3805771l-2.9133873 -1.8398952l1.0734901 -1.9947491l-4.291338 -2.4514446l-27.598425 49.674545" fill-rule="evenodd"/>
    <path stroke="#000000" stroke-width="2.0" stroke-linejoin="round" stroke-linecap="butt" d="m1.1732284 167.6798l8.892388 5.2126007l8.585302 -15.330719l12.879265 6.745407l7.9711285 -14.10498l-2.1443558 -0.92126465l43.850395 -81.874016l1.7611542 0.84252167l2.989502 -5.9028854l-1.4566956 -1.1496086l1.2283478 -4.2152214l-3.5275574 -3.8346481l-0.91864014 1.6115494l-3.2204666 -1.7637787l0.6902847 -1.3805771l-1.8398972 -1.1496086l0.69029236 -1.4566917l-10.580055 -5.519684l-0.9973755 1.6115494l-1.916008 -1.073494l-0.84252167 1.1496086l-16.099735 -7.8188972l0.6141739 -1.5354347l-1.8398972 -0.7664032l0.45931625 -1.3779526l-8.740154 -4.4461956l-0.9186363 1.6850395l-1.5328102 -1.2257214l-0.921257 1.3805771l-2.9133873 -1.8398952l1.0734901 -1.9947491l-4.291338 -2.4514446l-27.598425 49.674545" fill-rule="evenodd"/>
    <path fill="#666666" d="m11.249344 171.75066l21.750656 11.249344l20.249344 -34.249344l-2.0 -0.7506561l6.0 -10.750656l2.2519684 1.2519684l19.498688 -37.750656l-2.0 -2.5013123l10.0 -18.748032l2.5013123 1.2493439l7.4986877 -16.0l-2.8740158 -1.5013123l-1.0 2.1259842l-7.125984 -3.375328l-2.8740158 6.0l-1.6246719 -0.7506561l-43.750656 81.50131l2.0 1.4986877l-7.5013123 14.0l-13.0 -6.0z" fill-rule="evenodd"/><path stroke="#000000" stroke-width="2.0" stroke-linejoin="round" stroke-linecap="butt" d="m11.249344 171.75066l21.750656 11.249344l20.249344 -34.249344l-2.0 -0.7506561l6.0 -10.750656l2.2519684 1.2519684l19.498688 -37.750656l-2.0 -2.5013123l10.0 -18.748032l2.5013123 1.2493439l7.4986877 -16.0l-2.8740158 -1.5013123l-1.0 2.1259842l-7.125984 -3.375328l-2.8740158 6.0l-1.6246719 -0.7506561l-43.750656 81.50131l2.0 1.4986877l-7.5013123 14.0l-13.0 -6.0z" fill-rule="evenodd"/><path fill="#b7b7b7" d="m444.60892 332.96063l-68.07611 76.66141l18.398956 17.170624l68.07611 -76.65881z" fill-rule="evenodd"/>
        <path stroke="#000000" stroke-width="2.0" stroke-linejoin="round" stroke-linecap="butt" d="m444.60892 332.96063l-68.07611 76.66141l18.398956 17.170624l68.07611 -76.65881z" fill-rule="evenodd"/>
        <path fill="#b7b7b7" d="m348.9344 537.7979l61.33072 -67.45932l19.624664 17.170593l-63.170624 66.84775z" fill-rule="evenodd"/><path stroke="#000000" stroke-width="2.0" stroke-linejoin="round" stroke-linecap="butt" d="m348.9344 537.7979l61.33072 -67.45932l19.624664 17.170593l-63.170624 66.84775z" fill-rule="evenodd"/>
        <path fill="#000000" fill-opacity="0.0" d="m435.40945 342.7743l17.795258 15.936981" fill-rule="evenodd"/><path stroke="#000000" stroke-width="2.0" stroke-linejoin="round" stroke-linecap="butt" d="m435.40945 342.7743l17.795258 15.936981" fill-rule="evenodd"/><path fill="#000000" fill-opacity="0.0" d="m429.88977 349.979l17.795258 15.937012" fill-rule="evenodd"/>
        <path stroke="#000000" stroke-width="2.0" stroke-linejoin="round" stroke-linecap="butt" d="m429.88977 349.979l17.795258 15.937012" fill-rule="evenodd"/><path fill="#000000" fill-opacity="0.0" d="m422.1942 358.71127l17.795288 15.937012" fill-rule="evenodd"/><path stroke="#000000" stroke-width="2.0" stroke-linejoin="round" stroke-linecap="butt" d="m422.1942 358.71127l17.795288 15.937012" fill-rule="evenodd"/><path fill="#000000" fill-opacity="0.0" d="m415.65616 367.06693l17.795288 15.937012" fill-rule="evenodd"/>
        <path stroke="#000000" stroke-width="2.0" stroke-linejoin="round" stroke-linecap="butt" d="m415.65616 367.06693l17.795288 15.937012" fill-rule="evenodd"/><path fill="#000000" fill-opacity="0.0" d="m408.19684 374.6483l17.795288 15.937012" fill-rule="evenodd"/><path stroke="#000000" stroke-width="2.0" stroke-linejoin="round" stroke-linecap="butt" d="m408.19684 374.6483l17.795288 15.937012" fill-rule="evenodd"/><path fill="#000000" fill-opacity="0.0" d="m400.4 384.15l17.8 15.9" fill-rule="evenodd"/>
        <path stroke="#000000" stroke-width="2.0" stroke-linejoin="round" stroke-linecap="butt" d="m400.41864 384.15485l17.795258 15.937012" fill-rule="evenodd"/><path fill="#000000" fill-opacity="0.0" d="m392.97375 392.69553l17.795288 15.937012" fill-rule="evenodd"/><path stroke="#000000" stroke-width="2.0" stroke-linejoin="round" stroke-linecap="butt" d="m392.97375 392.69553l17.795288 15.937012" fill-rule="evenodd"/><path fill="#000000" fill-opacity="0.0" d="m383.2651 401.34122l19.275574 17.165344" fill-rule="evenodd"/><path stroke="#000000" stroke-width="2.0" stroke-linejoin="round" stroke-linecap="butt" d="m383.2651 401.34122l19.275574 17.165344" fill-rule="evenodd"/><path fill="#666666" d="m653.126 539.6378l-37.409424 -32.503967l-55.19684 60.102356l39.24933 33.7323z" fill-rule="evenodd"/><path stroke="#000000" stroke-width="2.0" stroke-linejoin="round" stroke-linecap="butt" d="m653.126 539.6378l-37.409424 -32.503967l-55.19684 60.102356l39.24933 33.7323z" fill-rule="evenodd"/><path fill="#666666" d="m560.5197 567.8504l-38.637817 42.92914l36.797913 36.797913l41.089233 -46.608948z" fill-rule="evenodd"/><path stroke="#000000" stroke-width="2.0" stroke-linejoin="round" stroke-linecap="butt" d="m560.5197 567.8504l-38.637817 42.92914l36.797913 36.797913l41.089233 -46.608948z" fill-rule="evenodd"/><path fill="#666666" d="m522.49603 610.16797l37.409485 37.409485l-34.34381 38.02362l-39.24936 -34.958008z" fill-rule="evenodd"/><path stroke="#000000" stroke-width="2.0" stroke-linejoin="round" stroke-linecap="butt" d="m522.49603 610.16797l37.409485 37.409485l-34.34381 38.02362l-39.24936 -34.958008z" fill-rule="evenodd"/><path fill="#666666" d="m524.33594 689.2808l7.9711304 -8.585266l-52.742767 -37.41211l-15.330719 20.238892l-7.9737244 0.61413574l-23.91864 -15.944885l-26.984253 40.475098" fill-rule="evenodd"/><path stroke="#000000" stroke-width="2.0" stroke-linejoin="round" stroke-linecap="butt" d="m524.33594 689.2808l7.9711304 -8.585266l-52.742767 -37.41211l-15.330719 20.238892l-7.9737244 0.61413574l-23.91864 -15.944885l-26.984253 40.475098" fill-rule="evenodd"/><path fill="#666666" d="m377.75854 688.0551l-23.916016 -14.719177l30.049866 -53.968506l48.448822 29.43573l-26.370087 39.251953" fill-rule="evenodd"/><path stroke="#000000" stroke-width="2.0" stroke-linejoin="round" stroke-linecap="butt" d="m377.75854 688.0551l-23.916016 -14.719177l30.049866 -53.968506l48.448822 29.43573l-26.370087 39.251953" fill-rule="evenodd"/><path fill="#666666" d="m332.37534 589.31494l12.2677 7.359619l16.559052 -17.173218l12.265106 10.427795l-7.3595886 20.850403l17.170624 8.587891l-30.664062 55.80841l-63.782135 -42.931763z" fill-rule="evenodd"/><path stroke="#000000" stroke-width="2.0" stroke-linejoin="round" stroke-linecap="butt" d="m332.37534 589.31494l12.2677 7.359619l16.559052 -17.173218l12.265106 10.427795l-7.3595886 20.850403l17.170624 8.587891l-30.664062 55.80841l-63.782135 -42.931763z" fill-rule="evenodd"/><path fill="#666666" d="m359.97375 563.55646l-25.144348 -26.370117l-10.425201 8.585327l-11.039368 -13.493469l-32.503937 28.826782l-29.438324 -17.173218l-31.278214 47.83728l69.301834 41.70337z" fill-rule="evenodd"/><path stroke="#000000" stroke-width="2.0" stroke-linejoin="round" stroke-linecap="butt" d="m359.97375 563.55646l-25.144348 -26.370117l-10.425201 8.585327l-11.039368 -13.493469l-32.503937 28.826782l-29.438324 -17.173218l-31.278214 47.83728l69.301834 41.70337z" fill-rule="evenodd"/><path fill="#666666" d="m-0.026246719 506.5223l41.70341 26.370087l-25.75853 39.251953l-16.55643 -11.653564" fill-rule="evenodd"/><path stroke="#000000" stroke-width="2.0" stroke-linejoin="round" stroke-linecap="butt" d="m-0.026246719 506.5223l41.70341 26.370087l-25.75853 39.251953l-16.55643 -11.653564" fill-rule="evenodd"/><path fill="#666666" d="m0.5879265 595.4488l17.170603 -25.144348l9.813648 6.7454224l-12.265091 17.170593l15.330708 9.81366l-31.889763 45.997375" fill-rule="evenodd"/><path stroke="#000000" stroke-width="2.0" stroke-linejoin="round" stroke-linecap="butt" d="m0.5879265 595.4488l17.170603 -25.144348l9.813648 6.7454224l-12.265091 17.170593l15.330708 9.81366l-31.889763 45.997375" fill-rule="evenodd"/><path fill="#666666" d="m17.75853 569.6903l23.918636 -37.41211l14.104988 9.81366l-27.595802 34.958008z" fill-rule="evenodd"/><path stroke="#000000" stroke-width="2.0" stroke-linejoin="round" stroke-linecap="butt" d="m17.75853 569.6903l23.918636 -37.41211l14.104988 9.81366l-27.595802 34.958008z" fill-rule="evenodd"/><path fill="#666666" d="m55.170605 543.31757l15.330708 9.81366l-40.475067 51.51709l-14.71916 -9.81366z" fill-rule="evenodd"/><path stroke="#000000" stroke-width="2.0" stroke-linejoin="round" stroke-linecap="butt" d="m55.170605 543.31757l15.330708 9.81366l-40.475067 51.51709l-14.71916 -9.81366z" fill-rule="evenodd"/><path fill="#666666" d="m150.84251 688.6667l38.02362 -63.16803l-118.36482 -72.98157l-72.367455 98.12598l38.023624 28.212585l19.013123 -25.758545l-8.585304 -4.2939453l22.690289 -31.88977l61.32808 36.797913l-22.690285 33.11548l-8.585297 -5.5197144l-5.5196915 6.748047" fill-rule="evenodd"/><path stroke="#000000" stroke-width="2.0" stroke-linejoin="round" stroke-linecap="butt" d="m150.84251 688.6667l38.02362 -63.16803l-118.36482 -72.98157l-72.367455 98.12598l38.023624 28.212585l19.013123 -25.758545l-8.585304 -4.2939453l22.690289 -31.88977l61.32808 36.797913l-22.690285 33.11548l-8.585297 -5.5197144l-5.5196915 6.748047" fill-rule="evenodd"/><path fill="#666666" d="m233.6378 367.91864l27.59578 22.690277l-12.876633 17.173248l-30.666656 -20.853027z" fill-rule="evenodd"/><path stroke="#000000" stroke-width="2.0" stroke-linejoin="round" stroke-linecap="butt" d="m233.6378 367.91864l27.59578 22.690277l-12.876633 17.173248l-30.666656 -20.853027z" fill-rule="evenodd"/><path fill="#666666" d="m106.073494 357.49344l71.75327 42.314972l-17.784775 27.59842l-71.14173 -39.863525z" fill-rule="evenodd"/><path stroke="#000000" stroke-width="2.0" stroke-linejoin="round" stroke-linecap="butt" d="m106.073494 357.49344l71.75327 42.314972l-17.784775 27.59842l-71.14173 -39.863525z" fill-rule="evenodd"/><path fill="#666666" d="m182.12073 392.44882l20.238846 13.493439l14.104996 -19.013123l31.278214 20.853027l-79.11548 107.32544l21.467178 13.490845l9.199478 -17.170624l52.742783 33.729645l-33.118103 49.06299l-126.950134 -76.04724l37.409454 -46.608917l18.398941 10.425201l38.02362 -50.902893l-19.624664 -12.265076z" fill-rule="evenodd"/><path stroke="#000000" stroke-width="2.0" stroke-linejoin="round" stroke-linecap="butt" d="m182.12073 392.44882l20.238846 13.493439l14.104996 -19.013123l31.278214 20.853027l-79.11548 107.32544l21.467178 13.490845l9.199478 -17.170624l52.742783 33.729645l-33.118103 49.06299l-126.950134 -76.04724l37.409454 -46.608917l18.398941 10.425201l38.02362 -50.902893l-19.624664 -12.265076z" fill-rule="evenodd"/><path fill="#666666" d="m136.12335 413.91602l-16.559044 25.75589l-42.540688 -26.170593l-47.61155 66.03412l15.944883 9.199463l4.666664 -3.2335815l30.0 18.498688l-2.7742767 3.7480164l15.330711 9.81369l68.07612 -90.15488z" fill-rule="evenodd"/><path stroke="#000000" stroke-width="2.0" stroke-linejoin="round" stroke-linecap="butt" d="m136.12335 413.91602l-16.559044 25.75589l-42.540688 -26.170593l-47.61155 66.03412l15.944883 9.199463l4.666664 -3.2335815l30.0 18.498688l-2.7742767 3.7480164l15.330711 9.81369l68.07612 -90.15488z" fill-rule="evenodd"/><path fill="#666666" d="m-0.026246719 459.29922l17.04987 9.700775l-1.7165356 3.1784668l13.490814 9.196869l47.83727 -68.68768l-42.317585 -23.304443l14.107613 -27.59842l-20.85302 -12.265106l-28.209972 43.543304" fill-rule="evenodd"/><path stroke="#000000" stroke-width="2.0" stroke-linejoin="round" stroke-linecap="butt" d="m-0.026246719 459.29922l17.04987 9.700775l-1.7165356 3.1784668l13.490814 9.196869l47.83727 -68.68768l-42.317585 -23.304443l14.107613 -27.59842l-20.85302 -12.265106l-28.209972 43.543304" fill-rule="evenodd"/><path fill="#666666" d="m259.38058 420.35434l-11.653549 -11.346466l12.574814 -16.863525l18.091858 14.716553l41.39633 -45.99475l78.194214 72.67453l-7.3595886 7.6666565l2.1470032 2.4514465l-9.81366 11.039368l5.509186 3.8346558l-4.217865 4.4461975l-1.3779297 -1.0734863l-5.7506714 5.902893l1.5328064 1.3779297l-3.984253 4.753296l-1.6876526 -1.3018494l-5.6719055 6.362213l1.3779297 1.3805847l-3.5249329 3.908142l-1.3044434 -1.2257385l-7.1286316 7.283478l1.6850586 1.3805542l-3.2939758 3.677185l-4.359558 -3.908142l-9.199493 9.811035l-17.480316 -18.091888l-2.4514465 2.7611694l-3.9868774 -3.679779l2.1470032 -2.1470032l-6.4409485 -5.519684l-2.1443787 1.8399048l-3.9868774 -4.2913513l2.4514465 -1.2283325l-7.359558 -6.438324l-2.1443787 1.5328064l-4.6010437 -3.9868774l1.8399048 -2.1469727l-5.212616 -4.9055176l-2.454071 2.758545l-4.905487 -5.212616l1.5328064 -1.8399048l-18.091858 -15.944855l1.5328064 -2.1470032l-12.572205 -9.506561z" fill-rule="evenodd"/><path stroke="#000000" stroke-width="2.0" stroke-linejoin="round" stroke-linecap="butt" d="m259.38058 420.35434l-11.653549 -11.346466l12.574814 -16.863525l18.091858 14.716553l41.39633 -45.99475l78.194214 72.67453l-7.3595886 7.6666565l2.1470032 2.4514465l-9.81366 11.039368l5.509186 3.8346558l-4.217865 4.4461975l-1.3779297 -1.0734863l-5.7506714 5.902893l1.5328064 1.3779297l-3.984253 4.753296l-1.6876526 -1.3018494l-5.6719055 6.362213l1.3779297 1.3805847l-3.5249329 3.908142l-1.3044434 -1.2257385l-7.1286316 7.283478l1.6850586 1.3805542l-3.2939758 3.677185l-4.359558 -3.908142l-9.199493 9.811035l-17.480316 -18.091888l-2.4514465 2.7611694l-3.9868774 -3.679779l2.1470032 -2.1470032l-6.4409485 -5.519684l-2.1443787 1.8399048l-3.9868774 -4.2913513l2.4514465 -1.2283325l-7.359558 -6.438324l-2.1443787 1.5328064l-4.6010437 -3.9868774l1.8399048 -2.1469727l-5.212616 -4.9055176l-2.454071 2.758545l-4.905487 -5.212616l1.5328064 -1.8399048l-18.091858 -15.944855l1.5328064 -2.1470032l-12.572205 -9.506561z" fill-rule="evenodd"/><path fill="#ffffff" d="m23.023623 405.0l17.999998 11.501312l-11.50131 19.0l-19.0 -10.501312z" fill-rule="evenodd"/><path stroke="#000000" stroke-width="2.0" stroke-linejoin="round" stroke-linecap="butt" d="m23.023623 405.0l17.999998 11.501312l-11.50131 19.0l-19.0 -10.501312z" fill-rule="evenodd"/><path fill="#ffffff" d="m83.02362 444.0l20.0 11.501312l-12.501312 19.498688l-20.0 -13.498688z" fill-rule="evenodd"/><path stroke="#000000" stroke-width="2.0" stroke-linejoin="round" stroke-linecap="butt" d="m83.02362 444.0l20.0 11.501312l-12.501312 19.498688l-20.0 -13.498688z" fill-rule="evenodd"/><path fill="#666666" d="m1.023622 168.50131l82.0 45.498688l-55.501312 84.50131l1.5013123 12.0l-6.0 1.0l-2.5013123 -10.501312l-20.498688 -11.498688l1.0 -58.0l14.0 8.498688l22.498686 -34.498688l-36.498688 -22.0" fill-rule="evenodd"/><path stroke="#000000" stroke-width="2.0" stroke-linejoin="round" stroke-linecap="butt" d="m1.023622 168.50131l82.0 45.498688l-55.501312 84.50131l1.5013123 12.0l-6.0 1.0l-2.5013123 -10.501312l-20.498688 -11.498688l1.0 -58.0l14.0 8.498688l22.498686 -34.498688l-36.498688 -22.0" fill-rule="evenodd"/><path fill="#666666" d="m292.5223 688.50134l-103.49869 -62.0l-18.0 28.0l6.4986877 4.0l-5.4986877 10.498657l4.4986877 2.5013428l-5.0 8.0l11.0 1.4986572l8.0 6.501343" fill-rule="evenodd"/><path stroke="#000000" stroke-width="2.0" stroke-linejoin="round" stroke-linecap="butt" d="m292.5223 688.50134l-103.49869 -62.0l-18.0 28.0l6.4986877 4.0l-5.4986877 10.498657l4.4986877 2.5013428l-5.0 8.0l11.0 1.4986572l8.0 6.501343" fill-rule="evenodd"/><path fill="#000000" fill-opacity="0.0" d="m615.15485 202.48293l0 0c0 -16.933838 13.762817 -30.661423 30.740173 -30.661423l0 0c8.152771 0 15.97168 3.2303925 21.736572 8.980515c5.7648926 5.7501373 9.003601 13.548996 9.003601 21.680908l0 0c0 16.933823 -13.762878 30.661407 -30.740173 30.661407l0 0c-16.977356 0 -30.740173 -13.727585 -30.740173 -30.661407z" fill-rule="evenodd"/><path stroke="#000000" stroke-width="1.0" stroke-linejoin="round" stroke-linecap="butt" d="m615.15485 202.48293l0 0c0 -16.933838 13.762817 -30.661423 30.740173 -30.661423l0 0c8.152771 0 15.97168 3.2303925 21.736572 8.980515c5.7648926 5.7501373 9.003601 13.548996 9.003601 21.680908l0 0c0 16.933823 -13.762878 30.661407 -30.740173 30.661407l0 0c-16.977356 0 -30.740173 -13.727585 -30.740173 -30.661407z" fill-rule="evenodd"/><path fill="#000000" fill-opacity="0.0" d="m614.52496 202.32544l62.11023 0.15748596" fill-rule="evenodd"/><path stroke="#000000" stroke-width="1.0" stroke-linejoin="round" stroke-linecap="butt" d="m614.52496 202.32544l62.11023 0.15748596" fill-rule="evenodd"/><path fill="#000000" fill-opacity="0.0" d="m646.3989 202.34119l-0.50390625 30.803146" fill-rule="evenodd"/><path stroke="#000000" stroke-width="1.0" stroke-linejoin="round" stroke-linecap="butt" d="m646.3989 202.34119l-0.50390625 30.803146" fill-rule="evenodd"/><path fill="#000000" fill-opacity="0.0" d="m645.1706 202.34119l0.72442627 -30.519684" fill-rule="evenodd"/><path stroke="#000000" stroke-width="8.0" stroke-linejoin="round" stroke-linecap="butt" d="m645.1706 202.34119l0.72442627 -30.519684" fill-rule="evenodd"/><path fill="#666666" d="m695.1207 591.4619l-51.514404 58.262512l34.34381 28.517029l13.490784 9.506592l3.9868774 0" fill-rule="evenodd"/><path stroke="#000000" stroke-width="2.0" stroke-linejoin="round" stroke-linecap="butt" d="m695.1207 591.4619l-51.514404 58.262512l34.34381 28.517029l13.490784 9.506592l3.9868774 0" fill-rule="evenodd"/><path fill="#666666" d="m672.73755 688.3622l6.7453613 -8.89502l-24.83722 -19.624634l-19.320251 27.29132" fill-rule="evenodd"/><path stroke="#000000" stroke-width="2.0" stroke-linejoin="round" stroke-linecap="butt" d="m672.73755 688.3622l6.7453613 -8.89502l-24.83722 -19.624634l-19.320251 27.29132" fill-rule="evenodd"/><path fill="#666666" d="m610.48816 687.74805l33.118164 -37.409485l11.650879 9.503967l-19.624634 27.29132" fill-rule="evenodd"/><path stroke="#000000" stroke-width="2.0" stroke-linejoin="round" stroke-linecap="butt" d="m610.48816 687.74805l33.118164 -37.409485l11.650879 9.503967l-19.624634 27.29132" fill-rule="evenodd"/><path fill="#666666" d="m631.0341 486.89502l8.278198 -9.199493l38.637817 34.65091l-24.532837 27.59845l-37.71649 -32.811035l9.199463 -10.425201l7.666687 1.8399048l3.3726807 -3.679779z" fill-rule="evenodd"/><path stroke="#000000" stroke-width="2.0" stroke-linejoin="round" stroke-linecap="butt" d="m631.0341 486.89502l8.278198 -9.199493l38.637817 34.65091l-24.532837 27.59845l-37.71649 -32.811035l9.199463 -10.425201l7.666687 1.8399048l3.3726807 -3.679779z" fill-rule="evenodd"/><path fill="#666666" d="m695.1207 415.14172l-11.343811 12.879272l7.05249 5.826782l-8.892395 9.503937l-6.748047 -5.212616l-12.572144 14.719177l5.826721 4.9055176l-7.973755 9.813629l-5.8240967 -4.9055176l-15.026245 15.330719l38.33069 34.34381l17.477661 -21.15747" fill-rule="evenodd"/><path stroke="#000000" stroke-width="2.0" stroke-linejoin="round" stroke-linecap="butt" d="m695.1207 415.14172l-11.343811 12.879272l7.05249 5.826782l-8.892395 9.503937l-6.748047 -5.212616l-12.572144 14.719177l5.826721 4.9055176l-7.973755 9.813629l-5.8240967 -4.9055176l-15.026245 15.330719l38.33069 34.34381l17.477661 -21.15747" fill-rule="evenodd"/><path fill="#666666" d="m695.7349 374.04987l-10.7323 7.3595886l10.7323 11.346466" fill-rule="evenodd"/><path stroke="#000000" stroke-width="2.0" stroke-linejoin="round" stroke-linecap="butt" d="m695.7349 374.04987l-10.7323 7.3595886l10.7323 11.346466" fill-rule="evenodd"/><path fill="#666666" d="m696.042 393.67715l-11.346436 -11.653534l-21.15747 14.412079l-14.719177 17.480316l17.78479 14.10498l28.517029 -27.291351" fill-rule="evenodd"/><path stroke="#000000" stroke-width="2.0" stroke-linejoin="round" stroke-linecap="butt" d="m696.042 393.67715l-11.346436 -11.653534l-21.15747 14.412079l-14.719177 17.480316l17.78479 14.10498l28.517029 -27.291351" fill-rule="evenodd"/><path fill="#000000" fill-opacity="0.0" d="m289.3727 131.3819l123.88452 46.608917l163.13382 83.409454l-179.0787 193.79788l38.02362 36.797913l-72.36746 71.141754l-132.46982 -122.65881l-85.860886 -56.422577l57.648285 -74.82153z" fill-rule="evenodd"/><path stroke="#ff0000" stroke-width="8.0" stroke-linejoin="round" stroke-linecap="butt" stroke-dasharray="32.0,24.0" d="m289.3727 131.3819l123.88452 46.608917l163.13382 83.409454l-179.0787 193.79788l38.02362 36.797913l-72.36746 71.141754l-132.46982 -122.65881l-85.860886 -56.422577l57.648285 -74.82153z" fill-rule="evenodd"/><path fill="#000000" fill-opacity="0.0" d="m402.2756 478.6168l20.852997 17.173248" fill-rule="evenodd"/><path stroke="#000000" stroke-width="2.0" stroke-linejoin="round" stroke-linecap="butt" d="m402.2756 478.6168l20.852997 17.173248" fill-rule="evenodd"/><path fill="#000000" fill-opacity="0.0" d="m393.99738 488.12335l20.23883 16.559052" fill-rule="evenodd"/><path stroke="#000000" stroke-width="2.0" stroke-linejoin="round" stroke-linecap="butt" d="m393.99738 488.12335l20.23883 16.559052" fill-rule="evenodd"/><path fill="#000000" fill-opacity="0.0" d="m387.0551 495.021l20.23819 16.55841" fill-rule="evenodd"/><path stroke="#000000" stroke-width="2.0" stroke-linejoin="round" stroke-linecap="butt" d="m387.0551 495.021l20.23819 16.55841" fill-rule="evenodd"/><path fill="#000000" fill-opacity="0.0" d="m380.26117 504.34778l18.301819 16.0" fill-rule="evenodd"/><path stroke="#000000" stroke-width="2.0" stroke-linejoin="round" stroke-linecap="butt" d="m380.26117 504.34778l18.301819 16.0" fill-rule="evenodd"/><path fill="#000000" fill-opacity="0.0" d="m372.937 512.34644l18.301819 16.0" fill-rule="evenodd"/><path stroke="#000000" stroke-width="2.0" stroke-linejoin="round" stroke-linecap="butt" d="m372.937 512.34644l18.301819 16.0" fill-rule="evenodd"/><path fill="#000000" fill-opacity="0.0" d="m364.97638 521.8635l18.30185 16.0" fill-rule="evenodd"/><path stroke="#000000" stroke-width="2.0" stroke-linejoin="round" stroke-linecap="butt" d="m364.97638 521.8635l18.30185 16.0" fill-rule="evenodd"/><path fill="#000000" fill-opacity="0.0" d="m357.18634 529.5827l18.30185 16.0" fill-rule="evenodd"/><path stroke="#000000" stroke-width="2.0" stroke-linejoin="round" stroke-linecap="butt" d="m357.18634 529.5827l18.30185 16.0" fill-rule="evenodd"/><path fill="#000000" fill-opacity="0.0" d="m408.1236 141.72452l159.55908 84.31496l-19.62207 37.133865l-159.55905 -84.31497z" fill-rule="evenodd"/><path fill="#000000" d="m405.6966 171.06612q-0.56640625 -0.29930115 -0.7308655 -0.7573242q-0.14331055 -0.46452332 -0.034057617 -0.9723053q0.11657715 -0.5215912 0.3574829 -0.977478l4.0806885 -7.722519l1.7544861 0.92710876l-3.79599 7.1837463q-0.27011108 0.5111389 -0.27145386 0.8815613q-0.0013427734 0.3704071 0.45455933 0.61131287q0.30392456 0.16059875 0.70925903 0.16271973q0.4126587 -0.011688232 0.8479614 -0.099746704l4.0588074 -7.681076l1.76828 0.93440247l-5.0369873 9.532272l-1.76828 -0.93440247l0.49639893 -0.9394226q-0.68948364 0.20117188 -1.451416 0.20501709q-0.7481384 0.011138916 -1.4388733 -0.35386658zm6.1150513 3.0546265l7.059082 -13.358994l1.76828 0.93440247l-7.0590515 13.358994l-1.7683105 -0.93440247zm3.5424805 1.871933l1.0365906 -1.9617157l1.7544861 0.92710876l-1.0365906 1.9617157l-1.7544861 -0.92710876zm10.168884 5.567871q-1.146637 -0.605896 -1.6574707 -1.5120392q-0.49700928 -0.8988495 -0.43774414 -1.9808807q0.059265137 -1.0820465 0.617218 -2.271698l1.8775635 0.42663574q-0.31704712 0.73376465 -0.50167847 1.4844818q-0.17080688 0.75801086 -0.0029907227 1.3768616q0.18164062 0.6261444 0.88619995 0.99845886q0.73217773 0.38690186 1.316864 0.18336487q0.5847168 -0.20352173 0.98620605 -0.9633484q0.48181152 -0.9117737 0.35934448 -1.6833801q-0.12243652 -0.7715912 -0.46591187 -1.6599884l-1.1941223 -3.158142q-0.35650635 -0.93063354 -0.31652832 -1.7754669q0.061065674 -0.8513489 0.5939636 -1.8598328q0.7738037 -1.4643707 2.0398865 -1.8203278q1.273407 -0.3697815 2.7239685 0.39672852q0.78744507 0.41610718 1.2719727 0.9372406q0.50567627 0.51460266 0.6799927 1.1545715q0.18814087 0.6472626 0.07260132 1.4344788q-0.10824585 0.773407 -0.48526 1.6875458l-1.801178 -0.40396118q0.2951355 -0.6923065 0.43515015 -1.3252106q0.15386963 -0.6255951 -0.043945312 -1.1542511q-0.19049072 -0.5424652 -0.8812256 -0.9074707q-0.69073486 -0.3650055 -1.2746582 -0.19641113q-0.58392334 0.16859436 -0.9708252 0.90078735q-0.3211975 0.6078491 -0.33947754 1.1106873q0.0028076172 0.49632263 0.25350952 1.1589661l1.2079468 3.165451q0.4093933 1.064621 0.5005188 2.296814q0.09841919 1.2183838 -0.55856323 2.461731q-0.52560425 0.9946747 -1.3196411 1.4940338q-0.79403687 0.4993744 -1.7168274 0.5065918q-0.9154663 -0.0066070557 -1.8548584 -0.50302124zm6.8232727 -14.685303l2.6971436 -2.7631226l1.76828 0.9344177l-3.5812683 2.2959137l-0.8841553 -0.46720886zm-1.1374512 17.495438l3.50354 -10.342575l1.4643555 0.77381897l-2.7348328 7.5500793l4.986664 -6.3601685l1.3538513 0.7154083l-2.422821 7.6619415l4.688446 -6.4647217l1.4505615 0.76651l-6.625702 8.692749l-1.4781799 -0.7811127l2.2426758 -7.421356l-4.8398743 6.04895l-1.5886841 -0.8395233zm8.71814 4.606888l5.0369873 -9.532257l1.7683105 0.93440247l-5.0369873 9.532272l-1.7683105 -0.9344177zm5.7888794 -10.9552l0.97821045 -1.8511963l1.76828 0.9344177l-0.97817993 1.8511963l-1.7683105 -0.9344177zm0.443573 14.425308q-1.1328125 -0.5986023 -1.5070801 -1.3618927q-0.37423706 -0.76327515 -0.1776123 -1.737381q0.21774292 -0.9806366 0.86743164 -2.2101593l1.1534119 -2.1827545q0.67160034 -1.2709656 1.3655701 -1.9822693q0.6939392 -0.7113037 1.5419312 -0.8110657q0.8479614 -0.099746704 1.939331 0.47695923q1.2018738 0.6351013 1.5054932 1.4317474q0.30361938 0.79663086 -0.013214111 1.8309479q-0.30947876 1.0204926 -0.995697 2.3190918l-0.40878296 0.77363586l-3.7576294 -1.9856262l-1.0147095 1.9202728q-0.3066101 0.5802307 -0.38586426 0.997818q-0.07928467 0.41758728 0.060668945 0.72128296q0.14724731 0.28987122 0.5340576 0.49427795q0.3868103 0.20440674 0.6889343 0.13430786q0.30941772 -0.08390808 0.56829834 -0.4065857q0.27267456 -0.31539917 0.520874 -0.7850952l0.3066101 -0.5802307l1.7130432 0.9052124l-0.18978882 0.3591919q-0.7592163 1.4367371 -1.8050537 1.9444275q-1.0458679 0.5076904 -2.5102234 -0.26611328zm2.0168457 -6.391983l2.0307617 1.0731049l0.4526062 -0.8565216q0.3139038 -0.5940399 0.45654297 -1.0311737q0.14990234 -0.450943 0.044891357 -0.7538605q-0.08392334 -0.30941772 -0.5397949 -0.5503235q-0.42825317 -0.2263031 -0.75149536 -0.14968872q-0.3232422 0.07659912 -0.6543274 0.50250244q-0.3310852 0.42590332 -0.769104 1.2548065l-0.27008057 0.5111542zm-3.277008 10.214859q-0.44207764 -0.2335968 -0.82733154 -0.5078583q-0.3925476 -0.26045227 -0.62997437 -0.580307q-0.23742676 -0.31987 -0.28485107 -0.6983795q-0.0473938 -0.37849426 0.20080566 -0.8481903q0.2846985 -0.53878784 0.8237915 -0.89012146q0.55288696 -0.34403992 1.157135 -0.4842224q0.6180725 -0.13287354 1.1193237 -0.04472351l0.8841553 0.46720886q-0.4288025 0.109176636 -0.9428711 0.27934265q-0.50753784 0.19128418 -0.9329834 0.4613037q-0.43273926 0.28382874 -0.6298218 0.65682983q-0.27011108 0.5111542 0.08514404 0.87561035q0.35528564 0.36444092 0.8249817 0.61265564q0.12432861 0.06568909 0.2697754 0.12487793q0.15197754 0.08030701 0.2697754 0.12489319l-0.76382446 0.70973206q-0.13162231 -0.051879883 -0.30471802 -0.12567139q-0.18035889 -0.05996704 -0.31851196 -0.13298035zm8.093994 -0.2117157q-0.73220825 -0.38690186 -1.0420837 -0.9040985q-0.3025818 -0.5310211 -0.23971558 -1.1516724q0.06286621 -0.62065125 0.42788696 -1.3114014l3.2849731 -6.21669l-1.0084839 -0.5329132l0.6205139 -1.1742554l1.0084839 0.53289795l1.4745789 -2.7906036l1.7683105 0.9344177l-1.4746094 2.7906036l1.5334473 0.81030273l-0.6204834 1.1742706l-1.5334473 -0.81030273l-3.2192993 6.0923615q-0.2992859 0.56640625 -0.25109863 0.90997314q0.055480957 0.3297577 0.5666504 0.5998535q0.13812256 0.07299805 0.31121826 0.14678955q0.19418335 0.067276 0.36727905 0.1410675l-0.68621826 1.298584q-0.3607483 -0.11993408 -0.6654663 -0.24560547q-0.29089355 -0.118377686 -0.6224365 -0.2935791zm5.1909485 2.7430267q-1.1328125 -0.5986023 -1.5070801 -1.3618927q-0.37426758 -0.76327515 -0.1776123 -1.737381q0.21774292 -0.98062134 0.86743164 -2.2101593l1.1534119 -2.1827393q0.67160034 -1.2709808 1.3655396 -1.9822845q0.6939697 -0.7113037 1.5419312 -0.8110657q0.84799194 -0.099746704 1.9393616 0.47695923q1.2018738 0.6351013 1.5054932 1.4317474q0.30358887 0.79663086 -0.013214111 1.8309479q-0.30950928 1.0205078 -0.995697 2.319107l-0.40878296 0.7736206l-3.7576294 -1.9856262l-1.0147095 1.9202728q-0.3066101 0.5802307 -0.38589478 0.997818q-0.07925415 0.41758728 0.060699463 0.72128296q0.14724731 0.28987122 0.5340576 0.49427795q0.3868103 0.20440674 0.6889343 0.13430786q0.30941772 -0.08390808 0.56829834 -0.4065857q0.27267456 -0.3153839 0.520874 -0.7850952l0.3066101 -0.5802307l1.7130432 0.9052124l-0.18981934 0.3591919q-0.7591858 1.4367523 -1.8050232 1.9444427q-1.0458679 0.5076752 -2.5102234 -0.26612854zm2.0168457 -6.391983l2.0307617 1.0731049l0.4526062 -0.8565216q0.3139038 -0.5940399 0.45651245 -1.0311737q0.14993286 -0.450943 0.044921875 -0.7538452q-0.08392334 -0.30943298 -0.5397949 -0.55033875q-0.4282837 -0.2263031 -0.75149536 -0.14968872q-0.3232422 0.07659912 -0.6543274 0.50250244q-0.3310852 0.42591858 -0.769104 1.2548065l-0.27008057 0.5111542zm3.272522 12.792191q-0.8703308 -0.45991516 -1.4588928 -1.0183258q-0.5958252 -0.54460144 -0.7847595 -1.1569366q-0.18240356 -0.59121704 0.15338135 -1.2266998q0.24819946 -0.4697113 0.624115 -0.71287537q0.38970947 -0.23587036 0.8250427 -0.3239441q0.45645142 -0.094573975 0.8894043 -0.07785034q-0.38287354 -0.37905884 -0.47174072 -0.77944946q-0.08154297 -0.4142151 0.086364746 -0.7319641q0.27737427 -0.5249634 0.75079346 -0.7519531q0.49450684 -0.23352051 1.2254333 -0.41279602q-0.33358765 -0.7064514 -0.27407837 -1.4879303q0.06680298 -0.79530334 0.672699 -1.9419403q0.5912781 -1.1190033 1.2893982 -1.7044067q0.70544434 -0.59921265 1.5038757 -0.6721344q0.81225586 -0.06561279 1.6825867 0.39430237q0.7736206 0.40879822 1.0973206 0.93330383q0.33102417 0.51068115 0.3022766 1.1670532q0.15588379 -0.09434509 0.6829834 -0.22229004q0.54089355 -0.12063599 1.1274109 -0.09347534l0.32086182 0.028182983l-0.1427002 1.3737183q-0.24295044 -0.0753479 -0.66781616 -0.14082336q-0.40377808 -0.07197571 -0.773407 -0.10824585q-0.3696289 -0.03627014 -0.49630737 0.002822876q-0.042785645 0.34851074 -0.23730469 0.9172821q-0.18069458 0.57606506 -0.39968872 0.99050903q-0.5109863 0.967041 -1.1538696 1.5816345q-0.6428528 0.61460876 -1.4355774 0.7435608q-0.7854004 0.11514282 -1.7938843 -0.41775513q-0.20721436 -0.10951233 -0.44128418 -0.26853943q-0.22677612 -0.17285156 -0.40478516 -0.3376007q-0.17700195 0.100860596 -0.3970337 0.24967957q-0.19888306 0.14230347 -0.29379272 0.3218994q-0.09490967 0.17959595 0.026306152 0.38500977q0.14230347 0.19891357 0.5348511 0.45936584l1.4263 0.912735q1.0605774 0.701828 1.2927856 1.5667572q0.25326538 0.8584137 -0.3161316 1.9359741q-0.40878296 0.77363586 -1.0664978 1.1153107q-0.64385986 0.34898376 -1.5147705 0.2245636q-0.8708801 -0.124420166 -1.9898682 -0.71572876zm0.8616333 -1.3296051q0.9393921 0.49639893 1.4982605 0.50897217q0.5726929 0.019866943 0.83551025 -0.47747803q0.1532898 -0.29011536 0.15228271 -0.55574036q-0.008331299 -0.25180054 -0.2262268 -0.50831604q-0.21789551 -0.25653076 -0.727478 -0.5964966l-1.4190063 -0.92655945q-0.2817688 0.09851074 -0.54244995 0.19050598q-0.26068115 0.09199524 -0.4807129 0.24081421q-0.20620728 0.15612793 -0.32299805 0.37716675q-0.22628784 0.42825317 0.023376465 0.82528687q0.2562256 0.4181366 1.2094421 0.9218445zm2.9393005 -5.7631683q0.3868103 0.20440674 0.68084717 0.18305969q0.29403687 -0.021347046 0.5505676 -0.23924255q0.2703247 -0.2106018 0.5161743 -0.57551575q0.2531433 -0.3787384 0.5159302 -0.8760681q0.26278687 -0.4973297 0.43304443 -0.91986084q0.17025757 -0.42253113 0.21304321 -0.7710571q0.042785645 -0.34851074 -0.10525513 -0.6034546q-0.14074707 -0.2687683 -0.5275574 -0.47317505q-0.3591919 -0.18980408 -0.68814087 -0.16923523q-0.30786133 0.014053345 -0.5643616 0.23194885q-0.25653076 0.21789551 -0.52349854 0.58932495q-0.2531433 0.37872314 -0.5305176 0.9036865q-0.24090576 0.4559021 -0.40386963 0.86460876q-0.16296387 0.40872192 -0.1984253 0.74342346q-0.02166748 0.34199524 0.12557983 0.6318817q0.14724731 0.28987122 0.5064392 0.4796753zm4.935669 8.104248q-1.0499268 -0.5548096 -1.431488 -1.3042755q-0.37423706 -0.76327515 -0.22064209 -1.6894379q0.16744995 -0.9188385 0.7368469 -1.9963989l1.4599915 -2.7629852q0.569397 -1.0775604 1.2341614 -1.7336121q0.68588257 -0.6625519 1.52005 -0.76960754q0.83413696 -0.107055664 1.8840637 0.44773865q1.0637512 0.56211853 1.431488 1.3042755q0.38153076 0.74946594 0.20681763 1.6821289q-0.15362549 0.9261627 -0.72302246 2.0037231l-1.4599915 2.76297q-0.569397 1.0775604 -1.2479858 1.7263031q-0.6647644 0.65605164 -1.5062256 0.7769165q-0.8203125 0.114364624 -1.8840637 -0.44773865zm0.69351196 -1.3124237q0.5111389 0.27011108 0.87164307 0.0894928q0.36782837 -0.19442749 0.6647644 -0.6560364q0.29696655 -0.46162415 0.57437134 -0.9865875l1.5840759 -2.9978333q0.2846985 -0.53878784 0.49145508 -1.0303802q0.2140503 -0.5054321 0.16741943 -0.91885376q-0.04660034 -0.4134369 -0.5577698 -0.6835327q-0.5111389 -0.27011108 -0.89276123 -0.082977295q-0.36782837 0.19442749 -0.6647644 0.6560364q-0.28964233 0.44781494 -0.5743408 0.9865875l-1.5841064 2.9978333q-0.2774048 0.5249634 -0.49145508 1.0303955q-0.2140503 0.50541687 -0.16741943 0.9188385q0.067718506 0.4069214 0.57888794 0.6770172zm6.9759216 5.1884155l9.891113 -11.862473l1.795929 0.9490204l-4.199402 14.870102l-1.7683105 -0.9344177l1.1733398 -3.6920319l-2.7214966 -1.4381104l-2.4305115 3.0277252l-1.7406616 -0.91981506zm5.120636 -3.3027344l2.2241821 1.1753082l2.0637817 -6.6145935l-4.287964 5.4392853zm3.5612793 7.8904724l5.036957 -9.532272l1.7683105 0.93440247l-0.49639893 0.9394226q0.71713257 -0.18658447 1.451416 -0.20501709q0.7481384 -0.011138916 1.4526978 0.36116028q0.56640625 0.2993164 0.7097168 0.7638397q0.16445923 0.45802307 0.034057617 0.9723053q-0.10925293 0.507782 -0.3501587 0.9636688l-4.0806885 7.722519l-1.7544861 -0.92710876l3.810608 -7.2113647q0.27008057 -0.5111542 0.26412964 -0.8677521q-0.0059814453 -0.3565979 -0.46185303 -0.59750366q-0.30392456 -0.16059875 -0.71658325 -0.14891052q-0.40533447 -0.0021209717 -0.8406677 0.0859375l-4.058777 7.681076l-1.76828 -0.93440247zm9.710175 5.3078156q-0.73217773 -0.38690186 -1.0420837 -0.9040985q-0.3025818 -0.5310211 -0.23971558 -1.1516724q0.06289673 -0.62065125 0.42788696 -1.3114014l3.2850037 -6.21669l-1.0084839 -0.5329132l0.6204834 -1.1742554l1.0084839 0.53289795l1.4746094 -2.7906036l1.76828 0.9344177l-1.4745789 2.7906036l1.5334167 0.810318l-0.6204834 1.1742554l-1.5334473 -0.81030273l-3.2192993 6.0923615q-0.2992859 0.56640625 -0.25109863 0.90997314q0.055511475 0.3297577 0.5666504 0.5998535q0.13815308 0.073013306 0.31121826 0.14678955q0.19418335 0.067276 0.36727905 0.1410675l-0.68618774 1.2985992q-0.3607788 -0.11994934 -0.6654663 -0.24562073q-0.29092407 -0.118377686 -0.62246704 -0.2935791zm5.16333 2.728424q-1.0499268 -0.5548096 -1.431488 -1.3042603q-0.37426758 -0.7632904 -0.22064209 -1.6894379q0.16741943 -0.91885376 0.7368164 -1.9964142l1.460022 -2.76297q0.569397 -1.0775604 1.2341614 -1.7336121q0.68588257 -0.66256714 1.5200195 -0.7696228q0.8341675 -0.107055664 1.8840942 0.4477539q1.0637207 0.5621033 1.4314575 1.3042755q0.38156128 0.74946594 0.20681763 1.6821289q-0.15359497 0.92614746 -0.72299194 2.003708l-1.460022 2.7629852q-0.569397 1.0775604 -1.2479553 1.7263031q-0.6647644 0.65605164 -1.5062256 0.7769165q-0.820343 0.114364624 -1.8840637 -0.4477539zm0.69348145 -1.3124084q0.5111389 0.27009583 0.8716736 0.0894928q0.36782837 -0.19442749 0.6647644 -0.65605164q0.29693604 -0.46162415 0.5743408 -0.9865875l1.5841064 -2.997818q0.2846985 -0.53878784 0.49145508 -1.0303955q0.2140503 -0.50541687 0.16741943 -0.91885376q-0.04663086 -0.41342163 -0.5577698 -0.6835327q-0.5111389 -0.27009583 -0.89279175 -0.082977295q-0.36782837 0.19442749 -0.6647644 0.65605164q-0.28964233 0.44781494 -0.5743408 0.9865875l-1.5840759 2.9978333q-0.2774048 0.5249634 -0.49145508 1.0303802q-0.21408081 0.50541687 -0.16744995 0.91885376q0.06774902 0.40690613 0.57888794 0.6770172zm3.7650146 3.491684l5.037018 -9.532272l1.7682495 0.9344177l-0.49639893 0.93940735q0.7171631 -0.18656921 1.451416 -0.20501709q0.74816895 -0.011138916 1.4526978 0.36117554q0.56640625 0.29930115 0.7097168 0.76382446q0.16448975 0.45802307 0.034057617 0.9723053q-0.10925293 0.507782 -0.3501587 0.9636688l-4.0806885 7.722519l-1.7544556 -0.92710876l3.810608 -7.2113647q0.27008057 -0.5111542 0.26409912 -0.8677521q-0.00592041 -0.3565979 -0.46185303 -0.59750366q-0.30389404 -0.16059875 -0.71655273 -0.14891052q-0.40533447 -0.0021209717 -0.8406372 0.0859375l-4.0588074 7.681076l-1.7683105 -0.93440247zm7.36557 3.8921509l5.0369873 -9.532257l1.7683105 0.93440247l-5.0369873 9.532272l-1.7683105 -0.9344177zm5.7889404 -10.9552l0.9781494 -1.851181l1.7683105 0.93440247l-0.97821045 1.8511963l-1.7682495 -0.9344177zm0.44354248 14.425308q-1.1328125 -0.5986023 -1.5070801 -1.3618927q-0.37426758 -0.76327515 -0.1776123 -1.737381q0.2177124 -0.9806366 0.86743164 -2.2101593l1.1533813 -2.1827393q0.67163086 -1.2709808 1.3656006 -1.9822845q0.6939697 -0.7113037 1.5419312 -0.8110657q0.8479614 -0.099746704 1.939331 0.47695923q1.2019043 0.6351013 1.5054932 1.4317474q0.30358887 0.79663086 -0.013183594 1.8309479q-0.30950928 1.0204926 -0.99572754 2.3190918l-0.40881348 0.77363586l-3.7576294 -1.9856262l-1.0147095 1.9202728q-0.3065796 0.5802307 -0.38586426 0.997818q-0.07928467 0.41758728 0.060668945 0.72128296q0.14727783 0.28987122 0.5340576 0.49427795q0.38684082 0.20440674 0.68896484 0.13430786q0.30944824 -0.08390808 0.56829834 -0.4065857q0.27270508 -0.3153839 0.520874 -0.7850952l0.3065796 -0.5802307l1.7130737 0.9052124l-0.18981934 0.3591919q-0.7592163 1.4367523 -1.8050537 1.9444275q-1.0458374 0.5076904 -2.5101929 -0.26611328zm2.0168457 -6.391983l2.0307617 1.0731049l0.45257568 -0.8565216q0.3139038 -0.5940399 0.45654297 -1.0311737q0.14996338 -0.450943 0.044921875 -0.7538452q-0.08392334 -0.30943298 -0.5397949 -0.55033875q-0.4282837 -0.2263031 -0.7515259 -0.14968872q-0.3232422 0.07659912 -0.6542969 0.50250244q-0.33111572 0.42591858 -0.769104 1.2548065l-0.27008057 0.5111542zm3.272522 12.792191q-0.8703613 -0.45991516 -1.4588623 -1.0183258q-0.59588623 -0.54460144 -0.78479004 -1.1569366q-0.18243408 -0.59121704 0.15338135 -1.2266998q0.24822998 -0.4697113 0.6240845 -0.71287537q0.3897705 -0.23587036 0.82507324 -0.3239441q0.4564209 -0.094573975 0.8894043 -0.07785034q-0.38287354 -0.37905884 -0.47174072 -0.77944946q-0.08154297 -0.4142151 0.086364746 -0.7319641q0.2774048 -0.5249634 0.75079346 -0.7519531q0.49450684 -0.23352051 1.2254028 -0.41279602q-0.33355713 -0.7064514 -0.27404785 -1.4879303q0.06677246 -0.79530334 0.67266846 -1.9419403q0.5913086 -1.1190033 1.2894287 -1.7044067q0.70544434 -0.59921265 1.5038452 -0.6721344q0.81225586 -0.06561279 1.6826172 0.39430237q0.7736206 0.40879822 1.0973511 0.93330383q0.33099365 0.51068115 0.3022461 1.1670532q0.15588379 -0.09434509 0.6829834 -0.22229004q0.54089355 -0.12063599 1.1273804 -0.09347534l0.32092285 0.028182983l-0.14276123 1.3737183q-0.24291992 -0.0753479 -0.66778564 -0.14082336q-0.4038086 -0.07197571 -0.77337646 -0.10824585q-0.3696289 -0.03627014 -0.4963379 0.002822876q-0.042785645 0.34851074 -0.23730469 0.91726685q-0.18066406 0.5760803 -0.3996582 0.9905243q-0.51104736 0.967041 -1.1538696 1.5816345q-0.6428833 0.61460876 -1.4356079 0.7435608q-0.7854004 0.11514282 -1.7938843 -0.41775513q-0.20721436 -0.10951233 -0.44128418 -0.26853943q-0.2267456 -0.17285156 -0.40478516 -0.3376007q-0.17700195 0.100860596 -0.3970337 0.24967957q-0.19891357 0.14230347 -0.2937622 0.3218994q-0.09490967 0.17959595 0.026245117 0.38500977q0.14233398 0.19891357 0.5348511 0.45936584l1.4263306 0.912735q1.0606079 0.701828 1.2927856 1.5667572q0.2532959 0.8584137 -0.31610107 1.9359741q-0.40881348 0.77363586 -1.0665283 1.1153107q-0.64385986 0.34898376 -1.5147705 0.2245636q-0.8708496 -0.124435425 -1.9898682 -0.71572876zm0.8616333 -1.3296051q0.9393921 0.49639893 1.498291 0.50897217q0.5726929 0.019866943 0.8354492 -0.47747803q0.15332031 -0.29011536 0.15228271 -0.55574036q-0.008300781 -0.25180054 -0.22619629 -0.5083313q-0.21789551 -0.2565155 -0.727478 -0.5964813l-1.4190063 -0.92655945q-0.28179932 0.09851074 -0.54248047 0.19050598q-0.26068115 0.09199524 -0.48065186 0.24081421q-0.2062378 0.15612793 -0.32299805 0.37716675q-0.22631836 0.42825317 0.023376465 0.82528687q0.25616455 0.4181366 1.2094116 0.9218445zm2.93927 -5.7631683q0.38684082 0.20440674 0.68084717 0.18305969q0.29406738 -0.021347046 0.55059814 -0.23924255q0.2703247 -0.2106018 0.5161743 -0.57551575q0.2531128 -0.3787384 0.5159302 -0.8760681q0.26281738 -0.4973297 0.43304443 -0.91986084q0.17028809 -0.4225464 0.21307373 -0.7710571q0.04272461 -0.34851074 -0.105285645 -0.6034546q-0.14074707 -0.2687683 -0.52752686 -0.47317505q-0.3591919 -0.18980408 -0.6881714 -0.16923523q-0.30786133 0.014038086 -0.5643921 0.23194885q-0.25653076 0.21789551 -0.5234375 0.58932495q-0.25317383 0.37872314 -0.5305786 0.9036865q-0.24090576 0.4559021 -0.40386963 0.86460876q-0.16290283 0.40872192 -0.1984253 0.74342346q-0.02166748 0.34199524 0.12561035 0.6318817q0.1472168 0.28987122 0.5064087 0.4796753zm4.935669 8.104248q-1.0499268 -0.5548096 -1.4314575 -1.3042755q-0.37426758 -0.7632904 -0.22064209 -1.6894379q0.16741943 -0.9188385 0.7368164 -1.9964142l1.460022 -2.76297q0.569397 -1.0775604 1.2341919 -1.7336121q0.68585205 -0.6625519 1.5200195 -0.76960754q0.83410645 -0.107055664 1.8840332 0.44773865q1.0637817 0.56211853 1.4315186 1.3042755q0.38153076 0.74946594 0.20678711 1.6821289q-0.15356445 0.92614746 -0.7229614 2.003708l-1.460022 2.7629852q-0.569397 1.0775604 -1.2479858 1.7263031q-0.6647339 0.65605164 -1.5062256 0.7769165q-0.8203125 0.114364624 -1.8840942 -0.44773865zm0.6935425 -1.3124237q0.5111084 0.27011108 0.87164307 0.0894928q0.3678589 -0.19442749 0.6647949 -0.6560364q0.29693604 -0.46162415 0.5743408 -0.9865875l1.5841064 -2.9978333q0.28466797 -0.53878784 0.49145508 -1.0303955q0.2140503 -0.50541687 0.16741943 -0.9188385q-0.04663086 -0.4134369 -0.5578003 -0.6835327q-0.5111084 -0.27011108 -0.89276123 -0.082977295q-0.3678589 0.19442749 -0.6647949 0.6560364q-0.28961182 0.44781494 -0.5743408 0.9865875l-1.5841064 2.9978333q-0.27734375 0.5249634 -0.49145508 1.0303802q-0.2140503 0.5054321 -0.16741943 0.91885376q0.06774902 0.4069214 0.57891846 0.6770172z" fill-rule="nonzero"/><path fill="#000000" fill-opacity="0.0" d="m152.12361 557.7245l159.55904 84.315l-19.62204 37.13385l-159.55905 -84.31494z" fill-rule="evenodd"/><path fill="#000000" d="m149.6966 587.0661q-0.56640625 -0.2993164 -0.7308502 -0.7573242q-0.1433258 -0.46453857 -0.034057617 -0.97229004q0.11656189 -0.52160645 0.3574524 -0.977478l4.0806885 -7.722534l1.7544861 0.927124l-3.79599 7.183716q-0.27009583 0.51116943 -0.2714386 0.8815918q-0.0013275146 0.37042236 0.45455933 0.6113281q0.30392456 0.1605835 0.7092743 0.16271973q0.41262817 -0.01171875 0.8479614 -0.09979248l4.058777 -7.6810303l1.7683105 0.9343872l-5.0369873 9.532288l-1.7682953 -0.93444824l0.49639893 -0.9393921q-0.6894989 0.20117188 -1.4514313 0.20501709q-0.74812317 0.011108398 -1.438858 -0.35388184zm6.1150513 3.0546265l7.059082 -13.359009l1.7682953 0.93444824l-7.059082 13.359009l-1.7682953 -0.93444824zm3.5424805 1.8719482l1.0365906 -1.961731l1.7544861 0.927124l-1.0366058 1.961731l-1.7544708 -0.927124zm8.840057 4.6713257l4.876343 -14.512451l1.5472565 0.81762695l-3.636734 10.360535l6.8475037 -8.61084l1.3262177 0.70080566l-3.263733 10.557617l6.504486 -8.898132l1.5058136 0.79571533l-9.200363 12.227417l-1.3538513 -0.71539307l3.3617706 -10.876953l-7.105591 8.898621l-1.4091187 -0.7445679zm10.643295 5.6241455l3.6280975 -6.865967l-1.4110107 -0.038757324l0.7373047 -1.3952637l1.3963928 0.066345215l2.7082977 -5.125305l1.7682953 0.9343872l-2.2848969 4.3240356l1.271286 0.035583496l-0.722702 1.3676758l-1.2712708 -0.035583496l-4.0514984 7.6672974l-1.7682953 -0.93444824zm6.444809 3.5823364q-1.0499268 -0.5548096 -1.431488 -1.3042603q-0.37425232 -0.76330566 -0.22062683 -1.6894531q0.16743469 -0.91882324 0.73683167 -1.9963989l1.4599915 -2.7630005q0.569397 -1.0775146 1.2341614 -1.7335815q0.68588257 -0.66259766 1.5200348 -0.7696533q0.8341522 -0.107055664 1.884079 0.4477539q1.063736 0.5621338 1.4314728 1.3043213q0.38156128 0.7494507 0.20683289 1.6821289q-0.15362549 0.92614746 -0.72302246 2.003662l-1.4599915 2.7630005q-0.569397 1.0775757 -1.2479858 1.7263184q-0.6647644 0.65600586 -1.5062103 0.7769165q-0.820343 0.11431885 -1.884079 -0.4477539zm0.6934967 -1.312439q0.5111542 0.2701416 0.8716736 0.089538574q0.3678131 -0.19445801 0.6647644 -0.6560669q0.29693604 -0.4616089 0.5743408 -0.98657227l1.5840912 -2.9978638q0.2846985 -0.5387573 0.49145508 -1.0303955q0.2140503 -0.5053711 0.16743469 -0.91882324q-0.04663086 -0.41345215 -0.5577698 -0.6835327q-0.5111542 -0.27008057 -0.89279175 -0.08300781q-0.3678131 0.19445801 -0.6647644 0.6560669q-0.28964233 0.44781494 -0.5743408 0.98657227l-1.5840912 2.9978638q-0.2774048 0.5249634 -0.49145508 1.0303955q-0.2140503 0.5053711 -0.16743469 0.91882324q0.067733765 0.4069214 0.57888794 0.67700195zm4.3766937 -9.386353l2.6971283 -2.7631226l1.7682953 0.93444824l-3.5812683 2.2958984l-0.8841553 -0.46722412zm1.5256958 14.184204q-1.201889 -0.6350708 -1.3287201 -1.8331299q-0.12684631 -1.1980591 0.99005127 -3.3117676l0.9781952 -1.8511963q0.57670593 -1.0913696 1.2453918 -1.9220581q0.6825104 -0.82336426 1.4791412 -1.1270142q0.79663086 -0.30358887 1.7774811 0.21472168q0.4835205 0.25549316 0.75354004 0.6809082q0.29112244 0.4189453 0.44096375 0.90460205l2.3432922 -4.4345703l1.7544861 0.927124l-7.059082 13.358948l-1.7544861 -0.927063l0.3211975 -0.60791016q-0.49293518 0.16369629 -0.97543335 0.17382812q-0.48249817 0.010070801 -0.9660187 -0.24542236zm1.1931915 -1.1543579q0.24865723 0.13134766 0.5687561 0.19445801q0.32739258 0.049316406 0.7124176 0.023010254l3.3068848 -6.2581177q-0.15455627 -0.276062 -0.3789673 -0.55371094q-0.2106018 -0.2703247 -0.5421448 -0.44555664q-0.6078644 -0.321167 -1.135498 0.14227295q-0.51382446 0.47070312 -0.95181274 1.2996216l-1.4234924 2.6938477q-0.34310913 0.649353 -0.5587311 1.2246094q-0.20181274 0.58258057 -0.14137268 1.0032959q0.07424927 0.42803955 0.5439606 0.67626953zm4.0089264 3.7089233l7.059082 -13.359009l1.7682953 0.9343872l-4.204788 7.9573975l4.7449493 -2.7590332l1.851181 0.97821045l-4.222809 2.5401l-0.88323975 6.9556885l-1.7682953 -0.9343872l0.7947693 -5.8184204l-1.4436493 0.7923584l-1.9272003 3.6470947l-1.7682953 -0.9343872zm9.5793915 5.2563477q-1.0499268 -0.5548096 -1.431488 -1.3042603q-0.37425232 -0.76330566 -0.22062683 -1.6894531q0.16743469 -0.91882324 0.73683167 -1.9963989l1.4599915 -2.7629395q0.569397 -1.0775757 1.2341614 -1.7336426q0.68588257 -0.6625366 1.5200348 -0.7695923q0.8341522 -0.107055664 1.884079 0.4477539q1.063736 0.56207275 1.4314728 1.3042603q0.38156128 0.7494507 0.20683289 1.6821289q-0.15362549 0.92614746 -0.72302246 2.0037231l-1.4599915 2.7629395q-0.569397 1.0775757 -1.2479858 1.7263184q-0.6647644 0.6560669 -1.5062103 0.7769165q-0.820343 0.11437988 -1.884079 -0.4477539zm0.6934967 -1.3123779q0.5111542 0.27008057 0.8716736 0.08947754q0.3678131 -0.19445801 0.6647644 -0.6560669q0.29693604 -0.4616089 0.5743408 -0.98657227l1.5840912 -2.9978027q0.2846985 -0.53881836 0.49145508 -1.0303955q0.2140503 -0.5054321 0.16743469 -0.9188843q-0.04663086 -0.4133911 -0.5577698 -0.6835327q-0.5111542 -0.27008057 -0.89279175 -0.08294678q-0.3678131 0.19439697 -0.6647644 0.65600586q-0.28964233 0.44781494 -0.5743408 0.9866333l-1.5840912 2.9978027q-0.2774048 0.5249634 -0.49145508 1.0303955q-0.2140503 0.5054321 -0.16743469 0.91882324q0.067733765 0.4069214 0.57888794 0.677063zm4.7381744 4.0059204l3.5035248 -10.34259l1.4643707 0.7738037l-2.7348328 7.550049l4.9866486 -6.3601685l1.3538666 0.7154541l-2.4228363 7.6619263l4.6884613 -6.4647217l1.4505615 0.7664795l-6.625702 8.69281l-1.4781799 -0.7811279l2.2426758 -7.4213867l-4.839859 6.04895l-1.5886993 -0.83947754zm8.71814 4.6068726l5.0369873 -9.532288l1.7682953 0.93444824l-5.0369873 9.532227l-1.7682953 -0.9343872zm5.7888794 -10.9552l0.9781952 -1.8511963l1.7683105 0.9343872l-0.97821045 1.8511963l-1.7682953 -0.9343872zm0.40211487 14.403381q-1.1742554 -0.6204834 -1.533905 -1.411438q-0.33854675 -0.7974243 -0.093170166 -1.7634277q0.24537659 -0.9660034 0.8439789 -2.098816l1.1606903 -2.1965942q0.6351013 -1.2019043 1.2876282 -1.9351196q0.67362976 -0.73968506 1.5223846 -0.87438965q0.8487549 -0.13470459 1.9953766 0.47125244q1.0361176 0.54748535 1.4200287 1.1921387q0.40501404 0.6381836 0.25454712 1.4246216q-0.12936401 0.7799072 -0.65496826 1.7745972l-0.2919922 0.55255127l-1.6025238 -0.84680176l0.30659485 -0.5802002q0.32850647 -0.6217041 0.43540955 -1.0246582q0.106918335 -0.40301514 -0.026519775 -0.6855469q-0.119628906 -0.2753296 -0.5202484 -0.4869995q-0.42826843 -0.22631836 -0.7653198 -0.15698242q-0.32322693 0.07659912 -0.6543274 0.50250244q-0.31726074 0.4331665 -0.7479706 1.248291l-1.5840912 2.9978027q-0.649704 1.2295532 -0.6338501 1.7680664q0.023162842 0.52471924 0.61720276 0.83862305q0.44206238 0.23364258 0.75878906 0.1359253q0.31672668 -0.097717285 0.56907654 -0.44152832q0.2596588 -0.35760498 0.5078583 -0.82733154l0.40879822 -0.7736206l1.6025238 0.84680176l-0.34309387 0.649292q-0.5110016 0.967041 -1.0970459 1.5409546q-0.58602905 0.5739746 -1.3633575 0.64038086q-0.75619507 0.05987549 -1.7785034 -0.48034668zm5.8952637 3.1152344q-0.56640625 -0.2993164 -0.82676697 -0.8433838q-0.25306702 -0.5578613 -0.23892212 -1.1865845q0.02142334 -0.6425781 0.3134308 -1.1951294q0.4744873 -0.89801025 1.0858002 -1.3525391q0.6251221 -0.44726562 1.3552704 -0.59161377q0.7512665 -0.15081787 1.5960999 -0.11090088q0.8586273 0.047302246 1.7717438 0.1586914l0.35769653 -0.6769409q0.3066101 -0.5802002 0.43463135 -0.9897461q0.1491394 -0.41601562 0.036819458 -0.7050781q-0.105026245 -0.30291748 -0.5194702 -0.5219116q-0.3591919 -0.18981934 -0.66781616 -0.14086914q-0.30863953 0.04901123 -0.5797577 0.29455566q-0.25730896 0.25280762 -0.4763031 0.6672363l-0.24819946 0.46972656l-1.7114716 -0.97509766q0.86712646 -1.5740967 1.9520721 -1.9550781q1.0922394 -0.39483643 2.5427856 0.3717041q1.4229279 0.7518921 1.6008759 1.8532104q0.1852417 1.0875854 -0.588562 2.551941l-2.2994995 4.3516846q-0.2335968 0.44207764 -0.42495728 0.8711548q-0.19137573 0.4290161 -0.33972168 0.8101196q-0.1410675 0.36724854 -0.2813263 0.69958496l-1.616333 -0.854126q0.08343506 -0.29162598 0.22605896 -0.72875977q0.1499176 -0.45098877 0.27638245 -0.7905884q-0.45777893 0.46496582 -1.1902771 0.7141113q-0.72520447 0.23529053 -1.5402832 -0.19537354zm1.4937439 -1.1546631q0.2624817 0.13873291 0.56381226 0.103515625q0.31515503 -0.027832031 0.5896454 -0.11254883q0.29560852 -0.09118652 0.41656494 -0.18634033l1.4234924 -2.6939087q-0.51742554 0.009338379 -1.0145264 0.04711914q-0.48327637 0.045043945 -0.8982849 0.16149902q-0.39387512 0.10998535 -0.7275543 0.34014893q-0.31985474 0.23742676 -0.53886414 0.65185547q-0.30659485 0.58026123 -0.27456665 1.0213013q0.045837402 0.44836426 0.46028137 0.6673584z" fill-rule="nonzero"/><path fill="#000000" fill-opacity="0.0" d="m630.4619 141.92126l44.15753 0l0 42.015747l-44.15753 0z" fill-rule="evenodd"/><path fill="#000000" d="m640.8838 168.84126l0 -13.359375l1.8125 0l7.015625 10.484375l0 -10.484375l1.6875 0l0 13.359375l-1.8125 0l-7.015625 -10.5l0 10.5l-1.6875 0z" fill-rule="nonzero"/>
</g>
</svg>