
<svg width="20986px" height="22970px" viewBox="0 0 20986 22970" version="1.1" xmlns="http://www.w3.org/2000/svg" xmlns:xlink="http://www.w3.org/1999/xlink">
    <desc>Created with Sketch.</desc>
    <defs>
        <symbol id="banana">

        </symbol>
        <radialGradient cx="50.9991571%" cy="71.0192314%" fx="50.9991571%" fy="71.0192314%" r="44.709689%" gradientTransform="translate(0.509992,0.710192),scale(1.000000,0.956031),translate(-0.509992,-0.710192)" id="radialGradient-2">
            <stop stop-color="#CBB7A0" offset="0%"></stop>
            <stop stop-color="#BAA388" offset="47.8431%"></stop>
            <stop stop-color="#AA8F71" offset="100%"></stop>
        </radialGradient>
        <linearGradient x1="91.7688815%" y1="18.4575058%" x2="13.1648292%" y2="96.4041131%" id="linearGradient-3">
            <stop stop-color="#FF9933" offset="0%"></stop>
            <stop stop-color="#DFAC39" offset="0.392157%"></stop>
            <stop stop-color="#FFFF00" offset="12.9412%"></stop>
            <stop stop-color="#FFFF99" offset="23.1373%"></stop>
            <stop stop-color="#EDE21F" offset="80%"></stop>
            <stop stop-color="#BFBF3F" offset="100%"></stop>
        </linearGradient>
        <linearGradient x1="91.7693694%" y1="18.4568362%" x2="13.1648992%" y2="96.4036745%" id="linearGradient-4">
            <stop stop-color="#FF9933" offset="0%"></stop>
            <stop stop-color="#DFAC39" offset="0.392157%"></stop>
            <stop stop-color="#FFFF00" offset="12.9412%"></stop>
            <stop stop-color="#FFFF99" offset="23.1373%"></stop>
            <stop stop-color="#EDE21F" offset="80%"></stop>
            <stop stop-color="#BFBF3F" offset="100%"></stop>
        </linearGradient>
        <linearGradient x1="91.7687067%" y1="18.4567406%" x2="13.1648041%" y2="96.404311%" id="linearGradient-5">
            <stop stop-color="#FF9933" offset="0%"></stop>
            <stop stop-color="#DFAC39" offset="0.392157%"></stop>
            <stop stop-color="#FFFF00" offset="12.9412%"></stop>
            <stop stop-color="#FFFF99" offset="23.1373%"></stop>
            <stop stop-color="#EDE21F" offset="80%"></stop>
            <stop stop-color="#BFBF3F" offset="100%"></stop>
        </linearGradient>
        <linearGradient x1="91.7677298%" y1="18.4574271%" x2="13.1648323%" y2="96.4041096%" id="linearGradient-6">
            <stop stop-color="#FF9933" offset="0%"></stop>
            <stop stop-color="#DFAC39" offset="0.392157%"></stop>
            <stop stop-color="#FFFF00" offset="12.9412%"></stop>
            <stop stop-color="#FFFF99" offset="23.1373%"></stop>
            <stop stop-color="#EDE21F" offset="80%"></stop>
            <stop stop-color="#BFBF3F" offset="100%"></stop>
        </linearGradient>
        <linearGradient x1="91.7689033%" y1="18.4578811%" x2="13.1648323%" y2="96.4043345%" id="linearGradient-7">
            <stop stop-color="#FF9933" offset="0%"></stop>
            <stop stop-color="#DFAC39" offset="0.392157%"></stop>
            <stop stop-color="#FFFF00" offset="12.9412%"></stop>
            <stop stop-color="#FFFF99" offset="23.1373%"></stop>
            <stop stop-color="#EDE21F" offset="80%"></stop>
            <stop stop-color="#BFBF3F" offset="100%"></stop>
        </linearGradient>
        <linearGradient x1="91.7681958%" y1="18.4578811%" x2="13.1637256%" y2="96.4043345%" id="linearGradient-8">
            <stop stop-color="#FF9933" offset="0%"></stop>
            <stop stop-color="#DFAC39" offset="0.392157%"></stop>
            <stop stop-color="#FFFF00" offset="12.9412%"></stop>
            <stop stop-color="#FFFF99" offset="23.1373%"></stop>
            <stop stop-color="#EDE21F" offset="80%"></stop>
            <stop stop-color="#BFBF3F" offset="100%"></stop>
        </linearGradient>
        <linearGradient x1="91.770055%" y1="18.4574271%" x2="13.1660027%" y2="96.4052456%" id="linearGradient-9">
            <stop stop-color="#FF9933" offset="0%"></stop>
            <stop stop-color="#DFAC39" offset="0.392157%"></stop>
            <stop stop-color="#FFFF00" offset="12.9412%"></stop>
            <stop stop-color="#FFFF99" offset="23.1373%"></stop>
            <stop stop-color="#EDE21F" offset="80%"></stop>
            <stop stop-color="#BFBF3F" offset="100%"></stop>
        </linearGradient>
        <linearGradient x1="91.7682924%" y1="18.4574271%" x2="13.1659182%" y2="96.4041096%" id="linearGradient-10">
            <stop stop-color="#FF9933" offset="0%"></stop>
            <stop stop-color="#DFAC39" offset="0.392157%"></stop>
            <stop stop-color="#FFFF00" offset="12.9412%"></stop>
            <stop stop-color="#FFFF99" offset="23.1373%"></stop>
            <stop stop-color="#EDE21F" offset="80%"></stop>
            <stop stop-color="#BFBF3F" offset="100%"></stop>
        </linearGradient>
        <linearGradient x1="91.7693694%" y1="18.4574271%" x2="13.1648992%" y2="96.4052456%" id="linearGradient-11">
            <stop stop-color="#FF9933" offset="0%"></stop>
            <stop stop-color="#DFAC39" offset="0.392157%"></stop>
            <stop stop-color="#FFFF00" offset="12.9412%"></stop>
            <stop stop-color="#FFFF99" offset="23.1373%"></stop>
            <stop stop-color="#EDE21F" offset="80%"></stop>
            <stop stop-color="#BFBF3F" offset="100%"></stop>
        </linearGradient>
        <linearGradient x1="91.7682924%" y1="18.4573481%" x2="13.1647447%" y2="96.4036971%" id="linearGradient-12">
            <stop stop-color="#FF9933" offset="0%"></stop>
            <stop stop-color="#DFAC39" offset="0.392157%"></stop>
            <stop stop-color="#FFFF00" offset="12.9412%"></stop>
            <stop stop-color="#FFFF99" offset="23.1373%"></stop>
            <stop stop-color="#EDE21F" offset="80%"></stop>
            <stop stop-color="#BFBF3F" offset="100%"></stop>
        </linearGradient>
        <linearGradient x1="91.7687067%" y1="18.4573481%" x2="13.1648041%" y2="96.4036971%" id="linearGradient-13">
            <stop stop-color="#FF9933" offset="0%"></stop>
            <stop stop-color="#DFAC39" offset="0.392157%"></stop>
            <stop stop-color="#FFFF00" offset="12.9412%"></stop>
            <stop stop-color="#FFFF99" offset="23.1373%"></stop>
            <stop stop-color="#EDE21F" offset="80%"></stop>
            <stop stop-color="#BFBF3F" offset="100%"></stop>
        </linearGradient>
        <linearGradient x1="52.4216336%" y1="99.7863579%" x2="52.7470399%" y2="0%" id="linearGradient-14">
            <stop stop-color="#07FAE4" offset="0%"></stop>
            <stop stop-color="#A0E889" offset="21.1765%"></stop>
            <stop stop-color="#B2F921" offset="41.7403241%"></stop>
            <stop stop-color="#54DBC2" offset="61.946779%"></stop>
            <stop stop-color="#00B0F0" offset="100%"></stop>
        </linearGradient>
    </defs>
    <g id="Page-1" stroke="none" stroke-width="1" fill="none" fill-rule="evenodd">
        <g id="template">
             <path d="M9923.43,20209.42 C9901.58,20163.01 9908.09,20139.5 9983.74,20127 C10018.1,20121.32 9997.3,20160.69 10019.93,20092.82 C10066.22,20092.82 9992.69,20076.73 10092.3,20076.73 C10092.3,20081.73 10178.61,20139.53 10180.76,20141.07 C10138.07,20247.79 10183.72,20202.99 10212.93,20205.41 C10273.74,20210.44 10243.07,20213.44 10293.35,20213.44 C10293.35,20249.22 10349.88,20221.48 10373.77,20221.48 C10373.77,20175.4 10336.35,20213.29 10373.77,20157.14 C10398.05,20157.14 10368.64,20149.85 10413.97,20124.97 C10461.31,20098.99 10454.18,20111.31 10454.18,20076.72 C10510.06,20039.48 10592.43,20088.27 10598.92,20141.06 C10603.13,20175.21 10651.7,20218.7 10623.05,20253.64 C10598.37,20283.74 10584.91,20334.06 10542.62,20334.06 C10563.56,20334.06 10539.71,20493.32 10623.69,20493.32 C10662.93,20611.04 10539.6,20720.05 10783.86,20720.05 C10821.89,20720.05 10888.4,20723.67 10888.4,20679.85 L10920.57,20655.73 C10943.38,20678.53 10931.76,20611.5 11002.99,20611.5 C11026.93,20611.5 11109.6,20513.79 11180.92,20663.76 C11192.3,20687.71 11181.68,20711.83 11178.9,20743.18 C11175.98,20776.05 11138.81,20832.29 11131.66,20837.67 C11112.13,20852.38 11133.16,20888.94 11049.24,20888.94 C11007.92,20888.94 11017.03,20929.15 10912.53,20929.15 C10892.1,20929.15 10849.24,20953.27 10824.07,20953.27 C10824.07,21033.99 10639.12,20924.04 10639.12,21089.98 C10690.19,21089.98 10702.92,21519.03 10705.32,21530.54 C10721.21,21606.79 10754.5,21597.53 10781.71,21663.22 C10791.83,21687.66 10782.68,21695.39 10838,21695.39 C10936.51,21695.39 10855.71,21710.57 10950.58,21671.27 C10986.86,21633.23 10998.09,21638.77 11053.26,21660.93 C11053.26,21667.5 11108.48,21722.44 11101.51,21765.47 C11082.86,21880.42 11122.4,21775.59 11081.4,21878.05 C11077.96,21878.05 11031.46,21910.22 11000.98,21910.22 C11000.98,21962.52 10769.88,21982.59 10719.53,21982.59 L10639.11,21982.59 C10639.11,22039.98 10560.3,21958.47 10526.53,21958.47 C10429.95,21958.47 10363.35,21910.22 10357.65,21910.22 C10334.51,21863.93 10231.39,21910.22 10188.78,21910.22 C10136.89,21910.22 10088.84,21934.34 10011.86,21934.34 C9922.05,21934.34 9952.89,21990.63 9875.15,21990.63 C9875.15,22003.65 9878.02,21998.67 9859.07,21998.67 C9859.07,22021.86 9813.01,22038.94 9778.65,22030.83 C9728,22018.88 9759.86,22006.71 9706.28,22006.71 C9698.66,22006.71 9493.5,21926.29 9465.03,21926.29 C9465.03,21913.39 9453.81,21902.17 9440.91,21902.17 C9440.91,21884.1 9429,21777.23 9420.17,21759.6 C9409.42,21759.6 9465.55,21752.24 9465.55,21718.08 C9465.55,21671.9 9543.21,21672.99 9575.6,21672.99 C9601.74,21691.29 9596.91,21729.28 9647.98,21729.28 C9647.98,21753.34 9662.04,21733.3 9690.19,21733.3 C9690.19,21732.51 9698.23,21717.88 9698.23,21685.05 C9699.98,21685.05 9756.17,21677.02 9786.69,21677.02 C9786.69,21656.86 9818.85,21678.38 9818.85,21620.73 C9818.85,21587.52 9834.94,21623.73 9834.94,21564.44 C9834.94,21469.49 9842.91,21619.68 9834.94,21443.81 C9830.27,21340.93 9826.45,21290.57 9851.02,21186.48 C9852.29,21181.13 9842.99,21110.61 9842.99,21081.94 C9729.84,21081.94 9708.2,20996.57 9617.82,20985.45 C9592.52,20982.33 9460.11,20885.07 9440.91,20880.9 C9275.27,20845.02 9357.45,20765.28 9312.24,20720.07 C9296.59,20704.41 9303.3,20688.74 9320.28,20679.87 C9360.06,20659.08 9346.94,20670.58 9359.37,20656.12 C9393.98,20615.89 9397.54,20580.5 9529.35,20671.83 C9529.35,20709.93 9918.37,20849.7 9939.47,20760.29 C9958.5,20679.67 9899.27,20666.59 9899.27,20639.66 C9899.27,20571.63 9819.08,20612.4 9923.39,20519.04 C10010.49,20441.07 9869.22,20533.88 9915.35,20422.54 L9931.43,20406.46 C9981.35,20356.55 9997.52,20300.17 10044.01,20253.67 L10035.97,20269.75 C10008.31,20281.21 9953.6,20271.68 9939.48,20237.58 L9923.4,20209.44 L9923.43,20209.42 Z" id="Shape" fill="url(#radialGradient-2)"></path>
            <path d="M11090.29,20703.63 C11104.4,20732.2 11076.5,20785.5 11049.6,20779.93 C11034.4,20776.77 11025.12,20757.69 11026.56,20735.05 C11007.65,20722.47 10998.08,20703.48 11004.79,20689.48 C11016.87,20664.29 11076.18,20675.05 11090.29,20703.63 L11090.29,20703.63 Z M11112.71,20654.77 C11116.59,20662.6 11131.43,20663.17 11145.86,20656.03 C11160.29,20648.88 11168.84,20636.74 11164.97,20628.91 C11161.09,20621.08 11146.25,20620.52 11131.82,20627.65 C11117.39,20634.8 11108.84,20646.94 11112.71,20654.77 Z M11143.91,20721.2 C11147.79,20729.03 11162.63,20729.6 11177.06,20722.46 C11191.49,20715.32 11200.03,20703.18 11196.16,20695.35 C11192.28,20687.51 11177.44,20686.95 11163.01,20694.08 C11148.58,20701.23 11140.04,20713.37 11143.91,20721.2 L11143.91,20721.2 Z M11051.94,20619.23 C11055.82,20627.06 11070.66,20627.62 11085.09,20620.49 C11099.52,20613.34 11108.07,20601.2 11104.2,20593.37 C11100.32,20585.54 11085.47,20584.97 11071.05,20592.11 C11056.62,20599.26 11048.07,20611.4 11051.94,20619.23 Z M11132.92,20796.46 C11136.8,20804.29 11151.64,20804.85 11166.07,20797.72 C11180.5,20790.57 11189.05,20778.43 11185.18,20770.6 C11181.3,20762.77 11166.46,20762.2 11152.03,20769.34 C11137.6,20776.49 11129.05,20788.62 11132.92,20796.46 Z" id="Shape" fill="#606163"></path>
            <path d="M9429.64,20748.08 C9415.52,20776.66 9443.43,20829.95 9470.33,20824.38 C9485.52,20821.23 9494.81,20802.15 9493.36,20779.51 C9512.28,20766.93 9521.85,20747.94 9515.14,20733.93 C9503.05,20708.75 9443.75,20719.51 9429.64,20748.08 L9429.64,20748.08 Z M9407.22,20699.23 C9403.34,20707.06 9388.49,20707.62 9374.07,20700.49 C9359.64,20693.34 9351.09,20681.2 9354.96,20673.37 C9358.84,20665.54 9373.68,20664.97 9388.11,20672.11 C9402.54,20679.25 9411.09,20691.39 9407.22,20699.23 Z M9376.02,20765.66 C9372.14,20773.49 9357.3,20774.05 9342.87,20766.92 C9328.44,20759.77 9319.89,20747.63 9323.76,20739.8 C9327.64,20731.97 9342.49,20731.41 9356.91,20738.54 C9371.34,20745.69 9379.89,20757.83 9376.02,20765.66 Z M9467.99,20663.68 C9464.11,20671.52 9449.27,20672.08 9434.84,20664.94 C9420.41,20657.8 9411.86,20645.66 9415.73,20637.83 C9419.61,20629.99 9434.45,20629.43 9448.88,20636.57 C9463.31,20643.71 9471.86,20655.85 9467.99,20663.68 Z M9387,20840.91 C9383.12,20848.75 9368.28,20849.31 9353.85,20842.17 C9339.43,20835.03 9330.88,20822.89 9334.75,20815.06 C9338.63,20807.22 9353.47,20806.66 9367.9,20813.8 C9382.33,20820.94 9390.88,20833.08 9387,20840.91 Z" id="Shape" fill="#606163"></path>
            <path d="M9518.37,21799.72 C9504.26,21828.3 9532.16,21881.59 9559.06,21876.02 C9574.26,21872.87 9583.54,21853.79 9582.1,21831.15 C9601.01,21818.57 9610.58,21799.57 9603.87,21785.57 C9591.79,21760.39 9532.48,21771.15 9518.37,21799.72 L9518.37,21799.72 Z M9495.95,21750.86 C9492.07,21758.69 9477.23,21759.26 9462.8,21752.12 C9448.37,21744.98 9439.82,21732.84 9443.69,21725 C9447.57,21717.17 9462.41,21716.61 9476.84,21723.74 C9491.27,21730.89 9499.82,21743.03 9495.95,21750.86 Z M9464.75,21817.29 C9460.87,21825.13 9446.03,21825.69 9431.6,21818.56 C9417.17,21811.41 9408.63,21799.27 9412.5,21791.44 C9416.38,21783.61 9431.22,21783.04 9445.65,21790.18 C9460.08,21797.32 9468.63,21809.46 9464.75,21817.29 L9464.75,21817.29 Z M9556.72,21715.32 C9552.84,21723.15 9538,21723.72 9523.57,21716.58 C9509.14,21709.43 9500.59,21697.3 9504.46,21689.46 C9508.34,21681.63 9523.19,21681.07 9537.61,21688.2 C9552.04,21695.35 9560.59,21707.49 9556.72,21715.32 Z M9475.74,21892.55 C9471.86,21900.38 9457.02,21900.95 9442.59,21893.81 C9428.16,21886.66 9419.61,21874.53 9423.48,21866.69 C9427.36,21858.86 9442.2,21858.3 9456.63,21865.43 C9471.06,21872.58 9479.61,21884.72 9475.74,21892.55 Z" id="Shape" fill="#606163"></path>
            <path d="M11004.09,21766.84 C11018.2,21795.42 10990.3,21848.71 10963.4,21843.14 C10948.2,21839.99 10938.92,21820.91 10940.36,21798.27 C10921.45,21785.69 10911.88,21766.69 10918.59,21752.69 C10930.67,21727.51 10989.98,21738.27 11004.09,21766.84 L11004.09,21766.84 Z M11026.51,21717.98 C11030.39,21725.81 11045.23,21726.38 11059.66,21719.24 C11074.09,21712.1 11082.64,21699.96 11078.77,21692.13 C11074.89,21684.29 11060.05,21683.73 11045.62,21690.87 C11031.19,21698.01 11022.64,21710.15 11026.51,21717.98 Z M11057.71,21784.42 C11061.59,21792.25 11076.43,21792.81 11090.86,21785.68 C11105.29,21778.53 11113.83,21766.39 11109.96,21758.56 C11106.08,21750.73 11091.24,21750.16 11076.81,21757.3 C11062.38,21764.44 11053.84,21776.58 11057.71,21784.42 Z M10965.74,21682.44 C10969.62,21690.27 10984.46,21690.84 10998.89,21683.7 C11013.32,21676.56 11021.87,21664.42 11018,21656.58 C11014.12,21648.75 10999.28,21648.19 10984.85,21655.32 C10970.42,21662.47 10961.87,21674.61 10965.74,21682.44 Z M11046.72,21859.67 C11050.6,21867.5 11065.44,21868.07 11079.87,21860.93 C11094.3,21853.79 11102.85,21841.65 11098.98,21833.81 C11095.1,21825.98 11080.26,21825.42 11065.83,21832.55 C11051.4,21839.7 11042.85,21851.84 11046.72,21859.67 Z" id="Shape" fill="#606163"></path>
            <ellipse id="Oval" fill="#702E52" cx="10287.39" cy="20502.19" rx="61.32" ry="20.23"></ellipse>
            <path d="M10287.38,20522.41 C10290.8,20631.62 10396.14,20728.27 10423.44,20607.37" id="Shape" stroke="#702E52" stroke-width="7.61"></path>
            <path d="M10287.38,20507.34 C10289.51,20606.44 10147.27,20725.15 10126.04,20614.78" id="Shape" stroke="#702E52" stroke-width="7.61"></path>
            <ellipse id="Oval" stroke="#201F1F" stroke-width="16" fill="#FFFFFF" transform="translate(10361.900000, 20398.300000) rotate(-42.962323) translate(-10361.900000, -20398.300000) " cx="10361.9" cy="20398.3" rx="16.6959378" ry="28.633936"></ellipse>
            <path d="M14782.66,4284.22 C16783.05,4601.54 16817.24,7737.76 15372.7,7631.93 C15381.21,8097.71 18020.57,7817.66 18067.48,10385.86 C18109.82,12704.18 15804.11,12349.54 16030.22,13226.21 C16366.1,14528.53 15941.12,15580.34 15216.03,16099.02 C14581.76,16552.73 14146.73,16531.05 13101.62,16492.75 C12907.45,16485.63 12497.69,16243.19 12384.77,17061.17 C12274.36,17860.8 10922.55,19247.69 9625.47,18737.93 C9005.15,18494.15 8124.97,17665.19 8114.15,17073.07 C8103.11,16468.48 7917.4,16382.32 7138.13,16482.65 C6792.89,16527.11 5914.35,16302.66 5555.05,15956.24 C4737.27,15167.75 4266.1,13995.73 4705.48,12877.73 C4909.46,12358.69 3044.91,12348.87 3067.27,10268.24 C3089.74,8177.45 5627.83,8358.37 5612.02,7492.86 C4783.58,7772.44 3752.13,5232.33 6396.17,4093.61 C8091.08,3363.65 9020.65,5458.33 10599.14,5444.85 C12651.63,5427.32 12264.47,3884.75 14782.66,4284.21 L14782.66,4284.22 Z" id="Shape" fill="#FC3CA2"></path>
            <g id="_105553867755296" transform="translate(13039.000000, 6813.000000)" stroke="#000000" stroke-width="17.63">
                <path d="M850.79,68.21 C814.4,93.43 786.62,26.31 787.13,54.45 C780.8,54.57 786.51,62.38 776.35,77.02 C765.29,92.97 745.54,157.05 733.52,182.25 C725.31,182.4 710.36,255.55 705.25,268.56 C702.52,275.5 705.74,279.15 694.68,302.32 C671.56,350.77 672.24,406.9 634.02,452.63 C617.33,472.6 620.26,482.89 597.81,512.98 C536.69,594.92 541.68,597.84 451.25,657.39 C421.8,676.79 436.58,676.36 392.34,699.5 C352.15,720.52 166.59,796.87 125.57,797.62 C93.5,798.2 30.48,810.54 5.56,800.75 C0.88,798.92 3.72,807.17 0.83,810.15 C37.61,845.61 90.92,891.57 135.07,909.34 C254.93,957.62 437.32,896.4 462.93,888.43 C661.27,826.72 695.47,743.73 793.1,585.87 C959.24,317.23 711.64,212.56 850.79,68.2 L850.79,68.21 Z" id="Shape" fill="url(#linearGradient-3)"></path>
                <path d="M841.73,72.74 C863.27,72.39 890.95,68.16 880.19,45.3 C872.2,28.33 880.19,31.81 863.06,26.96 C856.13,25 838.56,12.61 838.42,5.03 C822.17,-2.7 823.96,-1.65 806.83,11.2 C790.77,23.23 794.16,32 790.96,47.84 C809.78,55.32 812.36,74.78 841.73,72.74 Z" id="Shape" fill="#000000"></path>
                <path d="M808.52,306.32 C832.87,283.13 806.14,416.37 799.66,436.16 C785.45,479.46 718.14,593.66 691.24,631.21 C680.3,646.49 678.27,659.65 661.24,680.03 C626.54,721.53 454,817.35 385.89,838.03 C383.96,838.61 382.11,839.15 380.35,839.6 C324.81,854.23 278.95,878.13 218.9,879.23 C108.86,881.24 129.16,888.28 39.83,845.69" id="Shape"></path>
            </g>
            <g id="_105553867756864" transform="translate(9974.000000, 7418.000000)" stroke="#000000" stroke-width="17.63">
                <path d="M850.26,68.09 C813.88,93.31 786.09,26.18 786.61,54.33 C780.27,54.44 785.99,62.25 775.83,76.9 C764.77,92.84 745.02,156.93 732.99,182.12 C724.79,182.27 709.84,255.42 704.73,268.43 C702,275.38 705.22,279.02 694.16,302.2 C671.04,350.65 671.72,406.78 633.49,452.51 C616.81,472.48 619.74,482.77 597.29,512.85 C536.16,594.79 541.15,597.72 450.73,657.27 C421.28,676.66 436.06,676.24 391.81,699.37 C351.62,720.39 166.07,796.74 125.04,797.49 C92.98,798.08 29.95,810.41 5.03,800.62 C0.36,798.79 3.19,807.04 0.31,810.03 C37.09,845.49 90.4,891.44 134.54,909.22 C254.41,957.49 436.79,896.27 462.4,888.3 C660.75,826.59 694.95,743.6 792.58,585.74 C958.71,317.11 711.12,212.44 850.26,68.08 L850.26,68.09 Z" id="Shape" fill="url(#linearGradient-4)"></path>
                <path d="M841.21,72.62 C862.75,72.26 890.44,68.04 879.67,45.18 C871.69,28.2 879.68,31.68 862.55,26.84 C855.62,24.88 838.05,12.48 837.91,4.9 C821.66,-2.83 823.45,-1.77 806.31,11.08 C790.25,23.11 793.65,31.88 790.45,47.71 C809.27,55.19 811.85,74.65 841.21,72.62 L841.21,72.62 Z" id="Shape" fill="#000000"></path>
                <path d="M808,306.19 C832.35,283 805.62,416.24 799.13,436.03 C784.92,479.32 717.62,593.52 690.72,631.07 C679.78,646.35 677.75,659.52 660.72,679.89 C626.02,721.39 453.48,817.22 385.36,837.89 C383.44,838.48 381.58,839.01 379.83,839.47 C324.29,854.09 278.43,878 218.38,879.1 C108.34,881.11 128.64,888.15 39.31,845.55" id="Shape"></path>
            </g>
            <g id="_105553867758176" transform="translate(14941.000000, 9198.000000)" stroke="#000000" stroke-width="17.63">
                <path d="M849.96,69.01 C813.57,94.23 785.79,27.1 786.3,55.25 C779.97,55.36 785.68,63.17 775.52,77.82 C764.47,93.76 744.71,157.85 732.69,183.05 C724.49,183.2 709.54,256.34 704.42,269.36 C701.7,276.3 704.91,279.95 693.86,303.12 C670.73,351.57 671.42,407.7 633.19,453.43 C616.5,473.4 619.43,483.69 596.98,513.78 C535.86,595.72 540.85,598.64 450.42,658.19 C420.97,677.59 435.75,677.16 391.51,700.29 C351.32,721.32 165.76,797.67 124.74,798.42 C92.67,799 29.65,811.33 4.73,801.55 C0.05,799.71 2.89,807.97 0,810.95 C36.78,846.41 90.09,892.36 134.24,910.14 C254.1,958.42 436.49,897.19 462.1,889.23 C660.44,827.51 694.64,744.52 792.27,586.66 C958.41,318.03 710.82,213.36 849.96,69 L849.96,69.01 Z" id="Shape" fill="url(#linearGradient-5)"></path>
                <path d="M840.9,73.54 C862.44,73.19 890.13,68.96 879.36,46.1 C871.37,29.12 879.36,32.61 862.23,27.76 C855.3,25.8 837.73,13.41 837.6,5.83 C821.34,-1.9 823.13,-0.85 806,12 C789.94,24.03 793.34,32.8 790.13,48.63 C808.95,56.12 811.53,75.57 840.9,73.54 L840.9,73.54 Z" id="Shape" fill="#000000"></path>
                <path d="M807.7,307.12 C832.04,283.93 805.31,417.17 798.83,436.96 C784.62,480.25 717.31,594.45 690.41,632.01 C679.47,647.29 677.44,660.45 660.41,680.82 C625.71,722.32 453.18,818.15 385.06,838.83 C383.13,839.41 381.28,839.94 379.52,840.4 C323.98,855.02 278.12,878.93 218.07,880.03 C108.03,882.04 128.33,889.08 39.01,846.49" id="Shape"></path>
            </g>
            <g id="_105553867759392" transform="translate(12277.000000, 9591.000000)" stroke="#000000" stroke-width="17.63">
                <path d="M850.19,68.45 C813.81,93.67 786.02,26.54 786.54,54.68 C780.2,54.8 785.92,62.61 775.76,77.26 C764.7,93.2 744.95,157.28 732.93,182.48 C724.72,182.63 709.77,255.78 704.66,268.79 C701.93,275.74 705.15,279.38 694.09,302.56 C670.97,351 671.65,407.14 633.43,452.86 C616.74,472.84 619.67,483.13 597.22,513.21 C536.09,595.15 541.09,598.08 450.66,657.62 C421.21,677.02 435.99,676.59 391.75,699.73 C351.55,720.75 166,797.1 124.98,797.85 C92.91,798.44 29.88,810.77 4.96,800.98 C0.29,799.15 3.12,807.4 0.24,810.38 C37.02,845.85 90.33,891.8 134.47,909.57 C254.34,957.85 436.72,896.63 462.33,888.66 C660.68,826.95 694.88,743.96 792.51,586.1 C958.65,317.47 711.05,212.79 850.19,68.44 L850.19,68.45 Z" id="Shape" fill="url(#linearGradient-6)"></path>
                <path d="M841.14,72.99 C862.67,72.63 890.36,68.41 879.6,45.54 C871.61,28.57 879.6,32.05 862.47,27.21 C855.54,25.24 837.97,12.85 837.83,5.27 C821.58,-2.46 823.37,-1.41 806.24,11.44 C790.17,23.48 793.57,32.25 790.37,48.08 C809.19,55.56 811.77,75.02 841.14,72.99 L841.14,72.99 Z" id="Shape" fill="#000000"></path>
                <path d="M807.92,306.55 C832.27,283.36 805.54,416.6 799.06,436.39 C784.84,479.69 717.54,593.89 690.64,631.44 C679.7,646.72 677.67,659.89 660.64,680.26 C625.94,721.76 453.4,817.59 385.29,838.26 C383.36,838.85 381.5,839.38 379.75,839.84 C324.21,854.46 278.35,878.37 218.3,879.46 C108.26,881.48 128.56,888.51 39.23,845.92" id="Shape"></path>
            </g>
            <g id="_105553867760608" transform="translate(13088.000000, 13829.000000)" stroke="#000000" stroke-width="17.63">
                <path d="M850.92,68.3 C814.54,93.52 786.75,26.39 787.27,54.54 C780.93,54.65 786.65,62.46 776.49,77.11 C765.43,93.05 745.68,157.14 733.66,182.34 C725.45,182.49 710.5,255.63 705.39,268.64 C702.66,275.59 705.88,279.23 694.82,302.41 C671.7,350.86 672.38,406.99 634.16,452.72 C617.47,472.69 620.4,482.98 597.95,513.06 C536.82,595.01 541.81,597.93 451.39,657.48 C421.94,676.87 436.72,676.45 392.48,699.58 C352.28,720.6 166.73,796.95 125.71,797.7 C93.64,798.29 30.61,810.62 5.69,800.83 C1.02,799 3.85,807.26 0.97,810.24 C37.75,845.7 91.06,891.65 135.2,909.43 C255.07,957.71 437.45,896.48 463.06,888.51 C661.41,826.8 695.61,743.81 793.24,585.95 C959.38,317.32 711.78,212.65 850.92,68.29 L850.92,68.3 Z" id="Shape" fill="url(#linearGradient-7)"></path>
                <path d="M841.88,72.84 C863.41,72.48 891.1,68.26 880.34,45.4 C872.35,28.42 880.34,31.9 863.21,27.06 C856.28,25.1 838.71,12.7 838.57,5.12 C822.32,-2.61 824.11,-1.55 806.97,11.3 C790.91,23.33 794.31,32.1 791.11,47.93 C809.93,55.41 812.51,74.87 841.88,72.84 L841.88,72.84 Z" id="Shape" fill="#000000"></path>
                <path d="M808.66,306.41 C833.01,283.22 806.28,416.46 799.79,436.25 C785.58,479.54 718.28,593.74 691.38,631.29 C680.44,646.57 678.41,659.74 661.38,680.11 C626.68,721.61 454.14,817.44 386.03,838.12 C384.1,838.7 382.24,839.23 380.49,839.69 C324.95,854.31 279.09,878.22 219.04,879.32 C109,881.33 129.3,888.37 39.97,845.77" id="Shape"></path>
            </g>
            <g id="_105553867761824" transform="translate(11203.000000, 12135.000000)" stroke="#000000" stroke-width="17.63">
                <path d="M850.09,68.79 C813.71,94.01 785.92,26.88 786.44,55.03 C780.1,55.14 785.81,62.95 775.66,77.6 C764.6,93.54 744.85,157.63 732.82,182.83 C724.62,182.98 709.67,256.12 704.56,269.13 C701.83,276.08 705.05,279.72 693.99,302.9 C670.87,351.35 671.55,407.48 633.32,453.21 C616.63,473.18 619.56,483.47 597.12,513.55 C535.99,595.5 540.98,598.42 450.56,657.97 C421.1,677.36 435.89,676.94 391.64,700.07 C351.45,721.09 165.9,797.44 124.87,798.19 C92.81,798.78 29.78,811.11 4.86,801.32 C0.18,799.49 3.02,807.75 0.14,810.73 C36.92,846.19 90.22,892.14 134.37,909.92 C254.24,958.2 436.62,896.97 462.23,889 C660.58,827.29 694.77,744.3 792.41,586.44 C958.54,317.81 710.95,213.14 850.09,68.78 L850.09,68.79 Z" id="Shape" fill="url(#linearGradient-8)"></path>
                <path d="M841.03,73.33 C862.57,72.97 890.26,68.75 879.49,45.89 C871.51,28.91 879.49,32.39 862.37,27.55 C855.44,25.59 837.87,13.19 837.73,5.61 C821.48,-2.12 823.27,-1.06 806.13,11.79 C790.07,23.82 793.47,32.59 790.27,48.42 C809.09,55.9 811.67,75.36 841.03,73.33 L841.03,73.33 Z" id="Shape" fill="#000000"></path>
                <path d="M807.82,306.9 C832.17,283.71 805.44,416.95 798.95,436.74 C784.74,480.03 717.43,594.23 690.54,631.79 C679.6,647.06 677.57,660.23 660.53,680.6 C625.84,722.1 453.3,817.93 385.18,838.61 C383.25,839.19 381.4,839.72 379.65,840.18 C324.11,854.8 278.25,878.71 218.2,879.81 C108.16,881.82 128.46,888.86 39.13,846.26" id="Shape"></path>
            </g>
            <g id="_105553867763040" transform="translate(9186.000000, 9780.000000)" stroke="#000000" stroke-width="17.63">
                <path d="M850.6,68.12 C814.21,93.34 786.43,26.21 786.94,54.35 C780.61,54.47 786.32,62.28 776.16,76.93 C765.1,92.87 745.35,156.95 733.33,182.15 C725.12,182.3 710.18,255.45 705.06,268.46 C702.33,275.41 705.55,279.05 694.5,302.23 C671.37,350.67 672.05,406.81 633.83,452.53 C617.14,472.51 620.07,482.8 597.62,512.88 C536.5,594.82 541.49,597.75 451.06,657.29 C421.61,676.69 436.39,676.26 392.15,699.4 C351.96,720.42 166.4,796.77 125.38,797.52 C93.31,798.11 30.29,810.44 5.37,800.65 C0.69,798.82 3.53,807.07 0.64,810.06 C37.42,845.52 90.73,891.47 134.88,909.24 C254.74,957.52 437.13,896.3 462.74,888.33 C661.08,826.62 695.28,743.63 792.91,585.77 C959.05,317.14 711.45,212.46 850.6,68.11 L850.6,68.12 Z" id="Shape" fill="url(#linearGradient-9)"></path>
                <path d="M841.55,72.66 C863.09,72.3 890.78,68.08 880.01,45.21 C872.02,28.24 880.01,31.72 862.88,26.88 C855.95,24.91 838.38,12.52 838.24,4.94 C821.99,-2.79 823.78,-1.74 806.65,11.11 C790.59,23.15 793.99,31.92 790.78,47.75 C809.6,55.23 812.18,74.69 841.55,72.66 L841.55,72.66 Z" id="Shape" fill="#000000"></path>
                <path d="M808.33,306.22 C832.68,283.03 805.95,416.27 799.47,436.06 C785.26,479.36 717.95,593.56 691.05,631.11 C680.11,646.39 678.08,659.56 661.05,679.93 C626.35,721.43 453.81,817.26 385.7,837.93 C383.77,838.52 381.92,839.05 380.16,839.51 C324.62,854.13 278.76,878.04 218.71,879.14 C108.67,881.15 128.97,888.18 39.64,845.59" id="Shape"></path>
            </g>
            <g id="_105553867764256" transform="translate(5744.000000, 9367.000000)" stroke="#000000" stroke-width="17.63">
                <path d="M850.79,68.88 C814.4,94.1 786.62,26.97 787.13,55.11 C780.8,55.23 786.51,63.04 776.35,77.69 C765.3,93.63 745.54,157.71 733.52,182.91 C725.32,183.06 710.37,256.21 705.26,269.22 C702.53,276.16 705.74,279.81 694.69,302.98 C671.57,351.43 672.25,407.57 634.02,453.29 C617.33,473.26 620.26,483.56 597.82,513.64 C536.69,595.58 541.68,598.5 451.25,658.05 C421.8,677.45 436.58,677.02 392.34,700.16 C352.15,721.18 166.6,797.53 125.57,798.28 C93.5,798.87 30.48,811.2 5.56,801.41 C0.88,799.58 3.72,807.83 0.83,810.81 C37.61,846.28 90.92,892.23 135.07,910 C254.94,958.28 437.32,897.06 462.93,889.09 C661.28,827.38 695.47,744.39 793.11,586.53 C959.24,317.9 711.65,213.22 850.79,68.87 L850.79,68.88 Z" id="Shape" fill="url(#linearGradient-10)"></path>
                <path d="M841.74,73.41 C863.28,73.06 890.97,68.84 880.2,45.97 C872.21,29 880.2,32.48 863.08,27.63 C856.14,25.67 838.58,13.28 838.44,5.7 C822.18,-2.03 823.97,-0.98 806.84,11.87 C790.78,23.91 794.18,32.67 790.97,48.51 C809.8,55.99 812.37,75.45 841.74,73.41 L841.74,73.41 Z" id="Shape" fill="#000000"></path>
                <path d="M808.53,306.98 C832.87,283.79 806.15,417.03 799.66,436.82 C785.45,480.12 718.14,594.32 691.24,631.87 C680.3,647.15 678.27,660.31 661.24,680.69 C626.54,722.19 454.01,818.01 385.89,838.69 C383.96,839.28 382.11,839.81 380.35,840.26 C324.81,854.89 278.95,878.8 218.9,879.89 C108.86,881.9 129.16,888.94 39.84,846.35" id="Shape"></path>
            </g>
            <g id="_105553867765472" transform="translate(6940.000000, 6362.000000)" stroke="#000000" stroke-width="17.63">
                <path d="M850.28,68.82 C813.9,94.04 786.11,26.91 786.63,55.05 C780.29,55.17 786,62.98 775.85,77.63 C764.79,93.57 745.04,157.65 733.01,182.85 C724.81,183 709.86,256.15 704.75,269.16 C702.02,276.11 705.24,279.75 694.18,302.93 C671.06,351.37 671.74,407.51 633.51,453.23 C616.82,473.21 619.76,483.5 597.31,513.58 C536.18,595.52 541.17,598.45 450.75,657.99 C421.29,677.39 436.08,676.96 391.83,700.1 C351.64,721.12 166.09,797.47 125.06,798.22 C93,798.81 29.97,811.14 5.05,801.35 C0.37,799.52 3.21,807.77 0.33,810.76 C37.11,846.22 90.42,892.17 134.56,909.94 C254.43,958.22 436.81,897 462.42,889.03 C660.77,827.32 694.97,744.33 792.6,586.47 C958.73,317.84 711.14,213.16 850.28,68.81 L850.28,68.82 Z" id="Shape" fill="url(#linearGradient-11)"></path>
                <path d="M841.23,73.36 C862.77,73 890.46,68.78 879.69,45.91 C871.71,28.94 879.7,32.42 862.57,27.58 C855.64,25.61 838.07,13.22 837.93,5.64 C821.68,-2.09 823.47,-1.04 806.33,11.81 C790.27,23.85 793.67,32.62 790.47,48.45 C809.29,55.93 811.87,75.39 841.23,73.36 L841.23,73.36 Z" id="Shape" fill="#000000"></path>
                <path d="M808.02,306.92 C832.37,283.73 805.64,416.97 799.15,436.76 C784.94,480.06 717.64,594.26 690.74,631.81 C679.8,647.09 677.77,660.26 660.74,680.63 C626.04,722.13 453.5,817.96 385.38,838.63 C383.46,839.22 381.6,839.75 379.85,840.21 C324.31,854.83 278.45,878.74 218.4,879.83 C108.36,881.85 128.66,888.88 39.33,846.29" id="Shape"></path>
            </g>
            <g id="_105553867766688" transform="translate(7476.000000, 12558.000000)" stroke="#000000" stroke-width="17.63">
                <path d="M850.18,68.31 C813.8,93.53 786.01,26.4 786.53,54.54 C780.19,54.66 785.9,62.47 775.75,77.12 C764.69,93.06 744.94,157.15 732.91,182.34 C724.71,182.49 709.76,255.64 704.65,268.65 C701.92,275.6 705.13,279.24 694.08,302.42 C670.96,350.86 671.64,407 633.41,452.73 C616.72,472.7 619.65,482.99 597.21,513.07 C536.08,595.01 541.07,597.94 450.65,657.48 C421.19,676.88 435.98,676.45 391.73,699.59 C351.54,720.61 165.99,796.96 124.96,797.71 C92.9,798.3 29.87,810.63 4.95,800.84 C0.27,799.01 3.11,807.26 0.22,810.25 C37.01,845.71 90.31,891.66 134.46,909.44 C254.33,957.71 436.71,896.49 462.32,888.52 C660.67,826.81 694.86,743.82 792.5,585.96 C958.63,317.33 711.04,212.65 850.18,68.3 L850.18,68.31 Z" id="Shape" fill="url(#linearGradient-12)"></path>
                <path d="M841.12,72.84 C862.66,72.48 890.35,68.26 879.58,45.39 C871.6,28.42 879.58,31.9 862.46,27.06 C855.53,25.1 837.96,12.7 837.82,5.12 C821.57,-2.61 823.36,-1.56 806.22,11.3 C790.16,23.33 793.56,32.1 790.36,47.93 C809.18,55.41 811.76,74.87 841.12,72.84 L841.12,72.84 Z" id="Shape" fill="#000000"></path>
                <path d="M807.91,306.4 C832.26,283.22 805.53,416.46 799.04,436.25 C784.83,479.54 717.52,593.74 690.62,631.29 C679.69,646.57 677.66,659.74 660.62,680.11 C625.93,721.61 453.39,817.44 385.27,838.11 C383.34,838.7 381.49,839.23 379.73,839.69 C324.2,854.31 278.34,878.22 218.29,879.32 C108.25,881.33 128.55,888.36 39.22,845.77" id="Shape"></path>
            </g>
            <g id="_105553868054016" transform="translate(9505.000000, 14646.000000)" stroke="#000000" stroke-width="17.63">
                <path d="M850.17,68.36 C813.78,93.58 786,26.45 786.51,54.59 C780.18,54.71 785.89,62.52 775.73,77.17 C764.68,93.11 744.92,157.2 732.9,182.39 C724.7,182.54 709.75,255.69 704.63,268.7 C701.91,275.65 705.12,279.29 694.07,302.47 C670.94,350.91 671.63,407.05 633.4,452.77 C616.71,472.75 619.64,483.04 597.19,513.12 C536.07,595.06 541.06,597.99 450.63,657.53 C421.18,676.93 435.96,676.5 391.72,699.64 C351.53,720.66 165.97,797.01 124.95,797.76 C92.88,798.35 29.86,810.68 4.94,800.89 C0.26,799.06 3.1,807.31 0.21,810.3 C36.99,845.76 90.3,891.71 134.45,909.49 C254.31,957.76 436.7,896.54 462.31,888.57 C660.65,826.86 694.85,743.87 792.48,586.01 C958.62,317.38 711.03,212.7 850.17,68.35 L850.17,68.36 Z" id="Shape" fill="url(#linearGradient-13)"></path>
                <path d="M841.11,72.9 C862.65,72.54 890.34,68.32 879.57,45.45 C871.58,28.48 879.57,31.96 862.44,27.12 C855.51,25.16 837.94,12.76 837.81,5.18 C821.55,-2.55 823.34,-1.5 806.21,11.36 C790.15,23.39 793.55,32.16 790.34,47.99 C809.16,55.47 811.74,74.93 841.11,72.9 L841.11,72.9 Z" id="Shape" fill="#000000"></path>
                <path d="M807.91,306.46 C832.25,283.27 805.52,416.51 799.04,436.31 C784.83,479.6 717.52,593.8 690.62,631.35 C679.68,646.63 677.65,659.8 660.62,680.17 C625.92,721.67 453.39,817.5 385.27,838.17 C383.34,838.76 381.49,839.29 379.73,839.75 C324.19,854.37 278.33,878.28 218.28,879.38 C108.24,881.39 128.54,888.42 39.22,845.83" id="Shape"></path>
            </g>
            <ellipse id="Oval" stroke="#201F1F" stroke-width="16" fill="#201F1F" transform="translate(10355.697698, 20387.840658) rotate(-50.287507) translate(-10355.697698, -20387.840658) " cx="10355.6977" cy="20387.8407" rx="13.8770038" ry="12.7800525"></ellipse>
            <ellipse id="Oval" stroke="#201F1F" stroke-width="16" fill="#FFFFFF" cx="10194.24" cy="20395.02" rx="16.7" ry="28.63"></ellipse>
            <ellipse id="Oval" stroke="#201F1F" stroke-width="17.63" fill="#201F1F" cx="10193.47" cy="20382.24" rx="13.88" ry="12.78"></ellipse>
            <path d="M8298.69,0 L12687.05,0 L12687.05,3695.05 C12687.05,6073.64 8298.69,6004.8 8298.69,3721.48 L8298.69,0 L8298.69,0 Z" id="Shape" fill="url(#linearGradient-14)"></path>
        </g>
    </g>
</svg>