<?xml version="1.0" encoding="UTF-8" standalone="no"?>
<svg xmlns="http://www.w3.org/2000/svg" xml:space="preserve" width="138.944mm" height="111.407mm" version="1.0" style="shape-rendering:geometricPrecision; text-rendering:geometricPrecision; image-rendering:optimizeQuality; fill-rule:evenodd; clip-rule:evenodd"
viewBox="0 0 889.45 713.17"
 xmlns:xlink="http://www.w3.org/1999/xlink">
 <defs>
  <style type="text/css">
   <![CDATA[
    .str0 {stroke:#000000;stroke-width:1;stroke-miterlimit:20}
    .fil0 {fill:none}
    .fil2 {fill:white}
    .fil1 {fill:#F8AEB0}
   ]]>
  </style>
 </defs>
 <g id="plastic_card">
  <metadata id="discound_card"/>
  <rect class="fil0 str0" transform="matrix(0.80473 0.346519 -3.46519E-001 0.80473 179.371 -1.18831E+001)" width="903.32" height="532.96" rx="63.23" ry="63.23"/>
  <rect class="fil1 str0" transform="matrix(0.80473 0.346519 -3.46519E-001 0.80473 167.827 -1.68539E+001)" width="903.32" height="532.96" rx="63.23" ry="63.23"/>
  <path class="fil0 str0" d="M159.37 145.15c-12.39,66 -45.58,120.51 -83.16,173.54 -10.97,15.48 -11.4,19.42 -23.61,30.24 15.61,-16.75 -46.59,4.16 61.33,-14.4 77.09,-13.26 173.94,31.16 182.14,-14.94 2.95,-49.17 -58.64,-85.87 -94.48,-106.68 -153.31,-89.04 -82.13,67.66 105.89,75.26 74.05,2.99 -40.62,57.05 5.69,61.52 23.69,2.29 114.79,-39.11 82.43,-55.73 -9.1,-4.67 -21.77,-4.14 -27.12,-1.26 -24.13,12.95 32.92,37.57 34.94,59.83 4.41,48.64 -63.02,19.61 -64.71,11.82"/>
  <path class="fil0 str0" d="M478.35 297.22c-25.21,47.47 7.49,16.58 4.73,13.14 -8.22,-10.22 -37.82,-6.94 -51.17,3.38 -76.57,59.18 77.24,133.82 94.51,28.09 -8.82,-5.3 -11.89,38.91 -10.35,47.78 1.72,9.92 0.96,15.49 14.59,19.02 23.44,6.08 31.91,-5.21 37.09,-24.87 4.79,-18.18 1.48,-29.42 -18.35,-37 -31.09,-11.89 -35.36,6.89 -34.47,30.55 2.39,63.65 56.07,19.83 77.66,-19.78l1.38 1.67c-15.77,35.73 -10.58,74.63 16.96,57.53 7.94,-4.93 22.36,-16.77 26.93,-23.66 14.31,-21.61 4.45,-35.54 -9.03,28.44 -3.06,14.52 22.67,16.62 33.38,-6.94 40.02,-88.05 -0.77,-27.45 -6.52,23.08 38.84,-98.02 63.29,-72.07 52.39,-41.08 -37.87,107.67 96.81,-68.02 96.9,-72.56l-52.43 67.04c-9.75,12.47 -30.61,55.63 -10.26,62.41 6.83,2.28 41.61,-3.27 51.62,-3.97"/>
  <path class="fil0 str0" d="M821.11 361.61l-84.69 -8.17"/>
  <ellipse class="fil2 str0" transform="matrix(0.813355 0.0785134 -1.44013E-002 0.811965 335.522 276.73)" rx="7.11" ry="4.06"/>
 </g>
</svg>
