<?xml version="1.0" encoding="UTF-8" standalone="no"?>
<svg width="209px" height="188px" viewBox="0 0 209 188" version="1.1" xmlns="http://www.w3.org/2000/svg" xmlns:xlink="http://www.w3.org/1999/xlink">
    <desc>Vector graphics by http://htochko.github.io</desc>
    <defs></defs>
    <g id="100_questions_and_answers" stroke="none" stroke-width="1" fill="none" fill-rule="evenodd">
        <g id="100questions">
            <path d="M1.68,128.26 L1.22,64.95 L107.66,64.67 L90.71,74.84 L18.18,75.03 L18.5,118.17 L1.69,128.25 L1.68,128.26 Z M204.18,121.58 L204.65,185.95 L96.42,186.24 L113.37,176.07 L187.69,175.87 L187.37,131.67 L204.18,121.59 L204.18,121.58 Z" id="Shape" stroke="#373535" stroke-width="1.49"></path>
            <polygon id="Shape" stroke="#373535" stroke-width="1.49" fill="#AAACAE"
                     points="1.21 63.89 18.01 53.81 18.48 118.18 1.68 128.26 1.21 63.89"></polygon>
            <polygon id="Shape"
                     stroke="#373535"
                     stroke-width="1"
                     fill="#ffffff"
                     points="14,94 27,86 40,94 27,106"
                    />
            <polygon id="Shape" stroke="#373535" stroke-width="1.49" fill="#AAACAE" points="26.75 101.58 38.68 94.42 39.15 158.79 27.22 165.95 26.75 101.58"></polygon>
            <polygon id="Shape" stroke="#373535" stroke-width="1.49" fill="#737476" points="26.75 101.58 14.82 94.42 15.29 158.79 27.22 165.95 26.75 101.58"></polygon>
            <polygon id="Shape" stroke="#373535" stroke-width="1.49" fill="#737476" points="134.7 19.95 122.77 12.79 123.24 77.16 135.17 84.32 134.7 19.95"></polygon>
            <polygon id="Shape" stroke="#373535" stroke-width="1.49" fill="#D2D4D5" points="90.24 10.48 107.19 0.31 107.9 64.71 90.71 74.85 90.24 10.48"></polygon>
            <rect id="Rectangle-path" stroke="#373535" stroke-width="1.49" fill="#E6E7E8" x="17.93" y="10.48" width="72.31" height="64.58"></rect>
            <polygon id="Shape" stroke="#373535" stroke-width="1.49" fill="#AAACAE" points="134.7 19.95 155.92 7.22 156.63 71.62 135.17 84.32 134.7 19.95"></polygon>
            <polygon id="Shape" stroke="#373535" stroke-width="1.49" fill="#737476" points="183.49 38.09 149.54 17.72 150.01 82.09 183.96 102.46 183.49 38.09"></polygon>
            <path d="M143.98,0.06 L155.91,7.22 L143.98,14.38 L134.69,19.95 L122.76,12.79 L132.05,7.22 L143.98,0.06 L143.98,0.06 Z M161.47,10.55 L195.42,30.92 L207.35,38.08 L159.61,66.72 L147.68,59.56 L183.49,38.08 L149.54,17.71 L161.47,10.55 L161.47,10.55 Z" id="Shape" stroke="#373535" stroke-width="1.49" fill="#FFFFFF"></path>
            <polygon id="Shape" stroke="#373535" stroke-width="1.49" points="66.66 127.81 141.54 127.91 141.54 138.04 74.03 138.04 73.8 138.01 60.83 145.79 48.9 138.63 66.67 127.81"></polygon>
            <polygon id="Shape" fill="#AAACAE" points="60.35 81.42 73.32 73.64 74.03 138.04 60.82 145.79 60.35 81.42"></polygon>
            <rect id="Rectangle-path" fill="#E6E7E8" x="73.32" y="73.64" width="67.75" height="64.58"></rect>
            <polygon id="Shape" stroke="#373535" stroke-width="1.49" fill="#AAACAE" points="159.62 66.73 207.36 38.09 207.83 102.46 160.09 131.1 159.62 66.73"></polygon>
            <polygon id="Shape" stroke="#373535" stroke-width="1.49" fill="#737476" points="159.62 66.73 147.69 59.57 148.16 123.94 160.09 131.1 159.62 66.73"></polygon>
            <polygon id="Shape" stroke="#373535" stroke-width="1.49" fill="#FFFFFF" points="66.19 63.44 141.07 63.54 141.07 73.67 73.56 73.67 73.33 73.64 60.36 81.42 48.43 74.26 66.2 63.44"></polygon>
            <polygon id="Shape" stroke="#373535" stroke-width="1.49" fill="#737476" points="60.35 81.42 48.42 74.26 48.89 138.63 60.82 145.79 60.35 81.42"></polygon>
            <polygon id="Shape" stroke="#373535" stroke-width="1.49" points="60.82 145.79 60.35 81.42 73.56 73.67 141.07 73.64 141.07 138.04 73.32 138.23 60.82 145.8"></polygon>
            <path d="M1.21,63.89 L0.75,0.58 L107.19,0.3 L90.24,10.47 L17.71,10.66 L18.03,53.8 L1.22,63.88 L1.21,63.89 Z M203.71,57.21 L204.18,121.58 L95.95,121.87 L112.9,111.7 L187.22,111.5 L186.9,67.3 L203.71,57.22 L203.71,57.21 Z" id="Shape" stroke="#373535" stroke-width="1.49" fill="#FFFFFF"></path>
            <rect id="Rectangle-path" stroke="#373535" stroke-width="1.49" fill="#E6E7E8" x="95.96" y="121.58" width="108.23" height="64.58"></rect>
            <path d="M25.02,26.64 L33.23,26.64 L33.23,42.4 L27.92,42.4 L27.92,31.56 C27.92,30.04 26.74,28.98 25.02,28.99 L25.02,26.64 L25.02,26.64 Z" id="Shape" fill="#373535"></path>
            <path d="M42.59,26.69 L51.12,26.69 C53.69,26.69 56.63,28.79 56.63,31.36 L51.25,31.36 C50.8,30.19 49.72,29.36 48.75,29.36 L44.55,29.36 C43.58,29.36 42.38,30.19 41.88,31.36 L36.64,31.36 C36.64,28.79 40,26.69 42.57,26.69 L42.59,26.69 Z M56.64,33.07 L56.64,36.79 L51.48,36.79 L51.48,33.07 L56.64,33.07 Z M56.62,38.39 C56.34,40.77 53.57,42.67 51.13,42.67 L42.6,42.67 C40.17,42.67 37.02,40.78 36.7,38.39 L42.05,38.39 C42.61,39.41 43.7,40.11 44.59,40.11 L48.79,40.11 C49.68,40.11 50.66,39.41 51.16,38.39 L56.63,38.39 L56.62,38.39 Z M36.67,36.78 L36.67,33.06 L41.66,33.06 L41.66,36.78 L36.67,36.78 Z" id="Shape" fill="#373535"></path>
            <path d="M65.82,26.69 L74.35,26.69 C76.92,26.69 79.86,28.79 79.86,31.36 L74.48,31.36 C74.03,30.19 72.95,29.36 71.98,29.36 L67.78,29.36 C66.81,29.36 65.61,30.19 65.11,31.36 L59.87,31.36 C59.87,28.79 63.23,26.69 65.8,26.69 L65.82,26.69 Z M79.87,33.07 L79.87,36.79 L74.71,36.79 L74.71,33.07 L79.87,33.07 Z M79.85,38.39 C79.57,40.77 76.8,42.67 74.36,42.67 L65.83,42.67 C63.4,42.67 60.25,40.78 59.93,38.39 L65.28,38.39 C65.84,39.41 66.93,40.11 67.82,40.11 L72.02,40.11 C72.91,40.11 73.89,39.41 74.39,38.39 L79.86,38.39 L79.85,38.39 Z M59.9,36.78 L59.9,33.06 L64.89,33.06 L64.89,36.78 L59.9,36.78 L59.9,36.78 Z" id="Shape" fill="#373535"></path>
            <path d="M139.08,134.21 L147.29,134.21 L147.29,149.97 L141.98,149.97 L141.98,139.13 C141.98,137.61 140.8,136.55 139.08,136.56 L139.08,134.21 Z" id="Shape" fill="#373535"></path>
            <path d="M156.65,134.26 L165.18,134.26 C167.75,134.26 170.69,136.36 170.69,138.93 L165.31,138.93 C164.86,137.76 163.78,136.93 162.81,136.93 L158.61,136.93 C157.64,136.93 156.44,137.76 155.94,138.93 L150.7,138.93 C150.7,136.36 154.06,134.26 156.63,134.26 L156.65,134.26 Z M170.7,140.64 L170.7,144.36 L165.54,144.36 L165.54,140.64 L170.7,140.64 Z M170.68,145.96 C170.4,148.34 167.63,150.24 165.19,150.24 L156.66,150.24 C154.23,150.24 151.08,148.35 150.76,145.96 L156.11,145.96 C156.67,146.98 157.76,147.68 158.65,147.68 L162.85,147.68 C163.74,147.68 164.72,146.98 165.22,145.96 L170.69,145.96 L170.68,145.96 Z M150.73,144.35 L150.73,140.63 L155.72,140.63 L155.72,144.35 L150.73,144.35 Z" id="Shape" fill="#373535"></path>
            <path d="M179.89,134.26 L188.42,134.26 C190.99,134.26 193.93,136.36 193.93,138.93 L188.55,138.93 C188.1,137.76 187.02,136.93 186.05,136.93 L181.85,136.93 C180.88,136.93 179.68,137.76 179.18,138.93 L173.94,138.93 C173.94,136.36 177.3,134.26 179.87,134.26 L179.89,134.26 Z M193.94,140.64 L193.94,144.36 L188.78,144.36 L188.78,140.64 L193.94,140.64 Z M193.92,145.96 C193.64,148.34 190.87,150.24 188.43,150.24 L179.9,150.24 C177.47,150.24 174.32,148.35 174,145.96 L179.35,145.96 C179.91,146.98 181,147.68 181.89,147.68 L186.09,147.68 C186.98,147.68 187.96,146.98 188.46,145.96 L193.93,145.96 L193.92,145.96 Z M173.97,144.35 L173.97,140.63 L178.96,140.63 L178.96,144.35 L173.97,144.35 Z" id="Shape" fill="#373535"></path>
            <rect id="Rectangle-path" fill="#373535" x="125.18" y="136.36" width="4.99" height="3.72"></rect>
            <rect id="Rectangle-path" fill="#373535" x="125.18" y="145.14" width="4.99" height="3.72"></rect>
        </g>
    </g>
</svg>