<?xml version="1.0" encoding="UTF-8" standalone="no"?>
<svg width="572px" height="462px" viewBox="0 0 572 462" version="1.1" xmlns="http://www.w3.org/2000/svg" xmlns:xlink="http://www.w3.org/1999/xlink">
    <desc>Vector graphics by http://htochko.github.io</desc>
    <defs></defs>
    <g id="Page-1" stroke="none" stroke-width="1" fill="none" fill-rule="evenodd">
        <g id="3dgallery" transform="translate(4.000000, 1.000000)">
            <path d="M1.39,289.35 L283.3,120.2 L511.95,257.47 L291.13,389.96 L275.47,380.56 L480.69,257.43 L389.82,202.91 L184.6,326.05 L168.94,316.65 L374.16,193.52 L283.29,139 L17.03,298.75 L1.37,289.35 L1.39,289.35 Z M397.66,262.13 L192.44,385.26 L283.31,439.78 L549.56,280.03 L565.22,289.43 L283.31,458.58 C207.07,412.84 130.83,367.09 54.6,321.35 L275.48,188.82 L291.14,198.22 L85.91,321.35 L176.78,375.87 L382,252.73 L397.66,262.13 L397.66,262.13 Z" id="Shape" stroke="#373535" stroke-width="2.59" fill="#FFFFFF" fill-rule="nonzero"></path>
            <polygon id="Shape" fill="#AAACAE" points="85.03 201.65 290.25 78.52 291.13 198.21 85.9 321.35 85.03 201.66"></polygon>
            <polygon id="Shape" stroke="#373535" stroke-width="2.59" fill="#D0D0D0" points="16.17 179.05 282.43 19.3 283.31 138.99 17.05 298.74 16.17 179.05"></polygon>
            <polygon id="Shape" fill="#9B9B9B" points="479.83 137.74 282.43 19.3 283.31 138.99 480.71 257.43 479.83 137.74"></polygon>
            <polygon id="Shape" fill="#3F4096" points="211.54 82.76 251.13 57.92 251.6 122.03 212.01 146.87"></polygon>
            <polygon id="Shape" fill="#EE3338" points="167.72 125.75 197.84 106.85 198.2 155.63 168.08 174.53 167.73 125.75"></polygon>
            <polygon id="Shape" fill="#FFF215" points="93.91 143.73 136.19 117.21 136.69 185.67 94.41 212.19 93.91 143.73"></polygon>
            <polygon id="Shape" fill="#D0D0D0" points="76.74 206.63 290.26 78.52 291.14 198.21 77.62 326.32 76.75 206.63"></polygon>
            <polygon id="Shape" fill="#FFF215" points="339.96 73.38 311.18 55.32 310.84 101.93 339.62 119.99"></polygon>
            <polygon id="Shape" fill="#FFF215" points="201.3 145 235.43 123.59 235.83 178.86 201.7 200.27"></polygon>
            <polygon id="Shape" fill="#3F4096" points="161.4 182.87 189.56 165.2 189.89 210.8 161.73 228.47 161.4 182.87"></polygon>
            <polygon id="Shape" stroke="#373535" stroke-width="2.59" fill="#D0D0D0" points="183.73 206.35 388.95 83.21 389.83 202.9 184.61 326.03 183.73 206.34"></polygon>
            <polygon id="Shape" fill="#EE3338" points="206.94 204.86 245.98 180.37 246.44 243.59 207.4 268.08 206.94 204.86"></polygon>
            <polygon id="Shape" fill="#EE3338" points="429.79 147.62 405.65 132.47 405.36 171.56 429.5 186.7 429.78 147.61"></polygon>
            <polygon id="Shape" fill="#3F4096" points="457.32 142.06 435.9 128.62 435.65 163.31 457.07 176.75"></polygon>
            <polygon id="Shape" fill="#3F4096" points="259.05 182.87 287.21 165.2 287.54 210.8 259.38 228.47 259.05 182.87"></polygon>
            <polygon id="Shape" fill="#FFF215" points="326.78 131.37 369.06 104.85 369.56 173.31 327.28 199.83"></polygon>
            <polygon id="Shape" stroke="#373535" stroke-width="2.59" fill="#D0D0D0" points="191.56 265.57 396.79 142.43 397.67 262.12 192.44 385.25 191.56 265.56"></polygon>
            <polygon id="Shape" fill="#EE3338" points="307.83 206.16 346.87 181.67 347.33 244.89 308.29 269.38"></polygon>
            <polygon id="Shape" stroke="#373535" stroke-width="2.59" fill="#D0D0D0" points="290.26 270.27 511.08 137.78 511.96 257.47 291.14 389.96 290.26 270.27"></polygon>
            <polygon id="Shape" stroke="#373535" stroke-width="2.59" fill="#9B9B9B" points="16.17 179.06 0.51 169.66 1.38 289.35 17.04 298.75 16.16 179.06"></polygon>
            <polygon id="Shape" fill="#FFF215" points="238.84 244.81 268.27 226.35 268.62 274 239.19 292.46 238.84 244.81"></polygon>
            <polygon id="Shape" stroke="#373535" stroke-width="2.59" fill="#9B9B9B" points="290.26 270.27 274.6 260.87 275.47 380.56 291.13 389.96 290.25 270.27"></polygon>
            <polygon id="Shape" stroke="#373535" stroke-width="2.59" fill="#9B9B9B" points="183.73 206.35 168.07 196.95 168.95 316.64 184.61 326.04 183.73 206.35"></polygon>
            <polygon id="Shape" fill="#3F4096" points="43.41 193.6 75.07 173.74 75.44 225.01 43.78 244.87 43.41 193.6"></polygon>
            <polygon id="Shape" fill="#EE3338" points="250.31 122.78 274.78 107.43 275.07 147.06 250.6 162.41"></polygon>
            <polygon id="Shape" fill="#A8518A" points="117.37 198.21 150.75 177.27 151.14 231.33 117.76 252.27 117.37 198.21"></polygon>
            <polygon id="Shape" fill="#A8518A" points="379.22 236.38 410.2 216.95 410.57 267.11 379.59 286.54 379.22 236.38"></polygon>
            <polygon id="Shape" fill="#3F4096" points="311.58 270.26 353.36 244.05 353.85 311.71 312.07 337.92 311.58 270.26"></polygon>
            <polygon id="Shape" fill="#FFF215" points="434.51 210.79 457.49 196.38 457.76 233.59 434.78 248"></polygon>
            <polygon id="Shape" fill="#EE3338" points="463.79 174.77 498.47 153.01 498.88 209.17 464.2 230.93"></polygon>
            <path d="M0.51,169.66 L282.43,0.51 L511.08,137.78 L290.26,270.27 L274.6,260.87 L479.82,137.74 L388.95,83.22 L183.73,206.36 L168.07,196.96 L373.3,73.83 L282.43,19.31 L16.17,179.06 L0.51,169.66 L0.51,169.66 Z M396.78,142.44 L191.56,265.58 L282.43,320.1 L548.68,160.35 L564.34,169.74 L282.43,338.89 C206.19,293.15 129.95,247.4 53.72,201.66 L274.6,69.13 L290.26,78.52 L85.04,201.66 L175.91,256.18 L381.13,133.05 L396.79,142.44 L396.78,142.44 Z" id="Shape" stroke="#373535" stroke-width="2.59" fill="#FFFFFF" fill-rule="nonzero"></path>
            <polygon id="Shape" stroke="#000000" fill="#9B9B9B" points="282.43 338.88 53.72 201.65 54.6 321.34 283.31 458.57 282.43 338.88"></polygon>
            <polygon id="Shape" stroke="#373535" stroke-width="2.59" fill="#D0D0D0" points="282.43 338.88 564.34 169.73 565.22 289.42 283.31 458.57 282.43 338.88"></polygon>
            <polygon id="Shape" fill="#3F4096" points="490.53 231.63 532.81 205.11 533.31 273.57 491.03 300.09"></polygon>
            <polygon id="Shape" fill="#FFF215" points="390.21 314.4 432.49 287.88 432.99 356.34 390.71 382.86 390.21 314.4"></polygon>
            <polygon id="Shape" fill="#EE3338" points="340.36 315.65 372.85 295.26 373.23 347.89 340.73 368.28 340.35 315.66"></polygon>
            <polygon id="Shape" fill="#3F4096" points="262.7 350.25 220.42 323.73 219.92 392.19 262.2 418.71"></polygon>
            <polygon id="Shape" fill="#A8518A" points="200.17 302.67 171.39 284.61 171.05 331.22 199.83 349.28"></polygon>
            <polygon id="Shape" fill="#FFF215" points="163.82 302.07 131.36 281.71 130.98 334.28 163.44 354.64"></polygon>
            <polygon id="Shape" fill="#EE3338" points="99.55 239.61 70.77 221.55 70.43 268.16 99.21 286.22"></polygon>
        </g>
    </g>
</svg>