<?xml version="1.0" encoding="UTF-8" standalone="no"?>
<svg xmlns="http://www.w3.org/2000/svg" xml:space="preserve" width="210mm" height="297mm" version="1.0" style="shape-rendering:geometricPrecision; text-rendering:geometricPrecision; image-rendering:optimizeQuality; fill-rule:evenodd; clip-rule:evenodd"
viewBox="0 0 1526.46 2154.19"
 xmlns:xlink="http://www.w3.org/1999/xlink">
 <defs>
  <style type="text/css">
   <![CDATA[
    .str0 {stroke:#373535;stroke-width:1;stroke-miterlimit:20}
    .fil0 {fill:white}
    .fil1 {fill:#373535}
    .fil2 {fill:#FFCC2A;fill-opacity:0.2}
    .fil3 {fill:#EE3338;fill-opacity:0.2}
    .fil4 {fill:#0098DB;fill-opacity:0.2}
   ]]>
  </style>
 </defs>
 <g id="hto_abstract_0001">
  <rect class="fil0 str0" x="3.56" y="0.64" width="1522.26" height="2152.91"/>
  <g id="_105554202727712">
   <rect class="fil1" transform="matrix(1.75656E-014 -8.93945E-001 -3.2549E-001 -1.1619E-014 713.949 553.731)" width="144.88" height="2193.46"/>
   <path class="fil2" d="M785.34 424.21l0 129.52 -71.39 0 0 -129.52 71.39 0z"/>
   <path class="fil2" d="M856.74 424.21l0 129.52 -142.79 0 0 -129.52 142.79 0z"/>
   <path class="fil2" d="M928.13 424.21l0 129.52 -214.18 0 0 -129.52 214.18 0z"/>
   <path class="fil2" d="M999.53 424.21l0 129.52 -285.58 0 0 -129.52 285.58 0z"/>
   <path class="fil2" d="M1070.92 424.21l0 129.52 -356.97 0 0 -129.52 356.97 0z"/>
   <path class="fil2" d="M1142.32 424.21l0 129.52 -428.37 0 0 -129.52 428.37 0z"/>
   <path class="fil2" d="M1213.71 424.21l0 129.52 -499.76 0 0 -129.52 499.76 0z"/>
   <path class="fil2" d="M1285.11 424.21l0 129.52 -571.16 0 0 -129.52 571.16 0z"/>
   <path class="fil2" d="M1356.5 424.21l0 129.52 -642.55 0 0 -129.52 642.55 0z"/>
   <path class="fil2" d="M1427.9 424.21l0 129.52 -713.95 0 0 -129.52 713.95 0z"/>
   <path class="fil2" d="M642.55 424.21l0 129.52 71.4 0 0 -129.52 -71.4 0z"/>
   <path class="fil2" d="M571.16 424.21l0 129.52 142.79 0 0 -129.52 -142.79 0z"/>
   <path class="fil2" d="M499.76 424.21l0 129.52 214.19 0 0 -129.52 -214.19 0z"/>
   <path class="fil2" d="M428.37 424.21l0 129.52 285.58 0 0 -129.52 -285.58 0z"/>
   <path class="fil2" d="M356.97 424.21l0 129.52 356.97 0 0 -129.52 -356.97 0z"/>
   <path class="fil2" d="M285.58 424.21l0 129.52 428.37 0 0 -129.52 -428.37 0z"/>
   <path class="fil2" d="M214.18 424.21l0 129.52 499.77 0 0 -129.52 -499.77 0z"/>
   <path class="fil2" d="M142.79 424.21l0 129.52 571.16 0 0 -129.52 -571.16 0z"/>
   <path class="fil2" d="M71.39 424.21l0 129.52 642.55 0 0 -129.52 -642.55 0z"/>
   <path class="fil2" d="M-0 424.21l0 129.52 713.95 0 0 -129.52 -713.95 0z"/>
  </g>
  <g id="_105554202728896">
   <path class="fil3" d="M624.09 1199.39l-129.52 0 0 -106.02 129.52 0 0 106.02z"/>
   <rect class="fil1" x="494.58" y="33.2" width="129.52" height="1060.18"/>
   <path class="fil3" d="M624.09 1305.41l-129.52 0 0 -212.04 129.52 0 0 212.04z"/>
   <path class="fil3" d="M624.09 1411.43l-129.52 0 0 -318.05 129.52 0 0 318.05z"/>
   <path class="fil3" d="M624.09 1517.45l-129.52 0 0 -424.07 129.52 0 0 424.07z"/>
   <path class="fil3" d="M624.09 1623.46l-129.52 0 0 -530.09 129.52 0 0 530.09z"/>
   <path class="fil3" d="M624.09 1729.48l-129.52 0 0 -636.11 129.52 0 0 636.11z"/>
   <path class="fil3" d="M624.09 1835.5l-129.52 0 0 -742.12 129.52 0 0 742.12z"/>
   <path class="fil3" d="M624.09 1941.52l-129.52 0 0 -848.14 129.52 0 0 848.14z"/>
   <path class="fil3" d="M624.09 2047.53l-129.52 0 0 -954.16 129.52 0 0 954.16z"/>
   <path class="fil3" d="M624.09 2153.55l-129.52 0 0 -1060.18 129.52 0 0 1060.18z"/>
   <path class="fil3" d="M624.09 987.36l-129.52 0 0 106.02 129.52 0 0 -106.02z"/>
   <path class="fil3" d="M624.09 881.34l-129.52 0 0 212.04 129.52 0 0 -212.04z"/>
   <path class="fil3" d="M624.09 775.32l-129.52 0 0 318.05 129.52 0 0 -318.05z"/>
   <path class="fil3" d="M624.09 669.3l-129.52 0 0 424.07 129.52 0 0 -424.07z"/>
   <path class="fil3" d="M624.09 563.29l-129.52 0 0 530.09 129.52 0 0 -530.09z"/>
   <path class="fil3" d="M624.09 457.27l-129.52 0 0 636.11 129.52 0 0 -636.11z"/>
   <path class="fil3" d="M624.09 351.25l-129.52 0 0 742.12 129.52 0 0 -742.12z"/>
   <path class="fil3" d="M624.09 245.23l-129.52 0 0 848.14 129.52 0 0 -848.14z"/>
   <path class="fil3" d="M624.09 139.22l-129.52 0 0 954.16 129.52 0 0 -954.16z"/>
   <path class="fil3" d="M624.09 33.2l-129.52 0 0 1060.18 129.52 0 0 -1060.18z"/>
  </g>
  <g id="_105554202738528">
   <rect class="fil1" transform="matrix(0.772187 -4.50405E-001 0.221039 0.378956 221.403 289.742)" width="144.88" height="2193.46"/>
   <path class="fil4" d="M866.61 1138.83l-111.88 65.26 -48.48 -83.12 111.88 -65.26 48.48 83.12z"/>
   <path class="fil4" d="M915.09 1221.96l-111.88 65.26 -96.97 -166.25 111.88 -65.26 96.97 166.24z"/>
   <path class="fil4" d="M963.57 1305.08l-111.88 65.26 -145.45 -249.37 111.88 -65.26 145.45 249.37z"/>
   <path class="fil4" d="M1012.06 1388.2l-111.88 65.26 -193.94 -332.49 111.88 -65.26 193.94 332.49z"/>
   <path class="fil4" d="M1060.54 1471.32l-111.88 65.26 -242.42 -415.61 111.88 -65.26 242.42 415.61z"/>
   <path class="fil4" d="M1109.03 1554.45l-111.88 65.26 -290.9 -498.74 111.88 -65.26 290.9 498.73z"/>
   <path class="fil4" d="M1157.51 1637.57l-111.88 65.26 -339.39 -581.86 111.88 -65.26 339.39 581.86z"/>
   <path class="fil4" d="M1205.99 1720.69l-111.88 65.26 -387.87 -664.98 111.88 -65.26 387.87 664.98z"/>
   <path class="fil4" d="M1254.48 1803.81l-111.88 65.26 -436.36 -748.1 111.88 -65.26 436.36 748.1z"/>
   <path class="fil4" d="M1302.96 1886.94l-111.88 65.26 -484.84 -831.23 111.88 -65.26 484.84 831.23z"/>
   <path class="fil4" d="M769.64 972.59l-111.88 65.26 48.48 83.12 111.88 -65.26 -48.48 -83.12z"/>
   <path class="fil4" d="M721.15 889.47l-111.88 65.26 96.97 166.24 111.88 -65.26 -96.97 -166.25z"/>
   <path class="fil4" d="M672.67 806.34l-111.88 65.26 145.45 249.37 111.88 -65.26 -145.45 -249.37z"/>
   <path class="fil4" d="M624.19 723.22l-111.88 65.26 193.94 332.49 111.88 -65.26 -193.94 -332.49z"/>
   <path class="fil4" d="M575.7 640.1l-111.88 65.26 242.42 415.61 111.88 -65.26 -242.42 -415.61z"/>
   <path class="fil4" d="M527.22 556.98l-111.88 65.26 290.9 498.74 111.88 -65.26 -290.9 -498.74z"/>
   <path class="fil4" d="M478.73 473.85l-111.88 65.26 339.39 581.86 111.88 -65.26 -339.39 -581.86z"/>
   <path class="fil4" d="M430.25 390.73l-111.88 65.26 387.87 664.98 111.88 -65.26 -387.87 -664.98z"/>
   <path class="fil4" d="M381.77 307.61l-111.88 65.26 436.36 748.1 111.88 -65.26 -436.36 -748.1z"/>
   <path class="fil4" d="M333.28 224.49l-111.88 65.26 484.84 831.23 111.88 -65.26 -484.84 -831.23z"/>
  </g>
 </g>
</svg>
