<?xml version="1.0" encoding="UTF-8" standalone="no"?>
<svg xmlns="http://www.w3.org/2000/svg" xml:space="preserve"
     width="500px" height="500px" version="1.0" style="shape-rendering:geometricPrecision; text-rendering:geometricPrecision; image-rendering:optimizeQuality; fill-rule:evenodd; clip-rule:evenodd"
viewBox="0 0 500 500"
 xmlns:xlink="http://www.w3.org/1999/xlink">
 <defs>
  <style type="text/css">
   <![CDATA[
    .str3 {stroke:white;stroke-width:1.64;stroke-miterlimit:22.9256}
    .str2 {stroke:white;stroke-width:1.64;stroke-miterlimit:22.9256}
    .str0 {stroke:#E6E7E8;stroke-width:1.64;stroke-miterlimit:22.9256}
    .str1 {stroke:#373535;stroke-width:1.64;stroke-miterlimit:22.9256}
    .str4 {stroke:#858789;stroke-width:0.71;stroke-miterlimit:22.9256}
    .str5 {stroke:#4C4B4D;stroke-width:0.71;stroke-miterlimit:22.9256}
    .str6 {stroke:#373535;stroke-width:0.71;stroke-miterlimit:22.9256}
    .fil2 {fill:none}
    .fil12 {fill:white}
    .fil9 {fill:white}
    .fil3 {fill:#E6E7E8}
    .fil1 {fill:#BDBFC1}
    .fil6 {fill:#AAACAE}
    .fil5 {fill:#96989B}
    .fil8 {fill:#737476}
    .fil4 {fill:#606163}
    .fil7 {fill:#4C4B4D}
    .fil13 {fill:#FED2A1}
    .fil11 {fill:#FED2A1}
    .fil16 {fill:#FAA955}
    .fil10 {fill:#FAA955}
    .fil14 {fill:#EE305A}
    .fil15 {fill:#EE3338}
    .fil0 {fill:#00B0F0;fill-opacity:0.501961}
   ]]>
  </style>
 </defs>
 <g id="hto_balkony">
  <metadata id="0000006_balkony"/>
  <path class="fil0" d="M174.76 26.92c0.14,0.07 0.27,0.12 0.41,0.18 23.39,8.81 12.87,30.61 35.33,44.54 9.63,5.98 36.69,36.47 42.72,46.54 13.8,23.04 42.39,22.72 27.93,62.23 -6.27,17.13 -8.35,16.03 -21.36,29.65 -14.32,14.99 -43.82,19.07 -55.86,37.15 -12.44,18.68 -20.79,30.23 -29.17,36.63l0 -256.91z"/>
  <path class="fil1" d="M174.76 26.92l0 256.91c-12.09,6.32 -25.41,3.83 -51.97,-2.44 -4.13,-0.97 -33.98,-7.2 -35.33,-7.39 -61.04,-8.99 -52.59,-76.82 -63.26,-80.1 -24.41,-7.5 -31.25,-55.32 -16.43,-77.23 15.62,-23.09 11.44,-13.44 21.36,-39.02 7.69,-19.83 10.6,-33.14 33.68,-39.43 21.43,-5.84 29.61,-14.48 47.65,-28.76 30.08,-23.81 52.85,3.09 64.29,17.46z"/>
  <path class="fil2 str0" d="M174.76 180.5l-125.56 73.21"/>
  <path class="fil2 str0" d="M174.76 172.52l-129.7 75.63"/>
  <path class="fil1 str1" d="M68.49 234.49l66.89 -38.35 52.57 28.89 -66.22 39.76 -53.24 -30.31z"/>
  <path class="fil3 str2" d="M121.72 264.79l66.22 -39.76 -52.57 -28.89 -66.89 38.35 53.24 30.31z"/>
  <path class="fil2 str2" d="M187.95 225.03l0 -33.62 -52.72 -31.17 0.15 35.89"/>
  <path class="fil2 str2" d="M141.96 164.8l0.2 36.46"/>
  <g id="_105553517573536">
   <path class="fil2 str3" d="M149.5 169.14c-0,11.96 -0,23.91 -0,35.87"/>
   <path class="fil2 str3" d="M157.05 173.49c-0.07,11.76 -0.14,23.52 -0.21,35.28"/>
   <path class="fil2 str3" d="M164.59 177.83c-0.14,11.56 -0.27,23.13 -0.41,34.69"/>
   <path class="fil2 str3" d="M172.13 182.18c-0.2,11.37 -0.41,22.73 -0.61,34.1"/>
  </g>
  <path class="fil2 str2" d="M179.67 186.53l-0.82 33.51"/>
  <rect class="fil4" transform="matrix(1.34156 0.772716 -0 0.353548 68.486 234.486)" width="39.68" height="22.59"/>
  <rect class="fil5" transform="matrix(-1.6713E+000 0.995847 -0 0.353548 187.948 225.032)" width="39.68" height="22.59"/>
  <path class="fil6 str0" d="M124.52 131.13l-22.98 15 -0.92 69.94 23.88 -13.69 0.03 -71.25z"/>
  <path class="fil2 str0" d="M174.76 53.15l-174.34 101.66"/>
  <path class="fil2 str0" d="M175.04 60.32l-173.6 101.23"/>
  <path class="fil2 str2" d="M96.46 144l-28.06 18.27 0 5.44 33.14 -21.57 0 -0.02 28.06 -18.27 0 -5.44 -33.14 21.57 0 0.02z"/>
  <path class="fil1 str1" d="M65.58 116.16l66.89 -38.35 52.57 28.89 -66.22 39.76 -53.24 -30.31z"/>
  <path class="fil3 str2" d="M118.82 146.46l66.22 -39.76 -52.57 -28.89 -66.89 38.35 53.24 30.31z"/>
  <path class="fil2 str2" d="M185.04 106.7l0 -33.62 -52.72 -31.17 0.15 35.89"/>
  <path class="fil2 str2" d="M175.5 78.22l-0.2 36.46"/>
  <g id="_105553517567520">
   <path class="fil2 str3" d="M168.35 82.25c-0.07,12.15 -0.13,24.31 -0.2,36.46"/>
   <path class="fil2 str3" d="M161.21 86.28c-0.07,12.15 -0.13,24.31 -0.2,36.46"/>
   <path class="fil2 str3" d="M154.07 90.32c-0.07,12.15 -0.13,24.31 -0.2,36.46"/>
   <path class="fil2 str3" d="M146.93 94.35c-0.07,12.15 -0.13,24.31 -0.2,36.46"/>
   <path class="fil2 str3" d="M139.78 98.39c-0.07,12.15 -0.13,24.31 -0.2,36.46"/>
   <path class="fil2 str3" d="M132.64 102.42c-0.07,12.15 -0.13,24.31 -0.2,36.46"/>
  </g>
  <path class="fil2 str2" d="M125.5 106.45l-0.2 36.46"/>
  <path class="fil2 str2" d="M139.05 46.47l0.2 36.46"/>
  <g id="_105553517569312">
   <path class="fil2 str3" d="M146.6 50.81c-0,11.96 -0,23.91 -0,35.87"/>
   <path class="fil2 str3" d="M154.14 55.16c-0.07,11.76 -0.14,23.52 -0.21,35.28"/>
   <path class="fil2 str3" d="M161.68 59.51c-0.14,11.56 -0.27,23.13 -0.41,34.69"/>
   <path class="fil2 str3" d="M169.22 63.85c-0.2,11.37 -0.41,22.73 -0.61,34.1"/>
  </g>
  <path class="fil2 str2" d="M176.77 68.2l-0.82 33.51"/>
  <path class="fil2 str2" d="M73.47 82.88l-0.32 38.35"/>
  <rect class="fil4" transform="matrix(1.34156 0.772716 -0 0.353548 65.5778 116.158)" width="39.68" height="22.59"/>
  <rect class="fil5" transform="matrix(-1.6713E+000 0.995847 -0 0.353548 185.04 106.704)" width="39.68" height="22.59"/>
  <path class="fil6 str0" d="M122.93 12.05l-22.98 15 -0.92 69.94 23.88 -13.69 0.03 -71.25z"/>
  <path class="fil2 str2" d="M30.84 72.01l14.31 -9.32 0 -5.44 -10.07 6.56"/>
  <path class="fil2 str2" d="M30.84 72.01l7.16 -4.66 0.03 40.3 -35.86 21.82"/>
  <path class="fil5" d="M30.84 72.01l7.16 -4.66 0.03 40.3 -35.86 21.82c0.94,-13.81 20.39,-31.96 28.68,-57.46z"/>
  <path class="fil2 str2" d="M34.03 190.05l7.16 -4.66 0.03 40.3 -5.29 3.22"/>
  <path class="fil5" d="M26.02 195.26l15.16 -9.87 0.03 40.3 -5.29 3.22c-3.09,-2.78 -4.55,-21.69 -9.9,-33.65z"/>
  <path class="fil6 str0" d="M99.94 27.05l-22.98 15 -0.86 42.43 23.83 -14.49 0.02 -42.94z"/>
  <path class="fil6 str0" d="M101.54 146.13l-22.98 15 -0.86 42.43 23.83 -14.49 0.02 -42.94z"/>
  <path class="fil2 str2" d="M128.01 3.33l-33.14 21.57 0 0.02 -28.06 18.27 0 5.44 33.14 -21.57 0 -0.02 28.06 -18.27 0 -5.44z"/>
  <path class="fil2 str2" d="M26.02 195.26l22.32 -14.53 0 -5.44 -26.94 17.53"/>
  <g id="_105553517591488">
   <path class="fil2 str4" d="M147.12 169.89l1.47 0.39 -3.86 18.42 14.68 -10.3 0.54 0.79 -12.58 11.75 -0.63 -3.05 17.08 1.64 0.14 1.35 -19.75 2.45 3.56 -3.04 11.72 14.59 1.91 -2.54 -15.41 -10.54 6.19 17.32 -1.27 0.23 -0.86 -16.95 -5.3 -3.71 -2.83 19.26 0.8 0.34 3.98 -13.53 -14.46 4.55 0.74 1.12 11.68 -11.21 -16.16 -2.14 -0.5 -1.09 17.14 6.54 -11.29 -19.24 -1.73 0.85 15.8 16.28 -0.79 -20.55z"/>
   <path class="fil2 str4" d="M186.12 190l1.47 0.39 -3.86 18.42 14.68 -10.3 0.54 0.79 -12.58 11.75 -0.63 -3.05 17.08 1.64 0.14 1.35 -19.75 2.45 3.56 -3.04 11.72 14.59 1.91 -2.54 -15.41 -10.54 6.18 17.32 -1.27 0.23 -0.86 -16.95 -5.3 -3.71 -2.83 19.26 0.8 0.34 3.98 -13.53 -14.46 4.55 0.74 1.12 11.68 -11.21 -16.16 -2.14 -0.5 -1.09 17.14 6.54 -11.29 -19.24 -1.73 0.85 15.8 16.28 -0.79 -20.55z"/>
   <path class="fil2 str5" d="M166.1 201.86l1.47 7.08"/>
   <path class="fil6" d="M172.68 212.58c0.23,-0.62 -0.25,-1.16 -0.73,-1.41l-5.64 -2.94 5.37 -4.64c0.43,-0.38 0.94,-0.62 1.3,-0.42l4.42 2.46c0.66,0.36 1.07,0.7 0.86,1.43l-5.58 5.52z"/>
   <rect class="fil2 str1" transform="matrix(-5.53334E-001 -2.9047E-001 -1.81298E-001 0.596538 172.462 211.211)" width="9.96" height="2.36" rx="1.18" ry="1.18"/>
   <path class="fil7" d="M166.57 195.48l-1.82 1.15 -1.05 -1.37 -0.35 2.39 -1.51 -0.28 1.32 2.24 -1.08 0.98 2.22 0.77 -0.02 1.66 1.82 -1.15 1.05 1.37 0.35 -2.39 1.51 0.28 -1.32 -2.24 1.08 -0.98 -2.22 -0.77 0.02 -1.66z"/>
   <ellipse class="fil2 str1" transform="matrix(-8.944E-001 -4.69512E-001 -3.12006E-001 1.02662 185.243 209.618)" rx="18.9" ry="17.46"/>
   <ellipse class="fil2 str1" transform="matrix(-8.944E-001 -4.69512E-001 -3.12006E-001 1.02662 146.176 189.139)" rx="18.9" ry="17.46"/>
   <path class="fil2 str1" d="M154.35 169.62l34.04 17.78"/>
   <ellipse class="fil2 str1" transform="matrix(-8.01805E-002 -4.20904E-002 -2.79705E-002 0.0920334 165.424 199.242)" rx="18.9" ry="17.46"/>
   <path class="fil7" d="M190.72 183.71l-8.93 -2.39c-5.98,-1.6 -1.41,1.88 -0.83,2.19l8.47 4.44c1.54,0.81 6.43,-2.87 1.29,-4.24z"/>
   <path class="fil6" d="M187.33 202.75l-3.31 2.09 -1.91 -2.51 -0.64 4.36 -2.75 -0.51 2.41 4.08 -1.97 1.78 4.04 1.4 -0.04 3.03 3.31 -2.09 1.91 2.51 0.64 -4.36 2.75 0.51 -2.41 -4.08 1.97 -1.78 -4.04 -1.4 0.04 -3.03z"/>
   <ellipse class="fil2 str1" transform="matrix(-8.01805E-002 -4.20904E-002 -2.79705E-002 0.0920334 185.243 209.617)" rx="18.9" ry="17.46"/>
   <path class="fil2 str6" d="M166.27 198.06l20.03 6.48c2.79,0.9 4.38,4.86 3.56,7.67 -1.05,3.63 -4.88,3.61 -6.69,2.26l-18.25 -13.61"/>
   <path class="fil2 str5" d="M163.59 190.97l1.47 7.08"/>
   <rect class="fil2 str1" transform="matrix(-5.53334E-001 -2.9047E-001 -1.81298E-001 0.596538 164.258 189.949)" width="9.96" height="2.36" rx="1.18" ry="1.18"/>
   <path class="fil2 str1" d="M154.35 169.62c9.9,7.49 14.2,16.69 11.56,28.02"/>
   <ellipse class="fil2 str1" transform="matrix(-8.01805E-002 -4.20904E-002 -2.79705E-002 0.0920334 147.009 189.576)" rx="18.9" ry="17.46"/>
   <path class="fil2 str6" d="M163.23 179.09l-14.93 9.68"/>
   <rect class="fil2 str1" transform="matrix(-5.53334E-001 -2.9047E-001 -1.81298E-001 0.596538 158.95 194.625)" width="9.96" height="2.36" rx="1.18" ry="1.18"/>
   <path class="fil6" d="M159.57 195.63c0.23,-0.62 -0.25,-1.16 -0.73,-1.41l-5.64 -2.94 5.37 -4.64c0.43,-0.38 0.94,-0.62 1.3,-0.42l4.42 2.46c0.65,0.36 1.07,0.71 0.86,1.43l-5.58 5.52z"/>
   <path class="fil8" d="M195.1 181.24l-13.5 -0.48c-6.46,-0.23 -1.12,1.27 -0.61,1.61l8.44 5.58c2.87,1.9 10.56,-6.54 5.67,-6.71z"/>
   <g>
    <path class="fil9" d="M154.82 152.65c0.23,-0.62 -0.33,-1.13 -0.8,-1.39 -0.28,-0.15 -0.85,-0.39 -1.07,-0.03l5.31 -5.04c0.33,-0.32 0.84,-0.79 1.35,-0.43 0.6,0.43 0.94,0.72 0.64,1.51l-5.43 5.38z"/>
    <rect class="fil9" transform="matrix(-7.58733E-001 -5.543E-001 -2.61993E-001 0.862056 155.039 151.975)" width="2.49" height="1.85" rx="0.92" ry="0.92"/>
   </g>
   <g>
    <path class="fil9" d="M139.13 166.83c0.23,-0.62 -0.33,-1.13 -0.8,-1.39 -0.28,-0.15 -0.85,-0.39 -1.07,-0.03l5.31 -5.04c0.33,-0.32 0.84,-0.79 1.36,-0.43 0.6,0.43 0.94,0.72 0.64,1.51l-5.43 5.37z"/>
    <rect class="fil9" transform="matrix(-7.58733E-001 -5.543E-001 -2.61993E-001 0.862056 139.357 166.158)" width="2.49" height="1.85" rx="0.92" ry="0.92"/>
   </g>
   <path class="fil2 str1" d="M144.58 160.56c2.29,-1.32 3.45,-2.02 5.7,-1.18 1.32,0.49 1.81,1.42 1.37,2.84 -0.78,2.58 0.14,5.63 2.92,7.52 -2.61,-1.75 -1.89,-3.62 -1.35,-7.46 0.09,-0.63 0.6,-2.54 -0.17,-3.73 -0.61,-0.93 -0.72,-3.13 -0.52,-4.23 0.28,-1.6 1.27,-2.2 1.32,-2.24"/>
  </g>
  <path class="fil10" d="M117.42 250.61c0.53,-1.61 5.92,-1.71 5.92,-3.69 0,-0.21 1.44,-4.52 1.44,-5.96 0,-3.55 2.41,-2.62 3.7,-3.9 0.31,-0.31 1.75,-1.27 2.26,-1.64 1.54,-1.11 4.06,-2.18 4.72,-3.49 1.58,0 3.1,-3.29 7.8,-3.29 5.81,0 7.95,0.6 10.47,5.75 2.12,0.99 2.33,4.3 2.36,4.83 0.78,11.43 0.85,10.2 -0.24,13.91 -0.42,1.45 0.53,2.08 -1.33,-3.86 -0.17,0.57 1.34,4.84 0.57,6.47 -0.36,3.37 -1.44,3.18 -2.07,3.71 -0.18,-0.37 1.1,-2.12 0.69,-3.16 -0.34,-0.87 -0.34,0.83 -0.42,2.22 -0.12,2.06 -2.39,4.33 -2.07,2.95 0.78,-3.42 0.8,-2.9 0.67,-8.47 -0.03,-1.35 -0.01,-6.29 -0.15,-8.93 -0.14,-2.64 -0.46,1.45 -5.65,2.67 -0.19,0.04 -1.18,-0.04 -1.24,-0.52 -0.03,-0.24 0.89,-1.17 0.83,-1.02l-1.59 1.34c-0.46,0 -0.47,1.07 -1.85,1.64 -0.34,0.14 -1.7,1.28 -1.85,1.64 -0.88,2.14 -4.19,3.7 -6.16,4.52 -0.78,0.33 -2.57,0.44 -3.49,0.82 -0.58,0.24 -3.22,1.08 -3.65,1.08 0,-0.02 -1.35,-2.51 1.8,-3.75 0,-0.82 2.84,-1.2 -0.2,-2.46 -1.82,-0.76 -2.72,0.64 -4.31,1.23 -1.06,0.39 -5.83,1.75 -6.73,1.75 -0.69,0 -0.77,-0.71 -0.22,-2.37z"/>
  <path class="fil11" d="M132.29 239.9c1.04,-0.21 1.72,-0.6 2.61,0.24 0.26,0.24 0.14,1.99 0.02,2.3 -0.31,0.77 0.45,0.83 0.56,1 0.25,0.4 -1.36,0.24 -1.11,-0.46 0.97,-2.67 0.26,-3.22 -0.84,-3.29 -0.57,-0.04 -0.77,0.53 -1.26,0.63 -0.01,0 -1.26,-0.15 0.03,-0.41z"/>
  <path class="fil11" d="M128.35 245.36c0.28,-0.28 0.64,-0.32 -0.12,-0.44 -0.24,-0.04 -0.54,-0.13 -0.78,-0.04 -0.25,0.1 0.07,0.2 0.07,0.39 0.01,0 0.4,0.19 0.42,0.25 0.05,0.13 0.28,0.23 0.28,0.07 0.1,0 0.06,-0.16 0.12,-0.23z"/>
  <path class="fil12" d="M130.48 244.56c0.19,-0.01 0.79,-0.06 0.79,-0.4 -0,0 -0.31,0.16 -0.35,0.17 -0.48,0.15 -1.18,0.24 -1.43,-0.56 -0.01,-0 0.03,0.83 0.99,0.79z"/>
  <path class="fil12" d="M126.77 243.7c0.19,-0.01 0.79,-0.06 0.79,-0.4 -0,0 -0.31,0.16 -0.35,0.17 -0.48,0.15 -1.18,0.24 -1.43,-0.56 -0.01,-0 0.03,0.83 0.99,0.79z"/>
  <path class="fil11" d="M129.5 245.66c1.18,0.39 2.52,0.63 3.7,0.99 0.19,0.06 1.49,0.21 0.31,0.21 -0.89,0 -1.22,0.06 -2,-0.26l-1.93 -0.8c-0.3,-0.12 -0.12,0.48 0.75,0.9 0.09,0.04 2.86,1.27 2.98,1.39 -0.16,0 -1.3,-0.5 -1.49,-0.51 -1.02,-0.08 -3.23,-2.02 -2.11,-0.53 0.27,0.37 1.1,1.1 1.33,1.35l0.2 0.31c0.21,0.23 0.32,0.18 0.46,0.46 0.11,0.21 0.29,0.2 0.05,0.15 -0.57,-0.12 -2.41,-2.45 -2.38,-2.53 0.02,-0.05 0.04,-1.16 0.12,-1.13z"/>
  <path class="fil11" d="M126.57 245.14c-0.88,0.01 -0.92,0.08 -1.79,0.06 -0.14,-0 -1.37,-0.24 -0.58,0.12 0.17,0.08 0.4,0.15 0.82,0.1l1.47 -0.17c0.23,-0.03 -0.05,0.41 -0.69,0.63 -1.52,0.53 -2.18,0.21 -2.18,0.38 -0,0.16 0.14,0.26 1.39,0.04 0.72,-0.13 1.97,-0.88 1.13,0.1 -0.24,0.28 -0.98,0.72 -1.19,0.88l-0.2 0.23c-0.19,0.15 -0.25,0.07 -0.41,0.3 -0.12,0.17 -0.24,0.11 -0.07,0.13 0.41,0.06 2.15,-1.6 2.14,-1.69 -0,-0.06 0.22,-1.11 0.16,-1.11z"/>
  <path class="fil2 str2" d="M187.95 191.42l-66.15 37.07 -0.07 36.31"/>
  <path class="fil2 str2" d="M179.34 196.54l-0.2 36.46"/>
  <g id="_105553517090368">
   <path class="fil2 str3" d="M172.19 200.58c-0.07,12.15 -0.13,24.31 -0.2,36.46"/>
   <path class="fil2 str3" d="M165.05 204.61c-0.07,12.15 -0.13,24.31 -0.2,36.46"/>
   <path class="fil2 str3" d="M157.91 208.65c-0.07,12.15 -0.13,24.31 -0.2,36.46"/>
   <path class="fil2 str3" d="M150.77 212.68c-0.07,12.15 -0.13,24.31 -0.2,36.46"/>
   <path class="fil2 str3" d="M143.62 216.71c-0.07,12.15 -0.13,24.31 -0.2,36.46"/>
   <path class="fil2 str3" d="M136.48 220.75c-0.07,12.15 -0.13,24.31 -0.2,36.46"/>
  </g>
  <path class="fil2 str2" d="M129.34 224.78l-0.2 36.46"/>
  <path class="fil2 str2" d="M121.38 262.86l0.42 -34.38 -52.87 -31.02 0.4 37.09"/>
  <path class="fil2 str2" d="M76.38 201.21l-0.32 38.35"/>
  <g id="_105553517085504">
   <path class="fil2 str3" d="M83.97 205.86c-0.08,12.79 -0.17,25.59 -0.25,38.38"/>
   <path class="fil2 str3" d="M91.56 210.51c-0.06,12.8 -0.13,25.61 -0.19,38.41"/>
   <path class="fil2 str3" d="M99.16 215.16c-0.04,12.81 -0.08,25.62 -0.12,38.44"/>
   <path class="fil2 str3" d="M106.75 219.81c-0.02,12.82 -0.04,25.64 -0.06,38.46"/>
  </g>
  <path class="fil2 str2" d="M114.34 224.46l0 38.49"/>
  <path class="fil13" d="M119.05 93.8c-0.13,2.08 0.19,6.27 -0.54,8.01 -1.69,4.03 -1.03,9.53 -1.03,14.01 0,1.12 4.47,2.98 4.11,3.86 -0.49,1.17 -0.66,0.41 -2.26,0.41 -1.3,0 -2.73,-1.31 -3.52,-1.31 -0.42,0 -0.76,-1.25 -0.49,-1.89 0.56,-1.35 0.14,-2.15 -0.1,-3.3 -2.07,-9.85 0.19,-13.56 -0.21,-14.42 -0.21,-0.46 -1.24,-2.37 -1.1,-2.73l5.13 -2.64z"/>
  <path class="fil13" d="M111.87 97.04c-0.28,2.42 -0.27,7.32 -1.12,9.29 -1.97,4.55 -1.72,11.02 -2.05,16.25 -0.08,1.3 4.25,3.85 3.82,4.84 -0.57,1.32 -0.69,0.42 -2.28,0.29 -1.29,-0.11 -2.63,-1.75 -3.41,-1.82 -0.42,-0.04 -0.66,-1.51 -0.35,-2.24 0.66,-1.52 0.3,-2.49 0.14,-3.86 -1.35,-11.66 1.18,-15.79 0.85,-16.82 -0.18,-0.55 -1.06,-2.86 -0.9,-3.27l5.31 -2.65z"/>
  <path class="fil2 str2" d="M185.04 73.09l-66.15 37.07 -0.07 36.31"/>
  <g id="_105553517130336">
   <path class="fil14" d="M173.17 79.02l1.48 0.6 1.48 0.6 0.61 1.44 0.61 1.44 -0.61 1.44 -0.61 1.44 -1.48 0.6 -1.48 0.6 -1.48 -0.6 -1.48 -0.6 -0.61 -1.44 -0.61 -1.44 0.61 -1.44 0.61 -1.44 1.48 -0.6 1.48 -0.6z"/>
   <path class="fil14" d="M171.32 84.95l1.48 0.6 1.48 0.6 0.61 1.44 0.61 1.44 -0.61 1.44 -0.61 1.44 -1.48 0.6 -1.48 0.6 -1.48 -0.6 -1.48 -0.6 -0.61 -1.44 -0.61 -1.44 0.61 -1.44 0.61 -1.44 1.48 -0.6 1.48 -0.6z"/>
   <path class="fil14" d="M175.19 85.66l1.48 0.6 1.48 0.6 0.61 1.44 0.61 1.44 -0.61 1.44 -0.61 1.44 -1.48 0.6 -1.48 0.6 -1.48 -0.6 -1.48 -0.6 -0.61 -1.44 -0.61 -1.44 0.61 -1.44 0.61 -1.44 1.48 -0.6 1.48 -0.6z"/>
   <path class="fil14" d="M161.71 87.23l1.48 0.6 1.48 0.6 0.61 1.44 0.61 1.44 -0.61 1.44 -0.61 1.44 -1.48 0.6 -1.48 0.6 -1.48 -0.6 -1.48 -0.6 -0.61 -1.44 -0.61 -1.44 0.61 -1.44 0.61 -1.44 1.48 -0.6 1.48 -0.6z"/>
   <path class="fil14" d="M154.26 91.4l1.48 0.6 1.48 0.6 0.61 1.44 0.61 1.44 -0.61 1.44 -0.61 1.44 -1.48 0.6 -1.48 0.6 -1.48 -0.6 -1.48 -0.6 -0.61 -1.44 -0.61 -1.44 0.61 -1.44 0.61 -1.44 1.48 -0.6 1.48 -0.6z"/>
   <path class="fil14" d="M158.61 95.64l1.48 0.6 1.48 0.6 0.61 1.44 0.61 1.44 -0.61 1.44 -0.61 1.44 -1.48 0.6 -1.48 0.6 -1.48 -0.6 -1.48 -0.6 -0.61 -1.44 -0.61 -1.44 0.61 -1.44 0.61 -1.44 1.48 -0.6 1.48 -0.6z"/>
   <path class="fil14" d="M150.54 97.27l1.48 0.6 1.48 0.6 0.61 1.44 0.61 1.44 -0.61 1.44 -0.61 1.44 -1.48 0.6 -1.48 0.6 -1.48 -0.6 -1.48 -0.6 -0.61 -1.44 -0.61 -1.44 0.61 -1.44 0.61 -1.44 1.48 -0.6 1.48 -0.6z"/>
   <path class="fil14" d="M142.48 99.12l1.48 0.6 1.48 0.6 0.61 1.44 0.61 1.44 -0.61 1.44 -0.61 1.44 -1.48 0.6 -1.48 0.6 -1.48 -0.6 -1.48 -0.6 -0.61 -1.44 -0.61 -1.44 0.61 -1.44 0.61 -1.44 1.48 -0.6 1.48 -0.6z"/>
   <path class="fil14" d="M145.06 90.52l1.48 0.6 1.48 0.6 0.61 1.44 0.61 1.44 -0.61 1.44 -0.61 1.44 -1.48 0.6 -1.48 0.6 -1.48 -0.6 -1.48 -0.6 -0.61 -1.44 -0.61 -1.44 0.61 -1.44 0.61 -1.44 1.48 -0.6 1.48 -0.6z"/>
   <path class="fil14" d="M148.01 87.65l1.48 0.6 1.48 0.6 0.61 1.44 0.61 1.44 -0.61 1.44 -0.61 1.44 -1.48 0.6 -1.48 0.6 -1.48 -0.6 -1.48 -0.6 -0.61 -1.44 -0.61 -1.44 0.61 -1.44 0.61 -1.44 1.48 -0.6 1.48 -0.6z"/>
   <path class="fil14" d="M136.92 105.63l1.48 0.6 1.48 0.6 0.61 1.44 0.61 1.44 -0.61 1.44 -0.61 1.44 -1.48 0.6 -1.48 0.6 -1.48 -0.6 -1.48 -0.6 -0.61 -1.44 -0.61 -1.44 0.61 -1.44 0.61 -1.44 1.48 -0.6 1.48 -0.6z"/>
   <path class="fil14" d="M129.95 107.49l1.48 0.6 1.48 0.6 0.61 1.44 0.61 1.44 -0.61 1.44 -0.61 1.44 -1.48 0.6 -1.48 0.6 -1.48 -0.6 -1.48 -0.6 -0.61 -1.44 -0.61 -1.44 0.61 -1.44 0.61 -1.44 1.48 -0.6 1.48 -0.6z"/>
   <path class="fil14" d="M135.29 99.35l1.48 0.6 1.48 0.6 0.61 1.44 0.61 1.44 -0.61 1.44 -0.61 1.44 -1.48 0.6 -1.48 0.6 -1.48 -0.6 -1.48 -0.6 -0.61 -1.44 -0.61 -1.44 0.61 -1.44 0.61 -1.44 1.48 -0.6 1.48 -0.6z"/>
   <path class="fil14" d="M123.44 107.02l1.48 0.6 1.48 0.6 0.61 1.44 0.61 1.44 -0.61 1.44 -0.61 1.44 -1.48 0.6 -1.48 0.6 -1.48 -0.6 -1.48 -0.6 -0.61 -1.44 -0.61 -1.44 0.61 -1.44 0.61 -1.44 1.48 -0.6 1.48 -0.6z"/>
   <path class="fil14" d="M129.21 103.72l1.48 0.6 1.48 0.6 0.61 1.44 0.61 1.44 -0.61 1.44 -0.61 1.44 -1.48 0.6 -1.48 0.6 -1.48 -0.6 -1.48 -0.6 -0.61 -1.44 -0.61 -1.44 0.61 -1.44 0.61 -1.44 1.48 -0.6 1.48 -0.6z"/>
   <path class="fil14" d="M184.8 70.93l1.48 0.6 1.48 0.6 0.61 1.44 0.61 1.44 -0.61 1.44 -0.61 1.44 -1.48 0.6 -1.48 0.6 -1.48 -0.6 -1.48 -0.6 -0.61 -1.44 -0.61 -1.44 0.61 -1.44 0.61 -1.44 1.48 -0.6 1.48 -0.6z"/>
   <path class="fil14" d="M177.36 79.02l1.48 0.6 1.48 0.6 0.61 1.44 0.61 1.44 -0.61 1.44 -0.61 1.44 -1.48 0.6 -1.48 0.6 -1.48 -0.6 -1.48 -0.6 -0.61 -1.44 -0.61 -1.44 0.61 -1.44 0.61 -1.44 1.48 -0.6 1.48 -0.6z"/>
   <path class="fil14" d="M184.19 77.87l1.48 0.6 1.48 0.6 0.61 1.44 0.61 1.44 -0.61 1.44 -0.61 1.44 -1.48 0.6 -1.48 0.6 -1.48 -0.6 -1.48 -0.6 -0.61 -1.44 -0.61 -1.44 0.61 -1.44 0.61 -1.44 1.48 -0.6 1.48 -0.6z"/>
   <path class="fil14" d="M166.35 90.02l1.48 0.6 1.48 0.6 0.61 1.44 0.61 1.44 -0.61 1.44 -0.61 1.44 -1.48 0.6 -1.48 0.6 -1.48 -0.6 -1.48 -0.6 -0.61 -1.44 -0.61 -1.44 0.61 -1.44 0.61 -1.44 1.48 -0.6 1.48 -0.6z"/>
   <path class="fil14" d="M141.32 105.1l1.48 0.6 1.48 0.6 0.61 1.44 0.61 1.44 -0.61 1.44 -0.61 1.44 -1.48 0.6 -1.48 0.6 -1.48 -0.6 -1.48 -0.6 -0.61 -1.44 -0.61 -1.44 0.61 -1.44 0.61 -1.44 1.48 -0.6 1.48 -0.6z"/>
   <path class="fil14" d="M179.15 72.45l1.48 0.6 1.48 0.6 0.61 1.44 0.61 1.44 -0.61 1.44 -0.61 1.44 -1.48 0.6 -1.48 0.6 -1.48 -0.6 -1.48 -0.6 -0.61 -1.44 -0.61 -1.44 0.61 -1.44 0.61 -1.44 1.48 -0.6 1.48 -0.6z"/>
   <path class="fil14" d="M126.1 113.49l1.48 0.6 1.48 0.6 0.61 1.44 0.61 1.44 -0.61 1.44 -0.61 1.44 -1.48 0.6 -1.48 0.6 -1.48 -0.6 -1.48 -0.6 -0.61 -1.44 -0.61 -1.44 0.61 -1.44 0.61 -1.44 1.48 -0.6 1.48 -0.6z"/>
   <path class="fil14" d="M139.68 112.55l1.48 0.6 1.48 0.6 0.61 1.44 0.61 1.44 -0.61 1.44 -0.61 1.44 -1.48 0.6 -1.48 0.6 -1.48 -0.6 -1.48 -0.6 -0.61 -1.44 -0.61 -1.44 0.61 -1.44 0.61 -1.44 1.48 -0.6 1.48 -0.6z"/>
   <path class="fil14" d="M158.3 100.67l1.48 0.6 1.48 0.6 0.61 1.44 0.61 1.44 -0.61 1.44 -0.61 1.44 -1.48 0.6 -1.48 0.6 -1.48 -0.6 -1.48 -0.6 -0.61 -1.44 -0.61 -1.44 0.61 -1.44 0.61 -1.44 1.48 -0.6 1.48 -0.6z"/>
   <path class="fil14" d="M172.26 92.29l1.48 0.6 1.48 0.6 0.61 1.44 0.61 1.44 -0.61 1.44 -0.61 1.44 -1.48 0.6 -1.48 0.6 -1.48 -0.6 -1.48 -0.6 -0.61 -1.44 -0.61 -1.44 0.61 -1.44 0.61 -1.44 1.48 -0.6 1.48 -0.6z"/>
   <path class="fil14" d="M122.32 119.4l1.48 0.6 1.48 0.6 0.61 1.44 0.61 1.44 -0.61 1.44 -0.61 1.44 -1.48 0.6 -1.48 0.6 -1.48 -0.6 -1.48 -0.6 -0.61 -1.44 -0.61 -1.44 0.61 -1.44 0.61 -1.44 1.48 -0.6 1.48 -0.6z"/>
   <path class="fil14" d="M178.47 65.14l1.48 0.6 1.48 0.6 0.61 1.44 0.61 1.44 -0.61 1.44 -0.61 1.44 -1.48 0.6 -1.48 0.6 -1.48 -0.6 -1.48 -0.6 -0.61 -1.44 -0.61 -1.44 0.61 -1.44 0.61 -1.44 1.48 -0.6 1.48 -0.6z"/>
   <path class="fil14" d="M103.81 115.25l1.48 0.6 1.48 0.6 0.61 1.44 0.61 1.44 -0.61 1.44 -0.61 1.44 -1.48 0.6 -1.48 0.6 -1.48 -0.6 -1.48 -0.6 -0.61 -1.44 -0.61 -1.44 0.61 -1.44 0.61 -1.44 1.48 -0.6 1.48 -0.6z"/>
   <path class="fil14" d="M98 107.49l1.48 0.6 1.48 0.6 0.61 1.44 0.61 1.44 -0.61 1.44 -0.61 1.44 -1.48 0.6 -1.48 0.6 -1.48 -0.6 -1.48 -0.6 -0.61 -1.44 -0.61 -1.44 0.61 -1.44 0.61 -1.44 1.48 -0.6 1.48 -0.6z"/>
   <path class="fil14" d="M103.84 100.51l1.48 0.6 1.48 0.6 0.61 1.44 0.61 1.44 -0.61 1.44 -0.61 1.44 -1.48 0.6 -1.48 0.6 -1.48 -0.6 -1.48 -0.6 -0.61 -1.44 -0.61 -1.44 0.61 -1.44 0.61 -1.44 1.48 -0.6 1.48 -0.6z"/>
   <path class="fil14" d="M96.24 94.87l1.48 0.6 1.48 0.6 0.61 1.44 0.61 1.44 -0.61 1.44 -0.61 1.44 -1.48 0.6 -1.48 0.6 -1.48 -0.6 -1.48 -0.6 -0.61 -1.44 -0.61 -1.44 0.61 -1.44 0.61 -1.44 1.48 -0.6 1.48 -0.6z"/>
   <path class="fil14" d="M100.26 101.94l1.48 0.6 1.48 0.6 0.61 1.44 0.61 1.44 -0.61 1.44 -0.61 1.44 -1.48 0.6 -1.48 0.6 -1.48 -0.6 -1.48 -0.6 -0.61 -1.44 -0.61 -1.44 0.61 -1.44 0.61 -1.44 1.48 -0.6 1.48 -0.6z"/>
   <path class="fil14" d="M88.63 92.3l1.48 0.6 1.48 0.6 0.61 1.44 0.61 1.44 -0.61 1.44 -0.61 1.44 -1.48 0.6 -1.48 0.6 -1.48 -0.6 -1.48 -0.6 -0.61 -1.44 -0.61 -1.44 0.61 -1.44 0.61 -1.44 1.48 -0.6 1.48 -0.6z"/>
   <path class="fil14" d="M92.15 101.54l1.48 0.6 1.48 0.6 0.61 1.44 0.61 1.44 -0.61 1.44 -0.61 1.44 -1.48 0.6 -1.48 0.6 -1.48 -0.6 -1.48 -0.6 -0.61 -1.44 -0.61 -1.44 0.61 -1.44 0.61 -1.44 1.48 -0.6 1.48 -0.6z"/>
   <path class="fil14" d="M81.06 83.9l1.48 0.6 1.48 0.6 0.61 1.44 0.61 1.44 -0.61 1.44 -0.61 1.44 -1.48 0.6 -1.48 0.6 -1.48 -0.6 -1.48 -0.6 -0.61 -1.44 -0.61 -1.44 0.61 -1.44 0.61 -1.44 1.48 -0.6 1.48 -0.6z"/>
   <path class="fil14" d="M81 92.7l1.48 0.6 1.48 0.6 0.61 1.44 0.61 1.44 -0.61 1.44 -0.61 1.44 -1.48 0.6 -1.48 0.6 -1.48 -0.6 -1.48 -0.6 -0.61 -1.44 -0.61 -1.44 0.61 -1.44 0.61 -1.44 1.48 -0.6 1.48 -0.6z"/>
   <path class="fil14" d="M77.49 85.34l1.48 0.6 1.48 0.6 0.61 1.44 0.61 1.44 -0.61 1.44 -0.61 1.44 -1.48 0.6 -1.48 0.6 -1.48 -0.6 -1.48 -0.6 -0.61 -1.44 -0.61 -1.44 0.61 -1.44 0.61 -1.44 1.48 -0.6 1.48 -0.6z"/>
   <path class="fil14" d="M73.46 79.44l1.48 0.6 1.48 0.6 0.61 1.44 0.61 1.44 -0.61 1.44 -0.61 1.44 -1.48 0.6 -1.48 0.6 -1.48 -0.6 -1.48 -0.6 -0.61 -1.44 -0.61 -1.44 0.61 -1.44 0.61 -1.44 1.48 -0.6 1.48 -0.6z"/>
   <path class="fil14" d="M84.2 100.15l1.48 0.6 1.48 0.6 0.61 1.44 0.61 1.44 -0.61 1.44 -0.61 1.44 -1.48 0.6 -1.48 0.6 -1.48 -0.6 -1.48 -0.6 -0.61 -1.44 -0.61 -1.44 0.61 -1.44 0.61 -1.44 1.48 -0.6 1.48 -0.6z"/>
   <path class="fil14" d="M69.33 86.54l1.48 0.6 1.48 0.6 0.61 1.44 0.61 1.44 -0.61 1.44 -0.61 1.44 -1.48 0.6 -1.48 0.6 -1.48 -0.6 -1.48 -0.6 -0.61 -1.44 -0.61 -1.44 0.61 -1.44 0.61 -1.44 1.48 -0.6 1.48 -0.6z"/>
   <path class="fil14" d="M81.8 87.67l1.48 0.6 1.48 0.6 0.61 1.44 0.61 1.44 -0.61 1.44 -0.61 1.44 -1.48 0.6 -1.48 0.6 -1.48 -0.6 -1.48 -0.6 -0.61 -1.44 -0.61 -1.44 0.61 -1.44 0.61 -1.44 1.48 -0.6 1.48 -0.6z"/>
   <path class="fil14" d="M102.82 94.13l1.48 0.6 1.48 0.6 0.61 1.44 0.61 1.44 -0.61 1.44 -0.61 1.44 -1.48 0.6 -1.48 0.6 -1.48 -0.6 -1.48 -0.6 -0.61 -1.44 -0.61 -1.44 0.61 -1.44 0.61 -1.44 1.48 -0.6 1.48 -0.6z"/>
   <path class="fil14" d="M107.44 103.68l1.48 0.6 1.48 0.6 0.61 1.44 0.61 1.44 -0.61 1.44 -0.61 1.44 -1.48 0.6 -1.48 0.6 -1.48 -0.6 -1.48 -0.6 -0.61 -1.44 -0.61 -1.44 0.61 -1.44 0.61 -1.44 1.48 -0.6 1.48 -0.6z"/>
   <path class="fil14" d="M84.27 80.2l1.48 0.6 1.48 0.6 0.61 1.44 0.61 1.44 -0.61 1.44 -0.61 1.44 -1.48 0.6 -1.48 0.6 -1.48 -0.6 -1.48 -0.6 -0.61 -1.44 -0.61 -1.44 0.61 -1.44 0.61 -1.44 1.48 -0.6 1.48 -0.6z"/>
   <path class="fil14" d="M156.83 85.57l1.48 0.6 1.48 0.6 0.61 1.44 0.61 1.44 -0.61 1.44 -0.61 1.44 -1.48 0.6 -1.48 0.6 -1.48 -0.6 -1.48 -0.6 -0.61 -1.44 -0.61 -1.44 0.61 -1.44 0.61 -1.44 1.48 -0.6 1.48 -0.6z"/>
  </g>
  <path class="fil13" d="M119.96 74.95c0.01,0.22 -0.28,5.13 -0.36,5.22 0.32,0.28 0.34,2.26 0.66,2.92 0.34,0.71 -0.22,0.98 -0.6,1.4 -0.26,-0.23 -0.82,-1.97 -1.56,-2.62 0.02,-0.01 -0.31,-3.16 -0.31,-3.29 0.03,-0.58 0.57,-4.05 0.38,-4.7l1.78 1.07z"/>
  <path class="fil15" d="M119.28 88.86c0,1.56 0.06,1.63 0.21,3.08 0.32,3.28 0.2,6.14 0.2,9.45 0,-0.19 -1.06,-2.21 -1.06,-2.66 -0.28,0 -5.1,1.15 -5.1,2.04 -0.49,-0.49 0.18,-2.57 -0.48,-2.74 -0.33,-0.09 -0.99,1.12 -2.3,1.61 -3.14,1.2 -4.06,4.34 -4.68,0.71 -0.99,-5.81 -0.35,-10.82 -0.35,-16.63 0,-0.89 1.31,-17.54 0.84,-17.54 -0.06,0 -1.59,5.46 -1.92,8.1 -0.38,3.11 1.38,7 1.22,7.39 -0.49,1.2 -0.28,-0.76 -2.61,0.2 -1.71,0.71 -3.05,-2.3 -2.46,-4.31 0.27,-0.92 1.44,-8.74 1.44,-9.65 0,-3.81 -0.47,-5.98 3.22,-7.51 0.52,-0.22 5.94,-1.85 6.66,-2.56 2.48,-2.45 5.31,-0.81 5.83,3.4 0.24,2 1.1,4.97 1.67,7.43 0.28,1.2 1.12,4.29 0.29,8.08 -0.21,0.95 -0.23,-2.11 -1.7,-2.11 0,0.39 -0.23,-0.3 -0.28,-1.22 -0.34,-5.74 -0.92,-6.01 -0.93,-6.15l2.29 21.6z"/>
  <path class="fil13" d="M113.36 60.56c-1.41,1.18 -2.62,1.41 -3.99,0.17 -2.8,-2.53 -0.46,-8.91 2.79,-5.46 0.19,0.21 0.1,0.42 0.72,0.66 0.83,0.33 2.01,0.6 2.88,0.62 2.06,0.05 -2.11,3.77 -2.4,4.01z"/>
  <path class="fil13" d="M105.37 81.76c0.1,0.24 1.85,4.78 1.85,4.96 0.27,0 0.65,0.86 1.07,1.28 0.46,0.45 0.12,1.79 0.12,2.61 -0.22,0 -1.2,-1.37 -1.82,-1.37 0,-0.03 -1.46,-3.18 -1.52,-3.34 -0.23,-0.67 -1.46,-3.55 -1.82,-4.08 0.63,-0.48 1.32,-0.37 2.12,-0.07z"/>
  <path class="fil16" d="M107.85 58.49c0.73,-2.62 1.26,-4.6 1.6,-1.58 0.23,1.99 5.55,3.17 6.87,0.15 0.71,-1.63 1.41,-3.47 1.31,-5.17 -0.13,-2.14 -1.06,-3.62 -3.31,-4.53 -1.76,-0.7 -3.92,0.07 -5.67,0.8 -3.81,1.58 -3.28,7.17 -3.28,11.04 0,2.5 1.83,3.31 2.52,5.69 0.24,0.82 0.4,-0.18 0.72,0.9 0.14,0.47 0.7,3.15 0.7,3.61 0.04,-1.92 0.83,-4.61 0.7,-5.71 -0.27,-2.37 -2.32,-3.09 -2.14,-5.19z"/>
  <path class="fil2 str2" d="M118.47 144.53l0.42 -34.38 -52.87 -31.02 0.4 37.09"/>
  <g id="_105553517330752">
   <path class="fil2 str3" d="M81.06 87.53c-0.08,12.56 -0.17,25.12 -0.25,37.68"/>
   <path class="fil2 str3" d="M88.66 92.18c-0.06,12.34 -0.13,24.68 -0.19,37.01"/>
   <path class="fil2 str3" d="M96.25 96.83c-0.04,12.11 -0.08,24.23 -0.12,36.34"/>
   <path class="fil2 str3" d="M103.84 101.48c-0.02,11.89 -0.04,23.78 -0.06,35.67"/>
  </g>
  <path class="fil2 str2" d="M111.43 106.14l0 35"/>
  <path class="fil14" d="M116.78 107.08l1.48 0.6 1.48 0.6 0.61 1.44 0.61 1.44 -0.61 1.44 -0.61 1.44 -1.48 0.6 -1.48 0.6 -1.48 -0.6 -1.48 -0.6 -0.61 -1.44 -0.61 -1.44 0.61 -1.44 0.61 -1.44 1.48 -0.6 1.48 -0.6z"/>
  <g id="_105553516891808">
   <path class="fil9" d="M139.11 99.12c-8.51,-3.09 -14.22,2.82 -17.42,6.13l-9.58 -5.15 6.66 -12.35 8.33 3.66 -3.66 10.1c4.85,-3.82 10.25,-5.41 15.7,-3.21l-0.03 0.82z"/>
   <path class="fil9" d="M118.77 87.76c-0.04,0.08 -3.11,-0.78 -4.28,-0.93 -1.59,-0.21 -3.53,0.25 -5.2,1.39 -4.74,3.24 -1.09,9.59 2.82,11.89l0.64 -1.18c-6.11,-4.38 -6.27,-12.02 2.03,-11.11 0.71,0.08 1.67,0.31 3.39,1.06l0.6 -1.11z"/>
  </g>
 </g>
</svg>
