<svg xmlns="http://www.w3.org/2000/svg" xml:space="preserve" width="58mm" height="35.3mm" version="1.0" style="shape-rendering:geometricPrecision; text-rendering:geometricPrecision; image-rendering:optimizeQuality; fill-rule:evenodd; clip-rule:evenodd"
viewBox="0 0 3301.08 2007.14"
 xmlns:xlink="http://www.w3.org/1999/xlink">
 <defs>
  <style type="text/css">
   <![CDATA[
    .str0 {stroke:#373535;stroke-width:10.04;stroke-miterlimit:22.9256;stroke-opacity:0.419608}
    .str1 {stroke:#373535;stroke-width:10.04;stroke-miterlimit:22.9256}
    .fil3 {fill:none}
    .fil2 {fill:#373535}
    .fil1 {fill:#D3AE6E}
    .fil0 {fill:white;fill-opacity:0.419608}
   ]]>
  </style>
 </defs>
 <g id="Layer_x0020_1">
  <metadata id="0004-Layer"/>
  <path class="fil0 str0" d="M1918.69 1146.05l-587.07 266.23 0 587.07 587.07 -266.23 0 -587.07z"/>
  <g id="_105555520327072">
   <path class="fil1 str1" d="M2045.04 372.86c-17.75,-37.7 -12.46,-56.8 48.99,-66.96 27.91,-4.61 11.02,27.37 29.4,-27.76 37.6,0 -22.13,-13.07 58.79,-13.07 0,4.06 70.11,51.01 71.86,52.26 -34.68,86.69 2.4,50.29 26.13,52.26 49.4,4.09 24.48,6.54 65.33,6.54 0,29.06 45.92,6.53 65.32,6.53 0,-37.42 -30.4,-6.66 0,-52.26 19.73,0 -4.16,-5.92 32.66,-26.13 38.45,-21.1 32.66,-11.1 32.66,-39.19 45.4,-30.26 112.3,9.38 117.58,52.26 3.41,27.74 42.87,63.06 19.6,91.45 -20.05,24.46 -30.98,65.33 -65.33,65.33 17,0 -2.37,129.38 65.85,129.38 31.88,95.63 -68.3,184.18 130.12,184.18 30.89,0 84.92,2.94 84.92,-32.66l26.13 -19.59c18.53,18.52 9.09,-35.93 66.95,-35.93 19.45,0 86.6,-79.38 144.53,42.46 9.25,19.45 0.62,39.05 -1.64,64.51 -2.37,26.7 -32.57,72.39 -38.37,76.76 -15.86,11.95 1.22,41.65 -66.96,41.65 -33.56,0 -26.16,32.66 -111.05,32.66 -16.59,0 -51.41,19.59 -71.86,19.59 0,65.57 -150.24,-23.74 -150.24,111.05 41.48,0 51.82,348.53 53.77,357.88 12.91,61.93 39.95,54.42 62.06,107.78 8.22,19.86 0.79,26.13 45.72,26.13 80.03,0 14.39,12.33 91.46,-19.59 29.47,-30.9 38.59,-26.4 83.41,-8.4 0,5.33 44.87,49.96 39.2,84.92 -15.15,93.38 16.96,8.22 -16.33,91.45 -2.79,0 -40.57,26.13 -65.33,26.13 0,42.49 -187.73,58.79 -228.63,58.79 -21.78,0 -43.55,0 -65.33,0 0,46.62 -64.02,-19.6 -91.45,-19.6 -78.47,0 -132.56,-39.19 -137.18,-39.19 -18.8,-37.6 -102.57,0 -137.18,0 -42.15,0 -81.18,19.59 -143.71,19.59 -72.95,0 -47.9,45.73 -111.05,45.73 0,10.57 2.32,6.53 -13.07,6.53 0,18.84 -37.41,32.72 -65.32,26.13 -41.15,-9.72 -15.26,-19.6 -58.79,-19.6 -6.19,0 -172.84,-65.33 -195.97,-65.33 0,-10.49 -9.11,-19.59 -19.59,-19.59 0,-14.68 -9.68,-101.49 -16.84,-115.82 -8.74,0 36.86,-5.97 36.86,-33.73 0,-37.52 63.08,-36.63 89.4,-36.63 21.23,14.86 17.3,45.73 58.79,45.73 0,19.54 11.42,3.26 34.3,3.26 0,-0.64 6.53,-12.53 6.53,-39.19 1.42,0 47.07,-6.53 71.86,-6.53 0,-16.37 26.13,1.11 26.13,-45.73 0,-26.97 13.07,2.44 13.07,-45.73 0,-77.12 6.48,44.87 0,-97.99 -3.79,-83.57 -6.9,-124.47 13.06,-209.03 1.02,-4.34 -6.53,-61.63 -6.53,-84.92 -91.92,0 -109.49,-69.35 -182.91,-78.39 -20.55,-2.53 -128.11,-81.54 -143.71,-84.92 -134.55,-29.15 -67.8,-93.93 -104.52,-130.65 -12.72,-12.72 -7.27,-25.45 6.53,-32.66 32.32,-16.88 21.66,-7.54 31.76,-19.29 28.11,-32.68 31.01,-61.43 138.08,12.76 0,30.96 316,144.49 333.15,71.86 15.46,-65.48 -32.66,-76.11 -32.66,-97.98 0,-55.27 -65.13,-22.15 19.6,-97.99 70.75,-63.33 -44,12.06 -6.54,-78.39l13.07 -13.06c40.55,-40.54 53.68,-86.35 91.45,-124.12l-6.53 13.06c-22.47,9.31 -66.92,1.57 -78.39,-26.13l-13.06 -22.86z"/>
   <path class="fil2" d="M2992.92 774.32c11.46,23.21 -11.2,66.51 -33.06,61.98 -12.35,-2.56 -19.89,-18.06 -18.72,-36.45 -15.36,-10.22 -23.14,-25.65 -17.68,-37.03 9.81,-20.45 57.99,-11.71 69.46,11.5zm18.22 -39.69c3.15,6.37 15.21,6.83 26.93,1.02 11.72,-5.8 18.67,-15.66 15.51,-22.03 -3.15,-6.37 -15.2,-6.82 -26.92,-1.02 -11.73,5.8 -18.67,15.66 -15.52,22.03zm25.34 53.97c3.15,6.37 15.21,6.83 26.93,1.02 11.72,-5.8 18.67,-15.66 15.51,-22.03 -3.15,-6.37 -15.2,-6.82 -26.93,-1.02 -11.72,5.8 -18.67,15.66 -15.51,22.03zm-74.71 -82.84c3.15,6.37 15.21,6.83 26.93,1.02 11.72,-5.8 18.67,-15.66 15.52,-22.03 -3.15,-6.37 -15.21,-6.82 -26.93,-1.02 -11.72,5.8 -18.67,15.66 -15.52,22.03zm65.78 143.97c3.15,6.37 15.21,6.83 26.93,1.02 11.72,-5.8 18.67,-15.66 15.52,-22.03 -3.15,-6.37 -15.21,-6.82 -26.93,-1.02 -11.72,5.8 -18.67,15.66 -15.52,22.03z"/>
   <path class="fil2" d="M1643.92 810.43c-11.46,23.22 11.2,66.51 33.06,61.98 12.35,-2.56 19.89,-18.06 18.72,-36.45 15.36,-10.22 23.14,-25.65 17.68,-37.02 -9.81,-20.46 -57.99,-11.71 -69.46,11.49zm-18.22 -39.68c-3.15,6.37 -15.21,6.82 -26.93,1.02 -11.72,-5.8 -18.67,-15.66 -15.51,-22.03 3.15,-6.37 15.2,-6.83 26.93,-1.02 11.72,5.8 18.67,15.66 15.51,22.03zm-25.34 53.97c-3.15,6.37 -15.2,6.82 -26.93,1.02 -11.72,-5.8 -18.67,-15.66 -15.51,-22.03 3.15,-6.37 15.2,-6.83 26.93,-1.02 11.72,5.8 18.67,15.66 15.51,22.03zm74.71 -82.84c-3.15,6.37 -15.21,6.82 -26.93,1.02 -11.72,-5.8 -18.67,-15.66 -15.52,-22.03 3.15,-6.37 15.21,-6.83 26.93,-1.02 11.72,5.8 18.67,15.66 15.52,22.03zm-65.78 143.97c-3.15,6.37 -15.21,6.82 -26.93,1.02 -11.72,-5.8 -18.67,-15.67 -15.52,-22.03 3.15,-6.37 15.21,-6.83 26.93,-1.02 11.72,5.8 18.67,15.66 15.52,22.03z"/>
   <path class="fil2" d="M1716 1664.7c-11.46,23.21 11.2,66.51 33.06,61.98 12.34,-2.56 19.88,-18.06 18.71,-36.45 15.36,-10.22 23.14,-25.65 17.68,-37.02 -9.81,-20.46 -57.99,-11.71 -69.46,11.49zm-18.22 -39.68c-3.15,6.37 -15.2,6.82 -26.92,1.02 -11.73,-5.8 -18.67,-15.66 -15.52,-22.03 3.15,-6.36 15.21,-6.82 26.93,-1.02 11.72,5.8 18.67,15.66 15.51,22.03zm-25.33 53.97c-3.15,6.37 -15.21,6.82 -26.93,1.02 -11.73,-5.8 -18.67,-15.67 -15.52,-22.03 3.15,-6.37 15.21,-6.83 26.93,-1.02 11.72,5.8 18.67,15.66 15.52,22.03zm74.7 -82.84c-3.15,6.37 -15.21,6.82 -26.93,1.02 -11.72,-5.8 -18.67,-15.66 -15.51,-22.03 3.15,-6.36 15.2,-6.82 26.93,-1.02 11.72,5.8 18.67,15.66 15.51,22.03zm-65.78 143.96c-3.15,6.37 -15.21,6.83 -26.93,1.02 -11.72,-5.8 -18.67,-15.66 -15.51,-22.03 3.15,-6.37 15.2,-6.82 26.93,-1.02 11.72,5.8 18.67,15.66 15.51,22.03z"/>
   <path class="fil2" d="M2922.89 1637.99c11.47,23.21 -11.2,66.51 -33.06,61.98 -12.34,-2.56 -19.88,-18.06 -18.72,-36.45 -15.36,-10.22 -23.14,-25.65 -17.68,-37.02 9.82,-20.46 57.99,-11.72 69.46,11.49zm18.22 -39.68c3.15,6.37 15.21,6.82 26.93,1.02 11.72,-5.8 18.67,-15.66 15.52,-22.03 -3.15,-6.37 -15.21,-6.82 -26.93,-1.02 -11.72,5.8 -18.67,15.66 -15.52,22.03zm25.34 53.97c3.15,6.37 15.21,6.82 26.93,1.02 11.72,-5.8 18.67,-15.66 15.52,-22.03 -3.15,-6.37 -15.21,-6.82 -26.93,-1.02 -11.72,5.8 -18.67,15.66 -15.52,22.03zm-74.71 -82.84c3.15,6.36 15.21,6.82 26.93,1.02 11.72,-5.8 18.67,-15.66 15.52,-22.03 -3.15,-6.37 -15.21,-6.82 -26.93,-1.02 -11.72,5.8 -18.67,15.66 -15.52,22.03zm65.78 143.96c3.15,6.37 15.21,6.83 26.93,1.02 11.72,-5.8 18.67,-15.66 15.52,-22.03 -3.15,-6.37 -15.21,-6.82 -26.93,-1.02 -11.72,5.8 -18.67,15.66 -15.52,22.03z"/>
   <ellipse class="fil2 str1" cx="2340.7" cy="614.87" rx="49.81" ry="12.25"/>
   <path class="fil3 str1" d="M2340.7 627.12c-2.11,80.03 22.48,137.19 111.86,138.81"/>
   <path class="fil3 str1" d="M2340.69 614.87c1.74,80.5 -18.52,138 -92.13,139.63"/>
   <ellipse class="fil2 str1" cx="2401.94" cy="515.25" rx="14.29" ry="12.25"/>
   <ellipse class="fil2 str1" cx="2260.67" cy="521.78" rx="14.29" ry="12.25"/>
  </g>
  <g id="_105555520266720">
   <path class="fil1 str1" d="M508.64 123.44c-17.75,-37.7 -12.46,-56.8 48.99,-66.96 27.91,-4.61 11.02,27.37 29.4,-27.76 37.6,0 -22.13,-13.07 58.79,-13.07 0,4.06 70.11,51.01 71.86,52.26 -34.68,86.69 2.4,50.29 26.13,52.26 49.4,4.09 24.48,6.54 65.33,6.54 0,29.06 45.92,6.53 65.32,6.53 0,-37.42 -30.4,-6.66 0,-52.26 19.73,0 -4.16,-5.92 32.66,-26.13 38.45,-21.1 32.66,-11.1 32.66,-39.19 45.4,-30.26 112.3,9.38 117.58,52.26 3.41,27.74 42.87,63.06 19.6,91.45 -20.05,24.46 -30.98,65.33 -65.33,65.33 17,0 -2.37,129.38 65.85,129.38 31.88,95.63 -68.3,184.18 130.12,184.18 30.89,0 84.92,2.94 84.92,-32.66l26.13 -19.59c18.53,18.52 9.09,-35.93 66.95,-35.93 19.45,0 86.6,-79.38 144.53,42.46 9.25,19.45 0.62,39.05 -1.64,64.51 -2.37,26.7 -32.57,72.39 -38.37,76.76 -15.86,11.95 1.22,41.65 -66.96,41.65 -33.56,0 -26.16,32.66 -111.05,32.66 -16.59,0 -51.41,19.59 -71.86,19.59 0,65.57 -150.24,-23.74 -150.24,111.05 41.48,0 51.82,348.53 53.77,357.88 12.91,61.93 39.95,54.42 62.06,107.78 8.22,19.86 0.79,26.13 45.72,26.13 80.03,0 14.39,12.33 91.46,-19.59 29.47,-30.9 38.59,-26.4 83.41,-8.4 0,5.33 44.87,49.96 39.2,84.92 -15.15,93.38 16.96,8.22 -16.33,91.45 -2.79,0 -40.57,26.13 -65.33,26.13 0,42.49 -187.73,58.79 -228.63,58.79 -21.78,0 -43.55,0 -65.33,0 0,46.62 -64.02,-19.6 -91.45,-19.6 -78.47,0 -132.56,-39.19 -137.18,-39.19 -18.8,-37.6 -102.57,0 -137.18,0 -42.15,0 -81.18,19.59 -143.71,19.59 -72.95,0 -47.9,45.73 -111.05,45.73 0,10.57 2.32,6.53 -13.07,6.53 0,18.84 -37.41,32.72 -65.32,26.13 -41.15,-9.72 -15.26,-19.6 -58.79,-19.6 -6.19,0 -172.84,-65.33 -195.97,-65.33 0,-10.49 -9.11,-19.59 -19.59,-19.59 0,-14.68 -9.68,-101.49 -16.84,-115.82 -8.74,0 36.86,-5.97 36.86,-33.73 0,-37.52 63.08,-36.63 89.4,-36.63 21.23,14.86 17.3,45.73 58.79,45.73 0,19.54 11.42,3.26 34.3,3.26 0,-0.64 6.53,-12.53 6.53,-39.19 1.42,0 47.07,-6.53 71.86,-6.53 0,-16.37 26.13,1.11 26.13,-45.73 0,-26.97 13.07,2.44 13.07,-45.73 0,-77.12 6.48,44.87 0,-97.99 -3.79,-83.57 -6.9,-124.47 13.06,-209.03 1.02,-4.34 -6.53,-61.63 -6.53,-84.92 -91.92,0 -109.49,-69.35 -182.91,-78.39 -20.55,-2.53 -128.11,-81.54 -143.71,-84.92 -134.55,-29.15 -67.8,-93.93 -104.52,-130.65 -12.72,-12.72 -7.27,-25.45 6.53,-32.66 32.32,-16.88 21.66,-7.54 31.76,-19.29 28.11,-32.68 31.01,-61.43 138.08,12.76 0,30.96 316,144.49 333.15,71.86 15.46,-65.48 -32.66,-76.11 -32.66,-97.98 0,-55.27 -65.13,-22.15 19.6,-97.99 70.75,-63.33 -44,12.06 -6.54,-78.39l13.07 -13.06c40.55,-40.54 53.68,-86.35 91.45,-124.12l-6.53 13.06c-22.47,9.31 -66.92,1.57 -78.39,-26.13l-13.06 -22.86z"/>
   <path class="fil2" d="M1456.51 524.9c11.46,23.21 -11.2,66.51 -33.06,61.98 -12.35,-2.56 -19.89,-18.06 -18.72,-36.45 -15.36,-10.22 -23.14,-25.65 -17.68,-37.03 9.81,-20.45 57.99,-11.71 69.46,11.5zm18.22 -39.69c3.15,6.37 15.21,6.83 26.93,1.02 11.72,-5.8 18.67,-15.66 15.51,-22.03 -3.15,-6.37 -15.2,-6.82 -26.92,-1.02 -11.73,5.8 -18.67,15.66 -15.52,22.03zm25.34 53.97c3.15,6.37 15.21,6.83 26.93,1.02 11.72,-5.8 18.67,-15.66 15.51,-22.03 -3.15,-6.37 -15.2,-6.82 -26.93,-1.02 -11.72,5.8 -18.67,15.66 -15.51,22.03zm-74.71 -82.84c3.15,6.37 15.21,6.83 26.93,1.02 11.72,-5.8 18.67,-15.66 15.52,-22.03 -3.15,-6.37 -15.21,-6.82 -26.93,-1.02 -11.72,5.8 -18.67,15.66 -15.52,22.03zm65.78 143.97c3.15,6.37 15.21,6.83 26.93,1.02 11.72,-5.8 18.67,-15.66 15.52,-22.03 -3.15,-6.37 -15.21,-6.82 -26.93,-1.02 -11.72,5.8 -18.67,15.66 -15.52,22.03z"/>
   <path class="fil2" d="M107.51 561.01c-11.46,23.22 11.2,66.51 33.06,61.98 12.35,-2.56 19.89,-18.06 18.72,-36.45 15.36,-10.22 23.14,-25.65 17.68,-37.02 -9.81,-20.46 -57.99,-11.71 -69.46,11.49zm-18.22 -39.68c-3.15,6.37 -15.21,6.82 -26.93,1.02 -11.72,-5.8 -18.67,-15.66 -15.51,-22.03 3.15,-6.37 15.2,-6.83 26.93,-1.02 11.72,5.8 18.67,15.66 15.51,22.03zm-25.34 53.97c-3.15,6.37 -15.2,6.82 -26.93,1.02 -11.72,-5.8 -18.67,-15.66 -15.51,-22.03 3.15,-6.37 15.2,-6.83 26.93,-1.02 11.72,5.8 18.67,15.66 15.51,22.03zm74.71 -82.84c-3.15,6.37 -15.21,6.82 -26.93,1.02 -11.72,-5.8 -18.67,-15.66 -15.52,-22.03 3.15,-6.37 15.21,-6.83 26.93,-1.02 11.72,5.8 18.67,15.66 15.52,22.03zm-65.78 143.97c-3.15,6.37 -15.21,6.82 -26.93,1.02 -11.72,-5.8 -18.67,-15.67 -15.52,-22.03 3.15,-6.37 15.21,-6.83 26.93,-1.02 11.72,5.8 18.67,15.66 15.52,22.03z"/>
   <path class="fil2" d="M179.59 1415.28c-11.46,23.21 11.2,66.51 33.06,61.98 12.34,-2.56 19.88,-18.06 18.71,-36.45 15.36,-10.22 23.14,-25.65 17.68,-37.02 -9.81,-20.46 -57.99,-11.71 -69.46,11.49zm-18.22 -39.68c-3.15,6.37 -15.2,6.82 -26.92,1.02 -11.73,-5.8 -18.67,-15.66 -15.52,-22.03 3.15,-6.36 15.21,-6.82 26.93,-1.02 11.72,5.8 18.67,15.66 15.51,22.03zm-25.33 53.97c-3.15,6.37 -15.21,6.82 -26.93,1.02 -11.73,-5.8 -18.67,-15.67 -15.52,-22.03 3.15,-6.37 15.21,-6.83 26.93,-1.02 11.72,5.8 18.67,15.66 15.52,22.03zm74.7 -82.84c-3.15,6.37 -15.21,6.82 -26.93,1.02 -11.72,-5.8 -18.67,-15.66 -15.51,-22.03 3.15,-6.36 15.2,-6.82 26.93,-1.02 11.72,5.8 18.67,15.66 15.51,22.03zm-65.78 143.96c-3.15,6.37 -15.21,6.83 -26.93,1.02 -11.72,-5.8 -18.67,-15.66 -15.51,-22.03 3.15,-6.37 15.2,-6.82 26.93,-1.02 11.72,5.8 18.67,15.66 15.51,22.03z"/>
   <path class="fil2" d="M1386.48 1388.57c11.47,23.21 -11.2,66.51 -33.06,61.98 -12.34,-2.56 -19.88,-18.06 -18.72,-36.45 -15.36,-10.22 -23.14,-25.65 -17.68,-37.02 9.82,-20.46 57.99,-11.72 69.46,11.49zm18.22 -39.68c3.15,6.37 15.21,6.82 26.93,1.02 11.72,-5.8 18.67,-15.66 15.52,-22.03 -3.15,-6.37 -15.21,-6.82 -26.93,-1.02 -11.72,5.8 -18.67,15.66 -15.52,22.03zm25.34 53.97c3.15,6.37 15.21,6.82 26.93,1.02 11.72,-5.8 18.67,-15.66 15.52,-22.03 -3.15,-6.37 -15.21,-6.82 -26.93,-1.02 -11.72,5.8 -18.67,15.66 -15.52,22.03zm-74.71 -82.84c3.15,6.36 15.21,6.82 26.93,1.02 11.72,-5.8 18.67,-15.66 15.52,-22.03 -3.15,-6.37 -15.21,-6.82 -26.93,-1.02 -11.72,5.8 -18.67,15.66 -15.52,22.03zm65.78 143.96c3.15,6.37 15.21,6.83 26.93,1.02 11.72,-5.8 18.67,-15.66 15.52,-22.03 -3.15,-6.37 -15.21,-6.82 -26.93,-1.02 -11.72,5.8 -18.67,15.66 -15.52,22.03z"/>
   <ellipse class="fil2 str1" cx="804.29" cy="365.45" rx="49.81" ry="12.25"/>
   <path class="fil3 str1" d="M804.29 377.69c-2.11,80.03 22.48,137.19 111.86,138.81"/>
   <path class="fil3 str1" d="M804.28 365.45c1.74,80.5 -18.52,138 -92.13,139.63"/>
   <ellipse class="fil2 str1" cx="865.53" cy="265.82" rx="14.29" ry="12.25"/>
   <ellipse class="fil2 str1" cx="724.27" cy="272.36" rx="14.29" ry="12.25"/>
  </g>
  <path class="fil0 str0" d="M1331.62 1412.28l1377.36 0 0 587.07 -1377.36 0 0 -587.07z"/>
  <path class="fil0 str0" d="M3296.06 1146.05l-587.07 266.23 0 587.07 587.07 -266.23 0 -587.07z"/>
 </g>
</svg>
