<?xml version="1.0" encoding="UTF-8" standalone="no"?>
<svg width="314px" height="244px" viewBox="0 0 314 244" version="1.1" xmlns="http://www.w3.org/2000/svg" xmlns:xlink="http://www.w3.org/1999/xlink">
    <desc>Created with Sketch.</desc>
    <defs></defs>
    <g id="Page-1" stroke="none" stroke-width="1" fill="none" fill-rule="evenodd">
        <g id="cheat-sheat" transform="translate(1.000000, 0.000000)" stroke-width="1.4" stroke="#373535">
            <g id="_105554017264800" transform="translate(14.000000, 71.000000)">
                <polygon id="Shape" fill="#737476" points="170.12 16.89 136.46 0.85 102.8 16.89 136.46 32.93 170.12 16.89"></polygon>
                <polygon id="Shape" fill="#BDBFC1" points="135.93 32.86 102.27 16.85 68.61 41.24 102.27 57.24 135.93 32.85"></polygon>
                <polygon id="Shape" fill="#737476" points="102.27 57.28 68.61 41.24 34.95 57.28 68.61 73.32"></polygon>
                <polygon id="Shape" fill="#BDBFC1" points="68.09 73.25 34.43 57.24 0.77 81.63 34.43 97.63 68.09 73.24"></polygon>
                <polygon id="Shape" fill="#FFFFFF" points="102.27 97.68 68.61 73.32 34.95 97.68 68.61 122.03"></polygon>
                <polygon id="Shape" fill="#FFFFFF" points="169.59 57.28 135.93 32.92 102.27 57.28 135.93 81.63"></polygon>
                <polygon id="Shape" fill="#E6E7E8" points="135.41 82.09 101.75 57.47 68.09 73.25 101.75 97.87"></polygon>
                <polygon id="Shape" fill="#E6E7E8" points="203.26 41.77 169.6 17.15 135.94 32.93 169.6 57.55 203.26 41.77"></polygon>
                <polygon id="Shape" fill="#737476" points="237.96 57.28 204.3 41.24 170.64 57.28 204.3 73.32"></polygon>
                <polygon id="Shape" fill="#BDBFC1" points="203.78 73.25 170.12 57.24 136.46 81.63 170.12 97.63 203.78 73.24"></polygon>
                <polygon id="Shape" fill="#737476" points="170.12 97.68 136.46 81.64 102.8 97.68 136.46 113.72"></polygon>
                <polygon id="Shape" fill="#BDBFC1" points="135.93 113.65 102.27 97.64 68.61 122.03 102.27 138.03 135.93 113.64"></polygon>
                <polygon id="Shape" fill="#FFFFFF" points="170.12 138.07 136.46 113.71 102.8 138.07 136.46 162.42"></polygon>
                <polygon id="Shape" fill="#FFFFFF" points="237.44 97.68 203.78 73.32 170.12 97.68 203.78 122.03"></polygon>
                <polygon id="Shape" fill="#E6E7E8" points="203.26 122.49 169.6 97.87 135.94 113.65 169.6 138.27"></polygon>
                <polygon id="Shape" fill="#E6E7E8" points="271.1 82.16 237.44 57.54 203.78 73.32 237.44 97.94"></polygon>
                <polygon id="Shape" fill="#96989B" points="270.83 91.62 271.1 82.16 237.44 97.67 203.78 122.03 169.59 138.26 136.45 162.42 136.47 171.38 169.36 147.94 204.35 132.2 237.04 107.2 270.83 91.61"></polygon>
                <polygon id="Shape" fill="#FFFFFF" points="2.1 91.62 1.83 82.16 35.49 97.67 69.15 122.03 102.79 138.07 136.47 162.43 136.45 171.39 101.16 147.12 68.58 132.21 32.89 104.92 2.1 91.62"></polygon>
            </g>
            <g id="_105554017256928" transform="translate(40.000000, 0.000000)">
                <polygon id="Shape" fill="#737476" points="170.12 16.96 136.46 0.92 102.8 16.96 136.46 33"></polygon>
                <polygon id="Shape" fill="#BDBFC1" points="135.93 32.93 102.27 16.92 68.61 41.31 102.27 57.31 135.93 32.92"></polygon>
                <polygon id="Shape" fill="#737476" points="102.27 57.35 68.61 41.31 34.95 57.35 68.61 73.39"></polygon>
                <polygon id="Shape" fill="#BDBFC1" points="68.09 73.32 34.43 57.31 0.77 81.7 34.43 97.7 68.09 73.31"></polygon>
                <polygon id="Shape" fill="#FFFFFF" points="102.27 97.75 68.61 73.39 34.95 97.75 68.61 122.1"></polygon>
                <polygon id="Shape" fill="#FFFFFF" points="169.6 57.35 135.94 32.99 102.28 57.35 135.94 81.7"></polygon>
                <polygon id="Shape" fill="#E6E7E8" points="135.41 82.16 101.75 57.54 68.09 73.32 101.75 97.94"></polygon>
                <polygon id="Shape" fill="#E6E7E8" points="203.26 41.84 169.6 17.22 135.94 33 169.6 57.62"></polygon>
                <polygon id="Shape" fill="#737476" points="237.96 57.35 204.3 41.31 170.64 57.35 204.3 73.39"></polygon>
                <polygon id="Shape" fill="#BDBFC1" points="203.78 73.32 170.12 57.31 136.46 81.7 170.12 97.7 203.78 73.31"></polygon>
                <polygon id="Shape" fill="#737476" points="170.12 97.75 136.46 81.71 102.8 97.75 136.46 113.79"></polygon>
                <polygon id="Shape" fill="#BDBFC1" points="135.93 113.72 102.27 97.71 68.61 122.1 102.27 138.1 135.93 113.71"></polygon>
                <polygon id="Shape" fill="#FFFFFF" points="170.12 138.14 136.46 113.78 102.8 138.14 136.46 162.49"></polygon>
                <polygon id="Shape" fill="#FFFFFF" points="237.44 97.75 203.78 73.39 170.12 97.75 203.78 122.1"></polygon>
                <polygon id="Shape" fill="#E6E7E8" points="203.26 122.56 169.6 97.94 135.94 113.72 169.6 138.34"></polygon>
                <polygon id="Shape" fill="#E6E7E8" points="271.1 82.23 237.44 57.61 203.78 73.39 237.44 98.01"></polygon>
                <polygon id="Shape" fill="#96989B" points="270.83 91.69 271.1 82.23 237.44 97.74 203.78 122.1 169.59 138.33 136.45 162.49 136.47 171.45 169.36 148.01 204.35 132.27 237.04 107.27 270.83 91.68"></polygon>
                <polygon id="Shape" fill="#FFFFFF" points="2.1 91.69 1.83 82.23 35.49 97.74 69.15 122.1 102.79 138.14 136.47 162.5 136.45 171.46 101.16 147.19 68.58 132.28 32.89 104.99 2.1 91.69"></polygon>
            </g>
            <g id="_105554017270080">
                <polygon id="Shape" fill="#737476" points="169.72 16.81 136.06 0.77 102.4 16.81 136.06 32.85 169.72 16.81"></polygon>
                <polygon id="Shape" fill="#BDBFC1" points="135.54 32.79 101.88 16.78 68.22 41.17 101.88 57.17 135.54 32.78"></polygon>
                <polygon id="Shape" fill="#737476" points="101.87 57.21 68.21 41.17 34.55 57.21 68.21 73.25"></polygon>
                <polygon id="Shape" fill="#BDBFC1" points="67.69 73.18 34.03 57.17 0.37 81.56 34.03 97.56 67.69 73.17"></polygon>
                <polygon id="Shape" fill="#FFFFFF" points="101.87 97.6 68.21 73.24 34.55 97.6 68.21 121.95"></polygon>
                <polygon id="Shape" fill="#FFFFFF" points="169.2 57.21 135.54 32.85 101.88 57.21 135.54 81.56"></polygon>
                <polygon id="Shape" fill="#E6E7E8" points="135.01 82.02 101.35 57.4 67.69 73.18 101.35 97.8"></polygon>
                <polygon id="Shape" fill="#E6E7E8" points="202.86 41.69 169.2 17.07 135.54 32.85 169.2 57.47"></polygon>
                <polygon id="Shape" fill="#737476" points="237.57 57.21 203.91 41.17 170.25 57.21 203.91 73.25"></polygon>
                <polygon id="Shape" fill="#BDBFC1" points="203.38 73.18 169.72 57.17 136.06 81.56 169.72 97.56 203.38 73.17"></polygon>
                <polygon id="Shape" fill="#737476" points="169.72 97.6 136.06 81.56 102.4 97.6 136.06 113.64"></polygon>
                <polygon id="Shape" fill="#BDBFC1" points="135.54 113.57 101.88 97.56 68.22 121.95 101.88 137.95 135.54 113.56"></polygon>
                <polygon id="Shape" fill="#FFFFFF" points="169.72 138 136.06 113.64 102.4 138 136.06 162.35"></polygon>
                <polygon id="Shape" fill="#FFFFFF" points="237.04 97.6 203.38 73.24 169.72 97.6 203.38 121.95"></polygon>
                <polygon id="Shape" fill="#E6E7E8" points="202.86 122.41 169.2 97.79 135.54 113.57 169.2 138.19"></polygon>
                <polygon id="Shape" fill="#E6E7E8" points="270.71 82.09 237.05 57.47 203.39 73.25 237.05 97.87"></polygon>
                <polygon id="Shape" fill="#96989B" points="270.43 91.54 270.7 82.08 237.04 97.59 203.38 121.95 169.19 138.18 136.05 162.34 136.07 171.3 168.96 147.86 203.95 132.12 236.64 107.12 270.43 91.53"></polygon>
                <polygon id="Shape" fill="#FFFFFF" points="1.71 91.54 1.44 82.08 35.1 97.59 68.76 121.95 102.4 137.99 136.08 162.35 136.06 171.31 100.77 147.04 68.19 132.13 32.5 104.84 1.71 91.54"></polygon>
            </g>
        </g>
    </g>
</svg>