<svg xmlns="http://www.w3.org/2000/svg" xml:space="preserve" width="9.5456mm" height="8.7919mm" version="1.0" style="shape-rendering:geometricPrecision; text-rendering:geometricPrecision; image-rendering:optimizeQuality; fill-rule:evenodd; clip-rule:evenodd"
viewBox="0 0 25.29 23.3"
 xmlns:xlink="http://www.w3.org/1999/xlink">
 <defs>
  <style type="text/css">
   <![CDATA[
    .str0 {stroke:#373535;stroke-width:0.2;stroke-miterlimit:22.9256}
    .fil0 {fill:white}
    .fil3 {fill:#737476}
    .fil2 {fill:#96989B;fill-opacity:0.321569}
    .fil1 {fill:#91D9F8;fill-opacity:0.321569}
   ]]>
  </style>
   <mask id="id0">
  <linearGradient id="id1" gradientUnits="userSpaceOnUse" x1="13.8" y1="7.84" x2="13.89" y2="-0.23">
   <stop offset="0" style="stop-opacity:1; stop-color:white"/>
   <stop offset="1" style="stop-opacity:0; stop-color:white"/>
  </linearGradient>
    <rect style="fill:url(#id1)" x="11.65" y="-0.26" width="2.11" height="6.58"/>
   </mask>
   <mask id="id2">
  <linearGradient id="id3" gradientUnits="userSpaceOnUse" x1="13.8" y1="7.84" x2="13.89" y2="-0.23">
   <stop offset="0" style="stop-opacity:1; stop-color:white"/>
   <stop offset="1" style="stop-opacity:0; stop-color:white"/>
  </linearGradient>
    <rect style="fill:url(#id3)" x="12.04" y="-0.26" width="1.32" height="6.58"/>
   </mask>
 </defs>
 <g id="Layer_001">
  <path class="fil0 str0" d="M8.9 6.05l7.5 0c-0.04,0.59 -0.1,1.14 -0.19,1.67 3.03,0 2.31,3.02 -0.68,2.65 -0.23,0.66 -0.52,1.33 -0.86,2.04l-3.9 0c-1.1,-1.5 -1.97,-3.43 -1.87,-6.36z"/>
  <path class="fil0 str0" d="M22.05 15.36l-4.32 6.13c-0.46,-0.37 -0.87,-0.74 -1.26,-1.12 -1.74,2.47 -3.8,0.15 -1.78,-2.08 -0.41,-0.57 -0.79,-1.19 -1.17,-1.88l2.25 -3.19c1.86,-0.03 3.93,0.37 6.28,2.13z"/>
  <path class="fil0 str0" d="M8.28 21.82l-4.38 -6.09c0.5,-0.31 0.99,-0.58 1.47,-0.82 -1.77,-2.46 1.1,-3.64 2.55,-1 0.68,-0.2 1.39,-0.36 2.16,-0.49l2.28 3.16c-0.58,1.77 -1.63,3.6 -4.07,5.24z"/>
  <path class="fil1" d="M9.92 17.91c0.61,0.12 0.81,0.51 0.54,1 0.6,0.35 0.71,0.81 0.27,1.16 0.56,1.23 0.17,2.29 -0.99,2.44 -1.14,1.48 -3.41,0.78 -4.4,-1.36 -0.77,-0.36 -1.05,-1.01 -0.74,-1.65 -0.56,-0.48 -0.58,-0.94 -0.07,-1.19 -0.41,-0.65 -0.27,-1.09 0.37,-1.11 -0.23,-0.64 0,-0.9 0.61,-0.65 0.38,-0.94 1.27,-1.04 2.15,-0.3 0.34,-0.4 0.68,-0.26 0.87,0.37 0.44,-0.26 0.74,-0.04 0.77,0.58 0.51,-0.11 0.75,0.16 0.62,0.71z"/>
  <path class="fil1" d="M11.12 14.88c0.06,-0.89 -0.38,-1.39 -1.14,-1.3 -0.25,-1.02 -0.82,-1.42 -1.47,-1.04 -1.46,-1.47 -3.04,-1.55 -3.69,-0.06 -2.44,0.69 -2.35,4.17 0.17,6.74 0.19,1.25 0.97,2 1.95,1.94 0.43,1.03 1.05,1.33 1.59,0.77 0.73,0.93 1.37,0.99 1.65,0.13 0.78,0.68 1.22,0.51 1.11,-0.45 1.42,0.02 1.89,-1.12 1.22,-2.73 0.67,-0.23 0.61,-0.77 -0.17,-1.39 0.52,-0.45 0.33,-0.98 -0.49,-1.37 0.34,-0.63 0.06,-1.11 -0.73,-1.25z"/>
  <path class="fil2" d="M24.63 20.62c0.39,-0.15 0.51,-0.43 0.33,-0.74 0.38,-0.3 0.44,-0.62 0.15,-0.83 0.34,-0.9 0.06,-1.59 -0.7,-1.57 -0.77,-0.9 -2.22,-0.18 -2.82,1.38 -0.49,0.32 -0.66,0.8 -0.44,1.2 -0.35,0.38 -0.36,0.7 -0.02,0.82 -0.25,0.49 -0.15,0.77 0.27,0.72 -0.13,0.46 0.02,0.61 0.41,0.38 0.27,0.61 0.84,0.58 1.4,-0.02 0.23,0.24 0.44,0.11 0.55,-0.34 0.29,0.13 0.48,-0.05 0.48,-0.47 0.33,0.02 0.48,-0.19 0.39,-0.55z"/>
  <path class="fil2" d="M22.66 20.88c0.39,-0.15 0.51,-0.43 0.33,-0.74 0.38,-0.3 0.44,-0.62 0.15,-0.83 0.34,-0.9 0.06,-1.59 -0.7,-1.57 -0.77,-0.9 -2.22,-0.18 -2.82,1.38 -0.49,0.32 -0.66,0.8 -0.44,1.2 -0.35,0.38 -0.36,0.7 -0.02,0.82 -0.25,0.49 -0.15,0.77 0.27,0.72 -0.13,0.46 0.02,0.61 0.41,0.38 0.27,0.61 0.84,0.58 1.4,-0.02 0.23,0.24 0.44,0.11 0.55,-0.34 0.29,0.13 0.48,-0.05 0.48,-0.47 0.33,0.02 0.48,-0.19 0.39,-0.55z"/>
  <path class="fil2" d="M13.41 4.98c-0.23,-0.34 -0.54,-0.4 -0.79,-0.15 -0.38,-0.3 -0.71,-0.28 -0.84,0.04 -0.96,-0.12 -1.56,0.31 -1.37,1.04 -0.03,0.04 -0.06,0.08 -0.08,0.13l4.74 0c0.18,-0.28 0,-0.46 -0.46,-0.46 0.06,-0.32 -0.16,-0.46 -0.57,-0.36 -0.05,-0.33 -0.3,-0.42 -0.63,-0.25z"/>
  <path class="fil3" style="mask:url(#id0)" d="M11.91 0l1.58 0 0 6.05 -1.58 0 0 -6.05z"/>
  <path class="fil3" style="mask:url(#id2)" d="M12.31 0l0.79 0 0 6.05 -0.79 0 0 -6.05z"/>
  <path class="fil1" d="M1.36 20.1c0.04,0.47 0.32,0.69 0.71,0.58 0.22,0.51 0.55,0.67 0.86,0.41 0.89,0.64 1.72,0.54 1.92,-0.29 1.21,-0.57 0.86,-2.37 -0.67,-3.49 -0.21,-0.63 -0.68,-0.96 -1.18,-0.84 -0.31,-0.5 -0.66,-0.6 -0.9,-0.26 -0.46,-0.42 -0.8,-0.39 -0.87,0.07 -0.47,-0.29 -0.68,-0.16 -0.54,0.33 -0.74,0.11 -0.89,0.75 -0.4,1.53 -0.33,0.18 -0.25,0.45 0.21,0.71 -0.23,0.28 -0.09,0.54 0.37,0.67 -0.12,0.36 0.06,0.58 0.49,0.59z"/>
 </g>
</svg>
