<svg xmlns="http://www.w3.org/2000/svg" xml:space="preserve" width="130mm" height="108mm" version="1.0" style="shape-rendering:geometricPrecision; text-rendering:geometricPrecision; image-rendering:optimizeQuality; fill-rule:evenodd; clip-rule:evenodd"
viewBox="0 0 493.73 407.22"
 xmlns:xlink="http://www.w3.org/1999/xlink">
 <defs>
  <style type="text/css">
   <![CDATA[
    .str2 {stroke:black;stroke-width:0.38;stroke-miterlimit:22.9256}
    .str0 {stroke:black;stroke-width:0.29;stroke-miterlimit:22.9256}
    .str1 {stroke:white;stroke-width:0.29;stroke-miterlimit:22.9256}
    .fil1 {fill:black}
    .fil0 {fill:aqua}
    .fil2 {fill:white}
   ]]>
  </style>
 </defs>
 <g id="Layer_0004_1">
  <rect class="fil0 str0" x="11.48" y="0.15" width="482.1" height="338.73" rx="43.06" ry="43.06"/>
  <rect class="fil1 str1" x="164.31" y="84.08" width="145.33" height="67.28"/>
  <rect class="fil2 str2" x="374.64" y="259.97" width="12.11" height="91.59"/>
  <rect class="fil2 str2" x="191.64" y="259.97" width="12.11" height="91.59"/>
  <g id="_105553598334560">
   <rect class="fil2 str0" transform="matrix(0.77672 3.46945E-018 -1.02929E+000 0.5 159.129 259.971)" width="313.38" height="75.18"/>
   <rect class="fil2 str0" x="300.42" y="297.56" width="12.11" height="91.59"/>
   <rect class="fil2 str0" x="117.41" y="297.56" width="12.11" height="91.59"/>
  </g>
  <path class="fil2 str0" d="M65.41 175.83c-11.78,-9.3 -31.79,-24.65 -12.78,-38.35 4.76,-3.43 21.05,1.03 26.91,1.77 0,0.93 -3.26,5.39 -1.73,7.63 3.52,5.16 19.57,1.23 5.77,24.24 -1.68,2.8 1.01,9.29 8.75,11.94 0.42,0.15 5.7,7.28 6.06,12.28 1.11,15.58 5.38,19.37 5.38,34.99 0,2.33 1.35,11.39 1.35,17.49 0,6.59 0.97,19.3 -1.35,25.57 -3.84,10.38 -3.08,10.8 -4.04,6.73 -1.35,-5.7 -3.93,-5.81 -5.38,-16.15 -2.74,-19.55 -6.73,-12.31 -6.73,-39.02 0,25.27 0.34,53.46 -2.69,78.05 -2.2,17.84 -10.16,42.77 -12.11,60.55 -0.45,4.07 -9.85,35.84 -13.46,43.06 0,-2.16 -7.42,-13.21 -6.73,-20.18 1.55,-15.63 3.57,-25.24 0,-40.37l0 -14.8c-1.07,-6.62 -2.69,-8.82 -2.69,-17.49 0,-13.56 -4.04,-21.62 -4.04,-34.99 0,15.04 -20.18,42.78 -20.18,59.21 0,26.19 -25.57,55.34 -25.57,59.21 0,2.92 0.92,-5.95 2.69,-13.46 1.96,-8.3 5.27,-40.89 6.73,-44.41 6.63,-16.01 -0.66,-40.5 5.38,-63.24 3.97,-14.96 6.73,-18.17 6.73,-34.99 4.95,0 5.8,-40.25 8.07,-45.75 6.98,-16.86 5.23,-23.7 26.91,-20.18 2.23,0.36 8.72,0.65 8.75,0.67z"/>
  <rect class="fil2 str2" x="300.42" y="297.56" width="12.11" height="91.59"/>
  <rect class="fil2 str2" x="117.41" y="297.56" width="12.11" height="91.59"/>
 </g>
</svg>
