<?xml version="1.0" encoding="UTF-8" standalone="no"?>
<svg width="297px" height="265px" viewBox="0 0 297 265" version="1.1" xmlns="http://www.w3.org/2000/svg" xmlns:xlink="http://www.w3.org/1999/xlink">
    <desc>Vector genetor</desc>
    <defs>
        <radialGradient cx="85.9753919%" cy="51.4057778%" fx="85.9753919%" fy="51.4057778%" r="28.7030869%" gradientTransform="translate(0.859754,0.514058),scale(1.000000,0.975250),translate(-0.859754,-0.514058)" id="radialGradient-1">
            <stop stop-color="#E6E7E8" offset="0%"></stop>
            <stop stop-color="#96989B" offset="100%"></stop>
        </radialGradient>
        <radialGradient cx="91.0376412%" cy="52.2388756%" fx="91.0376412%" fy="52.2388756%" r="35.1478493%" gradientTransform="translate(0.910376,0.522389),scale(1.000000,0.869451),translate(-0.910376,-0.522389)" id="radialGradient-2">
            <stop stop-color="#E6E7E8" offset="0%"></stop>
            <stop stop-color="#96989B" offset="100%"></stop>
        </radialGradient>
        <radialGradient cx="30.6793389%" cy="21.5029848%" fx="30.6793389%" fy="21.5029848%" r="46.6157205%" gradientTransform="translate(0.306793,0.215030),scale(1.000000,0.930399),translate(-0.306793,-0.215030)" id="radialGradient-3">
            <stop stop-color="#FFFFFF" offset="0%"></stop>
            <stop stop-color="#737476" offset="100%"></stop>
        </radialGradient>
    </defs>
    <g id="Page-1" stroke="none" stroke-width="1" fill="none" fill-rule="evenodd">
        <g id="generate">
            <polygon id="Shape" stroke="#373535" stroke-width="1.23" fill="#737476" points="180.86 175.89 181.25 91.18 203.55 78.26 203.04 188.75 180.85 175.9"></polygon>
            <polygon id="Shape" stroke="#373535" stroke-width="1.23" fill="#FFFFFF" points="74.58 114.31 192.75 46.57 215.05 59.49 96.88 127.23 74.58 114.31"></polygon>
            <g id="Group" transform="translate(118.000000, 101.000000)">
                <path d="M70.02,27.15 C66.54,31.85 68.38,28.67 65.26,30.6 C57.38,35.47 65.53,45.18 72.18,46.75 C73.83,47.14 73.49,46.56 72.95,48.83 C75.78,49.5 74.92,52.04 77.36,52.23 C75.88,54.98 79.06,55.77 81.07,54.53 C86.53,51.16 79.98,61.81 79.83,62.44 C78.85,66.58 82.07,65.69 81.37,68.67 C81.31,68.66 75.45,68.87 71.94,67.55 C68.49,66.25 67.37,63.41 67.28,63.42 C65.64,63.68 58.78,66.73 55.95,66.07 C45.92,63.7 43.22,61.88 34.34,66.06 C32.75,66.81 31.78,67.99 30.16,69.25 C27.29,71.48 23.76,73.66 21.33,73.09 C21.16,73.8 4.76,76.36 4.1,76.2 C8.39,74.06 9.59,68.63 9.6,68.59 C10.59,64.4 2.76,64.45 3.57,60.06 C3.96,57.95 4.85,52.96 5.26,52.89 C10.64,51.99 11.19,46.49 11.73,44.2 C12.03,42.26 11.66,41.68 8.51,40.93 C8.73,40.01 4.8,38.89 1.62,36.25 C1.38,35.92 1.57,32.75 1.41,31.78 C1.21,30.57 0.11,30.59 1.34,26.72 C1.53,26.77 5.33,24.59 7.1,20.98 C7.55,19.09 0.98,16.61 4.7,16.47 C16.48,16.01 23.12,14.93 33.54,9.68 C36.52,8.18 41.85,8.79 45.31,7.47 C46.82,6.89 50.09,5.31 52.9,6.08 C54.17,6.38 65.22,0.49 67.49,0.12 C72.61,-0.71 74.63,5.06 77.43,5.72 C77.33,6.16 81.37,14.2 79.95,14.2 C76.51,14.21 74.89,19.49 70.25,21.77 C68.18,21.28 69.47,24.46 69.64,25.51 C69.3,26.94 70.12,27.01 70.01,27.16 L70.02,27.15 Z" id="Shape" fill="#FF0000"></path>
                <path d="M70.02,27.15 C66.54,31.85 68.38,28.67 65.26,30.6 C57.38,35.47 65.53,45.18 72.18,46.75 C73.83,47.14 73.49,46.56 72.95,48.83 C75.78,49.5 74.92,52.04 77.36,52.23 C75.88,54.98 79.06,55.77 81.07,54.53 C86.53,51.16 79.98,61.81 79.83,62.44 C78.85,66.58 82.07,65.69 81.37,68.67 C81.31,68.66 75.45,68.87 71.94,67.55 C68.49,66.25 67.37,63.41 67.28,63.42 C65.64,63.68 58.78,66.73 55.95,66.07 C45.92,63.7 43.22,61.88 34.34,66.06 C32.75,66.81 31.78,67.99 30.16,69.25 C27.29,71.48 23.76,73.66 21.33,73.09 C21.16,73.8 4.76,76.36 4.1,76.2 C8.39,74.06 9.59,68.63 9.6,68.59 C10.59,64.4 2.76,64.45 3.57,60.06 C3.96,57.95 4.85,52.96 5.26,52.89 C10.64,51.99 11.19,46.49 11.73,44.2 C12.03,42.26 11.66,41.68 8.51,40.93 C8.73,40.01 4.8,38.89 1.62,36.25 C1.38,35.92 1.57,32.75 1.41,31.78 C1.21,30.57 0.11,30.59 1.34,26.72 C1.53,26.77 5.33,24.59 7.1,20.98 C7.55,19.09 0.98,16.61 4.7,16.47 C16.48,16.01 23.12,14.93 33.54,9.68 C36.52,8.18 41.85,8.79 45.31,7.47 C46.82,6.89 50.09,5.31 52.9,6.08 C54.17,6.38 65.22,0.49 67.49,0.12 C72.61,-0.71 74.63,5.06 77.43,5.72 C77.33,6.16 81.37,14.2 79.95,14.2 C76.51,14.21 74.89,19.49 70.25,21.77 C68.18,21.28 69.47,24.46 69.64,25.51 C69.3,26.94 70.12,27.01 70.01,27.16 L70.02,27.15 Z" id="1" stroke="#201F1F" stroke-width="1.23"></path>
            </g>
            <path d="M96.26,263.45 L96.89,127.24 L214.75,58.95 L214.12,195.16 L96.26,263.45 Z M107.45,244.14 L107.96,133.65 L203.56,78.26 L203.05,188.75 L107.45,244.14 L107.45,244.14 Z" id="Shape" stroke="#373535" stroke-width="1.23" fill="#AAACAE"></path>
            <path d="M68.78,177.98 C77.63,178.66 80.11,167.94 74.86,162.35 C71.56,158.84 69.83,152.36 69.87,147.13 C69.7,154.49 66.9,159.41 63.76,162.42 C59.89,166.13 58.88,177.22 68.78,177.98 Z" id="Shape" stroke="#373535" stroke-width="1.23" fill="#FFFFFF"></path>
            <polygon id="Shape" stroke="#373535" stroke-width="1.23" fill="#737476" points="97.51 263.45 96.88 127.24 74.58 114.32 75.21 250.53"></polygon>
            <polygon id="Shape" stroke="#373535" stroke-width="1.23" fill="#FFFFFF" points="107.57 217.77 180.75 175.82 203.05 188.74 107.45 243.54 107.57 217.76"></polygon>
            <path d="M66.81,91.99 C66.58,99.34 64.27,103.58 60.42,107.68 C56.31,112.05 56.74,121.96 66.36,122.04 C71.16,122.08 76.16,115.03 71.54,107.59 C65.05,97.15 66.82,91.89 66.82,91.99 L66.81,91.99 Z" id="Shape" stroke="#373535" stroke-width="1.23" fill="#FF0000"></path>
            <path d="M50.9,156.59 C59.75,157.27 62.23,146.55 56.98,140.96 C53.68,137.45 51.95,130.97 51.99,125.74 C51.82,133.1 49.02,138.02 45.88,141.03 C42.01,144.74 41,155.83 50.9,156.59 L50.9,156.59 Z" id="Shape" stroke="#373535" stroke-width="1.23" fill="#F58735"></path>
            <ellipse id="Oval" stroke="#373535" stroke-width="1.22999947" fill="#F58735" transform="translate(283.048000, 115.875000) rotate(13.282418) translate(-283.048000, -115.875000) " cx="283.048" cy="115.875" rx="12.8999944" ry="12.5899946"></ellipse>
            <path d="M237.4,153.91 C238.8,159.82 223.47,157.9 219.24,162.97 C217.12,162.47 218.02,166.1 212.87,165.88 C207.62,165.66 206.92,169.74 199.37,169.66 C200.07,166.69 196.85,167.57 197.83,163.43 C197.98,162.8 204.52,152.15 199.07,155.52 C193.89,158.73 195.97,156.31 195.99,155.89 C198.76,154.86 210,150.36 213.05,150.45 C221.72,150.7 225.22,142.02 230.81,142.02 C235.62,142.02 238.05,142.05 242.56,140.38 C243.26,137.42 257.16,140.47 261.69,134.17 C262.98,132.38 277.42,135.16 278.08,134.25 C278.67,133.43 280.02,131.37 280.26,130.35 C282.05,130.77 282.43,135.64 281.1,137.49 C275.53,145.21 262.63,138.23 261.51,142.96 C261.13,142.87 250.06,149.56 246.7,149.56 C242.64,149.56 240.66,154.04 237.4,153.9 L237.4,153.91 Z M185.51,101.11 C186.23,100.85 186.74,100.71 186.92,100.75 C190.03,101.48 187.25,101.57 190.33,99.66 C202.92,99.07 217.54,99.85 229.3,94.98 C230.17,94.62 230.6,92.91 233.31,94.03 C238.4,96.14 243.46,96.5 249.13,96.5 C252.35,96.5 251.81,95.24 253.74,95.69 C254.05,94.36 253.39,95.56 254.94,95.97 C259.49,97.19 269.22,102.31 270.17,98.3 C272.57,98.87 270.07,95.04 276.74,99.85 C281.31,103.15 276,104.87 271.29,104.24 C267.3,103.71 268.44,107.35 262.08,105.85 C261.9,105.81 253.2,106.02 252.55,106.12 C251.28,106.33 251.48,104.83 246.89,106.04 C244.67,106.63 241.99,105.09 236.48,107.37 C232.93,108.84 229.63,107.29 224.87,108.42 C220.01,109.57 213.15,113.86 209.29,112.94 C209.09,113.78 204.78,113.08 202.75,113.92 C199.49,115.27 194.06,115.99 193.29,119.26 C192.23,119.01 192.57,120.55 190.93,121.23 C190.64,121.35 190.36,121.47 190.11,121.59 C193.42,119.05 195.03,115.18 197.98,115.17 C199.41,115.16 195.36,107.13 195.46,106.69 C192.66,106.03 190.65,100.26 185.52,101.09 L185.51,101.11 Z M188.27,122.76 C187.35,123.64 187.3,124.66 187.63,126.33 C187.37,125.15 186.3,122.29 188.27,122.76 L188.27,122.76 Z M187.66,126.49 C187.75,126.96 187.88,127.48 188.01,128.07 C187.88,127.93 187.38,127.67 187.66,126.51 L187.66,126.5 L187.66,126.49 Z M188.03,128.15 C188.62,130.65 191.7,136.67 192.99,131.21 C194.66,131.6 194.31,127.79 198.44,126.82 C198.91,124.82 198.99,127.93 201.54,124.4 C203.25,122.03 215.18,120.03 218.38,125.22 C220.84,129.21 220.57,126.62 219.22,132.36 C219.01,133.24 218.43,133.03 217.78,135.81 C217.14,135.66 213.97,138.58 213.66,139.89 C212.23,139.55 207.09,144.65 203.28,143.75 C196.17,142.07 193.55,142.22 191.74,149.86 C191.89,149.9 192.11,150.16 192.39,150.53 C192.05,150.23 191.59,149.98 190.95,149.83 C191.29,148.59 191.83,148.14 190.18,147.75 C183.53,146.18 175.38,136.48 183.26,131.6 C186.39,129.67 184.54,132.85 188.02,128.15 L188.03,128.15 Z" id="Shape" stroke="#373535" stroke-width="1.23" fill="#FFFFFF"></path>
            <path d="M84.34,71.18 L84.41,83.18 C84.46,92.76 62.11,92.57 61.9,82.9 L61.66,71.42 C61.61,66.89 84.3,64.24 84.34,71.18 L84.34,71.18 Z" id="Shape" stroke="#373535" stroke-width="1.23" fill="url(#radialGradient-1)"></path>
            <path d="M26.68,13.28 L72.55,40.47 C77.65,43.49 81.1,45.18 81.28,54.53 L81.59,70.71 C81.73,77.93 65.47,78.87 64.91,70.36 L64.26,60.59 C64.04,57.32 63.31,55.49 58.44,52.52 L28.05,34.01 C35.74,34.14 35.88,13.46 26.69,13.28 L26.68,13.28 Z" id="Shape" stroke="#373535" stroke-width="1.23" fill="url(#radialGradient-2)"></path>
            <g id="Group" stroke="#000000" stroke-width="1.23">
                <path d="M23.01,26.15 C25.37,20.62 14.84,5.36 4.1,9.68 L11.24,7.09 C13.09,6.42 15.4,6.56 17.89,7.54 C24.08,10 29.1,17.01 29.1,23.2 C29.1,23.48 29.09,23.76 29.07,24.03 L23,26.15 L23.01,26.15 Z" id="Shape" fill="#EE305A"></path>
                <path d="M52.36,42.62 C54.45,45.49 55.15,46.5 55.15,51.17 C55.15,53.89 53.45,56.56 50.82,57.84 L43.7,60.73 C49.15,58.52 51.33,51.35 45.69,43.91 C50.79,44.79 50.85,43.54 52.35,42.62 C60.89,35.69 47.14,18.02 38.38,20.09 C40.74,14.56 30.21,-0.7 19.47,3.62 L26.61,1.03 C28.46,0.36 30.77,0.5 33.26,1.48 C39.45,3.94 44.47,10.95 44.47,17.14 C44.47,17.42 44.46,17.7 44.44,17.97 C46.02,17.75 47.82,17.98 49.73,18.74 C55.92,21.2 60.94,28.55 60.94,34.4 C60.94,40.25 57.57,43.73 52.34,42.61 L52.36,42.62 Z" id="Shape" fill="#EE305A"></path>
                <path d="M45.7,43.91 C47.79,46.78 49.09,50.14 49.09,53.28 C49.09,59.47 44.07,62.5 37.88,60.04 C33.79,58.42 30.22,54.81 28.26,50.77 C26.43,53.76 22.61,54.8 18.19,53.05 C12,50.59 6.98,43.58 6.98,37.39 C6.98,34.54 8.04,32.37 9.79,31.08 C4.58,28.05 0.63,21.91 0.63,16.42 C0.63,10.23 5.65,7.2 11.84,9.66 C13.37,10.27 14.83,11.15 16.16,12.23 C16.06,11.6 16.01,10.98 16.01,10.36 C16.01,4.17 21.03,1.14 27.22,3.6 C33.41,6.06 38.43,13.07 38.43,19.26 C38.43,19.54 38.42,19.82 38.4,20.09 C39.98,19.87 41.78,20.1 43.69,20.86 C49.88,23.32 54.9,30.33 54.9,36.52 C54.9,42.02 50.94,45.03 45.71,43.9 L45.7,43.91 Z M43.68,26.06 C47,27.38 49.7,31.14 49.7,34.46 C49.7,37.78 47.01,39.41 43.68,38.09 C40.36,36.77 37.66,33.01 37.66,29.69 C37.66,26.37 40.35,24.74 43.68,26.06 L43.68,26.06 Z M27.21,8.79 C30.53,10.11 33.23,13.87 33.23,17.19 C33.23,20.51 30.54,22.14 27.21,20.82 C23.89,19.5 21.19,15.74 21.19,12.42 C21.19,9.1 23.88,7.47 27.21,8.79 Z M11.83,14.85 C15.15,16.17 17.85,19.93 17.85,23.25 C17.85,26.57 15.16,28.2 11.83,26.88 C8.51,25.56 5.81,21.8 5.81,18.48 C5.81,15.16 8.5,13.53 11.83,14.85 L11.83,14.85 Z M18.19,35.82 C21.51,37.14 24.21,40.9 24.21,44.22 C24.21,47.54 21.52,49.17 18.19,47.85 C14.87,46.53 12.17,42.77 12.17,39.45 C12.17,36.13 14.86,34.5 18.19,35.82 Z M37.88,42.81 C41.2,44.13 43.9,47.89 43.9,51.21 C43.9,54.53 41.21,56.16 37.88,54.84 C34.56,53.52 31.86,49.76 31.86,46.44 C31.86,43.12 34.55,41.49 37.88,42.81 L37.88,42.81 Z" id="Shape" fill="#FF0000"></path>
                <path d="M27.21,8.79 C26.98,13.3 28.75,16.74 33.28,18.71" id="Shape"></path>
                <path d="M11.83,14.86 C11.6,19.37 12.89,22.61 17.42,24.58 C16.54,27.11 14.65,27.21 13.24,27.22 C10.5,27.24 7.9,24.48 6.68,22.32 C4.48,18.42 4.95,12.92 11.82,14.86 L11.83,14.86 Z" id="Shape" fill="#EE305A"></path>
                <path d="M43.92,26.16 C43.69,30.67 45.46,34.11 49.99,36.08" id="Shape"></path>
                <path d="M37.87,42.82 C37.64,47.33 39.41,50.77 43.94,52.74" id="Shape"></path>
                <path d="M18.18,35.83 C17.95,40.34 19.72,43.78 24.25,45.75" id="Shape"></path>
                <path d="M27.45,8.89 C27.22,13.4 28.51,16.64 33.04,18.61 C32.16,21.14 30.27,21.24 28.86,21.25 C26.12,21.27 23.52,18.51 22.3,16.35 C20.1,12.45 20.57,6.95 27.44,8.89 L27.45,8.89 Z" id="Shape" fill="#EE305A"></path>
                <path d="M43.92,26.16 C43.69,30.67 44.98,33.91 49.51,35.88 C48.63,38.41 46.74,38.51 45.33,38.52 C42.59,38.54 39.99,35.78 38.77,33.62 C36.57,29.72 37.04,24.22 43.92,26.16 L43.92,26.16 Z" id="Shape" fill="#EE305A"></path>
                <path d="M38.11,42.92 C37.88,47.43 39.17,50.67 43.7,52.64 C42.82,55.17 40.93,55.27 39.52,55.28 C36.78,55.3 34.18,52.54 32.96,50.38 C30.76,46.48 31.23,40.98 38.1,42.93 L38.11,42.92 Z" id="Shape" fill="#EE305A"></path>
                <path d="M18.18,35.83 C17.95,40.34 19.24,43.58 23.77,45.55 C22.89,48.08 21,48.18 19.59,48.19 C16.85,48.21 14.25,45.45 13.03,43.29 C10.83,39.39 11.3,33.89 18.17,35.83 L18.18,35.83 Z" id="Shape" fill="#EE305A"></path>
            </g>
            <path d="M27.75,27.25 C30.28,28.25 32.33,31.12 32.33,33.64 C32.33,36.17 30.28,37.4 27.75,36.4 C25.22,35.4 23.17,32.53 23.17,30.01 C23.17,27.48 25.22,26.25 27.75,27.25 Z" id="Shape" stroke="#000000" stroke-width="1.23" fill="url(#radialGradient-3)"></path>
            <path d="M27.28,29.91 L27.28,33.73" id="Shape" stroke="#373535" stroke-width="0.53"></path>
            <path d="M28.9,32.82 L25.65,30.83" id="Shape" stroke="#373535" stroke-width="0.53"></path>
        </g>
    </g>
</svg>