<?xml version="1.0" encoding="UTF-8" standalone="no"?>
<svg xmlns="http://www.w3.org/2000/svg" xml:space="preserve" width="10.6667in" height="6.28256in" version="1.1" style="shape-rendering:geometricPrecision; text-rendering:geometricPrecision; image-rendering:optimizeQuality; fill-rule:evenodd; clip-rule:evenodd"
viewBox="0 0 10666.66 6282.56">
 <defs>
  <style type="text/css">
   <![CDATA[
    .str0 {stroke:white;stroke-width:6.94;stroke-miterlimit:22.9256}
    .fil2 {fill:none}
    .fil0 {fill:#003399}
    .fil4 {fill:#336699}
    .fil1 {fill:white}
    .fil3 {fill:white;fill-opacity:0.631373}
   ]]>
  </style>
   <mask id="id0">
  <radialGradient id="id1" gradientUnits="userSpaceOnUse" cx="6073.79" cy="1337.18" r="138.05" fx="6073.79" fy="1337.18">
   <stop offset="0" style="stop-opacity:1; stop-color:white"/>
   <stop offset="0.14902" style="stop-opacity:127.992; stop-color:white"/>
   <stop offset="1" style="stop-opacity:0.0117647; stop-color:white"/>
  </radialGradient>
    <rect style="fill:url(#id1)" x="5772.98" y="1156.16" width="393.3" height="362.04"/>
   </mask>
   <mask id="id2">
  <radialGradient id="id3" gradientUnits="userSpaceOnUse" cx="5667.86" cy="1784.45" r="138.05" fx="5667.86" fy="1784.45">
   <stop offset="0" style="stop-opacity:1; stop-color:white"/>
   <stop offset="0.14902" style="stop-opacity:127.992; stop-color:white"/>
   <stop offset="1" style="stop-opacity:0.0117647; stop-color:white"/>
  </radialGradient>
    <rect style="fill:url(#id3)" x="5367.05" y="1603.43" width="393.3" height="362.04"/>
   </mask>
   <mask id="id4">
  <radialGradient id="id5" gradientUnits="userSpaceOnUse" cx="5167.86" cy="1388.61" r="138.05" fx="5167.86" fy="1388.61">
   <stop offset="0" style="stop-opacity:1; stop-color:white"/>
   <stop offset="0.14902" style="stop-opacity:127.992; stop-color:white"/>
   <stop offset="1" style="stop-opacity:0.0117647; stop-color:white"/>
  </radialGradient>
    <rect style="fill:url(#id5)" x="4867.05" y="1207.59" width="393.3" height="362.04"/>
   </mask>
   <mask id="id6">
  <radialGradient id="id7" gradientUnits="userSpaceOnUse" cx="4574.12" cy="785.42" r="138.05" fx="4574.12" fy="785.42">
   <stop offset="0" style="stop-opacity:1; stop-color:white"/>
   <stop offset="0.14902" style="stop-opacity:127.992; stop-color:white"/>
   <stop offset="1" style="stop-opacity:0.0117647; stop-color:white"/>
  </radialGradient>
    <rect style="fill:url(#id7)" x="4273.31" y="604.4" width="393.3" height="362.04"/>
   </mask>
   <mask id="id8">
  <radialGradient id="id9" gradientUnits="userSpaceOnUse" cx="4011.61" cy="1018.82" r="138.05" fx="4011.61" fy="1018.82">
   <stop offset="0" style="stop-opacity:1; stop-color:white"/>
   <stop offset="0.14902" style="stop-opacity:127.992; stop-color:white"/>
   <stop offset="1" style="stop-opacity:0.0117647; stop-color:white"/>
  </radialGradient>
    <rect style="fill:url(#id9)" x="3710.81" y="837.8" width="393.3" height="362.04"/>
   </mask>
   <mask id="id10">
  <radialGradient id="id11" gradientUnits="userSpaceOnUse" cx="6782.45" cy="1779.24" r="138.05" fx="6782.45" fy="1779.24">
   <stop offset="0" style="stop-opacity:1; stop-color:white"/>
   <stop offset="0.14902" style="stop-opacity:127.992; stop-color:white"/>
   <stop offset="1" style="stop-opacity:0.0117647; stop-color:white"/>
  </radialGradient>
    <rect style="fill:url(#id11)" x="6481.64" y="1598.22" width="245.93" height="226.62"/>
   </mask>
   <mask id="id12">
  <radialGradient id="id13" gradientUnits="userSpaceOnUse" cx="7392.58" cy="961.53" r="138.05" fx="7392.58" fy="961.53">
   <stop offset="0" style="stop-opacity:1; stop-color:white"/>
   <stop offset="0.14902" style="stop-opacity:127.992; stop-color:white"/>
   <stop offset="1" style="stop-opacity:0.0117647; stop-color:white"/>
  </radialGradient>
    <rect style="fill:url(#id13)" x="7091.78" y="780.51" width="245.93" height="226.62"/>
   </mask>
   <mask id="id14">
  <radialGradient id="id15" gradientUnits="userSpaceOnUse" cx="6379.92" cy="1301.75" r="138.05" fx="6379.92" fy="1301.75">
   <stop offset="0" style="stop-opacity:1; stop-color:white"/>
   <stop offset="0.14902" style="stop-opacity:127.992; stop-color:white"/>
   <stop offset="1" style="stop-opacity:0.0117647; stop-color:white"/>
  </radialGradient>
    <rect style="fill:url(#id15)" x="6079.12" y="1120.73" width="245.93" height="226.62"/>
   </mask>
   <mask id="id16">
  <radialGradient id="id17" gradientUnits="userSpaceOnUse" cx="6262.37" cy="2123" r="138.05" fx="6262.37" fy="2123">
   <stop offset="0" style="stop-opacity:1; stop-color:white"/>
   <stop offset="0.14902" style="stop-opacity:127.992; stop-color:white"/>
   <stop offset="1" style="stop-opacity:0.0117647; stop-color:white"/>
  </radialGradient>
    <rect style="fill:url(#id17)" x="5961.56" y="1941.98" width="245.93" height="226.62"/>
   </mask>
   <mask id="id18">
  <radialGradient id="id19" gradientUnits="userSpaceOnUse" cx="3954.31" cy="1487.58" r="138.05" fx="3954.31" fy="1487.58">
   <stop offset="0" style="stop-opacity:1; stop-color:white"/>
   <stop offset="0.14902" style="stop-opacity:127.992; stop-color:white"/>
   <stop offset="1" style="stop-opacity:0.0117647; stop-color:white"/>
  </radialGradient>
    <rect style="fill:url(#id19)" x="3653.5" y="1306.56" width="393.3" height="362.04"/>
   </mask>
   <mask id="id20">
  <radialGradient id="id21" gradientUnits="userSpaceOnUse" cx="3548.38" cy="1934.85" r="138.05" fx="3548.38" fy="1934.85">
   <stop offset="0" style="stop-opacity:1; stop-color:white"/>
   <stop offset="0.14902" style="stop-opacity:127.992; stop-color:white"/>
   <stop offset="1" style="stop-opacity:0.0117647; stop-color:white"/>
  </radialGradient>
    <rect style="fill:url(#id21)" x="3247.57" y="1753.83" width="393.3" height="362.04"/>
   </mask>
   <mask id="id22">
  <radialGradient id="id23" gradientUnits="userSpaceOnUse" cx="3048.38" cy="1539.02" r="138.05" fx="3048.38" fy="1539.02">
   <stop offset="0" style="stop-opacity:1; stop-color:white"/>
   <stop offset="0.14902" style="stop-opacity:127.992; stop-color:white"/>
   <stop offset="1" style="stop-opacity:0.0117647; stop-color:white"/>
  </radialGradient>
    <rect style="fill:url(#id23)" x="2747.57" y="1358" width="393.3" height="362.04"/>
   </mask>
   <mask id="id24">
  <radialGradient id="id25" gradientUnits="userSpaceOnUse" cx="2454.64" cy="935.82" r="138.05" fx="2454.64" fy="935.82">
   <stop offset="0" style="stop-opacity:1; stop-color:white"/>
   <stop offset="0.14902" style="stop-opacity:127.992; stop-color:white"/>
   <stop offset="1" style="stop-opacity:0.0117647; stop-color:white"/>
  </radialGradient>
    <rect style="fill:url(#id25)" x="2153.83" y="754.8" width="393.3" height="362.04"/>
   </mask>
   <mask id="id26">
  <radialGradient id="id27" gradientUnits="userSpaceOnUse" cx="4662.97" cy="1929.64" r="138.05" fx="4662.97" fy="1929.64">
   <stop offset="0" style="stop-opacity:1; stop-color:white"/>
   <stop offset="0.14902" style="stop-opacity:127.992; stop-color:white"/>
   <stop offset="1" style="stop-opacity:0.0117647; stop-color:white"/>
  </radialGradient>
    <rect style="fill:url(#id27)" x="4362.16" y="1748.63" width="245.93" height="226.62"/>
   </mask>
   <mask id="id28">
  <radialGradient id="id29" gradientUnits="userSpaceOnUse" cx="5273.11" cy="1111.93" r="138.05" fx="5273.11" fy="1111.93">
   <stop offset="0" style="stop-opacity:1; stop-color:white"/>
   <stop offset="0.14902" style="stop-opacity:127.992; stop-color:white"/>
   <stop offset="1" style="stop-opacity:0.0117647; stop-color:white"/>
  </radialGradient>
    <rect style="fill:url(#id29)" x="4972.3" y="930.91" width="245.93" height="226.62"/>
   </mask>
   <mask id="id30">
  <radialGradient id="id31" gradientUnits="userSpaceOnUse" cx="4260.45" cy="1452.15" r="138.05" fx="4260.45" fy="1452.15">
   <stop offset="0" style="stop-opacity:1; stop-color:white"/>
   <stop offset="0.14902" style="stop-opacity:127.992; stop-color:white"/>
   <stop offset="1" style="stop-opacity:0.0117647; stop-color:white"/>
  </radialGradient>
    <rect style="fill:url(#id31)" x="3959.64" y="1271.13" width="245.93" height="226.62"/>
   </mask>
   <mask id="id32">
  <radialGradient id="id33" gradientUnits="userSpaceOnUse" cx="7970.7" cy="961.54" r="138.05" fx="7970.7" fy="961.54">
   <stop offset="0" style="stop-opacity:1; stop-color:white"/>
   <stop offset="0.14902" style="stop-opacity:127.992; stop-color:white"/>
   <stop offset="1" style="stop-opacity:0.0117647; stop-color:white"/>
  </radialGradient>
    <rect style="fill:url(#id33)" x="7669.89" y="780.52" width="245.93" height="226.62"/>
   </mask>
   <mask id="id34">
  <radialGradient id="id35" gradientUnits="userSpaceOnUse" cx="8074.1" cy="1404.24" r="138.05" fx="8074.1" fy="1404.24">
   <stop offset="0" style="stop-opacity:1; stop-color:white"/>
   <stop offset="0.14902" style="stop-opacity:127.992; stop-color:white"/>
   <stop offset="1" style="stop-opacity:0.0117647; stop-color:white"/>
  </radialGradient>
    <rect style="fill:url(#id35)" x="7773.3" y="1223.22" width="393.3" height="362.04"/>
   </mask>
   <mask id="id36">
  <radialGradient id="id37" gradientUnits="userSpaceOnUse" cx="7668.17" cy="1851.52" r="138.05" fx="7668.17" fy="1851.52">
   <stop offset="0" style="stop-opacity:1; stop-color:white"/>
   <stop offset="0.14902" style="stop-opacity:127.992; stop-color:white"/>
   <stop offset="1" style="stop-opacity:0.0117647; stop-color:white"/>
  </radialGradient>
    <rect style="fill:url(#id37)" x="7367.37" y="1670.5" width="393.3" height="362.04"/>
   </mask>
   <mask id="id38">
  <radialGradient id="id39" gradientUnits="userSpaceOnUse" cx="7168.17" cy="1455.68" r="138.05" fx="7168.17" fy="1455.68">
   <stop offset="0" style="stop-opacity:1; stop-color:white"/>
   <stop offset="0.14902" style="stop-opacity:127.992; stop-color:white"/>
   <stop offset="1" style="stop-opacity:0.0117647; stop-color:white"/>
  </radialGradient>
    <rect style="fill:url(#id39)" x="6867.37" y="1274.66" width="393.3" height="362.04"/>
   </mask>
   <mask id="id40">
  <radialGradient id="id41" gradientUnits="userSpaceOnUse" cx="6574.43" cy="852.48" r="138.05" fx="6574.43" fy="852.48">
   <stop offset="0" style="stop-opacity:1; stop-color:white"/>
   <stop offset="0.14902" style="stop-opacity:127.992; stop-color:white"/>
   <stop offset="1" style="stop-opacity:0.0117647; stop-color:white"/>
  </radialGradient>
    <rect style="fill:url(#id41)" x="6273.63" y="671.46" width="393.3" height="362.04"/>
   </mask>
   <mask id="id42">
  <radialGradient id="id43" gradientUnits="userSpaceOnUse" cx="8782.76" cy="1846.31" r="138.05" fx="8782.76" fy="1846.31">
   <stop offset="0" style="stop-opacity:1; stop-color:white"/>
   <stop offset="0.14902" style="stop-opacity:127.992; stop-color:white"/>
   <stop offset="1" style="stop-opacity:0.0117647; stop-color:white"/>
  </radialGradient>
    <rect style="fill:url(#id43)" x="8481.96" y="1665.29" width="245.93" height="226.62"/>
   </mask>
   <mask id="id44">
  <radialGradient id="id45" gradientUnits="userSpaceOnUse" cx="8380.24" cy="1368.82" r="138.05" fx="8380.24" fy="1368.82">
   <stop offset="0" style="stop-opacity:1; stop-color:white"/>
   <stop offset="0.14902" style="stop-opacity:127.992; stop-color:white"/>
   <stop offset="1" style="stop-opacity:0.0117647; stop-color:white"/>
  </radialGradient>
    <rect style="fill:url(#id45)" x="8079.43" y="1187.8" width="245.93" height="226.62"/>
   </mask>
   <mask id="id46">
  <radialGradient id="id47" gradientUnits="userSpaceOnUse" cx="8262.69" cy="2190.06" r="138.05" fx="8262.69" fy="2190.06">
   <stop offset="0" style="stop-opacity:1; stop-color:white"/>
   <stop offset="0.14902" style="stop-opacity:127.992; stop-color:white"/>
   <stop offset="1" style="stop-opacity:0.0117647; stop-color:white"/>
  </radialGradient>
    <rect style="fill:url(#id47)" x="7961.88" y="2009.04" width="245.93" height="226.62"/>
   </mask>
   <mask id="id48">
  <radialGradient id="id49" gradientUnits="userSpaceOnUse" cx="2183.48" cy="1591.75" r="138.05" fx="2183.48" fy="1591.75">
   <stop offset="0" style="stop-opacity:1; stop-color:white"/>
   <stop offset="0.14902" style="stop-opacity:127.992; stop-color:white"/>
   <stop offset="1" style="stop-opacity:0.0117647; stop-color:white"/>
  </radialGradient>
    <rect style="fill:url(#id49)" x="1882.67" y="1410.73" width="393.3" height="362.04"/>
   </mask>
   <mask id="id50">
  <radialGradient id="id51" gradientUnits="userSpaceOnUse" cx="1777.55" cy="2039.02" r="138.05" fx="1777.55" fy="2039.02">
   <stop offset="0" style="stop-opacity:1; stop-color:white"/>
   <stop offset="0.14902" style="stop-opacity:127.992; stop-color:white"/>
   <stop offset="1" style="stop-opacity:0.0117647; stop-color:white"/>
  </radialGradient>
    <rect style="fill:url(#id51)" x="1476.74" y="1858" width="393.3" height="362.04"/>
   </mask>
   <mask id="id52">
  <radialGradient id="id53" gradientUnits="userSpaceOnUse" cx="1277.55" cy="1643.18" r="138.05" fx="1277.55" fy="1643.18">
   <stop offset="0" style="stop-opacity:1; stop-color:white"/>
   <stop offset="0.14902" style="stop-opacity:127.992; stop-color:white"/>
   <stop offset="1" style="stop-opacity:0.0117647; stop-color:white"/>
  </radialGradient>
    <rect style="fill:url(#id53)" x="976.74" y="1462.16" width="393.3" height="362.04"/>
   </mask>
   <mask id="id54">
  <radialGradient id="id55" gradientUnits="userSpaceOnUse" cx="8553.27" cy="945.91" r="138.05" fx="8553.27" fy="945.91">
   <stop offset="0" style="stop-opacity:1; stop-color:white"/>
   <stop offset="0.14902" style="stop-opacity:127.992; stop-color:white"/>
   <stop offset="1" style="stop-opacity:0.0117647; stop-color:white"/>
  </radialGradient>
    <rect style="fill:url(#id55)" x="8252.46" y="764.89" width="393.3" height="362.04"/>
   </mask>
   <mask id="id56">
  <radialGradient id="id57" gradientUnits="userSpaceOnUse" cx="2892.14" cy="2033.81" r="138.05" fx="2892.14" fy="2033.81">
   <stop offset="0" style="stop-opacity:1; stop-color:white"/>
   <stop offset="0.14902" style="stop-opacity:127.992; stop-color:white"/>
   <stop offset="1" style="stop-opacity:0.0117647; stop-color:white"/>
  </radialGradient>
    <rect style="fill:url(#id57)" x="2591.33" y="1852.79" width="245.93" height="226.62"/>
   </mask>
   <mask id="id58">
  <radialGradient id="id59" gradientUnits="userSpaceOnUse" cx="3502.28" cy="1216.1" r="138.05" fx="3502.28" fy="1216.1">
   <stop offset="0" style="stop-opacity:1; stop-color:white"/>
   <stop offset="0.14902" style="stop-opacity:127.992; stop-color:white"/>
   <stop offset="1" style="stop-opacity:0.0117647; stop-color:white"/>
  </radialGradient>
    <rect style="fill:url(#id59)" x="3201.47" y="1035.08" width="245.93" height="226.62"/>
   </mask>
   <mask id="id60">
  <radialGradient id="id61" gradientUnits="userSpaceOnUse" cx="2489.62" cy="1556.32" r="138.05" fx="2489.62" fy="1556.32">
   <stop offset="0" style="stop-opacity:1; stop-color:white"/>
   <stop offset="0.14902" style="stop-opacity:127.992; stop-color:white"/>
   <stop offset="1" style="stop-opacity:0.0117647; stop-color:white"/>
  </radialGradient>
    <rect style="fill:url(#id61)" x="2188.81" y="1375.3" width="245.93" height="226.62"/>
   </mask>
   <mask id="id62">
  <radialGradient id="id63" gradientUnits="userSpaceOnUse" cx="2372.07" cy="2377.57" r="138.05" fx="2372.07" fy="2377.57">
   <stop offset="0" style="stop-opacity:1; stop-color:white"/>
   <stop offset="0.14902" style="stop-opacity:127.992; stop-color:white"/>
   <stop offset="1" style="stop-opacity:0.0117647; stop-color:white"/>
  </radialGradient>
    <rect style="fill:url(#id63)" x="2071.26" y="2196.55" width="245.93" height="226.62"/>
   </mask>
   <mask id="id64">
  <radialGradient id="id65" gradientUnits="userSpaceOnUse" cx="3841.02" cy="553.57" r="138.05" fx="3841.02" fy="553.57">
   <stop offset="0" style="stop-opacity:1; stop-color:white"/>
   <stop offset="0.14902" style="stop-opacity:127.992; stop-color:white"/>
   <stop offset="1" style="stop-opacity:0.0117647; stop-color:white"/>
  </radialGradient>
    <rect style="fill:url(#id65)" x="3540.22" y="372.55" width="393.3" height="362.04"/>
   </mask>
   <mask id="id66">
  <radialGradient id="id67" gradientUnits="userSpaceOnUse" cx="2924.35" cy="353.57" r="138.05" fx="2924.35" fy="353.57">
   <stop offset="0" style="stop-opacity:1; stop-color:white"/>
   <stop offset="0.14902" style="stop-opacity:127.992; stop-color:white"/>
   <stop offset="1" style="stop-opacity:0.0117647; stop-color:white"/>
  </radialGradient>
    <rect style="fill:url(#id67)" x="2623.55" y="172.56" width="393.3" height="362.04"/>
   </mask>
   <mask id="id68">
  <radialGradient id="id69" gradientUnits="userSpaceOnUse" cx="5841.02" cy="603.57" r="138.05" fx="5841.02" fy="603.57">
   <stop offset="0" style="stop-opacity:1; stop-color:white"/>
   <stop offset="0.14902" style="stop-opacity:127.992; stop-color:white"/>
   <stop offset="1" style="stop-opacity:0.0117647; stop-color:white"/>
  </radialGradient>
    <rect style="fill:url(#id69)" x="5540.21" y="422.55" width="393.3" height="362.04"/>
   </mask>
   <mask id="id70">
  <radialGradient id="id71" gradientUnits="userSpaceOnUse" cx="7474.36" cy="286.91" r="138.05" fx="7474.36" fy="286.91">
   <stop offset="0" style="stop-opacity:1; stop-color:white"/>
   <stop offset="0.14902" style="stop-opacity:127.992; stop-color:white"/>
   <stop offset="1" style="stop-opacity:0.0117647; stop-color:white"/>
  </radialGradient>
    <rect style="fill:url(#id71)" x="7173.55" y="105.89" width="393.3" height="362.04"/>
   </mask>
   <mask id="id72">
  <radialGradient id="id73" gradientUnits="userSpaceOnUse" cx="5241.02" cy="220.24" r="138.05" fx="5241.02" fy="220.24">
   <stop offset="0" style="stop-opacity:1; stop-color:white"/>
   <stop offset="0.14902" style="stop-opacity:127.992; stop-color:white"/>
   <stop offset="1" style="stop-opacity:0.0117647; stop-color:white"/>
  </radialGradient>
    <rect style="fill:url(#id73)" x="4940.21" y="39.22" width="393.3" height="362.04"/>
   </mask>
   <mask id="id74">
  <radialGradient id="id75" gradientUnits="userSpaceOnUse" cx="8824.36" cy="303.57" r="138.05" fx="8824.36" fy="303.57">
   <stop offset="0" style="stop-opacity:1; stop-color:white"/>
   <stop offset="0.14902" style="stop-opacity:127.992; stop-color:white"/>
   <stop offset="1" style="stop-opacity:0.0117647; stop-color:white"/>
  </radialGradient>
    <rect style="fill:url(#id75)" x="8523.55" y="122.56" width="393.3" height="362.04"/>
   </mask>
   <mask id="id76">
  <radialGradient id="id77" gradientUnits="userSpaceOnUse" cx="1827.58" cy="1064.37" r="138.05" fx="1827.58" fy="1064.37">
   <stop offset="0" style="stop-opacity:1; stop-color:white"/>
   <stop offset="0.14902" style="stop-opacity:127.992; stop-color:white"/>
   <stop offset="1" style="stop-opacity:0.0117647; stop-color:white"/>
  </radialGradient>
    <rect style="fill:url(#id77)" x="1526.77" y="883.35" width="393.3" height="362.04"/>
   </mask>
   <mask id="id78">
  <radialGradient id="id79" gradientUnits="userSpaceOnUse" cx="930.62" cy="2264.03" r="138.05" fx="930.62" fy="2264.03">
   <stop offset="0" style="stop-opacity:1; stop-color:white"/>
   <stop offset="0.14902" style="stop-opacity:127.992; stop-color:white"/>
   <stop offset="1" style="stop-opacity:0.0117647; stop-color:white"/>
  </radialGradient>
    <rect style="fill:url(#id79)" x="629.81" y="2083.01" width="393.3" height="362.04"/>
   </mask>
   <mask id="id80">
  <radialGradient id="id81" gradientUnits="userSpaceOnUse" cx="1417.92" cy="1139.37" r="138.05" fx="1417.92" fy="1139.37">
   <stop offset="0" style="stop-opacity:1; stop-color:white"/>
   <stop offset="0.14902" style="stop-opacity:127.992; stop-color:white"/>
   <stop offset="1" style="stop-opacity:0.0117647; stop-color:white"/>
  </radialGradient>
    <rect style="fill:url(#id81)" x="1117.12" y="958.35" width="245.93" height="226.62"/>
   </mask>
   <mask id="id82">
  <radialGradient id="id83" gradientUnits="userSpaceOnUse" cx="1598.03" cy="2604.62" r="138.05" fx="1598.03" fy="2604.62">
   <stop offset="0" style="stop-opacity:1; stop-color:white"/>
   <stop offset="0.14902" style="stop-opacity:127.992; stop-color:white"/>
   <stop offset="1" style="stop-opacity:0.0117647; stop-color:white"/>
  </radialGradient>
    <rect style="fill:url(#id83)" x="1297.23" y="2423.6" width="245.93" height="226.62"/>
   </mask>
   <mask id="id84">
  <radialGradient id="id85" gradientUnits="userSpaceOnUse" cx="887.63" cy="1015.07" r="138.05" fx="887.63" fy="1015.07">
   <stop offset="0" style="stop-opacity:1; stop-color:white"/>
   <stop offset="0.14902" style="stop-opacity:127.992; stop-color:white"/>
   <stop offset="1" style="stop-opacity:0.0117647; stop-color:white"/>
  </radialGradient>
    <rect style="fill:url(#id85)" x="586.83" y="834.05" width="245.93" height="226.62"/>
   </mask>
   <mask id="id86">
  <radialGradient id="id87" gradientUnits="userSpaceOnUse" cx="525.04" cy="2135.74" r="138.05" fx="525.04" fy="2135.74">
   <stop offset="0" style="stop-opacity:1; stop-color:white"/>
   <stop offset="0.14902" style="stop-opacity:127.992; stop-color:white"/>
   <stop offset="1" style="stop-opacity:0.0117647; stop-color:white"/>
  </radialGradient>
    <rect style="fill:url(#id87)" x="224.24" y="1954.72" width="245.93" height="226.62"/>
   </mask>
 </defs>
 <g id="Layer_x0020_1">
  <rect class="fil0" y="-0" width="10666.66" height="6282.56"/>
  <path class="fil1" style="mask:url(#id0)" d="M5969.62 1160.09c106.43,0 192.71,79.28 192.71,177.08 0,97.8 -86.28,177.08 -192.71,177.08 -106.43,0 -192.71,-79.28 -192.71,-177.08 0,-97.8 86.28,-177.08 192.71,-177.08z"/>
  <path class="fil1" style="mask:url(#id2)" d="M5563.69 1607.37c106.43,0 192.71,79.28 192.71,177.08 0,97.8 -86.28,177.08 -192.71,177.08 -106.43,0 -192.71,-79.28 -192.71,-177.08 0,-97.8 86.28,-177.08 192.71,-177.08z"/>
  <path class="fil1" style="mask:url(#id4)" d="M5063.69 1211.53c106.43,0 192.71,79.28 192.71,177.08 0,97.8 -86.28,177.08 -192.71,177.08 -106.43,0 -192.71,-79.28 -192.71,-177.08 0,-97.8 86.28,-177.08 192.71,-177.08z"/>
  <path class="fil1" style="mask:url(#id6)" d="M4469.96 608.33c106.43,0 192.71,79.28 192.71,177.08 0,97.8 -86.28,177.08 -192.71,177.08 -106.43,0 -192.71,-79.28 -192.71,-177.08 0,-97.8 86.28,-177.08 192.71,-177.08z"/>
  <path class="fil1" style="mask:url(#id8)" d="M3907.45 841.74c106.43,0 192.71,79.28 192.71,177.08 0,97.8 -86.28,177.08 -192.71,177.08 -106.43,0 -192.71,-79.28 -192.71,-177.08 0,-97.8 86.28,-177.08 192.71,-177.08z"/>
  <path class="fil1" style="mask:url(#id10)" d="M6604.6 1602.16c65.74,0 119.03,48.97 119.03,109.37 0,60.41 -53.29,109.37 -119.03,109.37 -65.74,0 -119.03,-48.97 -119.03,-109.37 0,-60.41 53.29,-109.37 119.03,-109.37z"/>
  <path class="fil1" style="mask:url(#id12)" d="M7214.74 784.45c65.74,0 119.03,48.97 119.03,109.37 0,60.41 -53.29,109.37 -119.03,109.37 -65.74,0 -119.03,-48.97 -119.03,-109.37 0,-60.41 53.29,-109.37 119.03,-109.37z"/>
  <path class="fil1" style="mask:url(#id14)" d="M6202.08 1124.67c65.74,0 119.03,48.97 119.03,109.37 0,60.41 -53.29,109.37 -119.03,109.37 -65.74,0 -119.03,-48.97 -119.03,-109.37 0,-60.41 53.29,-109.37 119.03,-109.37z"/>
  <path class="fil1" style="mask:url(#id16)" d="M6084.53 1945.91c65.74,0 119.03,48.97 119.03,109.37 0,60.41 -53.29,109.37 -119.03,109.37 -65.74,0 -119.03,-48.97 -119.03,-109.37 0,-60.41 53.29,-109.37 119.03,-109.37z"/>
  <path class="fil1" style="mask:url(#id18)" d="M3850.15 1310.5c106.43,0 192.71,79.28 192.71,177.08 0,97.8 -86.28,177.08 -192.71,177.08 -106.43,0 -192.71,-79.28 -192.71,-177.08 0,-97.8 86.28,-177.08 192.71,-177.08z"/>
  <path class="fil1" style="mask:url(#id20)" d="M3444.22 1757.77c106.43,0 192.71,79.28 192.71,177.08 0,97.8 -86.28,177.08 -192.71,177.08 -106.43,0 -192.71,-79.28 -192.71,-177.08 0,-97.8 86.28,-177.08 192.71,-177.08z"/>
  <path class="fil1" style="mask:url(#id22)" d="M2944.22 1361.93c106.43,0 192.71,79.28 192.71,177.08 0,97.8 -86.28,177.08 -192.71,177.08 -106.43,0 -192.71,-79.28 -192.71,-177.08 0,-97.8 86.28,-177.08 192.71,-177.08z"/>
  <path class="fil1" style="mask:url(#id24)" d="M2350.48 758.74c106.43,0 192.71,79.28 192.71,177.08 0,97.8 -86.28,177.08 -192.71,177.08 -106.43,0 -192.71,-79.28 -192.71,-177.08 0,-97.8 86.28,-177.08 192.71,-177.08z"/>
  <path class="fil1" style="mask:url(#id26)" d="M4485.13 1752.56c65.74,0 119.03,48.97 119.03,109.37 0,60.41 -53.29,109.37 -119.03,109.37 -65.74,0 -119.03,-48.97 -119.03,-109.37 0,-60.41 53.29,-109.37 119.03,-109.37z"/>
  <path class="fil1" style="mask:url(#id28)" d="M5095.27 934.85c65.74,0 119.03,48.97 119.03,109.37 0,60.41 -53.29,109.37 -119.03,109.37 -65.74,0 -119.03,-48.97 -119.03,-109.37 0,-60.41 53.29,-109.37 119.03,-109.37z"/>
  <path class="fil1" style="mask:url(#id30)" d="M4082.6 1275.07c65.74,0 119.03,48.97 119.03,109.37 0,60.41 -53.29,109.37 -119.03,109.37 -65.74,0 -119.03,-48.97 -119.03,-109.37 0,-60.41 53.29,-109.37 119.03,-109.37z"/>
  <path class="fil1" style="mask:url(#id32)" d="M7792.86 784.46c65.74,0 119.03,48.97 119.03,109.37 0,60.41 -53.29,109.37 -119.03,109.37 -65.74,0 -119.03,-48.97 -119.03,-109.37 0,-60.41 53.29,-109.37 119.03,-109.37z"/>
  <path class="fil1" style="mask:url(#id34)" d="M7969.94 1227.16c106.43,0 192.71,79.28 192.71,177.08 0,97.8 -86.28,177.08 -192.71,177.08 -106.43,0 -192.71,-79.28 -192.71,-177.08 0,-97.8 86.28,-177.08 192.71,-177.08z"/>
  <path class="fil1" style="mask:url(#id36)" d="M7564.01 1674.43c106.43,0 192.71,79.28 192.71,177.08 0,97.8 -86.28,177.08 -192.71,177.08 -106.43,0 -192.71,-79.28 -192.71,-177.08 0,-97.8 86.28,-177.08 192.71,-177.08z"/>
  <path class="fil1" style="mask:url(#id38)" d="M7064.01 1278.6c106.43,0 192.71,79.28 192.71,177.08 0,97.8 -86.28,177.08 -192.71,177.08 -106.43,0 -192.71,-79.28 -192.71,-177.08 0,-97.8 86.28,-177.08 192.71,-177.08z"/>
  <path class="fil1" style="mask:url(#id40)" d="M6470.27 675.4c106.43,0 192.71,79.28 192.71,177.08 0,97.8 -86.28,177.08 -192.71,177.08 -106.43,0 -192.71,-79.28 -192.71,-177.08 0,-97.8 86.28,-177.08 192.71,-177.08z"/>
  <path class="fil1" style="mask:url(#id42)" d="M8604.92 1669.23c65.74,0 119.03,48.97 119.03,109.37 0,60.41 -53.29,109.37 -119.03,109.37 -65.74,0 -119.03,-48.97 -119.03,-109.37 0,-60.41 53.29,-109.37 119.03,-109.37z"/>
  <path class="fil1" style="mask:url(#id44)" d="M8202.4 1191.74c65.74,0 119.03,48.97 119.03,109.37 0,60.41 -53.29,109.37 -119.03,109.37 -65.74,0 -119.03,-48.97 -119.03,-109.37 0,-60.41 53.29,-109.37 119.03,-109.37z"/>
  <path class="fil1" style="mask:url(#id46)" d="M8084.85 2012.98c65.74,0 119.03,48.97 119.03,109.37 0,60.41 -53.29,109.37 -119.03,109.37 -65.74,0 -119.03,-48.97 -119.03,-109.37 0,-60.41 53.29,-109.37 119.03,-109.37z"/>
  <path class="fil1" style="mask:url(#id48)" d="M2079.32 1414.66c106.43,0 192.71,79.28 192.71,177.08 0,97.8 -86.28,177.08 -192.71,177.08 -106.43,0 -192.71,-79.28 -192.71,-177.08 0,-97.8 86.28,-177.08 192.71,-177.08z"/>
  <path class="fil1" style="mask:url(#id50)" d="M1673.39 1861.94c106.43,0 192.71,79.28 192.71,177.08 0,97.8 -86.28,177.08 -192.71,177.08 -106.43,0 -192.71,-79.28 -192.71,-177.08 0,-97.8 86.28,-177.08 192.71,-177.08z"/>
  <path class="fil1" style="mask:url(#id52)" d="M1173.39 1466.1c106.43,0 192.71,79.28 192.71,177.08 0,97.8 -86.28,177.08 -192.71,177.08 -106.43,0 -192.71,-79.28 -192.71,-177.08 0,-97.8 86.28,-177.08 192.71,-177.08z"/>
  <path class="fil1" style="mask:url(#id54)" d="M8449.11 768.83c106.43,0 192.71,79.28 192.71,177.08 0,97.8 -86.28,177.08 -192.71,177.08 -106.43,0 -192.71,-79.28 -192.71,-177.08 0,-97.8 86.28,-177.08 192.71,-177.08z"/>
  <path class="fil1" style="mask:url(#id56)" d="M2714.3 1856.73c65.74,0 119.03,48.97 119.03,109.37 0,60.41 -53.29,109.37 -119.03,109.37 -65.74,0 -119.03,-48.97 -119.03,-109.37 0,-60.41 53.29,-109.37 119.03,-109.37z"/>
  <path class="fil1" style="mask:url(#id58)" d="M3324.44 1039.02c65.74,0 119.03,48.97 119.03,109.37 0,60.41 -53.29,109.37 -119.03,109.37 -65.74,0 -119.03,-48.97 -119.03,-109.37 0,-60.41 53.29,-109.37 119.03,-109.37z"/>
  <path class="fil1" style="mask:url(#id60)" d="M2311.77 1379.24c65.74,0 119.03,48.97 119.03,109.37 0,60.41 -53.29,109.37 -119.03,109.37 -65.74,0 -119.03,-48.97 -119.03,-109.37 0,-60.41 53.29,-109.37 119.03,-109.37z"/>
  <path class="fil1" style="mask:url(#id62)" d="M2194.22 2200.48c65.74,0 119.03,48.97 119.03,109.37 0,60.41 -53.29,109.37 -119.03,109.37 -65.74,0 -119.03,-48.97 -119.03,-109.37 0,-60.41 53.29,-109.37 119.03,-109.37z"/>
  <path class="fil1" style="mask:url(#id64)" d="M3736.86 376.49c106.43,0 192.71,79.28 192.71,177.08 0,97.8 -86.28,177.08 -192.71,177.08 -106.43,0 -192.71,-79.28 -192.71,-177.08 0,-97.8 86.28,-177.08 192.71,-177.08z"/>
  <path class="fil1" style="mask:url(#id66)" d="M2820.19 176.49c106.43,0 192.71,79.28 192.71,177.08 0,97.8 -86.28,177.08 -192.71,177.08 -106.43,0 -192.71,-79.28 -192.71,-177.08 0,-97.8 86.28,-177.08 192.71,-177.08z"/>
  <path class="fil1" style="mask:url(#id68)" d="M5736.86 426.49c106.43,0 192.71,79.28 192.71,177.08 0,97.8 -86.28,177.08 -192.71,177.08 -106.43,0 -192.71,-79.28 -192.71,-177.08 0,-97.8 86.28,-177.08 192.71,-177.08z"/>
  <path class="fil1" style="mask:url(#id70)" d="M7370.19 109.82c106.43,0 192.71,79.28 192.71,177.08 0,97.8 -86.28,177.08 -192.71,177.08 -106.43,0 -192.71,-79.28 -192.71,-177.08 0,-97.8 86.28,-177.08 192.71,-177.08z"/>
  <path class="fil1" style="mask:url(#id72)" d="M5136.86 43.16c106.43,0 192.71,79.28 192.71,177.08 0,97.8 -86.28,177.08 -192.71,177.08 -106.43,0 -192.71,-79.28 -192.71,-177.08 0,-97.8 86.28,-177.08 192.71,-177.08z"/>
  <path class="fil1" style="mask:url(#id74)" d="M8720.19 126.49c106.43,0 192.71,79.28 192.71,177.08 0,97.8 -86.28,177.08 -192.71,177.08 -106.43,0 -192.71,-79.28 -192.71,-177.08 0,-97.8 86.28,-177.08 192.71,-177.08z"/>
  <path class="fil1" style="mask:url(#id76)" d="M1723.42 887.29c106.43,0 192.71,79.28 192.71,177.08 0,97.8 -86.28,177.08 -192.71,177.08 -106.43,0 -192.71,-79.28 -192.71,-177.08 0,-97.8 86.28,-177.08 192.71,-177.08z"/>
  <path class="fil1" style="mask:url(#id78)" d="M826.46 2086.95c106.43,0 192.71,79.28 192.71,177.08 0,97.8 -86.28,177.08 -192.71,177.08 -106.43,0 -192.71,-79.28 -192.71,-177.08 0,-97.8 86.28,-177.08 192.71,-177.08z"/>
  <path class="fil1" style="mask:url(#id80)" d="M1240.08 962.29c65.74,0 119.03,48.97 119.03,109.37 0,60.41 -53.29,109.37 -119.03,109.37 -65.74,0 -119.03,-48.97 -119.03,-109.37 0,-60.41 53.29,-109.37 119.03,-109.37z"/>
  <path class="fil1" style="mask:url(#id82)" d="M1420.19 2427.53c65.74,0 119.03,48.97 119.03,109.37 0,60.41 -53.29,109.37 -119.03,109.37 -65.74,0 -119.03,-48.97 -119.03,-109.37 0,-60.41 53.29,-109.37 119.03,-109.37z"/>
  <g id="_105554462820608">
   <g>
    <rect class="fil1" transform="matrix(-1.21921E+000 -0 1.99447 1.21921 2330.23 2303.58)" width="194.44" height="2333.33"/>
    <rect class="fil1" transform="matrix(1.21921 -0 -1.99447E+000 1.21921 6323.29 2562.56)" width="194.44" height="2333.33"/>
   </g>
   <rect class="fil2 str0" transform="matrix(0.630295 -3.96896E-001 0.552793 0.343562 4151.7 2887.21)" width="666.83" height="730.1"/>
   <rect class="fil2 str0" transform="matrix(0.630295 -3.96896E-001 0.552793 0.343562 4571.99 2622.55)" width="666.83" height="730.1"/>
   <rect class="fil2 str0" transform="matrix(0.630295 -3.96896E-001 0.552793 0.343562 3748.1 2636.38)" width="666.83" height="730.1"/>
   <rect class="fil2 str0" transform="matrix(0.630295 -3.96896E-001 0.552793 0.343562 3344.5 2385.54)" width="666.83" height="730.1"/>
   <rect class="fil2 str0" transform="matrix(-6.30295E-001 0.396896 -5.52793E-001 -3.43562E-001 4925.84 4565)" width="666.83" height="730.1"/>
   <rect class="fil2 str0" transform="matrix(-6.30295E-001 0.396896 -5.52793E-001 -3.43562E-001 4505.54 4829.66)" width="666.83" height="730.1"/>
   <rect class="fil2 str0" transform="matrix(-6.30295E-001 0.396896 -5.52793E-001 -3.43562E-001 5329.43 4815.84)" width="666.83" height="730.1"/>
   <rect class="fil2 str0" transform="matrix(-6.30295E-001 0.396896 -5.52793E-001 -3.43562E-001 5733.03 5066.68)" width="666.83" height="730.1"/>
   <rect class="fil2 str0" transform="matrix(-6.30295E-001 0.396896 -5.52793E-001 -3.43562E-001 6725.21 3433.69)" width="666.83" height="730.1"/>
   <rect class="fil2 str0" transform="matrix(-6.30295E-001 0.396896 -5.52793E-001 -3.43562E-001 6304.91 3698.35)" width="666.83" height="730.1"/>
   <rect class="fil2 str0" transform="matrix(-6.30295E-001 0.396896 -5.52793E-001 -3.43562E-001 6708.51 3949.19)" width="666.83" height="730.1"/>
   <rect class="fil2 str0" transform="matrix(-6.30295E-001 0.396896 -5.52793E-001 -3.43562E-001 7112.1 4200.03)" width="666.83" height="730.1"/>
   <rect class="fil2 str0" transform="matrix(-6.30295E-001 0.396896 -5.52793E-001 -3.43562E-001 3192.56 3488.99)" width="666.83" height="730.1"/>
   <rect class="fil2 str0" transform="matrix(-6.30295E-001 0.396896 -5.52793E-001 -3.43562E-001 3596.16 3739.83)" width="666.83" height="730.1"/>
   <rect class="fil2 str0" transform="matrix(-6.30295E-001 0.396896 -5.52793E-001 -3.43562E-001 2788.96 3238.15)" width="666.83" height="730.1"/>
   <rect class="fil2 str0" transform="matrix(-6.30295E-001 0.396896 -5.52793E-001 -3.43562E-001 3175.86 4004.49)" width="666.83" height="730.1"/>
   <g>
    <polygon class="fil3" points="4555.29,3138.05 4975.59,2870.76 4975.59,2734.02 4555.29,3001.31 "/>
    <polygon id="1" class="fil2 str0" points="4555.29,3138.05 4975.59,2870.76 4975.59,2734.02 4555.29,3001.31 "/>
   </g>
   <g>
    <polygon class="fil3" points="4975.59,2873.38 5395.89,2606.1 5395.89,2469.37 4975.59,2736.65 "/>
    <polygon id="1" class="fil2 str0" points="4975.59,2873.38 5395.89,2606.1 5395.89,2469.37 4975.59,2736.65 "/>
   </g>
   <g>
    <polygon class="fil3" points="4555.29,3138.05 4151.7,2886.83 4151.7,2750.09 4555.29,3001.31 "/>
    <polygon id="1" class="fil2 str0" points="4555.29,3138.05 4151.7,2886.83 4151.7,2750.09 4555.29,3001.31 "/>
   </g>
   <g>
    <polygon class="fil3" points="3748.1,2638.29 4151.7,2886.83 4151.7,2750.09 3748.1,2501.55 "/>
    <polygon id="1" class="fil2 str0" points="3748.1,2638.29 4151.7,2886.83 4151.7,2750.09 3748.1,2501.55 "/>
   </g>
   <g>
    <polygon class="fil3" points="3748.1,2638.29 3344.5,2387.07 3344.5,2250.33 3748.1,2501.55 "/>
    <polygon id="1" class="fil2 str0" points="3748.1,2638.29 3344.5,2387.07 3344.5,2250.33 3748.1,2501.55 "/>
   </g>
   <g>
    <polygon class="fil3" points="4555.29,3001.31 4975.59,2734.02 4975.59,2597.29 4555.29,2864.57 "/>
    <polygon id="1" class="fil2 str0" points="4555.29,3001.31 4975.59,2734.02 4975.59,2597.29 4555.29,2864.57 "/>
   </g>
   <g>
    <polygon class="fil3" points="4975.59,2736.65 5395.89,2469.37 5395.89,2332.63 4975.59,2599.91 "/>
    <polygon id="1" class="fil2 str0" points="4975.59,2736.65 5395.89,2469.37 5395.89,2332.63 4975.59,2599.91 "/>
   </g>
   <g>
    <polygon class="fil3" points="4555.29,3001.31 4151.7,2750.09 4151.7,2613.35 4555.29,2864.57 "/>
    <polygon id="1" class="fil2 str0" points="4555.29,3001.31 4151.7,2750.09 4151.7,2613.35 4555.29,2864.57 "/>
   </g>
   <g>
    <polygon class="fil3" points="3748.1,2501.55 4151.7,2750.09 4151.7,2613.35 3748.1,2364.81 "/>
    <polygon id="1" class="fil2 str0" points="3748.1,2501.55 4151.7,2750.09 4151.7,2613.35 3748.1,2364.81 "/>
   </g>
   <g>
    <polygon class="fil3" points="3748.1,2501.55 3344.5,2250.33 3344.5,2113.59 3748.1,2364.81 "/>
    <polygon id="1" class="fil2 str0" points="3748.1,2501.55 3344.5,2250.33 3344.5,2113.59 3748.1,2364.81 "/>
   </g>
   <rect class="fil4 str0" transform="matrix(0.630295 -3.96896E-001 0.552793 0.343562 4571.99 2346.45)" width="666.83" height="730.1"/>
   <g>
    <polygon class="fil3" points="4555.29,2864.57 4975.59,2597.29 4975.59,2460.55 4555.29,2727.83 "/>
    <polygon id="1" class="fil2 str0" points="4555.29,2864.57 4975.59,2597.29 4975.59,2460.55 4555.29,2727.83 "/>
   </g>
   <g>
    <polygon class="fil3" points="3748.1,2364.81 4168.4,2097.52 4168.4,1960.78 3748.1,2228.07 "/>
    <polygon id="1" class="fil2 str0" points="3748.1,2364.81 4168.4,2097.52 4168.4,1960.78 3748.1,2228.07 "/>
   </g>
   <g>
    <polygon class="fil3" points="5481.02,3301.96 5884.62,3550.51 5884.62,3413.77 5481.02,3165.23 "/>
    <polygon id="1" class="fil2 str0" points="5481.02,3301.96 5884.62,3550.51 5884.62,3413.77 5481.02,3165.23 "/>
   </g>
   <g>
    <polygon class="fil3" points="3748.1,2364.81 3344.5,2113.59 3344.5,1976.85 3748.1,2228.07 "/>
    <polygon id="1" class="fil2 str0" points="3748.1,2364.81 3344.5,2113.59 3344.5,1976.85 3748.1,2228.07 "/>
   </g>
   <rect class="fil4 str0" transform="matrix(0.630295 -3.96896E-001 0.552793 0.343562 3344.5 1974.61)" width="666.83" height="730.1"/>
   <rect class="fil4 str0" transform="matrix(0.630295 -3.96896E-001 0.552793 0.343562 3748.1 2364.81)" width="666.83" height="730.1"/>
   <g>
    <polygon class="fil3" points="4555.29,2727.83 4975.59,2460.55 4975.59,2323.81 4555.29,2591.09 "/>
    <polygon id="1" class="fil2 str0" points="4555.29,2727.83 4975.59,2460.55 4975.59,2323.81 4555.29,2591.09 "/>
   </g>
   <g>
    <polygon class="fil3" points="4555.29,2727.83 4151.7,2476.61 4151.7,2339.88 4555.29,2591.09 "/>
    <polygon id="1" class="fil2 str0" points="4555.29,2727.83 4151.7,2476.61 4151.7,2339.88 4555.29,2591.09 "/>
   </g>
   <g>
    <polygon class="fil3" points="4555.29,2864.57 4151.7,2613.35 4151.7,2476.61 4555.29,2727.83 "/>
    <polygon id="1" class="fil2 str0" points="4555.29,2864.57 4151.7,2613.35 4151.7,2476.61 4555.29,2727.83 "/>
   </g>
   <rect class="fil4 str0" transform="matrix(0.630295 -3.96896E-001 0.552793 0.343562 4151.7 2340.26)" width="666.83" height="730.1"/>
   <g>
    <polygon class="fil3" points="6304.91,3700.98 6725.21,3433.7 6725.21,3296.96 6304.91,3564.24 "/>
    <polygon id="1" class="fil2 str0" points="6304.91,3700.98 6725.21,3433.7 6725.21,3296.96 6304.91,3564.24 "/>
   </g>
   <g>
    <polygon class="fil3" points="6304.91,3564.24 6725.21,3296.96 6725.21,3160.22 6304.91,3427.5 "/>
    <polygon id="1" class="fil2 str0" points="6304.91,3564.24 6725.21,3296.96 6725.21,3160.22 6304.91,3427.5 "/>
   </g>
   <rect class="fil4 str0" transform="matrix(0.630295 -3.96896E-001 0.552793 0.343562 5901.32 3174.04)" width="666.83" height="730.1"/>
   <g>
    <polygon class="fil3" points="5884.62,3687.25 6304.91,3419.96 6304.91,3283.23 5884.62,3550.51 "/>
    <polygon id="1" class="fil2 str0" points="5884.62,3687.25 6304.91,3419.96 6304.91,3283.23 5884.62,3550.51 "/>
   </g>
   <g>
    <polygon class="fil3" points="5884.62,3550.51 6304.91,3283.23 6304.91,3146.49 5884.62,3413.77 "/>
    <polygon id="1" class="fil2 str0" points="5884.62,3550.51 6304.91,3283.23 6304.91,3146.49 5884.62,3413.77 "/>
   </g>
   <rect class="fil4 str0" transform="matrix(0.630295 -3.96896E-001 0.552793 0.343562 5481.02 3160.31)" width="666.83" height="730.1"/>
   <g>
    <polygon class="fil3" points="5481.02,3438.7 5884.62,3687.25 5884.62,3550.51 5481.02,3301.96 "/>
    <polygon id="1" class="fil2 str0" points="5481.02,3438.7 5884.62,3687.25 5884.62,3550.51 5481.02,3301.96 "/>
   </g>
   <g>
    <polygon class="fil3" points="5481.02,3575.44 5884.62,3823.99 5884.62,3687.25 5481.02,3438.7 "/>
    <polygon id="1" class="fil2 str0" points="5481.02,3575.44 5884.62,3823.99 5884.62,3687.25 5481.02,3438.7 "/>
   </g>
   <g>
    <polygon class="fil3" points="5481.02,3712.18 5884.62,3960.73 5884.62,3823.99 5481.02,3575.44 "/>
    <polygon id="1" class="fil2 str0" points="5481.02,3712.18 5884.62,3960.73 5884.62,3823.99 5481.02,3575.44 "/>
   </g>
   <g>
    <polygon class="fil3" points="6288.21,4211.56 6708.51,3944.28 6708.51,3807.54 6288.21,4074.83 "/>
    <polygon id="1" class="fil2 str0" points="6288.21,4211.56 6708.51,3944.28 6708.51,3807.54 6288.21,4074.83 "/>
   </g>
   <g>
    <polygon class="fil3" points="6288.21,4074.83 6708.51,3807.54 6708.51,3670.8 6288.21,3938.09 "/>
    <polygon id="1" class="fil2 str0" points="6288.21,4074.83 6708.51,3807.54 6708.51,3670.8 6288.21,3938.09 "/>
   </g>
   <rect class="fil4 str0" transform="matrix(0.630295 -3.96896E-001 0.552793 0.343562 5884.61 3684.63)" width="666.83" height="730.1"/>
   <g>
    <polygon class="fil3" points="6288.21,4211.56 5884.62,3963.99 5884.62,3827.25 6288.21,4074.83 "/>
    <polygon id="1" class="fil2 str0" points="6288.21,4211.56 5884.62,3963.99 5884.62,3827.25 6288.21,4074.83 "/>
   </g>
   <g>
    <polygon class="fil3" points="6288.21,4074.83 5884.62,3827.25 5884.62,3690.51 6288.21,3938.09 "/>
    <polygon id="1" class="fil2 str0" points="6288.21,4074.83 5884.62,3827.25 5884.62,3690.51 6288.21,3938.09 "/>
   </g>
   <g>
    <polygon class="fil3" points="6691.8,4465.07 6288.2,4213.85 6288.2,4077.12 6691.8,4328.33 "/>
    <polygon id="1" class="fil2 str0" points="6691.8,4465.07 6288.2,4213.85 6288.2,4077.12 6691.8,4328.33 "/>
   </g>
   <g>
    <polygon class="fil3" points="6691.8,4328.33 6288.2,4077.12 6288.2,3940.38 6691.8,4191.59 "/>
    <polygon id="1" class="fil2 str0" points="6691.8,4328.33 6288.2,4077.12 6288.2,3940.38 6691.8,4191.59 "/>
   </g>
   <g>
    <polygon class="fil3" points="6691.8,4191.59 7112.1,3924.31 7112.1,3787.57 6691.8,4054.85 "/>
    <polygon id="1" class="fil2 str0" points="6691.8,4191.59 7112.1,3924.31 7112.1,3787.57 6691.8,4054.85 "/>
   </g>
   <g>
    <polygon class="fil3" points="6691.8,4191.59 6288.2,3940.38 6288.2,3803.64 6691.8,4054.85 "/>
    <polygon id="1" class="fil2 str0" points="6691.8,4191.59 6288.2,3940.38 6288.2,3803.64 6691.8,4054.85 "/>
   </g>
   <rect class="fil4 str0" transform="matrix(0.630295 -3.96896E-001 0.552793 0.343562 6288.2 3801.39)" width="666.83" height="730.1"/>
   <g>
    <polygon class="fil3" points="6691.8,4328.33 7112.1,4061.05 7112.1,3924.31 6691.8,4191.59 "/>
    <polygon id="1" class="fil2 str0" points="6691.8,4328.33 7112.1,4061.05 7112.1,3924.31 6691.8,4191.59 "/>
   </g>
   <g>
    <polygon class="fil3" points="6691.8,4465.07 7112.1,4197.79 7112.1,4061.05 6691.8,4328.33 "/>
    <polygon id="1" class="fil2 str0" points="6691.8,4465.07 7112.1,4197.79 7112.1,4061.05 6691.8,4328.33 "/>
   </g>
   <g>
    <polygon class="fil3" points="2368.67,3502.82 1965.07,3251.6 1965.07,3114.86 2368.67,3366.08 "/>
    <polygon id="1" class="fil2 str0" points="2368.67,3502.82 1965.07,3251.6 1965.07,3114.86 2368.67,3366.08 "/>
   </g>
   <g>
    <polygon class="fil3" points="2368.67,3366.08 1965.07,3114.86 1965.07,2978.12 2368.67,3229.34 "/>
    <polygon id="1" class="fil2 str0" points="2368.67,3366.08 1965.07,3114.86 1965.07,2978.12 2368.67,3229.34 "/>
   </g>
   <g>
    <polygon class="fil3" points="2368.67,3229.34 2788.96,2962.05 2788.96,2825.31 2368.67,3092.6 "/>
    <polygon id="1" class="fil2 str0" points="2368.67,3229.34 2788.96,2962.05 2788.96,2825.31 2368.67,3092.6 "/>
   </g>
   <g>
    <polygon class="fil3" points="2368.67,3229.34 1965.07,2978.12 1965.07,2841.38 2368.67,3092.6 "/>
    <polygon id="1" class="fil2 str0" points="2368.67,3229.34 1965.07,2978.12 1965.07,2841.38 2368.67,3092.6 "/>
   </g>
   <rect class="fil4 str0" transform="matrix(0.630295 -3.96896E-001 0.552793 0.343562 1965.07 2839.14)" width="666.83" height="730.1"/>
   <g>
    <polygon class="fil3" points="2368.67,3366.08 2788.96,3098.79 2788.96,2962.05 2368.67,3229.34 "/>
    <polygon id="1" class="fil2 str0" points="2368.67,3366.08 2788.96,3098.79 2788.96,2962.05 2368.67,3229.34 "/>
   </g>
   <g>
    <polygon class="fil3" points="2368.67,3502.82 2788.96,3235.53 2788.96,3098.79 2368.67,3366.08 "/>
    <polygon id="1" class="fil2 str0" points="2368.67,3502.82 2788.96,3235.53 2788.96,3098.79 2368.67,3366.08 "/>
   </g>
   <g>
    <polygon class="fil3" points="2368.67,3505.11 2772.26,3753.65 2772.26,3616.91 2368.67,3368.37 "/>
    <polygon id="1" class="fil2 str0" points="2368.67,3505.11 2772.26,3753.65 2772.26,3616.91 2368.67,3368.37 "/>
   </g>
   <g>
    <polygon class="fil3" points="2368.67,3368.37 2772.26,3616.91 2772.26,3480.18 2368.67,3231.63 "/>
    <polygon id="1" class="fil2 str0" points="2368.67,3368.37 2772.26,3616.91 2772.26,3480.18 2368.67,3231.63 "/>
   </g>
   <rect class="fil4 str0" transform="matrix(0.630295 -3.96896E-001 0.552793 0.343562 2368.67 3231.63)" width="666.83" height="730.1"/>
   <g>
    <polygon class="fil3" points="3175.86,4004.49 2772.26,3753.27 2772.26,3616.53 3175.86,3867.75 "/>
    <polygon id="1" class="fil2 str0" points="3175.86,4004.49 2772.26,3753.27 2772.26,3616.53 3175.86,3867.75 "/>
   </g>
   <g>
    <polygon class="fil3" points="3175.86,3867.75 3596.16,3600.47 3596.16,3463.73 3175.86,3731.01 "/>
    <polygon id="1" class="fil2 str0" points="3175.86,3867.75 3596.16,3600.47 3596.16,3463.73 3175.86,3731.01 "/>
   </g>
   <g>
    <polygon class="fil3" points="3175.86,3867.75 2772.26,3616.53 2772.26,3479.79 3175.86,3731.01 "/>
    <polygon id="1" class="fil2 str0" points="3175.86,3867.75 2772.26,3616.53 2772.26,3479.79 3175.86,3731.01 "/>
   </g>
   <g>
    <polygon class="fil3" points="3175.86,3731.01 3596.16,3463.73 3596.16,3326.99 3175.86,3594.27 "/>
    <polygon id="1" class="fil2 str0" points="3175.86,3731.01 3596.16,3463.73 3596.16,3326.99 3175.86,3594.27 "/>
   </g>
   <g>
    <polygon class="fil3" points="3175.86,3594.27 3596.16,3326.99 3596.16,3190.25 3175.86,3457.53 "/>
    <polygon id="1" class="fil2 str0" points="3175.86,3594.27 3596.16,3326.99 3596.16,3190.25 3175.86,3457.53 "/>
   </g>
   <g>
    <polygon class="fil3" points="3175.86,3594.27 2772.26,3343.06 2772.26,3206.32 3175.86,3457.53 "/>
    <polygon id="1" class="fil2 str0" points="3175.86,3594.27 2772.26,3343.06 2772.26,3206.32 3175.86,3457.53 "/>
   </g>
   <rect class="fil4 str0" transform="matrix(0.630295 -3.96896E-001 0.552793 0.343562 2772.26 3206.7)" width="666.83" height="730.1"/>
   <g>
    <polygon class="fil3" points="3175.86,3731.01 2772.26,3479.79 2772.26,3343.06 3175.86,3594.27 "/>
    <polygon id="1" class="fil2 str0" points="3175.86,3731.01 2772.26,3479.79 2772.26,3343.06 3175.86,3594.27 "/>
   </g>
   <g>
    <polygon class="fil3" points="3175.86,4004.49 3596.16,3737.2 3596.16,3600.47 3175.86,3867.75 "/>
    <polygon id="1" class="fil2 str0" points="3175.86,4004.49 3596.16,3737.2 3596.16,3600.47 3175.86,3867.75 "/>
   </g>
   <g>
    <polygon class="fil3" points="4505.54,4829.66 4101.94,4578.45 4101.94,4441.71 4505.54,4692.93 "/>
    <polygon id="1" class="fil2 str0" points="4505.54,4829.66 4101.94,4578.45 4101.94,4441.71 4505.54,4692.93 "/>
   </g>
   <g>
    <polygon class="fil3" points="4505.54,4692.93 4925.84,4425.64 4925.84,4288.9 4505.54,4556.19 "/>
    <polygon id="1" class="fil2 str0" points="4505.54,4692.93 4925.84,4425.64 4925.84,4288.9 4505.54,4556.19 "/>
   </g>
   <g>
    <polygon class="fil3" points="4505.54,4692.93 4101.94,4441.71 4101.94,4304.97 4505.54,4556.19 "/>
    <polygon id="1" class="fil2 str0" points="4505.54,4692.93 4101.94,4441.71 4101.94,4304.97 4505.54,4556.19 "/>
   </g>
   <g>
    <polygon class="fil3" points="4505.54,4556.19 4925.84,4288.9 4925.84,4152.16 4505.54,4419.45 "/>
    <polygon id="1" class="fil2 str0" points="4505.54,4556.19 4925.84,4288.9 4925.84,4152.16 4505.54,4419.45 "/>
   </g>
   <g>
    <polygon class="fil3" points="4505.54,4419.45 4925.84,4152.16 4925.84,4015.42 4505.54,4282.71 "/>
    <polygon id="1" class="fil2 str0" points="4505.54,4419.45 4925.84,4152.16 4925.84,4015.42 4505.54,4282.71 "/>
   </g>
   <g>
    <polygon class="fil3" points="4505.54,4419.45 4101.94,4168.23 4101.94,4031.49 4505.54,4282.71 "/>
    <polygon id="1" class="fil2 str0" points="4505.54,4419.45 4101.94,4168.23 4101.94,4031.49 4505.54,4282.71 "/>
   </g>
   <g>
    <polygon class="fil3" points="4505.54,4556.19 4101.94,4304.97 4101.94,4168.23 4505.54,4419.45 "/>
    <polygon id="1" class="fil2 str0" points="4505.54,4556.19 4101.94,4304.97 4101.94,4168.23 4505.54,4419.45 "/>
   </g>
   <g>
    <polygon class="fil3" points="4505.54,4829.66 4925.84,4562.38 4925.84,4425.64 4505.54,4692.93 "/>
    <polygon id="1" class="fil2 str0" points="4505.54,4829.66 4925.84,4562.38 4925.84,4425.64 4505.54,4692.93 "/>
   </g>
   <rect class="fil4 str0" transform="matrix(0.630295 -3.96896E-001 0.552793 0.343562 4101.94 4031.88)" width="666.83" height="730.1"/>
   <g>
    <polygon class="fil3" points="2351.96,4020.6 2755.55,4269.15 2755.55,4132.41 2351.96,3883.86 "/>
    <polygon id="1" class="fil2 str0" points="2351.96,4020.6 2755.55,4269.15 2755.55,4132.41 2351.96,3883.86 "/>
   </g>
   <g>
    <polygon class="fil3" points="2351.96,3883.86 2755.55,4132.41 2755.55,3995.67 2351.96,3747.12 "/>
    <polygon id="1" class="fil2 str0" points="2351.96,3883.86 2755.55,4132.41 2755.55,3995.67 2351.96,3747.12 "/>
   </g>
   <rect class="fil4 str0" transform="matrix(0.630295 -3.96896E-001 0.552793 0.343562 2351.96 3747.13)" width="666.83" height="730.1"/>
   <g>
    <polygon class="fil3" points="3681.64,4845.78 4085.23,5094.32 4085.23,4957.58 3681.64,4709.04 "/>
    <polygon id="1" class="fil2 str0" points="3681.64,4845.78 4085.23,5094.32 4085.23,4957.58 3681.64,4709.04 "/>
   </g>
   <g>
    <polygon class="fil3" points="3681.64,4709.04 4085.23,4957.58 4085.23,4820.85 3681.64,4572.3 "/>
    <polygon id="1" class="fil2 str0" points="3681.64,4709.04 4085.23,4957.58 4085.23,4820.85 3681.64,4572.3 "/>
   </g>
   <rect class="fil4 str0" transform="matrix(0.630295 -3.96896E-001 0.552793 0.343562 3681.64 4572.3)" width="666.83" height="730.1"/>
   <g>
    <polygon class="fil3" points="4505.53,4831.95 4909.13,5080.5 4909.13,4943.76 4505.53,4695.22 "/>
    <polygon id="1" class="fil2 str0" points="4505.53,4831.95 4909.13,5080.5 4909.13,4943.76 4505.53,4695.22 "/>
   </g>
   <g>
    <polygon class="fil3" points="4505.53,4695.22 4909.13,4943.76 4909.13,4807.02 4505.53,4558.48 "/>
    <polygon id="1" class="fil2 str0" points="4505.53,4695.22 4909.13,4943.76 4909.13,4807.02 4505.53,4558.48 "/>
   </g>
   <rect class="fil4 str0" transform="matrix(0.630295 -3.96896E-001 0.552793 0.343562 4505.53 4558.48)" width="666.83" height="730.1"/>
   <g>
    <polygon class="fil3" points="2755.55,4134.7 3175.85,3867.42 3175.85,3730.68 2755.55,3997.96 "/>
    <polygon id="1" class="fil2 str0" points="2755.55,4134.7 3175.85,3867.42 3175.85,3730.68 2755.55,3997.96 "/>
   </g>
   <g>
    <polygon class="fil3" points="2755.55,4271.44 3175.85,4004.16 3175.85,3867.42 2755.55,4134.7 "/>
    <polygon id="1" class="fil2 str0" points="2755.55,4271.44 3175.85,4004.16 3175.85,3867.42 2755.55,4134.7 "/>
   </g>
   <g>
    <polygon class="fil3" points="4085.23,4957.58 4505.53,4690.3 4505.53,4553.57 4085.23,4820.85 "/>
    <polygon id="1" class="fil2 str0" points="4085.23,4957.58 4505.53,4690.3 4505.53,4553.57 4085.23,4820.85 "/>
   </g>
   <g>
    <polygon class="fil3" points="4085.23,5094.32 4505.53,4827.04 4505.53,4690.3 4085.23,4957.58 "/>
    <polygon id="1" class="fil2 str0" points="4085.23,5094.32 4505.53,4827.04 4505.53,4690.3 4085.23,4957.58 "/>
   </g>
   <g>
    <polygon class="fil3" points="5312.73,5331.34 4909.13,5080.12 4909.13,4943.38 5312.73,5194.6 "/>
    <polygon id="1" class="fil2 str0" points="5312.73,5331.34 4909.13,5080.12 4909.13,4943.38 5312.73,5194.6 "/>
   </g>
   <g>
    <polygon class="fil3" points="5312.73,5194.6 4909.13,4943.38 4909.13,4806.64 5312.73,5057.86 "/>
    <polygon id="1" class="fil2 str0" points="5312.73,5194.6 4909.13,4943.38 4909.13,4806.64 5312.73,5057.86 "/>
   </g>
   <g>
    <polygon class="fil3" points="5312.73,5057.86 5733.03,4790.58 5733.03,4653.84 5312.73,4921.12 "/>
    <polygon id="1" class="fil2 str0" points="5312.73,5057.86 5733.03,4790.58 5733.03,4653.84 5312.73,4921.12 "/>
   </g>
   <g>
    <polygon class="fil3" points="5312.73,5057.86 4909.13,4806.64 4909.13,4669.91 5312.73,4921.12 "/>
    <polygon id="1" class="fil2 str0" points="5312.73,5057.86 4909.13,4806.64 4909.13,4669.91 5312.73,4921.12 "/>
   </g>
   <rect class="fil4 str0" transform="matrix(0.630295 -3.96896E-001 0.552793 0.343562 4909.13 4667.66)" width="666.83" height="730.1"/>
   <g>
    <polygon class="fil3" points="5312.73,5194.6 5733.03,4927.31 5733.03,4790.58 5312.73,5057.86 "/>
    <polygon id="1" class="fil2 str0" points="5312.73,5194.6 5733.03,4927.31 5733.03,4790.58 5312.73,5057.86 "/>
   </g>
   <g>
    <polygon class="fil3" points="5312.73,5331.34 5733.03,5064.05 5733.03,4927.31 5312.73,5194.6 "/>
    <polygon id="1" class="fil2 str0" points="5312.73,5331.34 5733.03,5064.05 5733.03,4927.31 5312.73,5194.6 "/>
   </g>
   <rect class="fil2 str0" transform="matrix(-6.30295E-001 0.396896 -5.52793E-001 -3.43562E-001 1917.04 4804.68)" width="666.83" height="730.1"/>
   <g>
    <polygon class="fil3" points="1496.74,5069.34 1093.15,4818.13 1093.15,4681.39 1496.74,4932.6 "/>
    <polygon id="1" class="fil2 str0" points="1496.74,5069.34 1093.15,4818.13 1093.15,4681.39 1496.74,4932.6 "/>
   </g>
   <g>
    <polygon class="fil3" points="1496.74,4932.6 1093.15,4681.39 1093.15,4544.65 1496.74,4795.86 "/>
    <polygon id="1" class="fil2 str0" points="1496.74,4932.6 1093.15,4681.39 1093.15,4544.65 1496.74,4795.86 "/>
   </g>
   <rect class="fil4 str0" transform="matrix(0.630295 -3.96896E-001 0.552793 0.343562 1513.44 4277.74)" width="666.83" height="730.1"/>
   <g>
    <polygon class="fil3" points="1917.04,4802.06 2337.34,4534.77 2337.34,4398.03 1917.04,4665.32 "/>
    <polygon id="1" class="fil2 str0" points="1917.04,4802.06 2337.34,4534.77 2337.34,4398.03 1917.04,4665.32 "/>
   </g>
   <g>
    <polygon class="fil3" points="1496.74,4795.86 1917.04,4528.58 1917.04,4391.84 1496.74,4659.12 "/>
    <polygon id="1" class="fil2 str0" points="1496.74,4795.86 1917.04,4528.58 1917.04,4391.84 1496.74,4659.12 "/>
   </g>
   <g>
    <polygon class="fil3" points="1496.74,4795.86 1093.15,4544.65 1093.15,4407.91 1496.74,4659.12 "/>
    <polygon id="1" class="fil2 str0" points="1496.74,4795.86 1093.15,4544.65 1093.15,4407.91 1496.74,4659.12 "/>
   </g>
   <rect class="fil4 str0" transform="matrix(0.630295 -3.96896E-001 0.552793 0.343562 1093.15 4405.66)" width="666.83" height="730.1"/>
   <g>
    <polygon class="fil3" points="1496.74,4932.6 1917.04,4665.32 1917.04,4528.58 1496.74,4795.86 "/>
    <polygon id="1" class="fil2 str0" points="1496.74,4932.6 1917.04,4665.32 1917.04,4528.58 1496.74,4795.86 "/>
   </g>
   <g>
    <polygon class="fil3" points="1496.74,5069.34 1917.04,4802.06 1917.04,4665.32 1496.74,4932.6 "/>
    <polygon id="1" class="fil2 str0" points="1496.74,5069.34 1917.04,4802.06 1917.04,4665.32 1496.74,4932.6 "/>
   </g>
   <g>
    <polygon class="fil3" points="1917.04,4667.94 2337.34,4400.66 2337.34,4263.92 1917.04,4531.2 "/>
    <polygon id="1" class="fil2 str0" points="1917.04,4667.94 2337.34,4400.66 2337.34,4263.92 1917.04,4531.2 "/>
   </g>
   <g>
    <polygon class="fil3" points="2335.26,4401.99 2755.55,4134.7 2755.55,3997.96 2335.26,4265.25 "/>
    <polygon id="1" class="fil2 str0" points="2335.26,4401.99 2755.55,4134.7 2755.55,3997.96 2335.26,4265.25 "/>
   </g>
   <rect class="fil4 str0" transform="matrix(0.630295 -3.96896E-001 0.552793 0.343562 1931.66 4009.5)" width="666.83" height="730.1"/>
   <rect class="fil4 str0" transform="matrix(0.630295 -3.96896E-001 0.552793 0.343562 2843.12 5100.63)" width="666.83" height="730.1"/>
   <g>
    <polygon class="fil3" points="3664.94,5224.87 4085.23,4957.59 4085.23,4820.85 3664.94,5088.13 "/>
    <polygon id="1" class="fil2 str0" points="3664.94,5224.87 4085.23,4957.59 4085.23,4820.85 3664.94,5088.13 "/>
   </g>
   <rect class="fil4 str0" transform="matrix(0.630295 -3.96896E-001 0.552793 0.343562 3261.34 4832.38)" width="666.83" height="730.1"/>
   <g>
    <polygon class="fil3" points="3244.64,5621.36 3664.94,5354.07 3664.94,5217.33 3244.64,5484.62 "/>
    <polygon id="1" class="fil2 str0" points="3244.64,5621.36 3664.94,5354.07 3664.94,5217.33 3244.64,5484.62 "/>
   </g>
   <g>
    <polygon class="fil3" points="3244.64,5487.24 3664.94,5219.96 3664.94,5083.22 3244.64,5350.51 "/>
    <polygon id="1" class="fil2 str0" points="3244.64,5487.24 3664.94,5219.96 3664.94,5083.22 3244.64,5350.51 "/>
   </g>
   <g>
    <polygon class="fil3" points="3244.64,5623.98 2841.05,5372.77 2841.05,5236.03 3244.64,5487.25 "/>
    <polygon id="1" class="fil2 str0" points="3244.64,5623.98 2841.05,5372.77 2841.05,5236.03 3244.64,5487.25 "/>
   </g>
   <g>
    <polygon class="fil3" points="3244.64,5487.25 2841.05,5236.03 2841.05,5099.29 3244.64,5350.51 "/>
    <polygon id="1" class="fil2 str0" points="3244.64,5487.25 2841.05,5236.03 2841.05,5099.29 3244.64,5350.51 "/>
   </g>
  </g>
  <path class="fil1" style="mask:url(#id84)" d="M709.79 837.99c65.74,0 119.03,48.97 119.03,109.37 0,60.41 -53.29,109.37 -119.03,109.37 -65.74,0 -119.03,-48.97 -119.03,-109.37 0,-60.41 53.29,-109.37 119.03,-109.37z"/>
  <path class="fil1" style="mask:url(#id86)" d="M347.2 1958.66c65.74,0 119.03,48.97 119.03,109.37 0,60.41 -53.29,109.37 -119.03,109.37 -65.74,0 -119.03,-48.97 -119.03,-109.37 0,-60.41 53.29,-109.37 119.03,-109.37z"/>
 </g>
</svg>
