<?xml version="1.0" encoding="UTF-8" standalone="no"?>
<svg xmlns="http://www.w3.org/2000/svg" xml:space="preserve" width="35.1001mm" height="36.6687mm" version="1.0" style="shape-rendering:geometricPrecision; text-rendering:geometricPrecision; image-rendering:optimizeQuality; fill-rule:evenodd; clip-rule:evenodd"
viewBox="0 0 590 618"
 xmlns:xlink="http://www.w3.org/1999/xlink">
 <defs>
  <style type="text/css">
   <![CDATA[
    .str2 {stroke:#373535;stroke-width:2.97;stroke-miterlimit:20;stroke-opacity:0.5}
    .str1 {stroke:white;stroke-width:2.97;stroke-miterlimit:20}
    .str0 {stroke:#373535;stroke-width:2.97;stroke-miterlimit:20}
    .fil7 {fill:none}
    .fil8 {fill:white}
    .fil6 {fill:#E6E7E8}
    .fil13 {fill:#D2D4D5}
    .fil0 {fill:#BDBFC1}
    .fil15 {fill:#AAACAE}
    .fil4 {fill:#96989B}
    .fil12 {fill:#858789}
    .fil5 {fill:#737476}
    .fil11 {fill:#EE305A}
    .fil10 {fill:#EE3338}
    .fil2 {fill:#00B0F0}
    .fil9 {fill:#0098DB}
    .fil16 {fill:white;fill-opacity:0.501961}
    .fil3 {fill:url(#id0)}
    .fil1 {fill:url(#id1)}
    .fil14 {fill:url(#id2)}
   ]]>
  </style>
  <radialGradient id="id0" gradientUnits="userSpaceOnUse" gradientTransform="matrix(-8.06984E-001 0.464618 1.11022E-016 0.754889 294 -18)" cx="162.52" cy="233.48" r="165.74" fx="162.52" fy="233.48">
   <stop offset="0" style="stop-opacity:1; stop-color:#E1DCDB"/>
   <stop offset="1" style="stop-opacity:1; stop-color:#BDBFC1"/>
  </radialGradient>
  <radialGradient id="id1" gradientUnits="userSpaceOnUse" gradientTransform="matrix(1 -5.73263E-001 0.999999 0.573309 -436 356)" cx="296.26" cy="435.6" r="133.75" fx="296.26" fy="435.6">
   <stop offset="0" style="stop-opacity:1; stop-color:white"/>
   <stop offset="1" style="stop-opacity:1; stop-color:#E6E7E8"/>
  </radialGradient>
  <radialGradient id="id2" gradientUnits="userSpaceOnUse" gradientTransform="matrix(0.990799 -1.96847E-008 -1.98673E-008 0.999989 3 0)" cx="296.27" cy="229.69" r="71.92" fx="296.27" fy="229.69">
   <stop offset="0" style="stop-opacity:1; stop-color:white"/>
   <stop offset="1" style="stop-opacity:0; stop-color:white"/>
  </radialGradient>
 </defs>
 <g id="Layer_x0020_1">
  <metadata id="CorelCorpID_0Corel-Layer"/>
  <g id="_105555224395904">
   <path class="fil0" d="M280.8 302.68l11.76 6.81 0 28.06 -11.76 -6.81 0 -28.06z"/>
   <path class="fil1 str0" d="M28.77 435.6l267.5 -153.34 267.49 153.34 -267.49 153.34 -267.5 -153.34z"/>
   <path class="fil2 str0" d="M296.27 31.36l267.49 154.01 0 250.23 -267.49 -154.01 0 -250.23zm66.87 101.06l133.75 77 0 125.11 -133.75 -77.01 0 -125.11z"/>
   <path class="fil3 str0" d="M296.27 31.36l-267.5 154.01 0 250.23 267.5 -154.01 0 -250.22z"/>
   <path class="fil4 str0" d="M589.45 170.58l-25.69 14.79 -1.04 249.63 -266.45 153.94 -0.09 25.85 292.93 -166.19 0.35 -278.03z"/>
   <path class="fil5 str0" d="M3.08 170.58l25.69 14.79 1.04 249.63 266.45 153.94 0.08 25.85 -292.93 -166.19 -0.35 -278.03z"/>
   <path class="fil6 str0" d="M2.99 170.75l25.79 14.62 267.5 -154.01 267.49 154.01 24.16 -13.91 -293.33 -169.75 -291.61 169.03z"/>
   <path class="fil4 str0" d="M363.14 132.42l25.69 14.79 0.7 96.71 -26.39 13.61 0 -125.11z"/>
   <path class="fil6 str0" d="M363.41 257.69l133.47 76.85 0 -27.89 -107.9 -62.44 -25.57 13.49z"/>
   <path class="fil7 str1" d="M296.27 229.69l0 -58.23"/>
   <rect class="fil7 str0" transform="matrix(1.19302 -6.93588E-001 -0 1.19302 63.656 191.45)" width="75.77" height="158.89"/>
   <circle class="fil8" transform="matrix(1.19302 -1.72511E-001 -0 1.19302 102.211 264.618)" r="11.69"/>
   <path class="fil9" d="M154.05 328.45l0 -66.8c-5.09,0.59 -3.38,2.17 -8.28,4.26 -5.4,2.31 -5.02,3.07 -10.63,0.4 -2.57,-1.23 -2.61,-1.84 -4.25,1.33 -0.61,-0.04 -3.91,2.77 -6.91,3.29 -3.39,0.59 -18.17,8.21 -20.99,7.72 -7.77,-1.33 -6.53,-5.04 -9.44,1.81 -1.06,2.48 -9.55,2.85 -12.08,2.7 0,1.33 -2.13,0.85 -2.66,3.02 -0.24,1.01 -4.42,8.7 -5.85,9.2 -6.02,2.12 -4.38,1.85 -11.16,1.43l1.86 0.12 0 84.07 90.4 -52.55z"/>
   <path class="fil10" d="M126.91 154.68c2.2,7.95 -0.42,17.31 1.59,25.93 2.52,10.86 6.38,-1.35 6.38,22.72 0,13.6 -0.24,9.61 -2.13,21.12 -1.77,10.81 -1.98,24.87 4.25,35.34 0.68,1.15 9.54,18.51 9.57,18.66 1.06,6.62 2.12,3.47 2.12,13.95 0,3.8 0.42,23.97 1.06,25.57 1.75,4.32 1.07,7.78 1.07,12.82l3.24 -2.36 0 -189.56 -27.15 15.78z"/>
   <path class="fil10" d="M108.86 165.17c0,8.28 -26.31,31.05 -19.69,35.31 2.69,1.73 6.38,3.68 6.38,6.77 3.28,0.21 7.13,9.43 4.25,16.21 -1.86,4.38 -2,14.5 -1.53,21.04 0.56,7.71 -4.45,6.15 -9.54,15.01 -3.5,6.1 2.69,15.01 -3.76,22.05 -4.23,-0.27 -5.09,6.96 -4.3,11.9 1.45,9.02 11.69,20.24 11.69,24.11 0,6.63 -2.69,8.23 0,14.88 0.8,2 -1.03,6.31 -3.19,6.18 0,0.32 -24.64,37.79 -25.51,39.57l0 -186.77 45.2 -26.28z"/>
   <path class="fil2" d="M120.93 158.16c0.64,8.96 -9.42,30.38 -6.78,41.76 2.75,11.82 2.86,10.54 6.38,20.59 3.06,8.73 4.25,8.52 4.25,17.27 0,1.45 2.66,4.06 2.66,10.26 0,10.21 -0.71,20.68 0.53,30.86 0.77,6.31 -1.07,7.56 1.06,16.01 0.63,2.48 5.85,34.05 5.85,34.91 0,10.44 -1.04,7.38 3.72,7.67 0,-9.8 -1.67,-40.03 0,-46.23 2.28,-8.44 1.59,-12.65 1.59,-21.16 0,-4.43 -0.71,-10.28 0.53,-14.31 1.06,-3.43 0.17,-11.48 1.59,-17.44 0.37,-1.56 -0.4,-46.25 -1.06,-47.9 -2.58,-6.38 -5.11,-13.21 -4.78,-19.96 1.06,-21.9 16.2,-28.33 17.59,-31.59 0,-0.01 -33.13,19.48 -33.13,19.26z"/>
   <path class="fil8" d="M101.12 285.46c-0.77,0.34 -1.19,0.99 -2.39,0.91 -0.05,-0 -4.24,0.48 -4.78,0.5 -1.67,0.06 -3.53,0.58 -4.25,0.53 0,1.46 0.62,0.9 2.39,1.74 0.93,0.44 6.37,0.66 7.71,0.75 0.86,0.05 0.24,3.59 -2.66,4.09 -0.7,0.12 -0.96,0.93 -2.39,1.18 -2.96,0.51 -0.65,2.37 -6.11,2.28 -2.13,-0.04 -3.53,0.12 -5.05,1.28 -1.63,1.24 1.91,1.93 2.92,0.98 0.88,-0.82 6.17,-1.95 7.44,-1.66 2.5,0.56 1.97,0.65 4.52,0.81 -0.3,-0.02 -5.06,3.4 -6.11,3.34 0,1.48 -5.57,3.74 0.53,2.69 2.11,-0.37 -1.19,-1.67 3.45,-1.38 2.8,0.18 2.13,-0.57 2.13,3.32 -0.79,-0.05 -4.7,2.63 -2.66,2.76 3.15,0.2 -0.59,1.56 1.86,1.71 0,0.16 0.53,2.96 0.8,3.24 -0.01,0 -1.72,1.2 -1.86,1.48 -1.15,-0.07 -6.82,6.46 -1.06,4.19 4.66,-1.84 5.05,-1.28 9.83,-0.98 0,2.16 -4.06,6.9 -3.72,7.74 0.33,0.81 5.83,0.58 2.39,4.14 -1.02,1.05 -5.58,5.75 -5.58,7.09 1.26,0.08 2.07,1.99 4.25,2.12 3.65,0.23 2.2,0.67 0.53,2.43 -2.02,2.13 -3.39,5.28 -5.32,7.11 0.57,0.04 6.73,-0.53 7.44,-0.6 0,0.82 -2.22,3.58 -2.66,4.08 -0.63,-0.04 -0.44,1.83 -1.59,2.03 -0.56,0.1 -1.63,0.77 -1.86,1.21 -0.42,-0.03 -1.06,3.47 -1.06,4.45 0.31,0.02 2.39,-1.14 2.39,-2.24 0,-1.88 0.27,-0.1 0.27,-1.58 1.1,-0.3 7.71,-3.3 7.71,-4.83 0.26,0.02 4.42,-4.24 5.85,-4.15 0,-0.25 1.35,-0.98 -1.86,-1.18 -5.52,-0.35 -5.11,0.49 -3.19,-2.59 0.06,0 2.85,-1.15 2.92,-1.15 0.58,-1.13 1.06,0.03 1.06,-1.26 0,-0.64 1.5,-0.93 -0.8,-0.85 -5.08,0.19 -4.46,0.74 -3.72,-2.36 0.34,-1.43 1.75,-1.4 2.92,-2.21 0.02,-0.02 3.45,-3.01 3.45,-4.04 -1.79,-0.11 -5.98,-0.71 -7.18,-0.18 0,-0.93 1.33,-0.6 1.33,-2.57 0,-1.16 0.27,-1.65 0.27,-1.84 0.38,0.02 0.75,-0.7 1.06,-1 0,-1.06 0.25,-1.31 -0.8,-1.38 0,-0.37 -1.87,-3.04 -1.06,-2.99 0,-0.19 2.84,-2.92 3.45,-3.51 -2.17,-0.13 -0.73,-1.11 -1.59,-1.16 -0.22,-0.89 -0.56,-1.63 -0.27,-1.61 0,-0.48 1.11,-0.93 1.33,-0.98 6.87,-1.65 5.91,-2.12 10.1,-6.01 -0.41,0.39 -7.12,1.3 -8.24,1.35 -2.96,0.11 -6.7,1.3 -9.57,1.53 -1.45,0.11 -2.68,0.83 -2.79,0.36 -0.16,-0.68 -1.03,-1.82 -0.4,-2.42 1.27,-1.19 1.1,-2.6 1.86,-3.6 0.22,-0.29 0.53,-4.01 0.53,-4.48 0,-2.43 11.9,-0.24 14.35,-0.43l1.86 -0.42c0.17,-0.01 1.32,-0.18 1.33,-0.18 1.18,-0.28 4.44,-4.43 3.19,-3.26 -0.32,0.3 -7.1,1.42 -8.24,1.35 -4.17,-0.26 -3.47,0.21 -7.18,0.35 -6.71,0.25 -2.53,0.1 -1.33,-2.74 1.04,-2.44 0.7,-2.57 4.25,-3.19 2.52,-0.44 3.56,-1.11 6.11,-0.95 3.87,0.24 3.73,-1.58 3.19,-1.4 -2.02,0.71 -3.5,0.43 -5.85,-0.1 -2.9,-0.65 -0.74,-1.01 0.8,-1.28 1.35,-0.23 1.24,-1.72 6.64,-1.98 2.45,-0.12 2.18,-1.19 2.66,-1.16 0.12,0.01 2.95,-2.34 1.33,-1.78 -2.7,0.94 -5.68,1.21 -8.77,1.58 -0.77,0.09 -5.05,1.02 -5.32,1 0,-3.13 1.59,-2.96 1.59,-3.36 2.22,0.14 8.77,-1.99 8.77,-3.97 -0.94,0.21 -4.23,0.71 -5.05,0.75 -5.04,0.24 -5.81,1.81 -9.57,3.12 -2.26,0.79 -2.17,-3.01 -6.91,1.43z"/>
   <path class="fil8" d="M178.99 239.49l88.74 -50.87 21.16 12.26 -88.74 50.87 -21.16 -12.26z"/>
   <path class="fil7 str1" d="M288.89 200.88l0 -71.27"/>
   <path class="fil7 str1" d="M178.99 239.49l0 -71.27"/>
   <path class="fil7 str1" d="M267.73 188.62l0 -71.27"/>
   <path class="fil9" d="M254.19 171.73l14.53 8.66 0.39 26.94 -14.93 -9.31 0 -26.29z"/>
   <path class="fil9" d="M248.76 174.42l14.53 8.66 0.39 26.94 -14.93 -9.31 0 -26.29z"/>
   <path class="fil2" d="M263.43 183.75l5.29 -3.35 0.14 26.61 -5.43 3.03 0 -26.29z"/>
   <path class="fil0" d="M250.87 175.68l4.01 -1.93 12.72 7.36 -4.16 2.64 -12.56 -8.07z"/>
   <path class="fil10" d="M244.42 182.49l12.58 7.5 0.34 23.32 -12.92 -8.06 0 -22.76z"/>
   <path class="fil10" d="M239.72 184.81l12.58 7.5 0.34 23.32 -12.92 -8.06 0 -22.76z"/>
   <path class="fil11" d="M252.43 192.89l4.58 -2.9 0.12 23.04 -4.7 2.63 0 -22.76z"/>
   <path class="fil0" d="M241.55 185.91l3.47 -1.67 11.01 6.37 -3.6 2.28 -10.88 -6.99z"/>
   <path class="fil10" d="M236.71 180.69l14.49 8.63 0.39 26.86 -14.88 -9.28 0 -26.21z"/>
   <path class="fil10" d="M231.55 183.69l14.49 8.63 0.39 26.86 -14.88 -9.28 0 -26.21z"/>
   <path class="fil11" d="M246.18 192.99l5.27 -3.34 0.14 26.53 -5.41 3.02 0 -26.21z"/>
   <path class="fil0" d="M233.66 184.95l4 -1.93 12.68 7.34 -4.15 2.63 -12.53 -8.04z"/>
   <path class="fil9" d="M231.55 185.74l13.89 8.27 0.38 25.74 -14.26 -8.89 0 -25.12z"/>
   <path class="fil9" d="M226.37 188.3l13.89 8.27 0.38 25.74 -14.26 -8.89 0 -25.12z"/>
   <path class="fil2" d="M240.39 197.21l5.05 -3.2 0.14 25.43 -5.19 2.9 0 -25.12z"/>
   <path class="fil0" d="M228.38 189.5l3.83 -1.85 12.15 7.03 -3.98 2.52 -12 -7.71z"/>
   <path class="fil12" d="M223.66 188.67l14.53 8.66 0.39 26.94 -14.93 -9.31 0 -26.29z"/>
   <path class="fil12" d="M218.23 191.36l14.53 8.66 0.39 26.94 -14.93 -9.31 0 -26.29z"/>
   <path class="fil13" d="M232.9 200.69l5.29 -3.35 0.14 26.61 -5.43 3.03 0 -26.29z"/>
   <path class="fil0" d="M220.34 192.62l4.01 -1.93 12.72 7.36 -4.16 2.64 -12.56 -8.07z"/>
   <path class="fil12" d="M215.74 193.35l14.53 8.66 0.39 26.94 -14.93 -9.31 0 -26.29z"/>
   <path class="fil12" d="M210.32 196.04l14.53 8.66 0.39 26.94 -14.93 -9.31 0 -26.29z"/>
   <path class="fil13" d="M224.99 205.37l5.29 -3.35 0.14 26.61 -5.43 3.03 0 -26.29z"/>
   <path class="fil0" d="M212.43 197.3l4.01 -1.93 12.72 7.36 -4.16 2.64 -12.56 -8.07z"/>
   <path class="fil10" d="M273.18 168.16l12.58 7.5 0.34 23.32 -12.92 -8.06 0 -22.76z"/>
   <path class="fil10" d="M268.6 171.06l12.58 7.5 0.34 23.32 -12.92 -8.06 0 -22.76z"/>
   <path class="fil11" d="M281.18 178.56l4.58 -2.9 0.12 23.04 -4.7 2.63 0 -22.76z"/>
   <path class="fil0" d="M269.99 171.89l3.79 -1.99 11.01 6.37 -3.6 2.28 -11.19 -6.67z"/>
   <path class="fil10" d="M208.35 197.76l14.49 8.63 0.39 26.86 -14.88 -9.28 0 -26.21z"/>
   <path class="fil10" d="M203.19 200.76l14.49 8.63 0.39 26.86 -14.88 -9.28 0 -26.21z"/>
   <path class="fil11" d="M217.82 210.06l5.27 -3.34 0.14 26.53 -5.41 3.02 0 -26.21z"/>
   <path class="fil0" d="M205.29 202.02l4 -1.93 12.68 7.34 -4.15 2.63 -12.53 -8.04z"/>
   <path class="fil12" d="M203.24 206.18l12.79 7.62 0.35 23.71 -13.14 -8.19 0 -23.14z"/>
   <path class="fil12" d="M198.46 208.55l12.79 7.62 0.35 23.71 -13.14 -8.19 0 -23.14z"/>
   <path class="fil13" d="M211.38 216.76l4.66 -2.95 0.13 23.43 -4.78 2.67 0 -23.14z"/>
   <path class="fil0" d="M200.32 209.66l3.53 -1.7 11.2 6.48 -3.67 2.32 -11.06 -7.1z"/>
   <path class="fil9" d="M189.38 209.6l14.53 8.66 0.39 26.94 -14.93 -9.31 0 -26.29z"/>
   <path class="fil9" d="M183.95 212.29l14.53 8.66 0.39 26.94 -14.93 -9.31 0 -26.29z"/>
   <path class="fil2" d="M198.63 221.62l5.29 -3.35 0.14 26.61 -5.43 3.03 0 -26.29z"/>
   <path class="fil0" d="M186.07 213.55l4.01 -1.93 12.72 7.36 -4.16 2.64 -12.56 -8.07z"/>
   <path class="fil8" d="M178.99 203.85l88.74 -50.87 21.16 12.26 -88.74 50.87 -21.16 -12.26z"/>
   <path class="fil9" d="M265.24 131.04l14.53 8.66 0.39 26.94 -14.93 -9.31 0 -26.29z"/>
   <path class="fil9" d="M259.81 133.73l14.53 8.66 0.39 26.94 -14.93 -9.31 0 -26.29z"/>
   <path class="fil2" d="M274.48 143.05l5.29 -3.35 0.14 26.61 -5.43 3.03 0 -26.29z"/>
   <path class="fil0" d="M261.92 134.99l4.01 -1.93 12.72 7.36 -4.16 2.64 -12.56 -8.07z"/>
   <path class="fil9" d="M255.37 136.79l14.53 8.66 0.39 26.94 -14.93 -9.31 0 -26.29z"/>
   <path class="fil9" d="M249.94 139.48l14.53 8.66 0.39 26.94 -14.93 -9.31 0 -26.29z"/>
   <path class="fil2" d="M264.61 148.81l5.29 -3.35 0.14 26.61 -5.43 3.03 0 -26.29z"/>
   <path class="fil0" d="M252.05 140.74l4.01 -1.93 12.72 7.36 -4.16 2.64 -12.56 -8.07z"/>
   <path class="fil12" d="M247.39 141.2l14.26 8.5 0.39 26.44 -14.65 -9.13 0 -25.8z"/>
   <path class="fil12" d="M242.06 143.84l14.26 8.5 0.39 26.44 -14.65 -9.13 0 -25.8z"/>
   <path class="fil13" d="M256.46 152.99l5.19 -3.29 0.14 26.12 -5.33 2.98 0 -25.8z"/>
   <path class="fil0" d="M244.13 145.07l3.93 -1.9 12.48 7.22 -4.09 2.59 -12.33 -7.92z"/>
   <path class="fil10" d="M241.89 150.06l12.58 7.5 0.34 23.32 -12.92 -8.06 0 -22.76z"/>
   <path class="fil10" d="M237.31 152.96l12.58 7.5 0.34 23.32 -12.92 -8.06 0 -22.76z"/>
   <path class="fil11" d="M249.89 160.46l4.58 -2.9 0.12 23.04 -4.7 2.63 0 -22.76z"/>
   <path class="fil0" d="M238.7 153.79l3.79 -1.99 11.01 6.37 -3.6 2.28 -11.19 -6.67z"/>
   <path class="fil10" d="M232.64 156.3l12.58 7.5 0.34 23.32 -12.92 -8.06 0 -22.76z"/>
   <path class="fil10" d="M228.06 159.2l12.58 7.5 0.34 23.32 -12.92 -8.06 0 -22.76z"/>
   <path class="fil11" d="M240.65 166.7l4.58 -2.9 0.12 23.04 -4.7 2.63 0 -22.76z"/>
   <path class="fil0" d="M229.45 160.03l3.79 -1.99 11.01 6.37 -3.6 2.28 -11.19 -6.67z"/>
   <path class="fil10" d="M225.07 160.53l12.58 7.5 0.34 23.32 -12.92 -8.06 0 -22.76z"/>
   <path class="fil10" d="M220.49 163.43l12.58 7.5 0.34 23.32 -12.92 -8.06 0 -22.76z"/>
   <path class="fil11" d="M233.08 170.93l4.58 -2.9 0.12 23.04 -4.7 2.63 0 -22.76z"/>
   <path class="fil0" d="M221.88 164.26l3.79 -1.99 11.01 6.37 -3.6 2.28 -11.19 -6.67z"/>
   <path class="fil10" d="M217.06 164.64l12.58 7.5 0.34 23.32 -12.92 -8.06 0 -22.76z"/>
   <path class="fil10" d="M212.49 167.55l12.58 7.5 0.34 23.32 -12.92 -8.06 0 -22.76z"/>
   <path class="fil11" d="M225.07 175.05l4.58 -2.9 0.12 23.04 -4.7 2.63 0 -22.76z"/>
   <path class="fil0" d="M213.88 168.38l3.79 -1.99 11.01 6.37 -3.6 2.28 -11.19 -6.67z"/>
   <path class="fil12" d="M207.9 167.09l14.95 8.91 0.41 27.71 -15.35 -9.57 0 -27.04z"/>
   <path class="fil12" d="M202.31 169.85l14.95 8.91 0.41 27.71 -15.35 -9.57 0 -27.04z"/>
   <path class="fil13" d="M217.41 179.45l5.44 -3.45 0.15 27.37 -5.59 3.12 0 -27.04z"/>
   <path class="fil0" d="M204.48 171.15l4.12 -1.99 13.08 7.57 -4.28 2.72 -12.92 -8.3z"/>
   <path class="fil12" d="M200.72 171.96l12.97 7.72 0.35 24.03 -13.32 -8.3 0 -23.46z"/>
   <path class="fil12" d="M195.88 174.36l12.97 7.73 0.35 24.03 -13.32 -8.3 0 -23.46z"/>
   <path class="fil13" d="M208.97 182.68l4.72 -2.99 0.13 23.74 -4.85 2.71 0 -23.46z"/>
   <path class="fil0" d="M197.76 175.48l3.58 -1.72 11.35 6.57 -3.71 2.36 -11.21 -7.2z"/>
   <path class="fil10" d="M191.9 175.65l13.38 7.97 0.36 24.8 -13.74 -8.57 0 -24.2z"/>
   <path class="fil10" d="M187.03 178.73l13.38 7.97 0.36 24.8 -13.74 -8.57 0 -24.2z"/>
   <path class="fil11" d="M200.42 186.71l4.87 -3.09 0.13 24.5 -5 2.79 0 -24.2z"/>
   <path class="fil0" d="M188.51 179.62l4.03 -2.12 11.71 6.78 -3.83 2.43 -11.9 -7.09z"/>
   <path class="fil8" d="M178.99 168.22l88.74 -50.87 21.16 12.26 -88.74 50.87 -21.16 -12.26z"/>
   <path class="fil7 str1" d="M199.57 249.08l0.58 -68.6"/>
   <path class="fil14" d="M296.27 301.61c-39.36,0 -71.26,-32.2 -71.26,-71.92 0,-39.72 31.9,-71.92 71.26,-71.92 39.36,0 71.26,32.2 71.26,71.92 0,39.72 -31.91,71.92 -71.26,71.92z"/>
   <rect class="fil2" transform="matrix(0.0598968 -3.43367E-002 0.0654255 0.0375062 185.708 449.857)" width="421.69" height="386.06"/>
   <rect class="fil10" transform="matrix(0.0598968 -3.43367E-002 0.0654255 0.0375062 210.967 435.378)" width="421.69" height="386.06"/>
   <rect class="fil9" transform="matrix(0.0598968 -3.43367E-002 0.0654255 0.0375062 236.226 420.9)" width="421.69" height="386.06"/>
   <rect class="fil2" transform="matrix(0.0598968 -3.43367E-002 0.0654255 0.0375062 261.485 435.38)" width="421.69" height="386.06"/>
   <rect class="fil10" transform="matrix(0.0598968 -3.43367E-002 0.0654255 0.0375062 210.967 464.338)" width="421.69" height="386.06"/>
   <rect class="fil9" transform="matrix(0.0598968 -3.43367E-002 0.0654255 0.0375062 236.226 449.859)" width="421.69" height="386.06"/>
   <rect class="fil10" transform="matrix(0.0598968 -3.43367E-002 0.0654255 0.0375062 261.485 406.421)" width="421.69" height="386.06"/>
   <rect class="fil9" transform="matrix(0.0598968 -3.43367E-002 0.0654255 0.0375062 312.001 406.421)" width="421.69" height="386.06"/>
   <rect class="fil2" transform="matrix(0.0598968 -3.43367E-002 0.0654255 0.0375062 286.742 391.94)" width="421.69" height="386.06"/>
   <rect class="fil10" transform="matrix(0.0598968 -3.43367E-002 0.0654255 0.0375062 337.26 420.901)" width="421.69" height="386.06"/>
   <rect class="fil2" transform="matrix(0.0598968 -3.43367E-002 0.0654255 0.0375062 312.001 435.38)" width="421.69" height="386.06"/>
   <rect class="fil2" transform="matrix(0.0594935 -3.43367E-002 0.0649851 0.0375062 261.485 435.38)" width="421.69" height="386.06"/>
   <rect class="fil2" transform="matrix(0.0594935 -3.43367E-002 0.0649851 0.0375062 261.485 464.339)" width="421.69" height="386.06"/>
   <rect class="fil10" transform="matrix(0.0598968 -3.43367E-002 0.0654255 0.0375062 286.403 478.82)" width="421.69" height="386.06"/>
   <rect class="fil9" transform="matrix(0.0598968 -3.43367E-002 0.0654255 0.0375062 261.315 493.299)" width="421.69" height="386.06"/>
   <rect class="fil9" transform="matrix(0.0598968 -3.43367E-002 0.0654255 0.0375062 312.001 464.339)" width="421.69" height="386.06"/>
   <rect class="fil2" transform="matrix(0.0598968 -3.43367E-002 0.0654255 0.0375062 362.518 435.382)" width="421.69" height="386.06"/>
   <rect class="fil10" transform="matrix(0.0598968 -3.43367E-002 0.0654255 0.0375062 337.26 449.861)" width="421.69" height="386.06"/>
   <rect class="fil9" transform="matrix(0.0598968 -3.43367E-002 0.0654255 0.0375062 387.777 449.862)" width="421.69" height="386.06"/>
   <rect class="fil10" transform="matrix(0.0598968 -3.43367E-002 0.0654255 0.0375062 337.26 478.82)" width="421.69" height="386.06"/>
   <rect class="fil2" transform="matrix(0.0598968 -3.43367E-002 0.0654255 0.0375062 312.002 493.301)" width="421.69" height="386.06"/>
   <rect class="fil2" transform="matrix(0.0598968 -3.43367E-002 0.0654255 0.0375062 236.226 391.94)" width="421.69" height="386.06"/>
   <rect class="fil10" transform="matrix(0.0598968 -3.43367E-002 0.0654255 0.0375062 210.967 406.419)" width="421.69" height="386.06"/>
   <rect class="fil9" transform="matrix(0.0598968 -3.43367E-002 0.0654255 0.0375062 160.449 435.377)" width="421.69" height="386.06"/>
   <rect class="fil10" transform="matrix(0.0598968 -3.43367E-002 0.0654255 0.0375062 286.742 362.981)" width="421.69" height="386.06"/>
   <rect class="fil10" transform="matrix(0.0598968 -3.43367E-002 0.0654255 0.0375062 413.036 435.383)" width="421.69" height="386.06"/>
   <rect class="fil9" transform="matrix(0.0598968 -3.43367E-002 0.0654255 0.0375062 387.779 420.905)" width="421.69" height="386.06"/>
   <rect class="fil9" transform="matrix(0.0598968 -3.43367E-002 0.0654255 0.0375062 312.001 377.461)" width="421.69" height="386.06"/>
   <rect class="fil2" transform="matrix(0.0598968 -3.43367E-002 0.0654255 0.0375062 337.26 391.942)" width="421.69" height="386.06"/>
   <path class="fil8" d="M231.5 359l49.3 -28.26 11.76 6.81 -49.3 28.26 -11.76 -6.81z"/>
   <path class="fil0" d="M234.63 290.47l17.35 10.05 0 41.4 -17.35 -10.05 0 -41.4z"/>
   <path class="fil8" d="M161.9 373.57l72.73 -41.7 17.35 10.05 -72.74 41.7 -17.35 -10.05z"/>
   <path class="fil12" d="M161.9 332.17l17.35 10.05 0 41.4 -17.35 -10.05 0 -41.4z"/>
   <path class="fil12" d="M251.98 317.01l35.27 21.05 -0.03 35.31 -36.23 -20.74 0.99 -35.62z"/>
   <path class="fil8" d="M179.25 383.62l72.73 -41.7 34.69 20.1 -72.73 41.7 -34.69 -20.1z"/>
   <path class="fil15" d="M213.94 424.42l0.58 -44.66 -12.24 7.02 -0.58 44.66 12.24 -7.01z"/>
   <path class="fil15" d="M286.67 382.72l0 -20.7 -72.73 41.7 0 20.7 72.73 -41.7z"/>
   <path class="fil8" d="M161.9 332.17l72.73 -41.7 17.35 10.05 -72.74 41.7 -17.35 -10.05z"/>
   <path class="fil15" d="M251.98 341.92l0 -41.4 -72.73 41.7 0 41.4 72.73 -41.7z"/>
   <path class="fil8" d="M150.16 355.66l11.74 -5.83 52.61 29.97 -12.23 6.97 -52.13 -31.11z"/>
   <path class="fil12" d="M150.16 355.66l52.13 31.11 -0.58 44.66 -51.21 -31.06 -0.33 -44.72z"/>
   <path class="fil15" d="M298.91 375.71l0.58 -44.66 -12.24 7.02 -0.58 44.66 12.24 -7.02z"/>
   <path class="fil8" d="M251.98 317.01l0 -12.98 47.51 27.06 -12.23 6.97 -35.27 -21.05z"/>
   <path class="fil8" d="M234.76 399.93l67.43 -38.66 49.9 28.91 -67.43 38.66 -49.9 -28.91z"/>
   <path class="fil15" d="M352.1 394.2l0 -4.02 -68.65 37.95 0 4.02 68.65 -37.95z"/>
   <path class="fil12" d="M234.76 403.95l0 -4.02 48.68 28.2 0 4.02 -21.48 -12.45 0.31 26.46 -7.67 -4.51 -0.31 -26.39 -19.54 -11.32z"/>
   <path class="fil15" d="M261.97 419.71l0.31 26.46 71.29 -39.13 0.9 -3.1 -51.03 28.21 -21.48 -12.45z"/>
   <path class="fil8" d="M304.27 454.83l74.65 -42.79 17.8 10.32 -74.65 42.79 -17.8 -10.32z"/>
   <path class="fil12" d="M385.83 390.53l47.09 27.87 -0.03 36.24 -48.07 -27.55 1.01 -36.56z"/>
   <path class="fil8" d="M322.08 465.15l74.65 -42.8 35.6 20.63 -74.65 42.8 -35.61 -20.63z"/>
   <path class="fil15" d="M432.33 464.23l0 -21.24 -74.65 42.8 0 21.24 74.65 -42.8z"/>
   <path class="fil12" d="M292.22 436.46l53.5 31.93 -0.59 45.84 -52.56 -31.87 -0.34 -45.89z"/>
   <path class="fil15" d="M444.89 457.03l0.59 -45.84 -13.15 7.61 0 45.43 12.56 -7.2z"/>
   <path class="fil8" d="M385.83 390.52l10.89 -7.06 48.76 27.77 -13.15 7.56 -46.5 -28.27z"/>
   <path class="fil12" d="M339.88 432.98l17.8 10.32 0 42.49 -17.8 -10.32 0 -42.49z"/>
   <path class="fil8" d="M339.88 432.97l74.65 -42.79 17.8 10.32 -74.65 42.79 -17.8 -10.32z"/>
   <path class="fil15" d="M432.33 442.99l0 -42.49 -74.65 42.8 0 42.49 74.65 -42.8z"/>
   <path class="fil8" d="M292.22 436.46l12.05 -5.98 54 30.76 -12.56 7.15 -53.5 -31.93z"/>
   <path class="fil15" d="M357.68 507.02l0.59 -45.84 -12.56 7.2 -0.59 45.84 12.56 -7.2z"/>
   <path class="fil16 str2" d="M496.89 209.42l-120.9 -69.61 0.35 110.91 120.55 69.86 0 -111.17z"/>
   <path class="fil8" d="M429.28 177.73c-28.71,45.26 -25.85,107.7 6.45,136.77l13.97 12.57c0,-6.38 -0.13,-103.62 3.2,-136.16l10.16 5.62c3.27,1.81 -1.25,142.47 0.17,136.52 0.37,-1.55 32.34,19.6 31.68,17.96 -2.34,-5.8 -0.41,-130.12 2,-135.79 0,0 -67.61,-37.27 -67.61,-37.49z"/>
  </g>
 </g>
</svg>
