<?xml version="1.0" encoding="UTF-8" standalone="no"?>
<svg width="67px" height="70px" viewBox="0 0 67 70" version="1.1" xmlns="http://www.w3.org/2000/svg" xmlns:xlink="http://www.w3.org/1999/xlink">
     <defs>
        <radialGradient cx="51.6080979%" cy="71.3681029%" fx="51.6080979%" fy="71.3681029%" r="44.7186193%" gradientTransform="translate(0.516081,0.713681),scale(1.000000,0.956031),translate(-0.516081,-0.713681)" id="radialGradient-1">
            <stop stop-color="#CBB7A0" offset="0%"></stop>
            <stop stop-color="#BAA388" offset="47.8431%"></stop>
            <stop stop-color="#AA8F71" offset="100%"></stop>
        </radialGradient>
    </defs>
    <g id="Page-1" stroke="none" stroke-width="1" fill="none" fill-rule="evenodd">
        <g id="medzvedzik" transform="translate(0.000000, 1.000000)">
            <path d="M21.84,5.37 C21.08,3.76 21.31,2.94 23.93,2.51 C25.12,2.31 24.4,3.68 25.19,1.32 C26.8,1.32 24.24,0.76 27.7,0.76 C27.7,0.93 30.7,2.94 30.77,2.99 C29.29,6.7 30.87,5.14 31.89,5.22 C34,5.39 32.94,5.5 34.68,5.5 C34.68,6.74 36.64,5.78 37.47,5.78 C37.47,4.18 36.17,5.5 37.47,3.55 C38.31,3.55 37.29,3.3 38.87,2.43 C40.51,1.53 40.27,1.96 40.27,0.75 C42.21,-0.54 45.07,1.15 45.3,2.98 C45.45,4.17 47.13,5.68 46.14,6.89 C45.28,7.94 44.81,9.68 43.35,9.68 C44.08,9.68 43.25,15.21 46.17,15.21 C47.53,19.3 43.25,23.09 51.73,23.09 C53.05,23.09 55.36,23.22 55.36,21.69 L56.48,20.85 C57.27,21.64 56.87,19.31 59.34,19.31 C60.17,19.31 63.04,15.92 65.52,21.13 C65.92,21.96 65.55,22.8 65.45,23.89 C65.35,25.03 64.06,26.99 63.81,27.17 C63.13,27.68 63.86,28.95 60.95,28.95 C59.51,28.95 59.83,30.35 56.2,30.35 C55.49,30.35 54,31.19 53.13,31.19 C53.13,33.99 46.71,30.17 46.71,35.94 C48.48,35.94 48.93,50.84 49.01,51.24 C49.56,53.89 50.72,53.57 51.66,55.85 C52.01,56.7 51.69,56.97 53.62,56.97 C57.04,56.97 54.24,57.5 57.53,56.13 C58.79,54.81 59.18,55 61.1,55.77 C61.1,56 63.02,57.91 62.78,59.4 C62.13,63.39 63.51,59.75 62.08,63.31 C61.96,63.31 60.35,64.43 59.29,64.43 C59.29,66.25 51.26,66.94 49.51,66.94 L46.72,66.94 C46.72,68.93 43.98,66.1 42.81,66.1 C39.45,66.1 37.14,64.42 36.94,64.42 C36.14,62.81 32.55,64.42 31.07,64.42 C29.27,64.42 27.6,65.26 24.92,65.26 C21.8,65.26 22.87,67.22 20.17,67.22 C20.17,67.67 20.27,67.5 19.61,67.5 C19.61,68.31 18.01,68.9 16.82,68.62 C15.06,68.2 16.17,67.78 14.31,67.78 C14.05,67.78 6.92,64.99 5.93,64.99 C5.93,64.54 5.54,64.15 5.09,64.15 C5.09,63.52 4.68,59.81 4.37,59.2 C4,59.2 5.95,58.94 5.95,57.76 C5.95,56.16 8.65,56.19 9.77,56.19 C10.68,56.83 10.51,58.15 12.28,58.15 C12.28,58.99 12.77,58.29 13.75,58.29 C13.75,58.26 14.03,57.75 14.03,56.61 C14.09,56.61 16.04,56.33 17.1,56.33 C17.1,55.63 18.22,56.38 18.22,54.37 C18.22,53.22 18.78,54.47 18.78,52.41 C18.78,49.11 19.06,54.33 18.78,48.22 C18.62,44.65 18.48,42.9 19.34,39.28 C19.38,39.09 19.06,36.64 19.06,35.65 C15.13,35.65 14.38,32.68 11.24,32.3 C10.36,32.19 5.76,28.81 5.09,28.67 C-0.66,27.42 2.19,24.65 0.62,23.08 C0.08,22.54 0.31,21.99 0.9,21.68 C2.28,20.96 1.83,21.36 2.26,20.85 C3.46,19.45 3.59,18.22 8.16,21.4 C8.16,22.72 21.67,27.58 22.41,24.47 C23.07,21.67 21.01,21.22 21.01,20.28 C21.01,17.92 18.22,19.33 21.85,16.09 C24.88,13.38 19.97,16.61 21.57,12.74 L22.13,12.18 C23.86,10.45 24.43,8.49 26.04,6.87 L25.76,7.43 C24.8,7.83 22.9,7.5 22.41,6.31 L21.85,5.33 L21.84,5.37 Z" id="Shape" stroke="#373535" stroke-width="0.61" fill="url(#radialGradient-1)"></path>
            <path d="M62.38,22.54 C62.87,23.53 61.9,25.38 60.97,25.19 C60.44,25.08 60.12,24.42 60.17,23.63 C59.51,23.19 59.18,22.53 59.41,22.05 C59.83,21.17 61.89,21.55 62.38,22.54 L62.38,22.54 Z M63.16,20.84 C63.29,21.11 63.81,21.13 64.31,20.88 C64.81,20.63 65.11,20.21 64.97,19.94 C64.84,19.67 64.32,19.65 63.82,19.9 C63.32,20.15 63.02,20.57 63.16,20.84 Z M64.24,23.15 C64.37,23.42 64.89,23.44 65.39,23.19 C65.89,22.94 66.19,22.52 66.05,22.25 C65.92,21.98 65.4,21.96 64.9,22.21 C64.4,22.46 64.1,22.88 64.24,23.15 Z M61.05,19.61 C61.18,19.88 61.7,19.9 62.2,19.65 C62.7,19.4 63,18.98 62.86,18.71 C62.73,18.44 62.21,18.42 61.71,18.67 C61.21,18.92 60.91,19.34 61.05,19.61 Z M63.86,25.77 C63.99,26.04 64.51,26.06 65.01,25.81 C65.51,25.56 65.81,25.14 65.67,24.87 C65.54,24.6 65.02,24.58 64.52,24.83 C64.02,25.08 63.72,25.5 63.86,25.77 Z" id="Shape" fill="#373535"></path>
            <path d="M4.69,24.08 C4.2,25.07 5.17,26.92 6.1,26.73 C6.63,26.62 6.95,25.96 6.9,25.17 C7.56,24.73 7.89,24.07 7.66,23.59 C7.24,22.72 5.18,23.09 4.69,24.08 L4.69,24.08 Z M3.91,22.38 C3.78,22.65 3.26,22.67 2.76,22.42 C2.26,22.17 1.96,21.75 2.1,21.48 C2.23,21.21 2.75,21.19 3.25,21.44 C3.75,21.69 4.05,22.11 3.91,22.38 Z M2.83,24.69 C2.7,24.96 2.18,24.98 1.68,24.73 C1.18,24.48 0.88,24.06 1.02,23.79 C1.15,23.52 1.67,23.5 2.17,23.75 C2.67,24 2.97,24.42 2.83,24.69 Z M6.02,21.15 C5.89,21.42 5.37,21.44 4.87,21.19 C4.37,20.94 4.07,20.52 4.21,20.25 C4.34,19.98 4.86,19.96 5.36,20.21 C5.86,20.46 6.16,20.88 6.02,21.15 Z M3.21,27.31 C3.08,27.58 2.56,27.6 2.06,27.35 C1.56,27.1 1.26,26.68 1.4,26.41 C1.53,26.14 2.05,26.12 2.55,26.37 C3.05,26.62 3.35,27.04 3.21,27.31 Z" id="Shape" fill="#373535"></path>
            <path d="M7.77,60.61 C7.28,61.6 8.25,63.45 9.18,63.26 C9.71,63.15 10.03,62.49 9.98,61.7 C10.64,61.26 10.97,60.6 10.74,60.12 C10.32,59.25 8.26,59.62 7.77,60.61 Z M6.99,58.91 C6.86,59.18 6.34,59.2 5.84,58.95 C5.34,58.7 5.04,58.28 5.18,58.01 C5.31,57.74 5.83,57.72 6.33,57.97 C6.83,58.22 7.13,58.64 6.99,58.91 L6.99,58.91 Z M5.91,61.22 C5.78,61.49 5.26,61.51 4.76,61.26 C4.26,61.01 3.96,60.59 4.1,60.32 C4.23,60.05 4.75,60.03 5.25,60.28 C5.75,60.53 6.05,60.95 5.91,61.22 L5.91,61.22 Z M9.1,57.68 C8.97,57.95 8.45,57.97 7.95,57.72 C7.45,57.47 7.15,57.05 7.29,56.78 C7.42,56.51 7.94,56.49 8.44,56.74 C8.94,56.99 9.24,57.41 9.1,57.68 Z M6.29,63.84 C6.16,64.11 5.64,64.13 5.14,63.88 C4.64,63.63 4.34,63.21 4.48,62.94 C4.61,62.67 5.13,62.65 5.63,62.9 C6.13,63.15 6.43,63.57 6.29,63.84 Z" id="Shape" fill="#373535"></path>
            <path d="M59.38,59.47 C59.87,60.46 58.9,62.31 57.97,62.12 C57.44,62.01 57.12,61.35 57.17,60.56 C56.51,60.12 56.18,59.46 56.41,58.98 C56.83,58.11 58.89,58.48 59.38,59.47 L59.38,59.47 Z M60.16,57.77 C60.29,58.04 60.81,58.06 61.31,57.81 C61.81,57.56 62.11,57.14 61.97,56.87 C61.84,56.6 61.32,56.58 60.82,56.83 C60.32,57.08 60.02,57.5 60.16,57.77 Z M61.24,60.08 C61.37,60.35 61.89,60.37 62.39,60.12 C62.89,59.87 63.19,59.45 63.05,59.18 C62.92,58.91 62.4,58.89 61.9,59.14 C61.4,59.39 61.1,59.81 61.24,60.08 Z M58.05,56.54 C58.18,56.81 58.7,56.83 59.2,56.58 C59.7,56.33 60,55.91 59.86,55.64 C59.73,55.37 59.21,55.35 58.71,55.6 C58.21,55.85 57.91,56.27 58.05,56.54 Z M60.86,62.7 C60.99,62.97 61.51,62.99 62.01,62.74 C62.51,62.49 62.81,62.07 62.67,61.8 C62.54,61.53 62.02,61.51 61.52,61.76 C61.02,62.01 60.72,62.43 60.86,62.7 Z" id="Shape" fill="#373535"></path>
            <ellipse id="Oval" stroke="#373535" stroke-width="0.61" fill="#373535" cx="34.48" cy="15.72" rx="2.13" ry="1"></ellipse>
            <path d="M34.48,16.24 C34.39,19.66 35.44,22.11 39.26,22.18" id="Shape" stroke="#373535" stroke-width="0.61"></path>
            <path d="M34.48,15.72 C34.55,19.16 33.69,21.62 30.54,21.69" id="Shape" stroke="#373535" stroke-width="0.61"></path>
            <ellipse id="Oval" stroke="#373535" stroke-width="0.61" fill="#373535" cx="37.1" cy="11.46" rx="1" ry="1"></ellipse>
            <ellipse id="Oval" stroke="#373535" stroke-width="0.61" fill="#373535" cx="31.06" cy="11.74" rx="1" ry="1"></ellipse>
        </g>
    </g>
</svg>