<?xml version="1.0" encoding="UTF-8"?>
<svg xmlns="http://www.w3.org/2000/svg" xml:space="preserve" width="72.0824mm" height="44.3064mm" version="1.1" style="shape-rendering:geometricPrecision; text-rendering:geometricPrecision; image-rendering:optimizeQuality; fill-rule:evenodd; clip-rule:evenodd"
viewBox="0 0 381.24 234.33"
 xmlns:xlink="http://www.w3.org/1999/xlink">
 <desc>Motorcycle. Vector graphics by htochko.github.io</desc>
 <defs>
  <style type="text/css">
   <![CDATA[
    .str0 {stroke:black;stroke-width:0.93;stroke-miterlimit:22.9256}
    .fil1 {fill:none}
    .fil0 {fill:black}
    .fil4 {fill:#1A1A1A}
    .fil9 {fill:#333333}
    .fil7 {fill:#4D4D4D}
    .fil2 {fill:#666666}
    .fil8 {fill:gray}
    .fil5 {fill:#999999}
    .fil6 {fill:#FF9933}
    .fil3 {fill:white}
   ]]>
  </style>
 </defs>
 <g id="Layer_x0020_1">
  <metadata id="CorelCorpID_0Corel-Layer"/>
  <g id="_105555902889248">
   <path class="fil0 str0" d="M272.44 85.62c6.55,-3.53 26.47,-11.8 27.17,-14.77 0.32,-1.34 2.13,-9.93 1.19,-9.68 -15.79,4.36 -29.19,11.43 -47.36,13.07 -14.46,-1.83 -14.53,-11.12 -22.59,-18.66 -12.71,-11.88 -18.07,-14.21 -28.93,-17.35 -26.09,-7.53 -78.36,7.87 -78.36,34.3 3.65,4.17 9.67,4.06 16.33,2.83 2.35,-0.43 22.17,-6.19 22.88,-6.91 2.74,-2.74 9.24,-6.02 11.82,-5.11 7.99,2.85 46.54,20.22 58.43,26.87 5.29,2.96 8.77,6.64 11.93,7.95 2.91,1.2 23.41,-10.36 27.5,-12.57z"/>
   <path class="fil1 str0" d="M176.17 66.61c-3.51,0 -10.23,1.02 -13.41,1.87l-19.02 5.09c-4,1.07 -14.41,3.63 -18.06,4.65 -9.15,2.56 -10.23,9.2 -14.2,14.71 -1.53,2.1 -5.82,13.54 -4.58,14.77 0.54,0.54 -0.3,0.51 0.51,0.85 0.9,0.37 -0.86,0.52 1.36,0 0.71,-0.17 0.34,0.16 1.87,-0.34 16.84,-5.48 35.17,-9.39 51.78,-15.28 1.53,-0.54 7.91,-3.17 9,-3.9 3.65,-2.45 3.43,-1.28 5.22,-5.28l3.6 -9.22c1.27,-3.26 1.52,-6.8 -1.86,-7.74 -0.67,-0.19 -0,-0.17 -1.36,-0.17 0,0.35 -0.67,0 -0.85,0z"/>
   <path class="fil2 str0" d="M31.18 121.79c3.52,0.08 8.29,-0.13 11.8,-0.38 7.44,-0.53 18.09,0.48 19.78,1.7 0.69,0.5 1.81,0.53 -0.85,3.65 -4.39,5.15 -14.4,20.13 -17.66,26.66 -1.1,2.2 -2.04,3.92 -2.04,6.45l-0.34 -0.55c-0.06,0 14.96,-0.62 16.25,-2.77 6.18,-10.29 24.22,-39.15 23.68,-39.4 -3.82,-1.84 -14.09,-3.07 -23.8,-2.82 -6.75,0.18 -22.35,2.99 -26.82,7.47z"/>
   <path class="fil3 str0" d="M137.12 10.07c2.24,-1.68 12.51,-4.58 15.62,-4.58 0.18,0 0.85,-0.37 0.85,0.68 0,2.64 -5.62,10.87 -7.98,10.19 -1.31,-0.38 -7.47,-3.28 -8.15,-4.92 -0.28,-0.67 -0.93,-0.92 -0.34,-1.36z"/>
   <path class="fil0 str0" d="M154.02 5.57c0.01,-2.23 -1.92,-5.11 -4.41,-5.11 -3.19,0 -11.82,4.63 -12.56,7.81 -0.95,4.04 1.93,1.22 3.06,0.81 2.88,-1.07 8.98,-3.78 12.18,-3.78 1.48,0 1.73,0.79 1.73,0.27z"/>
   <path class="fil4 str0" d="M118.28 38.98l0.17 -9.17 9.85 0 -0.34 6.28 -7.47 5.77 -2.21 -2.89z"/>
   <path class="fil2 str0" d="M90.17 121.32c11.28,5.41 20.71,14.19 26.4,28.18 1.42,3.5 1.44,3.35 -2.38,3.57 -1.95,0.11 -4.08,-2.52 -5.53,-3.97 -0.87,-1.21 -3.35,-4.67 -4.66,-6.13 -3.54,-3.95 -3.64,-2.61 -6.96,0.09 -0.48,0.39 -20.03,18.66 -20.37,19.18 -0.97,0 -0.41,-2.34 -0.17,-3.06 0.09,0 10.19,-36.59 13.24,-37.86l0.42 0z"/>
   <path class="fil4 str0" d="M68.18 161.38c-0.8,2.22 -2.07,4.67 -2.46,5.52l-6.48 14.02c-1.1,2.38 -5.78,2.92 -7.95,-1.29 -0.53,-1.02 0.09,-3.26 0.68,-4.08 0.01,-0.01 4.56,-9.61 4.75,-10.19 0.34,-0.82 3.74,-7.3 3.74,-7.81 0.39,0 0.14,-0.73 0.34,0.51 0.89,5.49 7.48,3.05 7.39,3.31z"/>
   <ellipse class="fil5 str0" cx="55.78" cy="177.76" rx="1.99" ry="2.02"/>
   <ellipse class="fil6 str0" cx="66.99" cy="156.03" rx="5.87" ry="5.93"/>
   <path class="fil0 str0" d="M166.98 91.09c-0.89,6.62 4.69,11.96 10.02,15.96 8.65,6.48 37.68,25.15 44.8,30.62 4.99,3.84 8.18,8.12 8.18,12.16 0,1.65 -6.4,22.66 -8.15,24.79 -1.88,2.3 -0.11,1.68 -5.77,2.04 -1.47,0.09 -3.61,1.44 -1.36,-2.38 1.22,-2.07 2.46,-3.9 1.61,-5.43 -0.93,-1.67 -4.02,-0.34 -6.37,-0.34 0,-0.52 -0.76,-0.54 0,-1.7 3.34,-5.09 6.45,-14.99 -0.68,-25.47 -2.22,-3.26 -7.53,-8.34 -15.62,-13.24 -0.38,-0.23 -23.54,-11.07 -28.52,-13.24 -2.68,-1.17 -29.38,-9.46 -22.87,-15.7l24.73 -8.07z"/>
   <path class="fil3 str0" d="M217.45 126.06l9.77 16.86 -50.21 -35.88c-6.18,-4.35 -10.5,-9.33 -10.02,-15.96 5.62,10.3 33.65,23.31 50.47,34.97z"/>
   <path class="fil0 str0" d="M245.71 148.9c3.87,-3.86 23.11,-9.43 27.84,-7.47 6.81,2.81 15.03,8.9 22.07,12.22 6.16,2.91 12.81,6.45 18.68,9.85 3.19,1.85 6.51,3.27 9.51,5.43 2.1,1.51 6.96,1.16 6.11,4.75 -0.26,1.1 -1.98,6.45 -3.06,6.45 -4.53,0 -6.34,-2.18 -9.85,-4.41 -9.28,-5.9 -26.69,-10.46 -37.01,-15.62 -1.49,-0.74 -5.5,-2.61 -7.13,-2.04l-17.32 6.11c0,-2.16 -9.2,-15.92 -9.85,-15.28z"/>
   <path class="fil4 str0" d="M58.89 182.11c0.15,1.15 2.05,12.33 1.93,12.63 -0.24,0.59 0.29,0.86 -1.02,1.02 -1.78,0.22 -3.39,1.16 -3.39,-2.04 0,-2.91 0.54,-8.72 0.26,-11.02l2.23 -0.59z"/>
   <path class="fil4 str0" d="M52.68 181.48c-1.89,1.26 -7.22,6.42 -7.54,6.58 -0.38,0.19 -2.35,1.92 -2.66,1.92 -0.71,0 -2.04,-2.34 -2.04,-3.39 0,-0.68 1.49,-1.08 2.04,-1.53 0.62,-0.5 7.86,-5.55 8.21,-5.6l1.99 2.02z"/>
   <path class="fil4 str0" d="M53.69 171.92c0.64,1.18 -10.14,-5.31 -10.69,-5.87 -0.43,-0.44 -3.13,-2.48 -4.08,1.53 -0.61,2.58 -0.39,1.99 2.04,2.89 3.1,1.15 8.45,2.55 11.8,3.43l0.93 -1.97z"/>
   <path class="fil4 str0" d="M61.39 177.25c1.87,0.93 4.28,1.91 6.23,2.89 1.27,0.64 4.95,2.04 6.28,2.04 2.74,0 0.98,-0.03 2.55,-0.68 1.28,-0.53 -0.16,5.14 -3.57,3.74 -3.94,-1.62 -8.32,-4.78 -12.11,-6.68 0,-0.39 0.92,-1.17 0.62,-1.3z"/>
   <path class="fil7 str0" d="M332.81 62.56c-0.8,1.44 -0.59,0.58 -0.59,2.29 0,0.34 -0.17,0.98 -0.17,1.87 0,1.94 0.58,3.83 2.72,4.24 0.01,0 1.6,0.74 1.87,0.85 4.68,1.94 32.78,8.46 38.2,9 1.15,0.11 1.27,0.68 2.04,0.68 0,1.79 0.22,3.61 -0.85,5.09 -0.31,0.43 -0.33,0.42 -1.19,0.34 -2.44,-0.24 -1.11,-1.02 -3.57,-1.02 0,0.23 -1.19,1.08 -1.19,3.4 0,3.35 0.03,5.16 1.7,8.49 1.75,3.5 4.31,6.97 6.62,10.19 0.19,0.26 2.38,3.52 2.38,3.91 -0.55,0 -1.13,0.6 -2.38,-0.17 -0.94,-0.58 -6.56,-2.15 -7.47,-3.06l-0.17 -0.34c-0.57,-0.57 -3.48,-2.46 -3.74,-2.72 -0.04,-0.04 -1.53,-2.32 -1.7,-2.55 -1.88,-2.56 -6.05,-8.09 -6.45,-11.37 -0.16,-1.32 -1.21,-4.83 -1.7,-6.28 -0.16,0 -0.71,-0.98 -0.85,-1.19 -3.97,0 -22.26,-5.25 -29.54,-5.77 -2.26,-0.16 -3.1,-0.68 -5.6,-0.68 -2.65,0 -6.03,-0.21 -8.15,0.85 0,0.87 -1,0.41 0.51,0.17 1.08,-0.17 3.54,-0.73 4.41,-1.36 3.02,-2.18 12.2,-11.32 13.41,-13.75 0.22,0 0.31,-0.49 1.19,-0.85l0.25 -0.25z"/>
   <path class="fil4 str0" d="M25.08 156.2c7.17,-10.35 16.22,-16.08 27.46,-16.47l3 -4.43c-12.18,-0.37 -25.17,5.78 -34.36,19.35 -11.87,17.53 -7.28,40.5 5.93,52.83 23.91,18.8 53.19,9.18 65.19,-9.85 9.88,-14.76 11.1,-33.71 -1.18,-49.08l-2.39 2.24c11.08,13.19 11.62,29.17 1.7,44.46 -13.05,20.13 -39.81,26.24 -60.27,9.17 -13.99,-11.68 -14.81,-32.58 -5.09,-48.22z"/>
   <path class="fil8 str0" d="M229.41 60.69c3.13,2.66 -19.17,13.28 -19.69,14.6 -0.17,0.42 -0.03,2.04 1.02,2.04 0.08,0 4.01,-0.87 4.41,-1.02 2.39,-0.88 22.1,-7.47 22.41,-7.47 3.82,0.05 -14.24,-25.9 -40.48,-30.56 -7.77,-1.38 -10.38,-1.56 -17.96,-0.98 -14.27,1.1 -23.33,5.17 -36.98,11.85 -11.75,5.75 -16.61,24.79 -14.77,22.24 0.74,-1.03 4.54,-5.22 6.28,-5.94 5.05,-2.09 19.48,-12.82 26.78,-12.82 4.49,0 6.56,0.94 11.25,0.94 0,-1.52 9.38,-5.37 10.87,-6.11 -8.3,-1.19 -16.9,-2.74 -33.62,5.43 -2.03,0.99 -11.76,9 -13.92,9 1.96,-3.93 5.51,-8.28 10.53,-11.04 10.09,-5.54 36,-16.23 55.33,-9.45 0.9,0.32 6.79,2.66 7.15,2.66 0,0.47 -15.22,0.42 -32.94,9.85 -6.02,3.2 -23.86,13.28 -31.24,16.98 0,0.6 2.67,-0.34 4.07,-0.34 0,-0.98 1.95,0.22 3.4,-0.68 0.6,-0.37 3.22,-0.62 4.41,-1.36 1.03,-0.64 4.55,-1.49 5.43,-2.04 10.18,-6.29 19.07,-11.68 30.22,-16.3 5.56,-2.3 17.55,-4.77 22.75,-1.02 1.52,1.1 12.8,6.58 13.24,8.83 0.11,0.55 2.04,2.13 2.04,2.72z"/>
   <path class="fil9 str0" d="M178.65 71.22c-1.09,0.44 -3.55,0.44 -4.75,1.02 -5.55,2.66 -7.49,2.1 -10.53,2.21 -1.87,0.07 -25.71,4.44 -25.98,4.58 -0.69,0.37 -6.37,1.49 -7.64,1.7 -0.8,0.13 -0.7,-0 -1.53,0.34 -0.78,0.32 -1.45,-1.19 0.85,-1.19 0.04,0 18.57,-4.84 18.85,-4.92 3.63,-1.05 14.45,-3.57 17.07,-4.04 3.33,-0.59 5.94,-1.33 10.09,-1.39 0.24,-0 3.12,0.34 3.4,1.02 0.11,0.27 0.4,0.59 0.17,0.68z"/>
   <path class="fil5 str0" d="M168.78 73.95c-2.22,4.69 -3.26,8.36 -5.69,11.73 -0.73,1.01 -1.48,1.95 -2.17,2.99 -1.9,2.84 -7.07,6.27 -10.05,7.06 -3.32,0.88 -8.64,2.79 -12.09,3.67 -5.94,1.51 -9.33,2.38 -15.21,3.53 -0.25,0.05 -8.26,1.9 -9.1,1.9 0.5,0 0.41,-0.34 0.41,-0.68 0.62,0 1.85,-1.93 2.04,-2.44 0.38,-1.05 3.76,-5.34 4.35,-7.06 0.24,-0.7 0.78,-2.56 1.22,-3.12 1.43,-1.83 2.48,-4.15 3.26,-6.25 0.2,-0.54 1.77,-1.73 1.77,-2.72 0.22,0 0.14,0.01 0.14,-0.54 0.34,0 -0.04,-0.15 0.58,-0.95l40.56 -7.12z"/>
   <path class="fil4 str0" d="M24.99 149.92c7.17,-9.27 19.32,-14.23 30.56,-14.62l3.39 -4.74c-12.18,-0.37 -29.26,5.08 -40.54,22.15 -12.32,18.63 -7.2,45.03 6.01,57.35 23.16,19.23 56.89,15.05 72.34,-13.46 9.46,-17.18 9.53,-35.96 -2.33,-51.1l-3.28 3.06c10.32,13.46 11.29,29.54 3.39,45.48 -8.1,14.04 -17.42,18.64 -27.26,21.45 -12.4,3.54 -25.77,2.32 -40.15,-8.01 -13.73,-13.81 -18.3,-40.47 -2.13,-57.55z"/>
   <path class="fil4 str0" d="M21.37 148.77c7.77,-10.04 21.82,-18.78 37.55,-18.21l2.98 -3.82c-17.17,-0.63 -30.43,1.6 -47.75,23.77 -15.11,19.33 -7.74,50.09 6.58,63.45 25.11,20.85 63.89,15.78 80.64,-15.14 10.25,-18.62 9.05,-38.35 -4.94,-55.21l-3.66 3.4c11.19,14.59 12.53,32.3 3.97,49.58 -8.78,15.22 -18.88,20.21 -29.55,23.25 -13.44,3.84 -26.14,2.26 -41.74,-8.94 -14.8,-14.29 -21.41,-41.86 -4.09,-62.13z"/>
   <path class="fil4 str0" d="M61.91 126.75l5.02 -5.85c-14.79,-3.12 -37.56,0.87 -54.93,23.01 -16.24,20.69 -16.18,53.79 5.61,74.62 12.26,10.18 30.78,17.85 48,14.57 18.04,-3.43 34.02,-15.12 43.27,-34.24 10.26,-21.22 9.13,-46.01 -5.66,-61.42l-6.8 6.17c9.6,7.35 18.89,37.53 1.81,60.34 -7.87,13.41 -21.27,20.07 -33.49,21.76 -14.94,2.06 -26.47,1 -42.06,-10.2 -20.56,-17.96 -21.59,-47.91 -6.84,-67.56 10.67,-14.21 27.99,-24.21 46.06,-21.2z"/>
   <path class="fil4 str0" d="M56.5 195.5l0.78 0.47 -5.89 18.05 -0.57 -0.38 5.69 -18.14z"/>
   <path class="fil4 str0" d="M41.81 189.54l0.67 0.44 -10.61 15.79 -0.7 -0.54 10.63 -15.69z"/>
   <path class="fil4 str0" d="M40.89 185.96l-0.44 0.63 -19.75 4.23 -0.25 -0.75 20.45 -4.1z"/>
   <path class="fil4 str0" d="M19.86 168.48l0.15 -0.58 18.62 1.21 0.05 0.37 -18.82 -1z"/>
   <path class="fil4 str0" d="M28.34 151.97l0.37 -0.43 12.3 13.6 -0.61 0.12 -12.06 -13.29z"/>
   <path class="fil4 str0" d="M60.82 194.74l-0.21 0.8 7.36 17.05 0.77 -0.25 -7.92 -17.6z"/>
   <path class="fil1 str0" d="M60.72 157.53c-19.92,-1.67 -24.45,24.65 -10.28,31.65 19.15,9.46 35.18,-13.99 19.74,-28.17"/>
   <path class="fil4 str0" d="M74.54 185.25l0.69 -0.2 12.74 13.62 -0.5 0.63 -12.94 -14.05z"/>
   <path class="fil4 str0" d="M76.9 182.14l-0.14 0.71 18.96 1.48 0.3 -0.98 -19.13 -1.21z"/>
   <path class="fil4 str0" d="M49.12 140.02l-1.52 0.25 1.43 4.89 0.65 -1.03 -0.57 -4.11z"/>
   <path class="fil0 str0" d="M100.46 100.22l25.58 -49.12 1.28 9.53c-4.04,6.38 -5.18,12.32 -1.63,17.59 -10.85,3.3 -14.2,14.71 -18.28,24.83l-6.95 -2.82z"/>
   <path class="fil0 str0" d="M113.36 61.96l12.68 -10.87 -53.65 102.61c-1.43,-3.26 -6.03,-4.94 -9.05,-2.32l50.03 -89.42z"/>
   <path class="fil3 str0" d="M112.19 64.06l11.2 -10.69c-9.29,-1.29 -20.51,11.54 -32.22,32.59l5.46 5.9 15.55 -27.8z"/>
   <path class="fil4 str0" d="M80.2 173.45c0.83,1.67 1.24,2.36 2.6,3.85l0.91 0.91c0,0.71 3.44,2.3 4.41,1.81 0.37,-0.18 1.8,-1.13 1.81,-1.13 1.14,-2.27 1.7,-3.69 1.7,-6.23 0,-1.37 -0.46,-1.22 -0.79,-2.6 -0,-0.01 -1.93,-1.42 -2.04,-1.7 -0.66,-1.7 -1.76,-7.55 -1.81,-9.51l-0.17 -6.26 -8.31 7.84c0.28,3.69 0.13,9.88 1.69,13.01z"/>
   <path class="fil0 str0" d="M150.04 13.09c0.34,0.15 1.59,1.18 1.8,1.44 1.39,1.65 1.25,3.51 -1.02,5.43 -0.25,0.21 -5.13,4.61 -5.89,3.85 -1.89,-1.89 -4.03,-6.82 -2.48,-8.84 2.78,2.26 5.33,1.9 7.58,-1.88z"/>
   <path class="fil9 str0" d="M245.71 148.9c-2.82,-3.01 -7.48,-4.41 -9.24,-7.94 0.07,0 22.23,-11.12 24.79,-12 6.03,-2.06 14.6,-1.82 20.49,1.81 2.62,1.62 6.72,4.23 8.83,6.34 1.42,1.42 12.44,10.45 12.45,10.53 1.26,0.19 34.86,-6.39 34.07,-4.47 -0.85,2.05 -20.86,4.26 -26.94,6.44 -4.78,1.71 -10.97,4.75 -14.53,4.05 -19.84,-10.19 -19.62,-14.54 -29.95,-12.79 -6.94,1.18 -11.15,3.33 -19.97,8.03z"/>
   <path class="fil0 str0" d="M141.79 16.96c0,-1.39 -0.68,-2.95 -1.58,-3.85 -0.28,-0.28 -1.58,-0.48 -2.26,-0.23 -3.04,1.12 -5.8,4.92 -6.7,12.56 -0.38,3.26 -1.49,18.08 -5.75,20.04 -3.56,1.64 -4.85,-0.41 -5.43,-1.81 -1.16,-2.8 -5.57,-2.04 -8.15,-2.04 0,-0.3 -1.23,-0.93 -1.3,0.59l-0.51 11.18c-0.05,1.02 0.16,0.91 1.3,0.44 0.98,-0.41 6.74,1.46 8.43,-1.23 1.89,-3 7.78,1.53 10.19,-3.91 3.48,-7.86 4.09,-17.83 4.53,-22.18 0.58,-5.85 3,-7.3 5.66,-7.3 0,0.25 1.58,3.44 1.58,-2.26z"/>
   <path class="fil3 str0" d="M265.67 127.93l54.33 -26.28c0,2.94 -2.7,6.83 -5.89,8.15 -0.86,0.36 -4.08,4.2 -8.15,5.43 -0.95,0.29 -3.65,2.88 -5.43,3.62 -3.19,1.32 -15.17,8.15 -17.2,8.15 0,0.34 -3.36,2.72 -4.08,2.72l-13.58 -1.79z"/>
   <path class="fil4 str0" d="M112.84 57.06c0.04,0.84 -3.88,-1.14 -5.01,-1.14 -1.58,0 -1.43,0.88 -2.72,1.41 -0.31,0.13 -0.23,1.81 -2.6,1.81 -1.53,-0.33 -3.95,1.3 -5.26,2.32 -1.13,0.88 -7.28,4.92 -4.07,7.47 1.46,1.17 1.94,2.14 0.68,3.39 -1.54,1.54 -3.47,-1.87 -5.66,0.68l-5.43 6.34c-0.21,0 -0.23,1.13 -2.94,1.13 -0.73,0 -0.94,-1.1 -0.23,-1.81 1.23,-1.23 12.9,-14.37 13.02,-14.37 0,-0.41 3.06,-2.68 3.06,-4.19 0.37,0 0.99,-1.72 -3.17,0 -1.37,0.57 -1.45,-3.54 -4.53,-2.26 -9.7,4.02 -17.42,18.49 -21.21,27.65 -0.5,1.2 -2.53,2.64 -1.94,4.08 0.88,2.12 3.36,1.13 4.81,0.08 2.04,-1.47 21.39,-3.58 21.55,-3.7 7.22,-11.67 14.44,-22.05 21.66,-28.89z"/>
   <ellipse class="fil4 str0" cx="90.65" cy="75.47" rx="1.1" ry="0.99"/>
   <ellipse class="fil4 str0" cx="99.73" cy="64.69" rx="1.1" ry="0.99"/>
   <path class="fil4 str0" d="M329.39 160.35c-1.11,2.08 -2.07,4.67 -2.46,5.52l-6.48 14.02c-1.1,2.38 -5.78,2.92 -7.95,-1.29 -0.53,-1.02 0.09,-3.26 0.68,-4.08 0.01,-0.01 4.56,-9.61 4.75,-10.19 1.44,-3.48 3.81,-6.8 4.08,-7.3 3.5,-6.73 10.47,-2.5 7.39,3.31z"/>
   <ellipse class="fil5 str0" cx="316.99" cy="176.74" rx="1.99" ry="2.02"/>
   <path class="fil4 str0" d="M320.11 181.08c0.15,1.15 2.05,12.33 1.93,12.63 -0.24,0.59 0.29,0.86 -1.02,1.02 -1.78,0.22 -3.4,1.16 -3.4,-2.04 0,-2.91 0.54,-8.72 0.26,-11.03l2.23 -0.59z"/>
   <path class="fil4 str0" d="M313.9 180.45c-1.89,1.26 -7.22,6.42 -7.54,6.58 -0.38,0.19 -2.35,1.92 -2.66,1.92 -0.71,0 -2.04,-2.34 -2.04,-3.4 0,-0.68 1.49,-1.08 2.04,-1.53 0.62,-0.5 7.86,-5.55 8.21,-5.6l1.99 2.02z"/>
   <path class="fil4 str0" d="M314.9 170.89c0.64,1.18 -10.14,-5.31 -10.69,-5.87 -0.43,-0.44 -3.13,-2.48 -4.08,1.53 -0.61,2.58 -0.39,1.99 2.04,2.89 3.1,1.15 8.45,2.55 11.8,3.43l0.93 -1.97z"/>
   <path class="fil4 str0" d="M322.6 176.23c1.87,0.93 4.28,1.91 6.23,2.89 1.27,0.64 4.95,2.04 6.28,2.04 2.74,0 0.98,-0.03 2.55,-0.68 1.28,-0.53 -0.16,5.14 -3.57,3.74 -3.94,-1.62 -8.32,-4.78 -12.11,-6.68 0,-0.39 0.92,-1.16 0.62,-1.3z"/>
   <path class="fil4 str0" d="M286.29 155.17c7.17,-10.35 18.79,-20.22 30.04,-20.61l2.17 -3.34c-12.18,-0.37 -26.91,8.83 -36.09,22.4 -11.87,17.53 -7.28,40.5 5.93,52.83 23.91,18.8 53.19,9.18 65.19,-9.85 9.88,-14.76 11.1,-33.71 -1.18,-49.08 -8.65,-9.65 -19.17,-16.31 -33.85,-16.3l-2.17 3.34c16.53,-0.07 25.87,6.8 33.63,15.2 11.08,13.19 11.62,29.17 1.7,44.46 -13.05,20.13 -39.81,26.24 -60.27,9.17 -13.99,-11.68 -14.81,-32.58 -5.09,-48.22z"/>
   <path class="fil4 str0" d="M286.2 148.89c7.25,-9.28 23.24,-18.73 32.29,-17.68l3.23 -3.9c-12.26,-0.72 -30.88,7.1 -42.12,24.36 -12.19,18.72 -7.2,45.03 6.01,57.35 23.16,19.23 56.89,15.05 72.34,-13.46 9.46,-17.18 8.23,-35.79 -3.63,-50.93 -9.33,-11.36 -20.71,-16.49 -32.6,-17.32l-3.23 3.9c13.38,-0.08 24.33,5.64 33.85,16.3 10.32,13.46 11.29,29.54 3.39,45.48 -8.1,14.04 -17.42,18.64 -27.26,21.45 -12.4,3.54 -25.77,2.32 -40.15,-8.01 -13.73,-13.81 -18.3,-40.47 -2.13,-57.55z"/>
   <path class="fil4 str0" d="M282.58 147.75c7.77,-10.04 23.41,-21.01 39.14,-20.44l3.86 -5.41c-19.77,-0.74 -32.9,5.2 -50.22,27.59 -15.01,19.41 -7.74,50.09 6.58,63.45 25.11,20.85 63.89,15.78 80.64,-15.14 18.21,-32.44 -1.26,-69.99 -37,-75.9l-3.86 5.41c11.86,1.06 23.8,6.63 32.6,17.32 11.92,14.48 12.19,33.65 3.63,50.93 -8.78,15.22 -18.88,20.21 -29.55,23.25 -13.44,3.84 -26.14,2.26 -41.74,-8.94 -14.8,-14.29 -21.41,-41.86 -4.09,-62.13z"/>
   <path class="fil4 str0" d="M325.59 121.9l4.02 -6.22c-17.72,-2.9 -40.01,5.5 -56.4,27.19 -15.85,20.99 -16.18,53.79 5.61,74.62 12.26,10.18 30.78,17.85 48,14.57 18.04,-3.43 34.02,-15.12 43.27,-34.24 9.88,-20.43 9.8,-40.91 -4.05,-59.65 -14.26,-19.28 -35.88,-21.92 -36.43,-22.5l-4.02 6.22c25.29,3.81 43.28,23.45 43.88,52.36 0.18,8.94 -2.97,19.25 -10.02,28.67 -7.87,13.4 -21.27,20.07 -33.49,21.76 -14.94,2.06 -26.47,1 -42.06,-10.2 -20.56,-17.96 -21.59,-47.91 -6.84,-67.56 10.67,-14.21 26.61,-27.01 48.53,-25.03z"/>
   <path class="fil4 str0" d="M317.71 194.47l0.78 0.47 -5.89 18.05 -0.57 -0.38 5.69 -18.14z"/>
   <path class="fil4 str0" d="M303.02 188.51l0.67 0.44 -10.61 15.79 -0.7 -0.54 10.63 -15.69z"/>
   <path class="fil4 str0" d="M302.1 184.94l-0.44 0.62 -19.75 4.23 -0.25 -0.75 20.45 -4.1z"/>
   <path class="fil4 str0" d="M281.07 167.45l0.15 -0.58 18.62 1.21 0.05 0.37 -18.82 -1z"/>
   <path class="fil4 str0" d="M289.55 150.94l0.37 -0.43 12.3 13.6 -0.61 0.12 -12.06 -13.29z"/>
   <path class="fil4 str0" d="M322.03 193.71l-0.21 0.8 7.36 17.05 0.77 -0.25 -7.92 -17.6z"/>
   <path class="fil1 str0" d="M321.93 156.51c-19.92,-1.67 -24.02,23.84 -10.28,31.65 8.69,4.94 17.74,1.15 21.9,-5.64 4.64,-7.58 4.33,-23.42 -11.62,-26.01z"/>
   <path class="fil4 str0" d="M335.75 184.23l0.69 -0.2 12.74 13.62 -0.5 0.63 -12.94 -14.05z"/>
   <path class="fil4 str0" d="M338.11 181.12l-0.14 0.71 18.96 1.48 0.3 -0.98 -19.13 -1.21z"/>
   <path class="fil4 str0" d="M312.92 135.71l-1.45 -0 7.01 27.4 12.15 -26.53 -0.94 -0.29 -11.38 24.31 -5.4 -24.9z"/>
   <path class="fil0 str0" d="M328.83 165.11l17.64 -18.89 -0.6 -0.57 -18.94 20.22 30.38 -2.88 -0.48 -1.47 -27.99 3.59z"/>
   <path class="fil9 str0" d="M106.91 43.27c-2.43,-2.96 -6.11,-8.01 -9.73,-9.51 -0.06,-0.02 -2.1,-1.52 -2.72,-0.91 -0.03,0.03 -3.79,1.98 -4.41,2.6 -0.04,0.02 -2.94,3.34 -3.28,3.74 -2.08,2.4 -4.46,6.2 -5.89,9.05 -0.8,0 -4.98,9.26 -4.98,11.32 3.6,0 6.88,-0.81 10.64,-0.23 5.49,0.85 11.33,1.05 16.75,-0.23 2.05,-0.48 0.99,-0.66 1.59,-0.91 0.48,-0.2 0.05,0.41 0.91,-0.45 0.67,-0.67 1.21,-0.84 1.81,-2.04 0.95,0 2.26,-4.33 2.72,-5.43 0.85,-2.05 -1.89,-5.19 -3.4,-7.02z"/>
   <path class="fil8 str0" d="M187.56 144.16c7.09,-2.36 17.15,3.57 17.15,12.51 0,8.04 -5.4,17.83 -14.36,17.83 -21.88,0 -16.42,-27.37 -2.79,-30.34z"/>
   <path class="fil4 str0" d="M141.54 100.06c-2.09,7.63 16.65,10.28 24.97,15.42 -0.22,1.32 7.78,16.48 9.56,18.95 2.67,3.71 3.85,10.18 3.85,14.71 -14.04,9.6 -2.34,36.07 16.75,22.86 1.26,-0.87 5.45,-1.98 5.89,-2.04 1.92,-0.24 8.5,-2.41 9.96,-1.36 3.76,2.71 -2.25,8.81 -1.58,9.05 7.94,2.96 13.96,-4.58 16.75,-7.7 2.19,-2.44 3.56,-5.63 6.34,-8.6 2.48,-2.65 4.52,-6.66 5.89,-9.96 0.14,-0.33 1.43,-2.49 1.81,-2.49 0,-1.57 2.7,3.37 2.72,3.4 0.44,0.78 0.49,2.3 1.81,3.62 0.56,0.56 1.36,2.49 2.49,3.62 0.51,0.51 4.53,6.17 4.53,7.02 0,1.02 -8.92,6.48 -10.64,7.24 -2.09,0.94 -2.92,2.37 -5.21,3.62 -5.47,3 -5.09,3.81 -9.28,7.24 -3.95,3.24 -9.42,6.68 -12.22,10.64 -6.14,8.68 -12.78,7.63 -21.05,8.6 -4.19,0.49 -25.93,2.06 -30.56,1.13 -12.03,-2.4 -29.6,-13.48 -30.53,-31.23 -0.91,-17.31 10.39,-8.25 13.33,-13.36 1.47,-2.55 12.86,-8.89 11.32,-11.55 -2.08,-3.58 -13.63,-33.64 -15.17,-34.41 0,-0.8 -9.51,1.51 -9.51,4.98 0,2.21 0.01,15.77 -0.95,17.1 -2.8,3.89 -4.94,-2.07 -4.94,-6.24 0,-2.47 -0.88,-5.34 -3.17,-10.19 -0.48,-1.01 -4.39,-7.8 -4.75,-8.83 -0.54,-1.51 -3.4,-2.65 -3.4,-4.53 -0.37,0 -0.23,0.08 -0.14,-0.41l25.15 -6.34z"/>
   <path class="fil7 str0" d="M234.24 181.89l52.29 -2.66c3.03,-0.15 5.67,0.68 6.05,5.55 0.19,2.45 0.67,12.22 -3,12.22 0,4.16 -53.68,2.6 -60.1,3.39 -0.54,0.07 -6.19,-1.4 -6.45,-2.04 -2.13,-5.14 1.74,-9.56 5.1,-13.67 1.43,-1.74 5.22,-2.76 6.1,-2.8z"/>
   <path class="fil7 str0" d="M270.92 100.02l13.36 -7.47 15.55 18.85 -10.31 4.99 -18.6 -16.37z"/>
   <path class="fil4 str0" d="M218.97 128.7l93.8 -49.7 6.81 -1.26c4.03,-3.88 8.03,-8.56 12.33,-14.56l31.36 -17.95 3.85 -9.96c0.62,-1.59 -0.52,-4.15 -3.62,-3.62l-49.58 8.38c-4.98,0.84 -8.57,3.83 -9.73,8.6l-6.34 26.03 -51.84 26.03 -17.66 -11.55 -10.64 3.17 -37.35 -9.73 -13.39 8.5c8.9,12.56 33.65,23.31 50.47,34.97l1.53 2.64z"/>
  </g>
 </g>
</svg>
