<?xml version="1.0" encoding="UTF-8" standalone="no"?>
<svg xmlns="http://www.w3.org/2000/svg" xml:space="preserve" width="45.7856mm" height="35.9353mm" version="1.0" style="shape-rendering:geometricPrecision; text-rendering:geometricPrecision; image-rendering:optimizeQuality; fill-rule:evenodd; clip-rule:evenodd"
viewBox="0 0 38 26"
 xmlns:xlink="http://www.w3.org/1999/xlink">
 <defs>
  <style type="text/css">
   <![CDATA[
    .str0 {stroke:#373535;stroke-width:0.31;stroke-miterlimit:20}
    .str2 {stroke:#EE305A;stroke-width:0.31;stroke-miterlimit:20}
    .str1 {stroke:#EE305A;stroke-width:0.31;stroke-miterlimit:20}
    .fil3 {fill:none}
    .fil0 {fill:white}
    .fil2 {fill:#D2D4D5}
    .fil5 {fill:#FFF215}
    .fil1 {fill:#F48985}
    .fil6 {fill:#EE3338}
    .fil4 {fill:#0098DB}
   ]]>
  </style>
 </defs>
 <g id="htochko_paint">
  <rect class="fil0 str0" x="52.92" y="0.15" width="26.25" height="38.16"/>
  <path class="fil1 str1" d="M59.97 62.26l13.59 0 0.82 -18.96 -15.54 0 1.12 18.96z"/>
  <path class="fil2 str0" d="M58.85 43.3l15.54 0 4.78 -4.99 -26.25 0 5.93 4.99z"/>
  <path class="fil3 str1" d="M73.27 43.3l-0.75 18.96"/>
  <g id="_105554192860000">
   <path class="fil3 str2" d="M72.06 43.34c-0.2,6.31 -0.39,12.62 -0.59,18.93"/>
   <path class="fil3 str2" d="M70.85 43.37c-0.15,6.3 -0.29,12.59 -0.43,18.89"/>
   <path class="fil3 str2" d="M69.64 43.41c-0.09,6.29 -0.19,12.57 -0.28,18.86"/>
   <path class="fil3 str2" d="M68.43 43.44c-0.04,6.27 -0.08,12.55 -0.12,18.82"/>
   <path class="fil3 str2" d="M67.23 43.47c0.01,6.26 0.02,12.53 0.03,18.79"/>
   <path class="fil3 str2" d="M66.02 43.51c0.06,6.25 0.13,12.5 0.19,18.76"/>
   <path class="fil3 str2" d="M64.81 43.54c0.12,6.24 0.23,12.48 0.35,18.72"/>
   <path class="fil3 str2" d="M63.6 43.58c0.17,6.23 0.33,12.46 0.5,18.69"/>
   <path class="fil3 str2" d="M62.39 43.61c0.22,6.22 0.44,12.44 0.66,18.65"/>
   <path class="fil3 str2" d="M61.18 43.64c0.27,6.21 0.54,12.41 0.81,18.62"/>
  </g>
  <path class="fil3 str1" d="M59.97 43.68l0.97 18.59"/>
  <path class="fil4" d="M62.02 0.54c4.27,-0.3 9.83,0.49 13.89,2.01 2.45,0.92 3.51,1.17 2.84,3.85 -0.48,1.93 -5.86,1.83 -4.85,3.85 0.91,1.82 1.91,3.67 0.67,5.69 -2.32,3.75 -0.26,1.98 -3.68,3.01 -5.75,1.73 -13.22,-1.16 -15.89,-8.7 -1.05,-2.97 -0.65,-2.07 0.5,-4.85 0.49,-1.19 2.96,-1.91 3.51,-3.01 0.53,0 0.44,-1.47 1.67,-1.67 0.65,-0.11 0.62,-0.12 1.34,-0.17z"/>
  <rect class="fil0 str0" x="26.67" y="0.15" width="26.25" height="38.16"/>
  <path class="fil1 str1" d="M33.72 62.26l13.59 0 0.82 -18.96 -15.54 0 1.12 18.96z"/>
  <path class="fil2 str0" d="M32.6 43.3l15.54 0 4.78 -4.99 -26.25 0 5.93 4.99z"/>
  <path class="fil3 str1" d="M47.02 43.3l-0.75 18.96"/>
  <g id="_105554192864736">
   <path class="fil3 str2" d="M45.81 43.34c-0.2,6.31 -0.39,12.62 -0.59,18.93"/>
   <path class="fil3 str2" d="M44.6 43.37c-0.15,6.3 -0.29,12.59 -0.43,18.89"/>
   <path class="fil3 str2" d="M43.39 43.41c-0.09,6.29 -0.19,12.57 -0.28,18.86"/>
   <path class="fil3 str2" d="M42.18 43.44c-0.04,6.27 -0.08,12.55 -0.12,18.82"/>
   <path class="fil3 str2" d="M40.98 43.47c0.01,6.26 0.02,12.53 0.03,18.79"/>
   <path class="fil3 str2" d="M39.77 43.51c0.06,6.25 0.13,12.5 0.19,18.76"/>
   <path class="fil3 str2" d="M38.56 43.54c0.12,6.24 0.23,12.48 0.35,18.72"/>
   <path class="fil3 str2" d="M37.35 43.58c0.17,6.23 0.33,12.46 0.5,18.69"/>
   <path class="fil3 str2" d="M36.14 43.61c0.22,6.22 0.44,12.44 0.66,18.65"/>
   <path class="fil3 str2" d="M34.93 43.64c0.27,6.21 0.54,12.41 0.81,18.62"/>
  </g>
  <path class="fil3 str1" d="M33.72 43.68l0.97 18.59"/>
  <path class="fil5" d="M35.77 0.54c4.27,-0.3 9.83,0.49 13.89,2.01 2.45,0.92 3.51,1.17 2.84,3.85 -0.48,1.93 -5.86,1.83 -4.85,3.85 0.91,1.82 1.91,3.67 0.67,5.69 -2.32,3.75 -0.26,1.98 -3.68,3.01 -5.75,1.73 -13.22,-1.16 -15.89,-8.7 -1.05,-2.97 -0.65,-2.07 0.5,-4.85 0.49,-1.19 2.96,-1.91 3.51,-3.01 0.53,0 0.44,-1.47 1.67,-1.67 0.65,-0.11 0.62,-0.12 1.34,-0.17z"/>
  <rect class="fil0 str0" x="0.42" y="0.15" width="26.25" height="38.16"/>
  <path class="fil1 str1" d="M7.47 62.26l13.59 0 0.82 -18.96 -15.54 0 1.12 18.96z"/>
  <path class="fil2 str0" d="M6.35 43.3l15.54 0 4.78 -4.99 -26.25 0 5.93 4.99z"/>
  <path class="fil3 str1" d="M20.77 43.3l-0.75 18.96"/>
  <g id="_105554192846752">
   <path class="fil3 str2" d="M19.56 43.34c-0.2,6.31 -0.39,12.62 -0.59,18.93"/>
   <path class="fil3 str2" d="M18.35 43.37c-0.15,6.3 -0.29,12.59 -0.43,18.89"/>
   <path class="fil3 str2" d="M17.14 43.41c-0.09,6.29 -0.19,12.57 -0.28,18.86"/>
   <path class="fil3 str2" d="M15.93 43.44c-0.04,6.27 -0.08,12.55 -0.12,18.82"/>
   <path class="fil3 str2" d="M14.73 43.47c0.01,6.26 0.02,12.53 0.03,18.79"/>
   <path class="fil3 str2" d="M13.52 43.51c0.06,6.25 0.13,12.5 0.19,18.76"/>
   <path class="fil3 str2" d="M12.31 43.54c0.12,6.24 0.23,12.48 0.35,18.72"/>
   <path class="fil3 str2" d="M11.1 43.58c0.17,6.23 0.33,12.46 0.5,18.69"/>
   <path class="fil3 str2" d="M9.89 43.61c0.22,6.22 0.44,12.44 0.66,18.65"/>
   <path class="fil3 str2" d="M8.68 43.64c0.27,6.21 0.54,12.41 0.81,18.62"/>
  </g>
  <path class="fil3 str1" d="M7.47 43.68l0.97 18.59"/>
  <path class="fil6" d="M9.52 0.54c4.27,-0.3 9.83,0.49 13.89,2.01 2.45,0.92 3.51,1.17 2.84,3.85 -0.48,1.93 -5.86,1.83 -4.85,3.85 0.91,1.82 1.91,3.67 0.67,5.69 -2.32,3.75 -0.26,1.98 -3.68,3.01 -5.75,1.73 -13.22,-1.16 -15.89,-8.7 -1.05,-2.97 -0.65,-2.07 0.5,-4.85 0.49,-1.19 2.96,-1.91 3.51,-3.01 0.53,0 0.44,-1.47 1.67,-1.67 0.65,-0.11 0.62,-0.12 1.34,-0.17z"/>
 </g>
</svg>
