<svg xmlns="http://www.w3.org/2000/svg" xml:space="preserve" width="60.1185mm" height="42.3737mm" version="1.0" style="shape-rendering:geometricPrecision; text-rendering:geometricPrecision; image-rendering:optimizeQuality; fill-rule:evenodd; clip-rule:evenodd"
viewBox="0 0 3000 2400"
 xmlns:xlink="http://www.w3.org/1999/xlink">
 <defs>
  <style type="text/css">
   <![CDATA[
    .str3 {stroke:#000000;stroke-width:30;stroke-miterlimit:22}
    .str2 {stroke:#000000;stroke-width:30;stroke-miterlimit:22}
    .str0 {stroke:#000000;stroke-width:20;stroke-miterlimit:22}
    .str1 {stroke:#000000;stroke-width:10;stroke-miterlimit:22}
    .fil0 {fill:none}
    .fil1 {fill:#000000}
   ]]>
  </style>
 </defs>
  <metadata id="IndependentRegions"/>
  <text>Independent regions</text>
  <text>1000 regions</text>
  <text>Each region 2 to 10 million population</text>
  <path class="fil0 str0" d="M2209.91 2463.05c497.51,-7.72 1121.13,-426.6 1250.94,-841.69 204.1,-652.64 -452.35,-1369.37 -1065.62,-1536.64 -552.56,-150.71 -1025.58,-44.36 -1332.02,69.49 -177.64,65.99 -554.96,341.98 -721.99,501.93 -225.91,216.34 -363.6,468.56 -324.32,787.63 98.21,798.07 982.85,972.96 1621.59,972.96 0,-27.77 95.25,-15.44 123.55,-15.44"/>
  <path class="fil0 str1" d="M1851.78 77.97c1184.52,281.53 1644.75,1229.25 1019.28,2061.73"/>
  <path class="fil0 str1" d="M1851.78 77.97c788.72,281.53 1263.68,1568.67 539.7,2216.18"/>
  <path class="fil0 str1" d="M1787.35 151.8c402.62,451.41 699.99,1414.23 169.05,2061.74"/>
  <path class="fil0 str1" d="M1662.23 346.19c-216.28,822.06 -186.3,1313.85 160,1961.36"/>
  <path class="fil0 str1" d="M1522.46 266.73c-594.65,775.74 -479.74,1506.89 -110.27,2015.41"/>
  <path class="fil0 str1" d="M1116.11 266.59c-895.8,737.12 -595.57,1553.22 -202.93,1938.19"/>
  <path class="fil0 str1" d="M938.5 227.98c-1133.71,766.86 -867.31,1623.87 -202.93,1938.19"/>
  <path class="fil1" d="M1219.54 141.69c4.54,-12.09 7.3,-10.54 22.2,-13.51 0,-5.63 62.16,-20.93 71.43,-23.17l25.1 -3.86c10.17,-0.78 24.36,-5.28 36.67,-7.72 28.2,-5.6 27.9,3.09 54.06,-7.72 8.7,-3.6 47.53,-1.32 54.05,7.72 20.6,28.6 5.8,28.77 5.8,59.84 44.64,0 40.38,-4.03 77.22,-19.3 6.25,-2.59 12.15,-13.14 30.88,-15.44 10.1,-1.24 11.84,-7.49 28.96,-5.79 46.59,4.62 50.42,27.03 71.43,27.03 29.03,0 30.65,6.25 36.68,-19.3 0.34,-1.44 12.19,-14.9 13.51,-15.44 2.11,-0.88 21.99,-5.87 25.1,-5.79 15.15,0.36 38.69,7.45 44.4,21.23 6.54,15.79 59.84,4.96 59.84,-5.79 0,-21 -9.84,-50.15 23.17,-40.54 50.64,14.74 102.4,4.77 11.59,1.93 -63.82,-2 -104.56,-21.23 -171.81,-21.23 -27.34,0 -59.32,-3.69 -84.95,5.79 -9.92,3.67 -8.16,1.33 -13.51,17.38 -4,0 -6.18,9.65 -32.82,9.65 -21.98,0 -44.1,-0.98 -65.64,3.86 -6.32,1.42 -47.24,4.89 -52.12,0 -10.37,-10.37 -12.21,-7.72 -28.96,-7.72 -48.56,0 -48.9,0.53 -96.52,11.58 -23.35,5.42 -93.5,18.78 -113.9,28.96 0,1.75 -22.09,13.58 -25.1,15.44l-6.75 1.93zm1219.5 1678.94c-9.76,3.49 -13.31,6.96 -14.48,18.82 -0.42,4.23 3.74,23.7 9.65,25.1 0.05,0.01 10.15,4.21 10.62,4.82 2.8,3.66 2.9,7.49 2.9,12.55 -3.47,0 -12.39,7.19 -22.2,1.93 -0.19,-0.1 -23.07,-7.71 -23.17,-7.72 -3.23,-0.47 -19.82,0.3 -22.2,0.96l-3.86 1.93c-11.28,2.66 -14.26,0.76 -22.2,9.65 -6.21,6.96 -11.74,10.86 -17.38,17.37 -8.92,10.31 -9.01,6.41 -17.37,1.93 -13.34,-7.16 -24.27,-20.27 -42.47,-20.27 -17.37,0 -50.61,11.43 -58.88,27.99 -5.47,10.94 -3.13,-39.64 -26.06,-23.17 -12.68,9.11 -8.13,-2.55 2.9,-11.58 18.89,-15.49 26.85,-14.7 49.23,-18.34 9.32,-1.51 7.9,-4.33 18.34,0 13.26,5.5 39.83,-24.13 43.44,-15.44 0.81,1.95 2.56,2.02 2.9,6.76 0.36,5.12 4.75,26.06 11.58,26.06 0,6.81 22.95,-10.28 27.03,-10.62 12.17,-1 53.3,-5.8 62.74,-13.51 18.91,-15.46 5.32,-13.74 13.51,-25.09 1.87,-2.59 0.23,-3.01 5.8,-5.8 0,-4 6.98,-3.39 9.65,-4.34zm-153.48 119.21c-7.74,23.19 -18.34,46.27 13.51,50.19 8.99,1.11 47.02,-20.55 55.98,-11.59 1.87,1.87 8.86,8.85 11.58,7.72 14.68,-6.08 13.17,-21.23 23.17,-21.23 0,-0.86 24.36,-38.61 27.03,-38.61 0,-12.47 37.35,-4.03 42.47,-7.72 7.87,-5.67 6.06,-12.48 7.72,-3.86 0.19,0.99 9.63,25.1 0,25.1 -4.64,9.29 -17.98,-1.21 -34.75,3.86 -14.14,4.28 -33.48,45.28 -48.26,61.77 -45.21,50.44 -15.22,4.5 -42.47,-1.93 -13.45,-3.17 -17.69,0.49 -27.03,5.79 -5.33,3.02 -16.71,3.18 -27.03,13.51 -8.59,8.6 -28.02,20.63 -40.54,15.44 -5.97,-2.47 4.46,-3.86 -5.79,-3.86 0,-11.95 -18.51,-10.33 -11.59,-27.03 1.14,-2.74 10.41,-13.51 15.44,-13.51 35.98,0 37.7,3 13.51,30.89 -13.73,15.84 -30.63,23.87 -52.12,17.37l-5.8 -3.86c0,-4.35 -24.68,-7.25 -30.88,-5.79 -32.18,7.58 -45.65,-11.06 -59.85,23.16 -5.51,13.28 10.31,12.22 -15.44,25.1 0,2.19 -10.24,29.59 -11.58,32.82 -2.86,6.9 -15.91,15.44 -23.17,15.44 0,3.99 -19.3,11.73 -19.3,21.23 -7.55,0 -14.8,8.17 -17.38,-7.72 -1.41,-8.69 28.04,-21.23 32.82,-21.23 4.42,0 21.63,-15.64 23.16,-25.09 3.92,-24.17 -15.57,-25.1 -34.75,-25.1 -16.48,0 -65.64,15.02 -65.64,34.75 0,15.12 35.17,-7.05 28.96,19.31 -3.09,13.09 -15.08,9.65 -27.03,9.65 -11.77,0 -18.11,-9.2 -23.17,-19.3 -3.35,0 -10.61,-7.55 -9.65,-13.51 3.11,-19.17 31.82,-28.3 44.4,-38.61 13.68,-11.21 8.98,-2.9 17.38,-23.16 2.7,-6.53 5.79,-0.26 5.79,-17.38 0,-13.57 1.89,-21.35 -3.86,-32.82 -7.48,0 4.84,-39.46 11.58,-36.68 19.4,8.01 36.28,-11.1 25.1,-30.89 -13.91,-24.6 12.61,-31.15 30.88,-36.68 13.21,-4 29.33,-36.18 21.23,-1.93 -1.83,7.76 -4.52,24.44 -17.37,23.17 -22.4,-2.22 -31.13,-7.38 -28.96,23.17 0.53,7.34 5.67,30.24 9.65,36.68 4.91,7.95 10.62,2.14 21.23,3.86 28.75,4.67 60.59,18.94 50.19,-25.09 -2.59,-10.98 -7.72,-24.88 -7.72,-36.68 3.75,0 14.54,-11.64 17.37,5.79 2.25,13.87 -0.36,36.71 13.51,42.47 1.94,0.81 18.68,-16.67 19.31,-19.3 3.15,-13.31 37.63,-27.34 38.61,-13.51 1.1,15.6 -18.95,16.43 -38.61,32.82 0,39.32 22.51,32.82 55.98,32.82 0,-5.16 15.44,-0.17 21.23,-19.31 3.11,-10.26 21.23,-22.64 21.23,-28.96 10.92,0 6.13,-1.28 11.58,9.65l-1.93 -11.58zm-651.57 427.1c57.89,-19.31 88.57,19.54 115.83,-7.72 9.1,-9.1 8.08,-5.79 23.16,-5.79 11.46,0 -6.42,21.16 13.52,15.44 25.08,-7.2 17.17,-30.46 74.8,-35.23 35.07,-2.9 33.12,33.07 79.63,39.58 22.95,3.21 11.74,5.72 21.23,9.65 11.93,4.93 63.81,-47.13 36.68,-44.89 -26.15,2.17 -15.06,15.44 -46.33,15.44 -7.26,0 -27.07,-3.97 -34.75,-5.79 -11.8,-2.78 -14.49,-30.89 -55.02,-30.89 -9.01,0 -20.91,7.72 -29.92,7.72 0,-3.32 -7.1,-1.93 -11.58,-1.93 0,0.12 -13.51,22.66 -13.51,-7.72 0,-11.72 -11.59,-17.01 -15.44,-7.72 -2.52,6.06 -26.29,25.1 -34.75,25.1 0,4.06 -34.61,8.51 -40.54,9.65 -10.3,1.98 -16.36,7.29 -30.88,1.93 -19.88,-7.34 -19.31,5.49 -19.31,-25.09 0,-16.44 32.66,-10.47 48.26,-19.3 34.11,-19.31 -56.86,3.01 -63.7,-13.52 -5.56,-13.41 30.79,-37.87 -55.98,-1.93 -6.16,2.55 -10.33,13.73 -21.23,17.37 -7.65,2.55 -17.37,17.63 -17.37,28.96 0,5.21 2.36,-3.22 13.51,-7.72 31.13,-12.55 33.66,-9.65 63.7,-9.65 0,1.27 3.86,16.68 3.86,21.23 0,41.59 -8.52,24.61 -13.51,36.68 -1.22,2.94 -0.07,7.65 1.93,9.65l7.72 -13.51zm-1129.8 -753.91c3.08,3.51 9.57,15.68 10.14,20.27 0.11,0.85 7.86,12.21 8.69,12.54 0.06,0.03 17.31,3.85 17.38,3.86 16.09,3.11 23.91,17.56 19.3,32.82 -3.26,10.76 -27.47,3.67 -33.78,7.24 -2.1,1.18 -13.05,6.14 -17.37,4.34 -13.44,-5.59 -12.87,-3.9 -30.89,-0.97 -5.77,0.94 -23.51,12.64 -27.03,0.97 -1.83,-6.06 -3.24,-1.93 -0.96,-11.59 1.78,-7.57 12.89,-21.23 21.23,-21.23 8.91,0 19.43,0.69 27.99,-0.96 1.65,-0.32 11.94,-2.9 4.83,-2.9 -11.52,0 -54.54,2.2 -59.85,-10.62 -0.73,-1.76 14.65,-29.97 10.62,-20.27 -0.84,2.01 -2.27,-0.43 -3.86,4.83 -1.52,5.03 -24,31.65 -27.99,37.64 -3.9,0 2.88,1.5 -4.83,2.9 -5.14,0.93 -11.72,4.83 -19.3,4.83 -22.39,0 -30.13,-5.83 -54.06,-2.9 -6.96,0.85 -20.06,7.28 -21.23,14.48 -0.74,4.52 -4.83,9.11 -4.83,13.51 -1.51,0 -0.52,1.65 -5.79,2.9 -10.61,2.5 -16.23,18.18 -20.27,27.99 -2.33,5.64 8.84,-1.88 9.65,-1.93 5.21,-0.33 29.38,-5.71 33.78,-6.76 7.84,-1.86 35.87,-13.99 42.47,-9.65 4.79,3.15 17.37,5.8 17.37,10.62 0,5.87 -2.9,14.75 -2.9,18.34 -1.86,0 -5.94,7.68 2.9,10.62 3.37,1.12 10.62,6.65 10.62,11.58 0,6.14 0.22,8.69 8.69,8.69 6.65,0 6.12,-2.9 15.44,-2.9 15.5,0 35.35,-1.65 49.22,5.8 5.88,3.16 13.02,-0.92 -9.65,7.72 -10.13,3.86 -18,7.79 -22.68,17.38 -18.49,37.81 30.18,37.65 51.15,37.65 21.54,0 62.94,-16.41 75.78,-16.41 7.04,0 20.97,10.38 19.31,17.38 -1.69,7.12 -4.12,5.24 -8.69,11.58 -7.15,9.93 5.4,-15.51 5.8,-17.37 3.49,-16.42 17.54,-16.83 32.82,-18.34 6.68,-0.66 14.87,1.24 4.83,0 -4.34,-0.54 -11.58,-6.57 -11.58,-10.62 0,-10.07 -2.04,-20.21 5.79,-27.99 -0.63,0 -3.85,6.26 -8.69,7.72 -6.12,1.86 1.43,2.9 -11.58,2.9 -0.83,0 -4.4,-2.37 -8.69,-2.9 -11.41,-1.4 -21.51,-1.94 -30.89,-9.65 -16.78,-13.8 7.38,-32.82 12.55,-32.82 -2.86,0 7.93,-8.51 4.34,-8.69 -12.9,-0.63 -19.2,14.48 -31.44,20.59 -10.93,5.46 -18.98,4.51 -23.09,4.51 0,4.91 17.65,6.22 20.27,6.75 2.3,0.47 12.89,16.41 13.52,16.41 7.98,10.65 14.48,1.78 14.48,15.44 0,6.97 0.13,5.34 -7.72,10.62 -15.78,10.6 -61.21,5.79 -83.01,5.79 -1.43,0 -14.83,-3.02 -15.44,-3.86 -5.6,-7.77 23.16,-26.59 22.68,-34.75 -4.86,-1.82 -15.5,-9.31 -20.51,-10.13 -25.21,-4.16 -32.45,0.48 -38.85,0.48 0,-3.64 -1.2,2.13 -1.93,-3.86 -0.94,-7.63 -8.11,-25.74 -0.96,-30.89 11.9,-8.58 21.94,-2.64 25.09,-5.79 1.77,-1.77 7.72,-5.82 7.72,-8.69 15.18,-7.61 16.89,6.74 25.58,2.41 0,-8.16 14.91,-13.4 19.79,-14 10.26,-1.25 20.69,-5.79 31.85,-5.79 12.86,0 23.37,0.96 35.72,0.96 0,3.52 0.02,-3.65 0,-3.86 -1.83,-14.87 -2.59,0.41 -0.96,-19.3 0.6,-7.26 6.32,-20.11 3.86,-26.06 -1.55,-3.74 0.89,-4.87 -4.83,-5.8 -8.09,-1.31 -4.24,-2.9 -13.51,-2.9 -9.64,0 -39.13,-14.53 -43.43,-23.17 -0.79,0 -9.91,-6.49 -10.14,-6.75zm-5.68 -981.01c33.18,0.01 21.15,-9.56 38.61,-27.02 38.09,-38.09 38.72,-57.9 57.91,-104.25 6.68,-16.13 25.7,-22.38 42.47,-15.44 10.58,4.38 4.56,30.89 50.19,30.89 20.42,0 38.61,-15.81 38.61,-34.75 0,-26.89 17.83,-3.29 0,-46.33 -9.22,-22.26 15.29,-14.07 38.61,-30.88 34.63,-24.97 -5.73,-10.67 42.47,-34.75 0,-10.71 -2.98,5.56 15.44,-7.72 10.63,-7.66 53.79,-28.94 38.61,7.72 -7.07,17.06 -79.13,17.38 -54.05,42.47 9.41,9.42 7.29,12.04 27.03,3.86 19.77,-8.2 43.56,-4.19 61.78,-15.44 10.41,-6.44 44.3,-16.88 61.77,-27.03 15.4,-8.94 61.77,-31.44 61.77,-50.19 0,-25.17 -2.71,-26.3 27.03,-38.61 32.25,-13.34 89,-6.92 69.5,-54.06 -6.4,-15.47 -73.41,-8.31 -84.94,0 -11.21,8.08 -60.56,15.46 -88.8,38.61 -3.57,2.92 -60.19,36.35 -65.64,38.61 -1.9,0.79 -24.47,3.86 -27.03,3.86 0,-53.41 5.67,-39.62 61.77,-65.64 13.62,-6.32 149.88,-61.77 154.44,-61.77 13.26,0 49.86,0.52 57.91,3.86 0.75,0.31 33.87,23.17 38.61,23.17 0,4.09 11.59,38.41 11.59,38.61 33.16,16.59 7.04,3.86 30.88,3.86 0,-8.63 19.31,-9.68 19.31,-30.89 0,-45.57 26.24,41.44 11.58,61.78 -17.09,23.71 -68.6,34.75 -96.52,34.75 -94.93,0 -62.25,61.41 -100.38,77.22 -18.63,7.72 -6.15,29.2 27.03,15.44 31.39,-13.02 46.33,-0.01 46.33,30.88 0,13.43 -57.82,47.15 -3.86,69.5 5.84,2.42 63.41,-7.72 81.08,-7.72 76.62,0 35.21,-12.18 61.77,-23.17 44.5,-18.41 17.45,25.97 65.64,-46.33 9.19,0 6.79,-37.26 50.19,-19.3 23.9,9.89 2.07,73.82 -15.44,81.08 -33.51,13.9 8.28,63.34 -3.86,92.66 -7.47,18.02 -66.6,7.25 -84.94,11.58 -35.06,8.28 -54.05,39.53 -54.05,77.22 17.72,0 -34.75,82.58 -34.75,84.95 -9.72,0 -118.8,46.33 -119.69,46.33 0,7.69 -27.03,10.92 -27.03,34.75 -8.42,0 -12.71,29.76 3.86,46.33 0.18,0.18 38.51,49.96 38.61,50.19 2.81,6.79 -11.58,80.9 -11.58,50.19 0,-3.79 14.07,-42.43 -11.58,-50.19 -18.75,-5.68 -7.7,-11.59 -27.03,-11.59 -0.21,0 -46.33,-8.75 -46.33,-19.3 0,-3.08 -3.86,-3.02 -3.86,-19.3 0,-71.6 52.66,-62.94 61.78,-84.94 5.75,-13.86 -9.8,-42.47 30.88,-42.47 0.76,0 43.51,-9.56 46.33,-11.59 24.94,-17.97 30.89,3.39 30.89,-38.61 0,-27.28 -38.75,-2.98 -50.19,-7.72 -20.84,-8.63 -24.34,-76.41 65.63,-11.59 27.21,19.61 38.61,-40.19 38.61,-57.91 0,-44.65 28.75,-65.63 69.5,-65.63 0,-10.54 34.75,11.88 34.75,-54.06 0,-1.91 -3.86,-11.67 -3.86,-27.03 6.54,0 8.04,-12.22 -3.86,11.58 -3.18,0 -44.31,46.33 -81.08,46.33 -11.03,0 -66.72,20.45 -69.5,19.3 -37.92,-15.69 -64.69,-4.84 -77.22,-57.91 -8.68,-36.73 11.68,-69.5 -15.44,-69.5 0,-12.26 -46.33,4.18 -46.33,-30.89 0,-58.52 44.77,-22.29 -46.33,15.44 -17.94,7.43 -97.09,19.3 -119.69,19.3 -2.5,0 -48.41,22.7 -19.3,34.75 4.62,1.91 29.3,5.45 15.44,19.3 -7.45,7.45 -57.91,3.23 -57.91,23.17 -30.11,0 -20.25,63.24 -42.47,54.05 -21.66,-8.96 -10.99,-29.16 -34.75,-19.3 -37.35,15.49 -35.3,-35.47 -46.33,-30.89 -12.51,5.19 -44.86,65.64 -19.3,65.64 31.27,0 15.44,13.41 15.44,46.33 -6.32,0 -14.04,42.54 -23.17,3.86 -4.71,-19.96 9.81,-55.29 -34.75,-23.17 -24,17.31 -5.81,1.94 -23.17,19.3 -11,11 -70.94,54.06 -19.3,54.06 32.06,0 35.69,-3.86 65.64,-3.86 0,13.8 9.57,-14.2 19.3,27.03 10.93,46.31 -15.44,29.44 -15.44,61.77 -11.06,0 7.19,38.61 -23.17,38.61 0,-11.72 -69.3,29.73 -34.75,15.44 16.51,-6.84 44.39,-5.8 57.91,7.72 -13.88,0 -12.21,31.84 -42.47,19.31 -15.35,-6.36 -54.06,10.02 -54.06,38.61 0,48.66 4.41,30.11 -34.75,46.33 -13.39,5.55 -69.5,17.71 -73.35,27.03 -6.67,16.11 -15.75,-9.48 -38.61,0 -7.33,3.04 -41.69,38.61 0,38.61 59.43,0 37.9,-15.7 69.5,-23.17 10.93,-2.59 10.97,-11.59 38.61,-11.59 0,-4.05 25.42,-7.72 34.75,-11.58 30.27,-12.54 21.76,-1.41 38.61,15.44 25.99,25.99 1.93,69.5 -11.59,69.5 -6.53,0 -61.77,21.68 -61.77,38.61 0,6.19 -15.44,21.07 -15.44,34.75 -6.05,0 -29.55,36.34 11.58,19.3 10.35,-4.29 15.65,-15.44 42.47,-15.44 0,-6.86 10.56,-2.02 19.31,-23.16 0.62,-1.49 84.94,-33.28 84.94,-3.86 0,76.27 22.53,23.8 -30.89,77.22 -10.15,10.15 -57.91,10.13 -57.91,34.75 -19.58,0 -57.91,-0.79 -57.91,19.31 -11.69,0 -15.13,36.77 27.03,19.3 8.01,-3.32 -1.55,6.64 15.44,-3.86 0.57,-0.35 51.92,-16.83 57.91,-19.31 25.7,-10.63 28.96,0.01 46.33,-0.01 -12.83,8.55 -94.88,59.5 -100.38,61.77 -22.67,9.39 -13.46,13.37 -38.61,19.31 -12.39,2.92 -70.97,54.05 -77.22,54.05 -10.93,21.84 -24.83,54.38 -3.86,69.5 28.41,20.49 3.58,12.13 38.61,3.86 43.97,-10.37 -5.59,-58.36 57.91,-73.36 31.22,-7.38 11.49,24.38 65.64,11.59 30.77,-7.27 0.29,-11.59 30.88,-11.59 6.1,0 45.63,-22.47 50.19,-27.03 16.29,-16.29 107.68,-33.07 131.27,-34.75 29.33,-2.08 52.73,7.72 92.66,7.72 19.64,0 54.05,4.37 54.05,27.03 0,12.42 -37.43,71.3 -42.47,92.66 -0.11,0.44 -61.77,70.75 -61.77,92.66 -8.94,4.47 -49.4,69.91 -57.91,84.94 -12.61,22.25 -35.45,132.65 -38.61,158.3 -1.28,10.37 -13.09,10.75 23.17,19.3 28.89,6.81 21.61,0.8 30.89,23.17 13.58,32.76 -58.67,61.33 -42.47,100.38 7.21,17.38 29.02,22.61 46.33,15.44 11.11,-4.6 6.94,-9.11 27.03,-11.59 44.93,-5.53 16.44,-15.16 81.08,11.59 38.96,16.12 -21.6,98.88 -27.03,111.97 -3.56,8.59 -7.72,29.45 -7.72,38.61 36.15,0 75.36,5.85 108.11,-7.72 26.83,-11.12 81.08,-20.34 81.08,19.3 0,2.55 -7.72,32.55 -7.72,46.33 2.03,0 41.85,15.44 69.5,15.44 2.6,0 113.81,-48.41 73.36,7.72 -15.83,21.96 -58.04,32.03 -88.8,27.03 -71.4,-11.6 -54.5,-28.15 -77.22,-84.94 -57.54,0 -104.82,22.37 -150.58,11.58 -12.53,-2.95 -38.61,-47.21 -38.61,-54.06 0,-20.43 19.31,-23.41 19.31,-54.05 -5.05,0 -35.59,-10.57 -42.47,-7.72 -41.35,17.13 -89.8,-15.44 -127.41,-15.44 -32.93,0 -196.35,-23 -299.78,-76.96 -131.88,-68.81 -153.44,-114.34 -180.74,-156.24 -6.37,-9.78 -28.4,-42.96 -29.84,-51.88 -8.88,-54.88 -8.85,-64.64 2.7,-110.97 -9.91,42.13 6.81,105.71 22.83,140.47 25.61,55.57 104.23,122.72 168.92,159.43 124.84,70.84 295.26,89.44 383.38,89.44 15.54,0 22.28,-3.86 30.89,-3.86 12.68,0 -46.54,-55.98 -48.26,-55.98 0,-4.89 -3.96,-8.36 -5.79,-13.51 -7.93,-22.33 44.96,-68.31 41.5,-83.01 -7.38,-31.28 -58.87,0.27 -58.87,-33.78 0,-17.91 13.51,-74.6 13.51,-87.84 0,-62.67 79.65,-206.71 124.51,-240.34 0,-2.04 15.68,-38.61 17.38,-38.61 36.94,-43.76 55.59,-83.1 16.41,-83.98 -10.89,-0.25 -78.05,-14.48 -92.66,-14.48 -25.45,0 -69.03,19.29 -92.67,21.24 -3.22,0.26 -29.71,25.68 -32.82,26.06 -6.43,0.79 -46.33,20.76 -46.33,23.17 -26.06,8.7 -14.32,17.38 -48.26,17.38 -13.23,0 -8.13,-13.52 -15.44,-13.52 0,-4.04 -28.11,-20.34 -31.85,9.65l-2.9 7.72c-14.67,6.08 -29.7,24.91 -36.68,27.03 -14.17,4.28 -11.48,20.02 -30.89,23.17 -12.32,2 -11.86,16.6 -30.88,13.51 -19.38,-3.15 -12.06,-18.66 -25.1,-17.37 -10.69,1.06 -108.35,36.8 -119.69,42.47 -34.42,17.21 -101.49,45.21 -113.17,87.81 3.13,-12.07 -6.15,-21.44 -0.64,-34.76 2.43,-5.89 54.05,-64.11 54.05,-65.64 7.28,-3.64 104.24,-73.88 104.24,-81.08 0,-39.14 -1.91,-32.33 19.31,-61.78 17.46,-24.24 54.81,-31.58 81.08,-42.47 36.76,-15.24 21.92,-4.37 7.72,-38.61 -9.18,-22.13 38.31,-56.24 61.78,-61.78 10.55,-2.49 6.95,-15.44 38.61,-15.44 0,-4.2 20.55,-11.59 23.17,-11.59 0,-17.01 23.17,8.8 23.17,-30.89 0,-36.62 -45.99,10.66 -61.78,15.44 -48.63,14.72 -33.6,38.61 -92.66,38.61 -28.59,0 -48,-0.53 -30.88,-34.75 16.45,-32.9 22.51,-16.11 -3.86,-27.03 -10.76,-4.45 -11.22,4.22 -23.17,-7.72 -13.99,-13.99 -21.49,-6.93 7.72,-30.89 38.56,-31.61 148.86,-33.03 166.02,-50.19 15.33,-15.33 15.44,-8.49 15.44,-38.61 0,-43.4 -93.2,20.13 -111.97,23.17 -14.95,2.43 -30,13.29 -54.06,19.3 -70.84,17.71 -72.48,33.53 -84.94,-19.3 -3.69,-15.64 22.81,-27.03 34.75,-27.03 0,14.69 15.44,-24.09 15.44,-27.03 10.26,0 38.95,-42.47 84.94,-42.47 5.78,0 30.89,-14.93 30.89,-34.75 12.63,0 7.72,-47.47 7.72,-57.91 5.8,0 42.9,-23.17 46.33,-23.17 0,-5.6 24.62,-5.37 38.61,-15.44 15.21,-10.95 45.18,-11.64 50.19,-42.47 2.46,-15.17 9.95,-11 -3.86,-38.61 -13.19,0 6.91,-20.84 -50.19,7.72 -22.78,11.39 -94.99,54.83 -104.24,73.36 -7.52,0 -54.06,43.31 -54.06,-19.3 0,-31.19 122.39,-37.33 104.25,-81.08 -6.62,-15.98 -73.66,24.94 -100.38,11.58 -20.32,-10.16 -7.72,-36.08 -7.72,-54.05 0,-25.36 -4.18,-27.03 7.72,-27.03 0,-3.89 19.2,-14.35 30.89,-11.59l7.72 3.86c0,9.06 23.16,1.87 23.16,15.44 11.06,0 14.63,9.92 38.61,0l7.72 0z"/>
  <path class="fil1 str2" d="M2479.19 491.12c-16.96,-42.45 88.8,-59.61 88.8,17.38 -0.41,0 -26.61,22.27 -61.78,7.72 -26.44,-10.93 -2.28,-20.97 -27.03,-25.1z"/>
  <path class="fil0 str2" d="M3076.66 774.9c2.87,-29.02 30.76,-34.09 54.06,-27.03 7.27,2.2 27.71,15.51 28.96,23.17 0.97,6.01 15.68,54.06 1.93,54.06 0,8.34 -52.03,-3.16 -63.7,-11.59 -6.62,-4.79 -11.59,-14.49 -11.59,-23.17l-0.96 -8.68"/>
  <path class="fil0 str2" d="M2912.57 587.64c-7.18,0 -32.78,-10.97 -34.75,-19.31 -4.91,-20.8 -5.79,0.01 -5.79,-30.88 0,-19.09 29.59,-16.73 32.82,-13.51 10.13,10.13 13.52,9.98 13.52,27.03 0,13.57 -15.56,27.03 -27.03,27.03"/>
  <path class="fil1 str2" d="M2701.65 736.29c-3.14,15.71 -39.22,12.73 -51.16,6.75 0,-2.25 -5.22,-6.69 0,-19.3 9.41,-22.72 21.15,-19.31 44.4,-28.96 5.83,-2.42 21.24,-2.34 21.24,9.65 0,13.69 -0.15,19.54 -13.52,25.09 -1.77,0.74 -0.76,5.73 -0.96,6.76z"/>
  <path class="fil1 str2" d="M2906.28 861.77c11.01,11.01 -22.23,59.68 -60.82,31.85 -15.12,-10.9 -11.35,-34.98 1.93,-48.26 2.07,-2.07 55.98,-18.68 55.98,9.65 0,3.22 0,6.43 0,9.65l2.9 -2.9z"/>
  <path class="fil0 str2" d="M2772.11 561.58c6.64,9.96 15.44,17.52 15.44,30.89 -3.08,0 -0.86,3.75 -11.59,7.72 -21.88,8.1 -79.15,13.21 -79.15,-19.3 0,-10.4 13.48,-17.38 25.1,-17.38 9.64,0 50.19,-5.45 50.19,7.72l3.86 3.86"/>
  <path class="fil1 str2" d="M2705.65 491.4c-16.06,15.44 -18.5,14.15 -35.85,-3.17 -1.27,-1.26 -10.64,-23.75 -1.93,-30.89 14.53,-11.91 18.87,-9.99 36.68,-17.38 27.66,-11.46 66.69,8.33 63.7,38.61 -1.84,18.62 -3.78,20.57 -17.37,25.1 -11.67,3.89 -47.8,-9.8 -45.23,-12.28z"/>
  <path class="fil1 str2" d="M2619.6 357.92c0,24.94 -40.64,25.9 -48.26,10.61 -6.39,0 -1.2,-36.08 28.96,-28.96 8.42,1.99 19.3,6.15 19.3,18.35z"/>
  <path class="fil1 str2" d="M2673.66 595.37c12.04,15.04 -13.58,29.92 -28.96,29.92 -23.8,0 -23.16,2.1 -23.16,-30.89 0,-8.48 7.54,-28.47 19.3,-27.03 17.62,2.17 28.96,10.29 28.96,27.03l3.86 0.97z"/>
  <path class="fil1 str2" d="M2872.5 694.79c22.73,11.38 -63.91,35.98 -54.06,-5.79 2.87,-12.14 37.31,-27.55 50.19,-9.65 9.82,13.65 0,11.51 0,19.3l3.86 -3.86z"/>
  <path class="fil1 str2" d="M2953.58 677.41c-20.04,0 -26.49,38.61 9.65,38.61 16.95,0 34.47,-38.61 -9.65,-38.61z"/>
  <path class="fil0 str2" d="M3154.32 978.56c-5.03,-15.11 -25.71,-26.55 -40.54,-28.96 -9.23,-1.5 -24.77,9.61 -27.99,19.3 -4.2,12.61 -3.07,38.59 9.65,47.3 13.56,9.28 40.54,10.58 56.95,6.76 9.01,-2.1 4.14,-1.93 8.69,-1.93 3.5,-5.26 9.22,-7.17 5.79,-15.44 -0.43,-1.04 -1.18,-9.87 -3.86,-12.55 -1.56,-1.56 -2.7,-5.79 -5.79,-6.75"/>
  <path class="fil0 str2" d="M2989.27 1062.54c-10.81,-5.41 -18.88,-7.18 -27.99,1.93 -8.25,8.25 -8.9,13.82 -5.79,24.13 3.7,12.27 49.75,9.54 54.05,4.83 8.27,-9.08 7.75,-15.98 5.79,-27.99 -1.65,-10.15 -14.63,-10.92 -22.2,-9.65"/>
  <path class="fil1 str2" d="M2965.62 964.57c-10.6,-3.53 -19.55,-11.21 -30.4,-3.38 -9.74,7.02 -15.99,27.95 -3.86,36.68 12.43,8.94 47.29,21.5 47.29,-5.79 0,-13.87 0.67,-11.39 -5.79,-23.17l-4.83 -5.79 -2.41 1.45z"/>
  <path class="fil1 str2" d="M3050.56 840.05c7.05,-11.07 1.45,-3.61 1.45,-10.13 -2.81,-1.41 -7.44,-4.83 -10.62,-4.83 -7.55,0 -31.98,7.08 -32.82,15.44 -0.87,8.73 -1.45,18.31 10.62,20.27 2.99,0.48 5.64,3.93 11.58,0.97 13.55,-6.77 6.74,-5.77 15.44,-14.48 2.09,-2.09 1.14,-2.21 4.34,-7.24z"/>
  <path class="fil0 str2" d="M2597.84 827.97c17.28,0 16.35,-1.17 31.85,5.79 6.36,2.85 7.84,4.97 10.62,12.55 2.64,7.21 2.29,33.7 -2.9,39.57 -10.66,12.07 -84.41,24.19 -83.01,-6.75 1.24,-27.38 9.71,-26.43 19.3,-47.3 4.23,-9.2 16.97,-20.79 28.96,-19.31 1.1,0.13 10.4,1.9 10.62,1.93"/>
  <path class="fil1 str2" d="M2779.79 890.23c11.92,-7.19 -33.31,-11.32 -35.23,4.34 -1.63,13.3 -2.2,21.35 12.55,23.17 11.26,1.38 12.9,5.53 24.13,-2.9 0,-2.18 0.57,-25.82 -1.45,-24.61z"/>
  <path class="fil0 str2" d="M2872.94 1037.43c0,-6.51 -4.23,-3.48 -15.44,-3.86 -23.35,-0.78 -18.88,0.03 -35.72,13.51 0,5.37 -8.6,9.99 -0.96,32.82 1.16,3.47 8.06,19.41 12.55,20.27 9.64,1.86 10.45,9.49 27.99,3.86 1.68,-0.54 15.11,-10.28 17.38,-12.55"/>
  <path class="fil1 str2" d="M2795.23 1163.4c-11.12,-9.41 -13.92,-7.32 -31.37,-11.1 -15.07,-3.26 -21.8,-4.26 -24.13,-23.17 -2.31,-18.7 11.04,-22.11 27.03,-18.34 13.73,3.25 27.03,24.05 27.03,37.65 0,8.98 -2.96,11.23 1.45,14.96z"/>
  <path class="fil0 str2" d="M3186.63 1128.17c24.3,0 6.31,61.78 -17.38,61.78 -16.47,0 -16.24,-20.27 -13.51,-31.85 0.86,-3.67 8.38,-15.21 13.51,-16.41 3.45,-0.81 3.76,-2.9 9.65,-2.9"/>
  <path class="fil0 str2" d="M3285.08 1259.44c-18.54,-13.91 -22.69,3.93 -31.85,7.72 -3.08,1.28 -6.24,13.03 -4.83,17.38 4.73,14.58 0.27,16.41 15.44,16.41 17.6,0 11.97,-3.23 20.27,-4.83 10.64,-2.05 10.27,-37.64 -11.58,-37.64l-1.93 0"/>
  <path class="fil1 str2" d="M3321.75 1421.61c-4.89,12.24 -21.23,-2.91 -21.23,41.5 2.76,0 9.89,24.95 32.82,15.44 23.24,-9.64 8.62,-43.51 -3.86,-55.98l-7.73 -0.96z"/>
  <path class="fil0 str2" d="M3315.95 1550.95c-10.63,-4.26 -31.71,-10.07 -41.5,-4.83 -1.44,0.77 -11.8,-0.36 -3.86,6.76 12.25,10.99 15.61,3.37 26.06,7.72 0.05,0.02 11.22,0 12.55,0"/>
  <path class="fil0 str2" d="M3214.6 1398.44c5.72,-11.43 16.35,-9.65 27.99,-9.65 10.73,0 16.56,27.92 10.62,35.72 -6.17,8.1 -11.36,23.17 -27.03,22.2 -14.01,-0.87 -29.73,-9.65 -30.88,-9.65 -8.04,-16.05 -3.61,-19.24 9.65,-27.99l4.83 -1.93"/>
  <path class="fil0 str2" d="M3167.31 1599.21c-7.89,-10.14 -11.03,-10.92 -2.9,-22.2 5.21,-7.22 17.03,-10.19 25.1,-13.51 5.03,-2.07 19.51,1.96 24.13,4.82 11.96,7.41 21.23,3.78 21.23,23.17 0,13.27 -2.26,38.78 -18.34,40.54 -7.26,0.79 -37.05,7.21 -44.4,10.62 -7.19,3.33 -10.85,0.26 -19.3,8.69 -5.95,5.93 -9.42,6.28 -13.51,14.48 -8.74,17.5 -21.88,49.26 -8.69,67.56 5.87,8.14 3.65,6.76 13.51,6.76 27.9,0 29.65,-33.78 81.08,-33.78 29.81,0 57.91,3.87 57.91,-34.75"/>
  <path class="fil0 str2" d="M3206.88 1782.6c-12.38,-8.26 -38.29,2.83 -41.5,16.41 -10.9,37.8 43.18,52.38 66.6,28.96 16.21,-16.21 7,-38.13 -1.93,-55.98l-1.93 -3.86"/>
  <path class="fil0 str3" d="M684.23 1952.8c-11.55,-3.85 -22.34,-11.49 -25.1,-23.17 -4.55,-19.24 -6.68,-24.05 13.52,-38.61 2.7,-1.94 40.09,-20.63 34.75,-7.72 -1.9,4.6 -18.03,6.7 -23.17,7.72 0,3.77 -58.43,20.87 -65.64,-9.65 -2.02,-8.55 -3.86,-1.95 -3.86,-19.31 0,-11.57 16.08,-21.88 23.16,-28.96 1.15,-1.15 17.3,-5.79 17.38,-5.79 0,-6.33 23.32,-2.65 27.03,-11.58 9.31,-22.48 3.43,-17.38 -19.3,-17.38 -12.55,0 -25.75,7.76 -28.96,-5.79 -2.1,-8.9 -7.2,-9.06 -9.65,-28.96 -1.45,-11.79 -8.53,-24.95 5.79,-30.89 18.92,-7.86 23.78,6.69 59.85,-19.3 7.07,-5.1 15.22,-21.29 -1.93,-11.58 -12.29,6.96 -50.56,21.02 -65.63,15.44 -7.24,-2.68 -18.4,-11.59 -27.03,-11.59 -7.91,0 1.58,-3.86 -11.58,-4.83 -4.45,-0.96 -21.2,-28.92 -7.72,-45.37 7.89,-9.63 8.71,-9.18 23.17,-11.58 0,-4.39 30.88,-13.2 30.88,-23.17 0,-2.45 30.43,-28.96 38.61,-28.96 5.32,0 42.82,-2.4 46.33,-3.86 9.82,-4.07 2.83,-9.65 19.3,-9.65 0,-2.79 24.3,-17.72 28.96,-28.96 3.33,-8.05 9.86,-10.63 11.58,-21.23 2.5,-15.4 9.65,-13.79 9.65,-28.96 4.05,0 11.66,-48.07 11.58,-48.26 -5.93,-14.35 -42.8,-3.53 -52.12,5.79 -2.98,2.98 -17.38,16.5 -17.38,3.86 6.64,0 7.23,-13.1 3.86,-21.23 -2.78,-6.72 3.05,-18.18 -1.93,-25.09 -13.79,-19.17 11.58,-37.53 11.58,-46.33 10.33,0 11.7,-32.82 25.1,-32.82 0,-15.7 82.62,-21.52 40.54,-11.59 -36,8.49 -79.52,3.86 -117.76,3.86 58.28,0 64.62,-5.55 52.12,44.4 -3.89,0 -0.53,4.38 -7.72,11.58 -19.59,19.59 -74.47,44.3 -100.38,27.03 -6.34,-4.23 -22.88,-9.84 -17.37,-23.16 4.45,-10.77 -1.1,9.58 -1.93,11.58 -1.13,2.73 2.01,4.1 -1.93,-7.72 -3.79,0 -5.79,11.28 -5.79,15.44 2.61,0 5.79,6.42 5.79,9.65 6.14,3.06 9.19,19.3 -9.65,19.3 -13.03,0 -6.55,-19.3 -27.03,-19.3 -31.82,0 -46.32,2.23 -77.22,11.58 -11.98,3.62 -19.96,28.23 -7.72,23.17 10.08,-4.17 30.29,-3.57 42.47,-9.65 50.48,-25.25 31.1,21.29 23.17,23.17 -21.39,5.05 3.5,23.63 -11.58,17.37 -32.49,-13.48 -84.31,-16.53 -119.69,-11.58 -8.56,1.2 -33.98,5.27 -28.96,17.38 3.15,7.6 67.93,2 86.87,5.79 19.12,3.82 7.26,5.79 34.75,5.79 17.73,0 27.03,-3.86 46.33,-3.86 34.74,0 1.42,2.63 -19.3,15.44 -15.21,9.4 -90.54,26.02 -108.11,23.17 -20.45,-3.32 -7.78,-14.94 -55.99,-7.72 -1.86,0.28 -101.39,32.16 -102.31,32.82 -1.65,1.19 -18.55,8.89 -19.31,9.65l-7.72 5.79c0,2.78 -28.95,21.1 -28.95,32.82 -7.91,0 -44.4,16.92 -44.4,23.17 -3.64,0 -2.46,1.75 1.93,-1.93 45.29,-38.05 51.1,-7.72 61.78,-7.72 0.51,1.01 12.93,17.05 13.51,17.38 15.95,9.02 8.98,-20.29 38.61,-25.1 7.27,-1.18 34.05,-11.58 38.61,-11.58 0,-4.61 -1.1,1.1 3.86,-3.86 -10.4,0 8.29,-7.72 9.65,-7.72 6.09,0 11.18,-5.79 17.38,-5.79 14.85,-29.66 -6.6,-36.28 -32.82,-30.89 -4.66,0.96 -38.16,12.04 -27.03,23.17 12.26,12.26 6.06,18.85 27.03,15.44 22.85,-3.71 51.42,7.72 75.29,7.72 2.33,0 45.89,7.54 46.33,7.72 12.47,5.17 10.28,7.37 23.17,-1.93 13.8,-9.96 32.18,-15.44 52.12,-15.44 -0.79,0 -6.52,-3.86 -15.44,-3.86 0,-5.48 -9.65,0.29 -9.65,-25.1 0,-8.22 -28.71,-18.3 -36.67,15.44 -1.52,6.44 5.71,15.14 0,28.96 -4.01,9.71 12.23,-7.55 23.16,-9.65 15.12,-2.91 12.25,-9.65 34.75,-9.65 0,-3.13 31.76,-9.56 36.67,-11.59 27.09,-11.2 1.27,1.41 -3.86,-13.51 -7.91,-23.06 -3.11,-26.91 13.51,-40.54 11.64,-9.54 4.23,-3.71 21.23,-7.72 8.62,-2.03 26.41,-5.79 34.75,-5.79 0,3.28 21.54,13.35 1.93,40.54 -0.28,0.39 -7.99,5.79 -9.65,5.79 6.11,0 7.75,-21.23 50.19,-21.23 -5.64,5.66 -14.14,-3.64 -21.23,-5.79 -8.33,-2.53 -19.13,-29.83 -13.51,-36.68 10.97,-13.38 14.48,-24.62 36.68,-13.51 16.32,8.17 17.88,0.52 28.96,23.17 4.14,8.46 1.93,29.76 1.93,-9.65 0,-19.08 38.77,-19.27 34.75,-28.96 -3.05,-7.35 -9.65,-1.83 -9.65,-23.16 0,27.06 -47.7,39.32 -67.56,27.03 -8.32,-5.15 -13.51,1.97 -13.51,-25.1 0,-15.93 15.73,-15.58 0,-7.72 0,9.78 -35.16,13.51 -42.48,13.51 -32.81,0 17,-4.05 28.96,1.93 28.71,14.36 17.72,6.47 27.03,28.96l0 3.86"/>
  <path class="fil0 str2" d="M2110.83 243.44c0,-4.7 2.67,-22.24 3.86,-25.1 4.89,-11.79 23.81,-10.1 34.75,-13.51 21.51,-6.72 33.42,1.93 40.54,1.93 7.71,15.42 13.51,0.98 13.51,36.68 0,16.13 -11.41,13.19 -21.23,21.23 -12.29,10.06 -24.8,1.85 -38.61,-3.86 -21.22,-8.77 -21.15,21.92 -30.88,36.67 -0.35,0.53 -7.72,15.21 -7.72,15.44 -25.46,16.97 -37.2,63.93 -5.8,36.68 22.82,-19.79 20.29,-21.64 27.03,-50.19 0.85,-3.57 -2.7,-5.79 5.79,-5.79 0,-8.88 42.14,-5.29 50.19,-7.72 5.62,-1.7 26.84,-16.32 32.82,-19.3 0,-4.52 13.51,-24.21 13.51,-48.27 0,-12.81 2.98,-45.27 -15.44,-48.26 -2.6,-0.42 -80.76,-1.97 -81.08,-1.93 -13.23,1.63 -44.78,18.85 -59.85,25.1 -9.64,3.99 -46.33,56.74 -46.33,67.57 0,27.1 2.13,17.37 28.96,17.37 19.27,0 11.01,-9.65 27.03,-9.65 12.64,0 34.47,0.59 27.03,-17.37 -5.03,-12.15 -14.48,-15.65 -28.96,-9.65 -2.22,0.92 -2.27,-1.45 -9.65,3.86 -2.6,1.87 -9.24,3.65 -13.52,5.79"/>
  <path class="fil1 str2" d="M2256.58 302.33c-18.77,43.78 40.28,8.56 43.43,-4.83 4.29,-18.18 8.06,-19.69 30.89,-25.09 18.99,-4.49 -25.73,58.64 -21.23,69.5 5.64,13.61 51.4,5.17 54.06,11.59 5.42,13.07 -13.52,22.46 -13.52,42.47 3.13,0 18.32,13.51 40.54,13.51 9.74,0 2.99,17.37 -23.17,17.37 -19.13,0 7.47,-29.34 -54.05,-3.86 -41.31,17.11 -45.36,12.63 -67.57,46.33 -5.29,8.03 -4.48,12.2 -9.65,17.38 -3.16,3.17 1.49,9.86 -3.86,19.3 -18.83,33.25 0,44.51 0,79.15 0,15.31 -44.39,21.72 -55.98,25.1 -12.09,3.53 -11.14,-1.35 -9.65,-19.31 3.07,-37.02 36.55,-46.07 40.54,-52.12 10.16,-15.4 3.39,-52.12 21.23,-52.12 10.11,0 11.59,-13.64 11.59,-23.17 -40.4,0 -63.46,32.82 -73.36,32.82 -12.16,0 -13.62,-6.39 -15.44,-21.23 -1.49,-12.08 7.54,-45.38 17.38,-54.06 2.85,-2.51 20.32,-13.55 25.09,-11.58 11.04,4.57 3.2,39.87 34.75,34.75 24.64,-4 14.82,-13.77 32.82,-21.23 0.18,-0.07 17.24,-11.66 25.09,-13.51 17.01,-4.02 -10.41,-27.9 15.44,-38.61 18.14,-7.51 16.42,-23.29 7.72,-21.23 -13.19,3.12 -15.91,-3.04 -27.03,-1.93 -15.38,1.52 -34.05,4.71 -44.4,-9.65 -4.58,-6.35 0,-10.78 0,-19.31 3.06,0 14.76,-11.58 19.3,-11.58l-0.96 -4.82z"/>
  <path class="fil0 str2" d="M1834.77 392.09c13.17,-52.67 63.7,-55.69 63.7,-21.23 8.92,0 12.33,-21.45 15.44,-28.96 9.61,-23.17 5.8,47.88 5.8,54.06 0.85,0 14.5,5.32 17.37,5.79 0.23,0.04 11.98,-1.76 9.65,3.86 -1.34,3.23 -26.77,-3.8 -34.75,15.44 -21.87,52.78 -63.87,-24.1 -71.43,-5.79 -3.39,8.21 28.02,23.72 32.82,36.68 4.4,11.88 3.3,20.06 15.44,25.09 19.36,8.03 -3.34,51.77 36.68,27.03 2.64,-1.63 39.48,-25.1 42.47,-25.1 0,-4.72 2.9,-8.35 0,5.79l-5.79 13.51c-13.62,50.25 8.81,-11.76 -9.65,32.82 -16.03,38.72 -28.95,7.09 -40.54,15.44 -12.3,8.87 -9.37,2.72 -15.44,17.37 -2.43,5.87 -25.85,27.77 -30.89,28.96 -11.02,2.6 -45.1,11.11 -54.05,9.65 -37.01,-6.01 -46.88,-24.24 -42.31,-41.69 7.8,-29.71 57.52,-57.17 86.71,-18.15 15.38,20.57 20.96,5.15 13.51,23.17l-5.8 5.79"/>
  <path class="fil0 str2" d="M2424.53 460.14c-12.07,3.03 -17.42,12.61 -26.06,21.24 -5.2,5.19 -7.88,10.8 -12.55,13.51 -22.32,12.96 -26.17,32.8 -41.5,46.33 -3.72,3.28 -16.24,23.19 -17.38,27.99 -0.01,0.05 -5.36,11.51 -5.79,12.55 -2.81,6.81 -9.35,44.77 -8.69,50.19 1.85,15.05 0.04,13.2 -9.65,29.92 -8.75,15.09 -41.88,30.59 -57.91,38.61 -23.91,11.95 20.38,-16.03 21.23,-16.41 7.83,-3.4 39.42,-8.61 49.23,-9.65 34.54,-3.66 47,-29.52 79.15,-3.86 15.93,12.71 43.37,14.73 62.74,19.3 1.38,0.33 15.28,-1.84 0,5.8 0,0.33 -12.63,13.97 -7.72,34.75 1.26,5.34 -1.95,2.25 7.72,8.69 0,2.42 19.15,5.77 23.17,4.83 9.03,-2.12 37.88,-11.13 40.54,-20.27 4.19,-14.35 -7.97,-29.7 -21.23,-31.85 -6.09,-0.99 -38.64,-6.13 -40.54,1.93 -0.01,0.05 0,3.52 0,3.86"/>
  <path class="fil0 str2" d="M2572.21 523.85c-10.69,14.25 -11.73,23.13 -28.96,31.85l-16.41 11.58 -27.03 10.62c-12.71,3.81 -63.16,29.1 -78.19,35.72 -9.92,4.37 -38.63,16.63 -50.19,19.3 -29.16,6.74 -45.37,16.5 -71.43,26.06 -3.69,1.35 -16.41,4.35 -16.41,10.62"/>
  <path class="fil0 str2" d="M2259.34 451.09c-3.58,12.3 -2.92,37.06 2.07,49.59 7.33,18.41 6.53,15.01 16.41,30.89 9.22,14.83 17.17,35.4 35.72,40.54 2,0.55 7.54,4.83 10.61,3.37"/>
  <path class="fil0 str2" d="M2245 700.48c-30.71,30.71 -43.45,31.22 -76.25,53.09 -33.5,22.34 -45.37,22.71 -79.15,40.54 -5.77,3.04 -66.69,48.27 -40.54,48.27 25.64,0 32.42,5.93 54.06,7.72 5.92,0.49 26.28,7.16 30.88,7.72 33.26,4.09 23.42,4.95 9.65,-1.93 0,-27.04 10.58,-30.65 30.89,-48.27 17.43,-15.11 67.74,-42.08 79.15,-57.91 12.54,-17.39 38.06,-22.57 57.91,-27.03 28.92,-6.5 9.15,3.25 -5.79,7.72 -68.44,20.52 -74.61,11.51 -127.41,61.78 -6.02,5.73 -23.17,24.7 -23.17,34.75 0,11.28 11.53,29.59 27.03,23.16l3.86 0c7.5,-1.5 68.52,-27.52 77.22,-32.82 39.46,-24.06 60.41,-25.06 102.32,-40.54 10.02,-3.7 81.82,-23.59 28.96,1.93 -12.57,6.07 -168.9,61.69 -173.74,73.36 -5.3,12.78 12.6,3.98 21.23,21.23 3.69,0 14.94,28.64 46.33,21.23 27.15,-6.41 58.35,-2.17 81.08,-11.58 8,-3.31 36.98,-17.06 44.4,-9.65 -43.85,43.85 -32.95,44.34 -90.73,34.75 -29.63,-4.92 -9.53,-5.79 -40.54,-5.79 -37.55,0 -33.91,-30.88 -46.33,-30.88 -4.76,0 -23.85,-7.65 -27.03,5.79 -1.63,6.88 -3.27,-0.04 -5.79,15.44 -1.82,11.18 -5.8,4.68 -5.8,28.96 0,4.69 -1.5,12.02 1.93,15.44"/>
  <path class="fil0 str2" d="M2535.53 767.08c-4.33,17.32 -25.67,80.68 -38.61,92.66 -18.62,17.24 -11.32,10.34 -28.96,21.23 -18.26,11.29 -18.57,26.14 -1.93,38.61 0,6.29 7.72,-5.49 7.72,15.44 0,7.97 8.85,24.29 15.44,27.03 19.22,7.96 163.8,-8.17 202.7,3.86 26.83,8.3 58.27,3.09 63.71,36.68 2.06,12.71 16.32,21.76 -5.8,32.82 0,9.67 -59.46,36.99 -67.56,17.37 -1.39,-3.37 -0.29,-16.88 1.79,-20.42"/>
  <path class="fil0 str2" d="M2774.91 1176.34c8.86,0 15.02,9.76 30.89,13.51 9.25,2.19 43.9,17.07 46.33,25.1 3.27,10.83 17.87,63.54 17.38,69.5 -1.39,16.8 -11.5,56.49 -28.96,61.77 -3.69,1.12 -9.65,5.1 -9.65,-5.79 18.71,0 23.46,-7.54 46.33,1.93 8.73,3.62 40.86,20.98 42.47,30.89 2.22,13.69 13.07,22.88 15.44,28.95 3.62,9.32 13.52,35.14 13.52,44.4 7.03,0 -4.65,1.93 5.79,1.93 0,-2.99 9.2,-4.87 13.51,-3.86 6.87,1.62 30.45,11.41 34.75,17.37 6.57,9.12 17.84,32.02 13.51,42.47 -2.08,5.03 -22.37,9.65 -28.96,9.65 -32.24,0 -66.01,-7.14 -42.47,-42.47 5.87,0 10.05,-7.72 15.44,-7.72"/>
  <path class="fil0 str2" d="M3006.57 1149.31c-6.11,24.42 -71.45,91.04 -84.05,113.09 -26.87,0 -8.97,85.26 62.81,68.37 13.69,-3.22 19.76,-10.88 36.68,-3.86 12.15,5.04 3.88,37.53 -3.86,48.26 -5.62,7.78 -25.1,41.49 -25.1,50.19 0,35 -1.94,18.12 25.1,15.44 6.65,-0.66 28.54,-24.08 28.96,-25.09 0.97,-2.35 1.89,-21.28 13.51,-23.17 33.52,-5.45 17.38,5.69 17.38,-30.89 1.41,0 8.2,-5.52 9.65,-7.72l3.86 -9.65c7.75,-11.76 23.26,-20.73 27.03,-36.68 1.63,-6.91 22.2,-19.31 27.03,-19.31 28.08,-35.08 19.3,7.79 19.3,40.54 0,30.36 4.11,27.03 -28.96,27.03 -8.22,0 -17.07,-36.25 -15.44,-46.33 4.91,-30.31 7.72,-17.53 -5.8,-50.19 -13.63,-32.93 1.11,-33.28 -38.61,-17.37 0,7.51 -63.55,32.82 -79.15,32.82 -43.52,0 -30.05,-0.79 -67.57,-9.65 -0.27,-0.06 -12.77,-5.05 -13.51,-5.8"/>
  <path class="fil0 str2" d="M3169.25 1189.95c16.19,22.48 31.55,33.77 57.4,42.38 13.8,4.6 32.82,29.38 32.82,46.33 0,2.57 0,5.15 0,7.72l-11.06 -1.84"/>
  <path class="fil0 str2" d="M3257.53 1182.14c-15.16,35.37 -39.35,79.54 -73.35,96.52 0,2.85 -25.91,17.95 -28.96,19.31l-7.16 0.37"/>
  <path class="fil0 str2" d="M2964.11 1491.01c12.08,4.02 45.65,8.14 55.98,3.86 3.12,-1.3 14.49,2.88 34.75,-9.65 7.44,-4.6 4.82,0.97 15.44,-9.65 7.63,-7.62 19.27,-10.27 23.17,-23.17 1.65,-5.46 9.65,-12.88 9.65,-19.3 0,8.77 15.32,79.99 17.37,84.94 6.01,14.5 6.36,0.58 -17.37,17.37 -32.78,23.2 -24.61,35.68 -40.54,54.06 -7.35,8.48 -14.06,25.52 -27.03,30.89l-7.72 7.72c-2.69,6.48 -91.51,48.48 -44.4,28.96 16.02,-6.64 23.88,-12.64 36.68,-17.37 31.88,-11.79 31.62,25.52 57.91,19.3 8.06,-1.9 37.58,-16.4 17.38,-9.65 -13.57,4.52 -8.31,13.87 -23.17,17.38 -3.88,0.92 -44.71,19.3 -46.33,19.3 -11.06,33.26 -18.64,33.81 11.59,46.33 3.86,1.6 9.65,12.14 9.65,21.23 0,18.67 -0.38,31.44 -25.09,34.75 -23,3.08 -51.65,15.92 -73.36,23.17 0,4.77 -9.83,12.17 -1.93,-11.59 3.39,0 20.93,-23.16 59.85,-23.16 40.33,0 5.38,-42.72 38.61,-28.96 22.68,9.4 -23.84,30.88 9.65,30.88 12.36,0 17.53,-9.18 13.51,-21.23 -1.79,-5.36 -22.69,-27.43 1.93,-30.88 4.84,-0.68 42.31,-9.5 44.4,-11.59"/>
  <path class="fil0 str2" d="M2151.37 475.1c-49.02,0.58 -42.29,-8.73 -52.1,23.65l-7.72 11.58c-7.11,23.49 -12.11,128.26 -3.86,150.58 6.7,18.09 3.86,26.41 3.86,46.33 -45.48,0 -57.91,11.1 -57.91,57.91 8.59,0 -2.62,10.68 23.17,0 5.48,-2.27 57.91,-1.94 57.91,-19.3 8.41,0 25.89,-30.88 -42.47,-30.88 -11.59,0 -34.75,1.99 -34.75,19.3 -18.43,0 0,41.76 0,46.33 5.91,0 31.41,8.74 27.03,19.31 -16.2,39.07 -20.84,26.91 -54.06,34.75 -17.23,4.07 -42.47,8.27 -42.47,27.03 -5.76,0 -0.8,13.91 -7.72,-15.44 -1.38,-5.84 -19.65,-64.8 -19.3,-65.64 8.65,-20.86 49.85,-19.3 69.5,-19.3 0,-28.63 -4.91,-11.58 -34.75,-11.58 -4.64,0 -25.12,3.86 -42.47,3.86 0,3.01 -32.59,21.66 -38.61,-3.86 -7.94,-33.65 21.44,-41.69 38.61,-54.06 17.11,-12.33 23.55,-7.72 50.19,-7.72 66.85,0 -8.62,1.48 -42.47,-15.44 -11.65,-5.83 -25.03,-5.72 -34.75,-15.44 -12.53,-12.54 -57.91,27.07 -57.91,54.05 0,16.78 -42.79,34.06 -57.91,23.17 -12.59,-9.07 -83.02,0 -23.17,0 20.69,0 39.35,71.91 46.33,88.8 12.18,29.44 8.24,-5.14 42.47,-19.3 1.83,-0.75 17.37,-15.2 34.75,-19.3 76.72,-18.1 -61.77,30.71 -61.77,50.19 -37.16,18.57 -65.56,3.68 -84.94,42.47 -8.84,0 -48.97,-22.6 -84.94,-7.72 -13.11,5.42 1.32,-3.7 3.86,-19.3 12.46,-76.83 153.17,-18.05 104.24,-115.83 -20.28,0 -34.48,-31.12 -61.77,34.75 -4.38,10.58 0.19,34.75 11.58,34.75"/>
  <path class="fil0 str2" d="M1940.97 780.6c0,14.98 -0.11,9.72 -15.44,17.38 -19.37,9.67 -44.56,18.62 -50.19,42.47 -5.57,23.62 -1.86,25.1 19.3,25.1 0,4.09 13.81,22.42 27.03,19.3 0.26,-0.06 19.57,-8.97 21.23,-9.65 8.82,-3.66 34.78,-6.88 38.61,-9.65 5.8,-4.18 49.01,-15.08 59.85,-9.65 0,5.51 11.58,-0.41 11.58,9.65 6.46,0 6.32,11.42 3.86,17.37 -0.65,1.58 -21.23,27.47 -21.23,32.82 -9.36,4.69 -12.36,11.87 -27.03,5.79 -15.93,-6.6 -16.12,-44.4 -32.82,-44.4 0,6.06 -2.1,-1.76 -7.72,3.86 -8.85,8.84 -70.6,45.06 -83.01,50.19 -10.68,4.42 -17.37,22.33 -17.37,32.82 0,16.69 9.88,-2.49 36.68,-5.79 25.62,-3.16 97.84,-36.06 119.69,-27.03 8.92,3.68 4.8,30.88 -13.51,30.88 -20.51,0 -46.53,-1.5 -57.91,21.23 -3.47,0 -21.53,16.94 -23.17,27.03 -4,24.74 -10.83,15.46 9.65,28.96 3.76,2.48 24.71,10.25 30.89,5.79 14.66,-10.58 63.1,-13.23 81.08,-15.44 11.63,-1.43 3.15,-2.91 15.44,0 0.11,0.02 24.75,-7.51 25.1,-7.72 14.64,-9.05 17.35,-13.23 36.68,-21.23 6.33,-2.62 17.83,1.58 11.58,-13.51 -2.61,-6.3 -0.69,-26.58 1.93,0 1,10.16 4.05,27.8 7.72,36.68 8.62,20.84 0.01,39.69 3.86,55.98 2.29,9.67 30.64,38.32 -9.65,19.3 -19.01,-8.97 -69.5,-17.48 -69.5,-40.54 0,-7.77 -5.99,-34.65 -21.23,-27.03 -13.24,6.62 -24.73,11.63 -38.61,17.37 -15.58,6.44 -19.88,11.41 -25.09,27.03 -7.03,0 -9.6,27.03 1.93,27.03 21.45,0 58.66,23.44 100.38,19.3 17.32,-1.72 13.03,-8.84 32.82,-15.44 0,-5.91 24.92,1.83 32.82,-3.86 8.74,-6.3 14.39,-4 23.17,-1.93 15.33,3.62 22.11,-3.42 48.27,9.65 22.12,11.06 13.59,3.99 21.23,32.82 4.25,16.01 -5.8,12.01 -5.8,21.23 -0.68,0 -17.64,13.5 -30.88,15.44l-19.31 5.79c-14.81,5.88 -40.79,5.79 -57.91,5.79 0,-19.5 4.72,-24.76 21.23,-36.68 14.41,-10.4 49.75,-16.24 65.64,-9.65 4.46,1.85 3.86,9.14 6.46,16.2"/>
  <path class="fil0 str2" d="M2245.42 1122.64c26.55,-10.19 11,-3.24 31.45,-8.07 3.97,-0.94 10.29,-7.72 21.23,-7.72 16.7,0 12.68,-14.11 52.12,-7.72 16.59,2.69 12.53,-2.61 38.61,3.86 19.97,4.96 8.03,2.44 25.1,11.58 23.45,12.56 20.18,5.9 28.96,27.03 2.97,7.14 16.11,13.51 25.09,13.51 19.03,0 24.31,-3.86 38.61,-3.86 0,4.25 -9.89,1.03 -15.44,1.93 -13.02,2.11 -7.84,4.36 -25.1,5.79 -57.38,4.75 -30.27,0.14 -83.01,23.17 -24.5,10.7 -34,14.81 -40.54,42.47 -4.07,17.21 -17.38,25.84 -17.38,55.98 2.75,0 2.28,5.79 19.3,5.79 3.04,0 11.07,1.93 19.31,1.93 0,-3.96 16.7,-1.81 23.16,-17.38 2.78,-6.69 38.88,-15.44 48.27,-15.44 12.18,0 38.61,11.34 38.61,25.1 0,23.19 19.24,21.36 32.82,11.58 9.28,-6.68 8.09,3.51 23.17,-11.58 12.37,-12.39 3.18,0.01 1.93,7.72 -1.86,11.42 -31.13,21.23 -40.54,21.23 -28.86,0 -42.43,-5.79 -73.36,-5.79 -25.53,0 -48.81,-4.78 -77.22,1.93 -11.99,2.83 -10.99,4.65 -19.3,-15.44 -3.78,-9.12 13.64,-64.2 19.3,-73.36 6.55,-10.6 2.51,-12.15 11.58,-21.23 13.24,-13.27 3.81,-19.67 30.89,-30.89 10.94,-4.54 26.06,-11.58 38.61,-11.58 6.09,0 48.9,-23.07 1.93,-15.44 -17.66,2.87 -26.85,19.78 -44.4,21.23 -15.92,1.32 -29.03,7.72 -46.33,7.72 0,-5.48 -5.79,6.16 -5.79,-21.23 0,-50.67 11.34,-50.19 -27.03,-50.19"/>
  <path class="fil0 str2" d="M1690.25 864.43c-14.76,12.17 -27.58,-2.07 -36.91,20.41 -1.83,4.41 -8.69,11.43 -9.65,17.38 -2.87,17.69 -9.39,26.63 -11.58,44.4 -1.87,15.15 -6.44,36.63 1.93,50.19 12.11,19.61 -4.34,23.06 19.3,-5.8 27,-32.94 22.45,-56.61 67.57,-79.15 15.96,-7.97 61.07,-9.05 75.29,-1.93 0,8.7 37.08,28.96 23.17,28.96 0,5.04 -45.82,0 -50.19,0 -41.33,0 -58.47,13.82 -92.66,30.88 0,4.2 -27.03,13.95 -27.03,27.03l-3.86 1.93"/>
  <path class="fil0 str2" d="M2327.61 1252.82c-74.49,23.44 -29.35,27.76 -112.5,27.76 -22.92,0 -108.36,2.43 -123.55,-3.86 -31.93,-13.23 -50.63,-9.01 -88.8,0 -27.35,6.45 -6.8,7.72 -46.33,7.72 -14.47,0 -42.47,-6.19 -42.47,-19.3 -20.07,0 6.95,-15.44 -46.33,-15.44 -25.06,0 -90.88,-7.49 -100.38,15.44 -19.84,47.85 -15.44,26.65 -15.44,88.8 0,47.46 19.31,32.17 19.31,54.05 15.35,0 4.77,19.3 19.3,19.3 0,41.41 -7.24,34.96 -23.17,73.36 -1.92,4.63 -3.86,44.73 -3.86,54.06 4.14,0 11.08,34.75 57.91,34.75 6.13,0 49.44,7.72 57.91,7.72 83.32,0 78.06,6.92 154.44,19.3 19.27,3.12 73.36,16.06 73.36,38.61 0,28.39 3.47,5.9 -27.03,23.16 -22.71,12.85 -34.75,2 -34.75,30.89 0,89.82 -1.55,70.36 -92.66,108.11 -38.33,15.88 -38.61,31.88 -38.61,65.64"/>
  <path class="fil0 str2" d="M2377.08 1282.04c27.08,-15.12 47.29,-16.9 81.26,-16.9 71.98,0 30.46,42.26 57.91,30.89 34.97,-14.49 31.19,-59.37 42.47,-11.59 3.68,15.58 -4.92,31.06 27.03,38.61 30.61,7.23 51.38,65.68 38.61,96.53 -2.04,4.93 -4.27,15.85 -11.58,23.16 -34.78,34.78 13.5,12.56 -61.78,50.19 0,24.5 -7.72,7.29 -7.72,27.03 0,23.9 -14.45,57.21 -46.33,54.05 -36.3,-3.59 -68.36,-29.52 -111.97,-7.72 -20.55,10.27 -9.78,-5.03 -34.75,15.44 -19.26,15.79 -24.92,5.29 -34.75,34.75"/>
  <path class="fil0 str2" d="M2624.37 1419.58c27.99,-9.33 25.56,-8.22 50.19,0 0,4.68 48.44,32.53 34.75,65.63 -12.66,30.6 -80.18,42.39 -84.94,30.89 -0.53,-1.27 0.75,-33.98 0,-38.61l-11.58 -34.75"/>
  <path class="fil0 str2" d="M2671.33 1514.09c17.47,18.43 12.88,14.48 12.88,42.55 0,51.25 -0.15,44.1 -15.44,94.59 -4.67,15.42 -43.68,82.27 -55.98,94.59 -21.22,21.25 -13.34,37.25 -46.33,48.26 0,14.86 -84.94,-12.04 -84.94,9.65 0,40.54 69.68,42.1 79.15,28.96 13.08,-18.15 7.96,-16.35 1.93,-30.89 -1.03,-2.49 -10.07,-3.86 -13.52,-3.86"/>
  <path class="fil0 str2" d="M2583.14 1677.07c-17.97,20.25 -8.69,16.05 -34.06,18.56 -17.25,1.71 -28.35,2.66 -25.09,-17.38 1.37,-8.46 25.33,-56.23 32.82,-65.64 18.49,-23.23 36.74,-25.08 63.71,-11.58 19.97,9.99 0.72,66.28 -15.44,77.22 -20.16,13.64 -34.41,42.22 -61.78,30.89 -3.7,-1.54 -9.2,-17.38 -30.88,-17.38 0,11.32 -75.09,28.36 -81.08,28.96 -0.74,0.08 -47.8,9.84 -48.26,9.65 -11.31,-4.69 -14.69,-26.43 -11.59,-36.68 8.36,-27.61 52.32,-19.27 59.85,-65.64 2.01,-12.39 -18.75,18.47 -38.61,23.17 -0.17,0.04 -38.44,16.51 -40.54,17.38 -2.18,0.9 -18.95,6.08 -21.23,7.72 -0.09,0.06 -21.89,7.09 -27.03,9.65 -11.24,5.62 -67.6,27.05 -71.43,30.89 7.11,0 1.81,-1.75 11.58,-5.79 8.04,-3.33 60.52,-14.17 71.43,-9.65 12.94,5.36 23.69,8.49 19.3,27.03 -4.51,19.06 -28.65,26.71 -46.33,30.89 -8.48,2 -4.37,-1.83 -15.44,3.86 -8.28,4.26 -39.01,6.78 -44.4,-1.93 -9.63,-15.54 -7.74,-42.45 5.79,-55.98 5.32,-5.32 7.1,-9.65 13.51,-9.65 0,-6.05 9.84,-7.94 -3.86,1.93 -13.58,9.79 -1.61,-3.37 -15.44,13.51 -15.46,18.87 -8.35,13.83 -30.89,23.17 -0.83,0.34 -33.09,22.2 -34.75,23.16 -18.05,10.43 -14.66,3.36 -30.88,23.17 -14.1,17.22 -7.37,31.66 -28.96,42.47 0,7.13 -13.38,11.72 -5.8,19.3 0,-3.21 18.13,-14.15 21.24,-15.44 0.17,-0.07 28.95,-3.63 28.95,7.72 0,12.23 1.81,21.48 -11.58,27.03 -7.64,3.16 9.91,-15.16 19.3,-17.38 29.61,-6.99 76.87,-62.05 92.66,-65.64 11.53,-2.61 69.77,-11.37 73.36,3.86 2.8,11.87 35.4,5.79 40.54,5.79 2.21,0 19.06,-18.22 57.91,-3.86 8.27,3.06 25.09,0.58 25.09,11.58 6.08,3.05 19.3,16.22 19.3,1.93 0,-13.33 -14.91,-29.01 -7.72,-46.33 2.74,-6.6 33.28,-32.82 40.54,-32.82 4.97,0 28.96,-22.3 28.96,-27.03"/>
  <path class="fil0 str2" d="M2242.33 1344.31c39.52,-41.13 31.82,-16.91 63.51,-15.47 12.53,0.57 41.83,8.24 32.82,-13.51 -1.51,-3.63 -31.75,-18.81 -38.61,-19.3 -32,-2.28 -38.14,-8.21 -73.36,3.86 -12.51,4.29 -25.09,-2.15 -25.09,15.44 5.32,0 -0.46,4.42 13.51,7.72 4.54,1.07 13.51,13.26 13.51,21.23 0,19.59 2.98,40.08 -13.51,54.06 -21.16,17.94 -33.47,18.65 -54.05,-1.93 -11.33,-11.33 -8.01,-39.06 9.65,-44.4 12.57,-3.81 53.58,-34.81 -9.65,-27.03 -25.13,3.09 -59.58,15.69 -81.08,-5.79 -38.58,-38.54 -53.68,-12.5 -98.45,-1.93 -12.61,2.97 -21.23,22.86 -21.23,32.82 0,8.8 -0.03,12.58 7.72,19.31 14.66,12.74 28.01,9.65 46.33,9.65 20.59,0 57.91,-19.1 57.91,-44.4 0,-4.62 2.83,-19.31 -3.86,-19.31 -15.18,-20.24 -37.01,-20.27 -59.84,-13.51 -56.18,16.61 14.79,-11.68 -38.61,11.58 -33.71,14.68 -23.5,3.73 -34.75,30.89 -2.63,6.35 2.23,45.79 15.44,50.19 6.4,2.13 18.16,15.44 36.68,15.44 28.55,0 37.13,-13.51 42.47,-13.51 6.97,-13.94 10.06,-12 0,1.93 -7.83,10.85 -3.86,22.51 3.86,32.82 0.2,0 28.85,11.52 28.96,11.58 14.04,7.96 28,-0.92 38.61,30.89 3.79,0 11.81,36.68 -7.72,36.68 0,4.47 -64.1,13.51 -71.43,13.51 -12.65,0 -61.77,3.19 -61.77,-19.3 0,-25.5 3.27,-30.31 23.16,-50.19 14.91,-14.91 27.17,-8.33 46.33,-1.93 0,6.12 34.75,3.78 34.75,25.1 0,30.14 9.58,38.75 -34.75,50.19 -15.08,3.89 -126.8,22.3 -139,13.51 -20.92,-15.06 -13.05,-71.43 32.82,-71.43 20.81,0 21.8,1.97 15.44,17.37 -1.87,4.54 -39.22,7.61 -48.26,3.86 -26.58,-11.01 -48.26,-16.83 -48.26,-52.12 0,-23.23 8.45,-62.51 25.09,-79.15 0,13.55 -42.1,36.54 -65.63,3.86 -14.77,-20.51 -9.38,-40.36 -3.86,-63.7 2.91,-12.33 9.74,-23.44 23.17,-25.09 14.68,-1.81 51.57,-11.87 63.7,-5.79 0,2.05 7.47,27.64 5.79,34.75 -2.15,9.12 -19.3,24.49 -19.3,30.89 -14.64,7.3 -52.12,14.15 -52.12,-13.52 0,-12.14 13.45,-32.82 25.1,-32.82 7.51,0 25.46,-13.65 44.4,-5.79 7.46,3.09 19.31,27.92 19.31,38.61 0,6.36 -5.93,12.79 13.51,17.38 15.12,3.57 11.58,-6.58 11.58,19.3 5.52,0 4.8,4.11 11.59,4.83 11.38,1.21 -0.81,3.27 9.65,6.76 26.84,8.94 11.31,65.67 -21.23,79.15 -6.61,2.74 -37.88,0.62 -40.54,-5.8 -7.75,-18.72 -7.14,-12.56 -3.86,-32.82 3.15,-19.45 12.71,-40.54 34.75,-40.54 8.2,0 38.61,-4.12 38.61,7.72"/>
  <path class="fil0 str2" d="M2377.08 1282.04c-4.77,-4 16.24,5.62 21.42,6.26 25.13,3.1 49.4,19.3 75.29,19.3 22.17,0 14.06,58.33 5.79,67.57 -27.7,30.95 -29.87,27.66 -67.56,42.47 -29.03,11.41 -21.09,11.22 -57.91,13.51 -34.5,2.15 -38.61,3.96 -38.61,-27.03 0,-21.85 4.4,-100.38 30.89,-100.38 0,-4.44 30.88,-3.69 30.88,9.65 0,6.4 5.8,15.58 5.8,36.68 0,27.36 -1.18,55.94 -11.59,81.08 -2,4.82 -29.69,27.43 -34.75,28.96 -5.82,1.76 -84.94,6.51 -84.94,-3.86 0,-19.3 11.91,-34.8 30.89,-40.54 13.48,-4.08 -3.6,-3.86 30.88,-3.86 16.62,0 13.51,5.03 13.51,21.23 -2.7,0 -3.46,10.02 -7.72,17.37 -11,18.98 -22.45,37.55 -34.75,55.99 -7.49,0 -24.84,12.53 -48.26,3.86 -23.55,-8.72 -30.89,2.17 -30.89,-21.23 0,-7 8.84,-17.4 13.51,-21.23 23.39,-19.21 45.71,-4.45 42.48,15.44 -5.53,34.06 -6.98,33.4 -32.82,46.33 -15.61,7.81 -111.97,17.29 -111.97,3.86 0,-20.81 6.39,-22.23 17.37,-40.54 4.77,0 11.92,-16.44 23.17,-17.37 26.79,-2.22 0.31,-4.47 30.89,-1.93 23.89,1.98 21.23,-0.36 21.23,25.1 0,25.34 0.9,15.91 -7.72,36.68 -2.47,5.94 -24.91,13.51 -28.96,13.51 -10.49,0 -23.72,-1.83 -32.82,1.93 -1.98,0.82 -17.39,-7.72 -28.95,-7.72 0,2.45 -23.17,11.49 -23.17,19.31 -19.69,9.81 -13.12,57.91 5.79,57.91 0,4.44 36.5,13.6 48.26,7.72 16.13,-8.06 20.1,-4.27 27.03,-25.1 2.5,0 9.61,-26.12 11.59,-30.89 2.24,-5.39 13.78,-14.15 15.44,-21.23 2.56,-10.85 24.92,-26.63 34.75,-28.96 4.55,-1.07 28.93,-11.56 32.82,-15.44l3.86 -1.93"/>
</svg>
