<svg xmlns="http://www.w3.org/2000/svg" xml:space="preserve" width="59.247mm" height="50.7696mm" version="1.0" style="shape-rendering:geometricPrecision; text-rendering:geometricPrecision; image-rendering:optimizeQuality; fill-rule:evenodd; clip-rule:evenodd"
viewBox="0 0 5778.42 4951.61"
 xmlns:xlink="http://www.w3.org/1999/xlink">
 <defs>
  <style type="text/css">
   <![CDATA[
    .str0 {stroke:#373535;stroke-width:16;stroke-miterlimit:20}
    .fil0 {fill:#373535}
   ]]>
  </style>
 </defs>
 <g id="Layer_x0020_1">

  <ellipse class="fil0 str0" cx="2329.15" cy="2530.24" rx="292.32" ry="280.63"/>
  <ellipse class="fil0 str0" cx="2992.85" cy="2506.85" rx="103.32" ry="99.18"/>
  <ellipse class="fil0 str0" cx="3866.57" cy="2391.53" rx="103.32" ry="99.18"/>
  <ellipse class="fil0 str0" cx="4369.77" cy="3378.59" rx="103.32" ry="99.18"/>
  <ellipse class="fil0 str0" cx="3466.59" cy="3778.57" rx="103.32" ry="99.18"/>
  <ellipse class="fil0 str0" cx="2505.35" cy="3972.11" rx="103.32" ry="99.18"/>
  <ellipse class="fil0 str0" cx="1982.79" cy="3307.62" rx="103.32" ry="99.18"/>
  <ellipse class="fil0 str0" cx="1053.81" cy="3481.82" rx="103.32" ry="99.18"/>
  <ellipse class="fil0 str0" cx="111.92" cy="3101.18" rx="103.32" ry="99.18"/>
  <ellipse class="fil0 str0" cx="834.46" cy="4423.7" rx="103.32" ry="99.18"/>
  <ellipse class="fil0 str0" cx="595.76" cy="2146.39" rx="103.32" ry="99.18"/>
  <ellipse class="fil0 str0" cx="1524.76" cy="1830.28" rx="103.32" ry="99.18"/>
  <ellipse class="fil0 str0" cx="2860.18" cy="1785.13" rx="103.32" ry="99.18"/>
  <ellipse class="fil0 str0" cx="2318.3" cy="4843.02" rx="103.32" ry="99.18"/>
  <ellipse class="fil0 str0" cx="4047.24" cy="4610.78" rx="103.32" ry="99.18"/>
  <ellipse class="fil0 str0" cx="5427.81" cy="4197.89" rx="103.32" ry="99.18"/>
  <ellipse class="fil0 str0" cx="5402" cy="3256" rx="103.32" ry="99.18"/>
  <ellipse class="fil0 str0" cx="5279.44" cy="2488.3" rx="103.32" ry="99.18"/>
  <ellipse class="fil0 str0" cx="5666.51" cy="1610.93" rx="103.32" ry="99.18"/>
  <ellipse class="fil0 str0" cx="4660.12" cy="1507.69" rx="103.32" ry="99.18"/>
  <ellipse class="fil0 str0" cx="4089.16" cy="414.23" rx="103.32" ry="99.18"/>
  <ellipse class="fil0 str0" cx="3041.66" cy="946.05" rx="113.83" ry="109.27"/>
  <ellipse class="fil0 str0" cx="2315.04" cy="107.79" rx="103.32" ry="99.18"/>
  <ellipse class="fil0 str0" cx="1385.96" cy="765.82" rx="103.32" ry="99.18"/>
  <ellipse class="fil0 str0" cx="398.99" cy="820.65" rx="103.32" ry="99.18"/>
  <rect class="fil0 str0" x="1502.16" y="3914.02" width="354.83" height="329.02"/>
  <rect class="fil0 str0" x="2995.63" y="4662.38" width="302.64" height="280.63"/>
  <rect class="fil0 str0" x="4466.82" y="3993.05" width="302.64" height="280.63"/>
  <rect class="fil0 str0" x="3124.95" y="3122.13" width="302.64" height="280.63"/>
  <rect class="fil0 str0" x="796.02" y="2567.32" width="302.64" height="280.63"/>
  <rect class="fil0 str0" x="8.97" y="1367.38" width="302.64" height="280.63"/>
  <rect class="fil0 str0" x="1905.65" y="1044.82" width="302.64" height="280.63"/>
  <rect class="fil0 str0" x="3170.1" y="12.61" width="302.64" height="280.63"/>
  <rect class="fil0 str0" x="641.19" y="167.44" width="302.64" height="280.63"/>
  <rect class="fil0 str0" x="4847.44" y="683.54" width="302.64" height="280.63"/>
 </g>
</svg>
