<svg xmlns="http://www.w3.org/2000/svg" xml:space="preserve" width="20.2169mm" height="10.5748mm" version="1.0" style="shape-rendering:geometricPrecision; text-rendering:geometricPrecision; image-rendering:optimizeQuality; fill-rule:evenodd; clip-rule:evenodd"
viewBox="0 0 21.08 11.03"
 xmlns:xlink="http://www.w3.org/1999/xlink">
 <defs>
  <style type="text/css">
   <![CDATA[
    .str0 {stroke:black;stroke-width:0.1;stroke-miterlimit:2}
    .fil1 {fill:none}
    .fil0 {fill:white}
   ]]>
  </style>
 </defs>
 <g id="billiard_table">
   <rect class="fil0 str0" transform="matrix(2.39245E-014 -9.03338E-001 4.18172 1.10751E-013 0.0518902 10.9752)" width="12.09" height="4.85" rx="0.22" ry="0.22"/>
   <ellipse class="fil0 str0" transform="matrix(2.10755E-014 -7.95766E-001 0.84011 2.22499E-014 10.1794 10.4755)" rx="0.36" ry="0.34"/>
   <ellipse class="fil0 str0" transform="matrix(2.10755E-014 -7.95766E-001 0.84011 2.22499E-014 10.1793 0.53348)" rx="0.36" ry="0.34"/>
   <ellipse class="fil0 str0" transform="matrix(2.10755E-014 -7.95766E-001 0.84011 2.22499E-014 19.845 0.53348)" rx="0.36" ry="0.34"/>
   <ellipse class="fil0 str0" transform="matrix(2.10755E-014 -7.95766E-001 0.84011 2.22499E-014 19.845 10.4741)" rx="0.36" ry="0.34"/>
   <ellipse class="fil0 str0" transform="matrix(2.10755E-014 -7.95766E-001 0.84011 2.22499E-014 0.533393 0.53348)" rx="0.36" ry="0.34"/>
   <ellipse class="fil0 str0" transform="matrix(2.10755E-014 -7.95766E-001 0.84011 2.22499E-014 0.533393 10.4741)" rx="0.36" ry="0.34"/>
   <path class="fil1 str0" d="M0.33 10.27l0.51 -0.48 0 -8.57 -0.46 -0.46"/>
   <path class="fil1 str0" d="M0.76 0.33l0.47 0.51 8.39 0 0.27 -0.3"/>
   <path class="fil1 str0" d="M10.46 0.53l0.31 0.3 8.39 0 0.47 -0.5"/>
   <path class="fil1 str0" d="M20.05 0.74l-0.49 0.49 0 8.57 0.49 0.49"/>
   <path class="fil1 str0" d="M19.64 10.68l-0.47 -0.49 -8.39 0 -0.31 0.29"/>
   <path class="fil1 str0" d="M9.9 10.45l-0.28 -0.26 -8.39 0 -0.5 0.49"/>
   <path class="fil1 str0" d="M0.7 9.93l0 -8.84"/>
   <path class="fil1 str0" d="M1.09 10.33l8.7 0"/>
   <path class="fil1 str0" d="M1.09 0.68l8.7 0"/>
   <path class="fil1 str0" d="M10.63 0.71l8.67 -0.03"/>
   <path class="fil1 str0" d="M10.6 10.33l8.7 0"/>
   <path class="fil1 str0" d="M19.7 9.93l0 -8.73"/>
   <circle class="fil0 str0" transform="matrix(2.34685E-014 -8.86121E-001 0.865068 2.29109E-014 4.88603 6.33805)" r="0.24"/>
   <circle class="fil0 str0" transform="matrix(2.34685E-014 -8.86121E-001 0.865068 2.29109E-014 4.88603 5.92039)" r="0.24"/>
   <circle class="fil0 str0" transform="matrix(2.34685E-014 -8.86121E-001 0.865068 2.29109E-014 4.88603 5.50273)" r="0.24"/>
   <circle class="fil0 str0" transform="matrix(2.34685E-014 -8.86121E-001 0.865068 2.29109E-014 4.89179 5.08506)" r="0.24"/>
   <circle class="fil0 str0" transform="matrix(2.34685E-014 -8.86121E-001 0.865068 2.29109E-014 5.25794 6.14481)" r="0.24"/>
   <circle class="fil0 str0" transform="matrix(2.34685E-014 -8.86121E-001 0.865068 2.29109E-014 5.25794 5.72715)" r="0.24"/>
   <circle class="fil0 str0" transform="matrix(2.34685E-014 -8.86121E-001 0.865068 2.29109E-014 5.26369 5.30949)" r="0.24"/>
   <circle class="fil0 str0" transform="matrix(2.34685E-014 -8.86121E-001 0.865068 2.29109E-014 5.63671 5.9448)" r="0.24"/>
   <circle class="fil0 str0" transform="matrix(2.34685E-014 -8.86121E-001 0.865068 2.29109E-014 5.64246 5.52714)" r="0.24"/>
   <circle class="fil0 str0" transform="matrix(2.34685E-014 -8.86121E-001 0.865068 2.29109E-014 6.0152 5.73318)" r="0.24"/>
   <circle class="fil0 str0" transform="matrix(2.34685E-014 -8.86121E-001 0.865068 2.29109E-014 16.4267 5.50384)" r="0.24"/>
   <path class="fil0 str0" d="M13.57 5.16l7.44 4.24 -0.1 0.16 -7.34 -4.4z"/>
   <path class="fil1 str0" d="M21.02 9.4c0.03,0.1 -0.01,0.15 -0.11,0.16"/>
  </g>
</svg>
