<svg xmlns="http://www.w3.org/2000/svg" xml:space="preserve" width="9.6661mm" height="4.4762mm" version="1.0" style="shape-rendering:geometricPrecision; text-rendering:geometricPrecision; image-rendering:optimizeQuality; fill-rule:evenodd; clip-rule:evenodd"
viewBox="0 0 3.63 1.68"
 xmlns:xlink="http://www.w3.org/1999/xlink">
 <defs>
  <style type="text/css">
   <![CDATA[
    .str0 {stroke:black;stroke-width:0.1;stroke-miterlimit:20}
    .fil0 {fill:white}
   ]]>
  </style>
 </defs>
  <g id="_105828405398176">
   <path class="fil0 str0" d="M1.45 0.35l0.68 0 0 1.24c0,0.04 -0.03,0.08 -0.08,0.08l-0.54 0c-0.03,0 -0.06,-0.03 -0.06,-0.06l0 -1.26zm0.07 0.05l0.54 0 0 1.16c0,0.03 -0.03,0.06 -0.06,0.06l-0.43 0c-0.03,0 -0.05,-0.02 -0.05,-0.05l0 -1.17z"/>
   <rect class="fil0 str0" x="1.09" y="0.28" width="1.4" height="0.08"/>
   <g>
    <path class="fil0 str0" d="M0.02 0.01l0.07 0c0.04,0 0.07,0.03 0.07,0.07l0.06 0.83 -0.13 0 -0.06 -0.89z"/>
    <path class="fil0 str0" d="M0.03 0.96l0.93 0 0 -0.07c0,-0.04 -0.03,-0.07 -0.07,-0.07l-0.86 0 0 0.14z"/>
    <path class="fil0 str0" d="M0.08 0.43l0.77 0c0.01,0 0.02,-0.01 0.02,-0.02l0 -0c0,-0.01 -0.01,-0.02 -0.02,-0.02l-0.79 0 -0 0 -0 0c-0.01,0 -0.02,0.01 -0.02,0.02l0 0 0 0 0 0.53c0,0.01 0.01,0.02 0.02,0.02l0 0c0.01,0 0.02,-0.01 0.02,-0.02l0 -0.51z"/>
    <path class="fil0 str0" d="M0.11 1.67l0.64 0c0.04,0 0.07,-0.03 0.07,-0.07l0 -0.64 -0.79 0 0 0.63c0,0.04 0.04,0.08 0.08,0.08zm0.05 -0.06l0.54 0c0.03,0 0.06,-0.03 0.06,-0.06l0 -0.53 -0.67 0 0 0.52c0,0.04 0.03,0.07 0.07,0.07z"/>
    <rect class="fil0 str0" x="0.03" y="1.19" width="0.79" height="0.05"/>
    <rect class="fil0 str0" x="0.52" y="0.43" width="0.05" height="0.53"/>
   </g>
   <path class="fil0 str0" d="M1.52 0.4l0.54 0 0 1.16c0,0.03 -0.03,0.06 -0.06,0.06l-0.43 0c-0.03,0 -0.05,-0.02 -0.05,-0.05l0 -1.17z"/>
   <g>
    <path class="fil0 str0" d="M3.62 0.01l-0.07 0c-0.04,0 -0.07,0.03 -0.07,0.07l-0.06 0.83 0.13 0 0.06 -0.89z"/>
    <path class="fil0 str0" d="M3.6 0.96l-0.93 0 0 -0.07c0,-0.04 0.03,-0.07 0.07,-0.07l0.86 0 0 0.14z"/>
    <path class="fil0 str0" d="M3.55 0.43l-0.77 0c-0.01,0 -0.02,-0.01 -0.02,-0.02l0 -0c0,-0.01 0.01,-0.02 0.02,-0.02l0.79 0 0 0 0 0c0.01,0 0.02,0.01 0.02,0.02l0 0 0 0 0 0.53c0,0.01 -0.01,0.02 -0.02,0.02l-0 0c-0.01,0 -0.02,-0.01 -0.02,-0.02l0 -0.51z"/>
    <path class="fil0 str0" d="M3.52 1.67l-0.64 0c-0.04,0 -0.07,-0.03 -0.07,-0.07l0 -0.64 0.79 0 0 0.63c0,0.04 -0.04,0.08 -0.08,0.08zm-0.05 -0.06l-0.54 0c-0.03,0 -0.06,-0.03 -0.06,-0.06l0 -0.53 0.67 0 0 0.52c0,0.04 -0.03,0.07 -0.07,0.07z"/>
    <rect class="fil0 str0" x="2.81" y="1.19" width="0.79" height="0.05"/>
    <rect class="fil0 str0" x="3.06" y="0.43" width="0.05" height="0.53"/>
   </g>
 </g>
</svg>
