<svg xmlns="http://www.w3.org/2000/svg" xml:space="preserve" width="2.2304mm" height="4.4153mm" version="1.0" style="shape-rendering:geometricPrecision; text-rendering:geometricPrecision; image-rendering:optimizeQuality; fill-rule:evenodd; clip-rule:evenodd"
viewBox="0 0 0.17 0.33"
 xmlns:xlink="http://www.w3.org/1999/xlink">
 <defs>
  <style type="text/css">
   <![CDATA[
    .str0 {stroke:black;stroke-width:0.1;stroke-miterlimit:2.5}
    .fil0 {fill:white}
   ]]>
  </style>
 </defs>
 <g id="office_chair_p">
   <rect class="fil0 str0" x="0.02" y="0.17" width="0.14" height="0.02" rx="0.01" ry="0.01"/>
   <rect class="fil0 str0" transform="matrix(0.123317 0.97054 -1.01134E+000 0.118342 0.0261738 0.00150912)" width="0.14" height="0.02" rx="0.01" ry="0.01"/>
   <rect class="fil0 str0" x="0.04" y="0.08" width="0.1" height="0.01" rx="0.01" ry="0.01"/>
   <rect class="fil0 str0" x="0.09" y="0.2" width="0.02" height="0.09"/>
   <path class="fil0 str0" d="M0.06 0.18l0.04 0c0.02,0 0.04,-0.02 0.04,-0.04l0 -0c0,-0.02 -0.02,-0.04 -0.04,-0.04l-0.04 0c-0.02,0 -0.04,0.02 -0.04,0.04l0 0c0,0.02 0.02,0.04 0.04,0.04zm0 -0.01l0.04 0c0.02,0 0.04,-0.02 0.04,-0.04l0 -0c0,-0.02 -0.02,-0.04 -0.04,-0.04l-0.04 0c-0.02,0 -0.04,0.02 -0.04,0.04l0 0c0,0.02 0.02,0.04 0.04,0.04z"/>
   <path class="fil0 str0" d="M0.16 0.32l0 -0c0,-0.02 -0.02,-0.04 -0.04,-0.04l-0.04 0c-0.02,0 -0.04,0.02 -0.04,0.04l0 0 0.01 0 0 -0c0,-0.02 0.02,-0.04 0.04,-0.04l0.04 0c0.02,0 0.04,0.02 0.04,0.04l0 0 0.01 0z"/>
   <circle class="fil0 str0" cx="0.15" cy="0.32" r="0.01"/>
   <circle class="fil0 str0" cx="0.04" cy="0.32" r="0.01"/>
 </g>
</svg>
