<svg xmlns="http://www.w3.org/2000/svg" xml:space="preserve" width="2.382mm" height="2.3709mm" version="1.0" style="shape-rendering:geometricPrecision; text-rendering:geometricPrecision; image-rendering:optimizeQuality; fill-rule:evenodd; clip-rule:evenodd"
viewBox="0 0 0.22 0.22"
 xmlns:xlink="http://www.w3.org/1999/xlink">
 <defs>
  <style type="text/css">
   <![CDATA[
    .str0 {stroke:black;stroke-width:0.01;stroke-miterlimit:2.61313}
    .fil0 {fill:white}
   ]]>
  </style>
 </defs>
 <g id="Layer_x0020_1">
  <metadata id="CorelCorpID_0Corel-Layer"/>
  <g id="_105828562734144">
   <path class="fil0 str0" d="M0.19 0.19l-0.13 -0.01c-0.01,-0 -0.02,-0.01 -0.02,-0.02l0 -0.11c0,-0.01 0.01,-0.02 0.02,-0.02l0.13 -0.01c0.01,-0 0.02,0.01 0.02,0.02l0 0.13c0,0.01 -0.01,0.02 -0.02,0.02z"/>
   <rect class="fil0 str0" x="0.04" y="0.19" width="0.15" height="0.02"/>
   <rect class="fil0 str0" x="0.04" y="0" width="0.15" height="0.02"/>
   <rect class="fil0 str0" transform="matrix(-7.94536E-014 1 -1.0E+000 -7.94536E-014 0.0216109 0.0366403)" width="0.15" height="0.02"/>
   <rect class="fil0 str0" transform="matrix(-3.2928E-014 0.121645 -1.0E+000 -5.61908E-014 0.0386702 0.0963479)" width="0.15" height="0.02"/>
  </g>
 </g>
</svg>
