<svg xmlns="http://www.w3.org/2000/svg" xml:space="preserve" width="13.9728mm" height="7.1338mm" version="1.0" style="shape-rendering:geometricPrecision; text-rendering:geometricPrecision; image-rendering:optimizeQuality; fill-rule:evenodd; clip-rule:evenodd"
viewBox="0 0 84.67 43.23"
 xmlns:xlink="http://www.w3.org/1999/xlink">
 <defs>
  <style type="text/css">
   <![CDATA[
    .str0 {stroke:black;stroke-width:0.5;stroke-miterlimit:2.6}
    .fil0 {fill:white}
   ]]>
  </style>
 </defs>
 <g id="Layer_x0020_1">
  <g id="_105553519090752">
   <rect class="fil0 str0" x="35.49" y="9.86" width="13.68" height="24.06"/>
   <g id="sofa">
    <path class="fil0 str0" d="M22.54 43c0.47,0 0.85,-0.41 0.85,-0.9l0 -19.58c0,-0.5 -0.38,-0.9 -0.85,-0.9 -1.56,0 -19.19,-0 -20.75,-0l0 21.38c1.56,0 19.2,0 20.75,0z"/>
    <path class="fil0 str0" d="M22.54 21.61c0.47,0 0.85,-0.41 0.85,-0.9l0 -19.58c0,-0.5 -0.38,-0.9 -0.85,-0.9 -1.56,0 -19.19,-0 -20.75,-0l0 21.38c1.56,0 19.2,0 20.75,0z"/>
    <path class="fil0 str0" d="M1.78 0.24l9.49 0 0.86 0 8.09 0c0.59,0 1.07,0.48 1.07,1.07l0 2.67c0,0.59 -0.48,1.07 -1.07,1.07l-8.09 0 -0.86 0 -9.49 0 0 -4.81z"/>
    <path class="fil0 str0" d="M5.33 2.37l0.92 0c0.45,0 0.81,0.37 0.81,0.81l0 17.62c0,0.45 -0.37,0.81 -0.81,0.81l-0.92 0 -1.11 0 -0.02 0 -2.42 0 0 -19.24 3.55 0 0 0z"/>
    <path class="fil0 str0" d="M1.78 43l9.49 0 0.86 0 8.09 0c0.59,0 1.07,-0.48 1.07,-1.07l0 -2.67c0,-0.59 -0.48,-1.07 -1.07,-1.07l-8.09 0 -0.86 0 -9.49 0 0 4.81z"/>
    <path class="fil0 str0" d="M5.33 40.86l0.92 0c0.45,0 0.81,-0.37 0.81,-0.81l0 -17.62c0,-0.45 -0.37,-0.81 -0.81,-0.81l-0.92 0 -1.11 0 -0.02 0 -2.42 0 0 19.24 3.55 0 0 -0z"/>
    <rect class="fil0 str0" x="0.23" y="0.24" width="1.55" height="42.76"/>
   </g>
   <g id="sofa_0">
    <path class="fil0 str0" d="M62.13 43c-0.47,0 -0.85,-0.41 -0.85,-0.9l0 -19.58c0,-0.5 0.38,-0.9 0.85,-0.9 1.56,0 19.19,-0 20.75,-0l0 21.38c-1.56,0 -19.2,0 -20.75,0z"/>
    <path class="fil0 str0" d="M62.13 21.61c-0.47,0 -0.85,-0.41 -0.85,-0.9l0 -19.58c0,-0.5 0.38,-0.9 0.85,-0.9 1.56,0 19.19,-0 20.75,-0l0 21.38c-1.56,0 -19.2,0 -20.75,0z"/>
    <path class="fil0 str0" d="M82.89 0.24l-9.49 0 -0.86 0 -8.09 0c-0.59,0 -1.07,0.48 -1.07,1.07l0 2.67c0,0.59 0.48,1.07 1.07,1.07l8.09 0 0.86 0 9.49 0 0 -4.81z"/>
    <path class="fil0 str0" d="M79.34 2.37l-0.92 0c-0.45,0 -0.81,0.37 -0.81,0.81l0 17.62c0,0.45 0.37,0.81 0.81,0.81l0.92 0 1.11 0 0.02 0 2.42 0 0 -19.24 -3.55 0 0 0z"/>
    <path class="fil0 str0" d="M82.89 43l-9.49 0 -0.86 0 -8.09 0c-0.59,0 -1.07,-0.48 -1.07,-1.07l0 -2.67c0,-0.59 0.48,-1.07 1.07,-1.07l8.09 0 0.86 0 9.49 0 0 4.81z"/>
    <path class="fil0 str0" d="M79.34 40.86l-0.92 0c-0.45,0 -0.81,-0.37 -0.81,-0.81l0 -17.62c0,-0.45 0.37,-0.81 0.81,-0.81l0.92 0 1.11 0 0.02 0 2.42 0 0 19.24 -3.55 0 0 -0z"/>
    <rect class="fil0 str0" x="82.89" y="0.24" width="1.55" height="42.76"/>
   </g>
  </g>
 </g>
</svg>
