<?xml version="1.0" encoding="UTF-8"?>
<svg xmlns="http://www.w3.org/2000/svg" xml:space="preserve" width="210mm" height="127mm" version="1.1" style="shape-rendering:geometricPrecision; text-rendering:geometricPrecision; image-rendering:optimizeQuality; fill-rule:evenodd; clip-rule:evenodd"
viewBox="0 0 21112.67 12772.42"
 xmlns:xlink="http://www.w3.org/1999/xlink">
 <defs>
  <style type="text/css">
   <![CDATA[
    .fil0 {fill:#ABC2B4;fill-opacity:0.5}
    .fil2 {fill:#D3E38C;fill-opacity:0.5}
    .fil1 {fill:#9ED4B0;fill-opacity:0.5}
   ]]>
  </style>
 </defs>
 <g id="green_waves">
  <metadata id="green_waves"/>
  <path class="fil0" d="M21049.11 12772.42l0 -10504.42c-732.6,0 -1382.77,-2209.29 -3584.04,-429.07 -262.31,212.14 -1115.16,612.97 -1189.88,612.97 -2403.19,0 -2198.86,-3771.51 -4803.58,-1532.42 -689.32,592.55 -2189.76,1471.04 -3040.79,980.76 -1686.56,-971.63 -2510.81,-2183.7 -5112.06,-61.3 -1350.3,1101.73 -3242.51,-1561.02 -3317.22,-1838.93l0 12772.42 21047.57 0z"/>
  <path class="fil1" d="M1.54 3739.14c-56.79,0 1465.86,-1718.93 2626.12,-1634.95 761.42,55.02 2166.08,1357.45 2982.72,1328.45 3216.15,-114.17 2032.43,-2872.91 6057.09,-250.98 1636.89,1066.39 3552.55,-2552.64 5963.28,510.78 596.52,758.02 2336.81,2224.79 3418.37,1251.03l0 7828.93 -21047.57 0 0 -9033.28z"/>
  <path class="fil2" d="M1.54 12772.42l0 -6467.73c142.77,360.31 2427.97,-261.95 3629.87,-1652.44 2867.37,-3317.28 3756.87,1286.57 4879.36,1593.43 1240.86,339.22 2728.67,-3572.8 4052,-2626.24 905.8,647.9 2246.82,1762.91 3309.48,1150.83 375.86,-216.5 1358.76,-501.63 1782.03,-501.63 494.31,0 1367.12,544.19 1718.38,1032.77 531.37,739.1 1059.3,1041.69 1676.45,1475.4l0 5995.6 -21047.57 0z"/>
  <path class="fil0" d="M1.54 12772.42l0 -6467.73c1476.66,450.96 2065.68,845.59 3418.12,1150.89 1817.8,410.35 3316.16,-2555.22 5118.03,-1128.68 1554.15,1230.42 2871.09,698.11 4428.56,-199.18 594.89,-342.71 1531.58,-1830.49 2482.12,-737.7 979.19,1125.72 2431.56,1859 3033.69,1859 950.61,0 1758.91,-354.1 2630.62,-354.1l-63.55 -118.11 0 5995.6 -21047.57 0z"/>
  <path class="fil0" d="M21049.11 10016.74c-857.63,673.28 -2565.33,-2977.21 -3352.18,-2977.21 -587.74,0 -1116.2,326.75 -1671.89,686.95 -1551.44,1005.63 -1802.3,919.49 -3387.49,-447.89 -308,-265.67 -816.43,-641.37 -1315.3,-354.1 -700.74,403.55 -3160.68,2166.95 -3882.28,1947.54 -1136.22,-345.46 -1314.15,-662.76 -2099.11,-1200.3 -660.21,-452.09 -1210.5,-346.11 -1802.01,246.94 -995.51,998.11 -2287.23,1204.17 -3537.3,1204.17l0 3649.58 21047.57 0 0 -2755.68z"/>
  <path class="fil1" d="M1.54 10376.88c663.08,0 1077.41,-1227.53 1649.09,-1424.51 444.47,-153.13 714.56,-167.41 2002.62,863.85 1349.36,1080.36 1902.45,404.67 3983.04,-855.72 1302.91,-789.29 1922.45,2185.93 3749.68,2064.63 1122.55,-74.53 2479.14,-2709.09 3773.62,-2709.09 773.95,0 1488.52,2316.26 2266.55,2465.16 846.83,162.08 1683.44,-2017.27 2472.63,-1319.52 618.65,546.96 332.11,2287.79 1150.34,2529.25l0 781.5 -21047.57 0 0 -2395.53z"/>
 </g>
</svg>
